<svg xmlns="http://www.w3.org/2000/svg" viewBox="0 0 162.88 156.11"><title>Asset 244012442</title><g id="Layer_2" data-name="Layer 2"><g id="Texto"><path d="M51.93,85.66a12.73,12.73,0,0,0,2.85-.37,8,8,0,0,0,3.15-1.57,11.22,11.22,0,0,0,2.78-3.46,10.57,10.57,0,0,0,1.57,2.25,9.58,9.58,0,0,0,3.5,2.41,10.54,10.54,0,0,0,3.89.74,8,8,0,0,0,2.93-.49,7.78,7.78,0,0,0,2.23-1.3,8.28,8.28,0,0,0,1.63-1.82A15.42,15.42,0,0,0,77.64,80,8,8,0,0,0,80,84.15a7.24,7.24,0,0,0,5,1.51,12.58,12.58,0,0,0,2.84-.37A8.07,8.07,0,0,0,91,83.72a11.22,11.22,0,0,0,2.78-3.46,17.47,17.47,0,0,0,1.73-6H92.9a7.09,7.09,0,0,1-1.39,3.9,3.65,3.65,0,0,1-3,1.54,3.17,3.17,0,0,1-2.5-.83c-.47-.56-.71-1.7-.71-3.43v-21H76.4v3a4.14,4.14,0,0,0-1.05-1.76,5.05,5.05,0,0,0-1.48-1,6,6,0,0,0-1.67-.43,15.59,15.59,0,0,0-1.6-.09,9,9,0,0,0-5.47,1.64,12.46,12.46,0,0,0-3.65,4.17,20.16,20.16,0,0,0-2,5.56,28.14,28.14,0,0,0-.65,5.87,23.43,23.43,0,0,0,.53,5.24,6.58,6.58,0,0,1-.87,1.56,3.65,3.65,0,0,1-3,1.54A3.19,3.19,0,0,1,53,78.84c-.47-.56-.71-1.7-.71-3.43V36.61l-8.89,6.67V76.09a11.51,11.51,0,0,0,1.91,7Q47.18,85.67,51.93,85.66ZM68.12,66.48a22.07,22.07,0,0,1,1-4.14,9.5,9.5,0,0,1,1.73-3.15,3.27,3.27,0,0,1,2.57-1.27,2.79,2.79,0,0,1,1.29.28,3.11,3.11,0,0,1,.93.68,3.24,3.24,0,0,1,.56.8,4.25,4.25,0,0,1,.24.65v13.9A6.88,6.88,0,0,1,76,76.61a5.07,5.07,0,0,1-1,1.7,4.09,4.09,0,0,1-1.29,1,3.19,3.19,0,0,1-1.39.34A7.57,7.57,0,0,1,71,79.52a2.79,2.79,0,0,1-1.52-1,7.05,7.05,0,0,1-1.2-2.66,20.33,20.33,0,0,1-.5-5.1A32.57,32.57,0,0,1,68.12,66.48Z" fill="#231f20"/><path d="M92,47.29a1.35,1.35,0,0,1,.74,1.05l-3,4.33a1,1,0,0,0,.56.86,19.37,19.37,0,0,0,5.5-5.13,9.37,9.37,0,0,0,2-5.25,4.23,4.23,0,0,0-1-2.93,3.71,3.71,0,0,0-2.94-1.15,4.42,4.42,0,0,0-3.21,1.27,4.09,4.09,0,0,0-1.3,3.06,3.49,3.49,0,0,0,.77,2.25A7,7,0,0,0,92,47.29Z" fill="#231f20"/><path d="M160.77,109.29a29,29,0,0,1-1.79,2.44,10.9,10.9,0,0,1-2,2,9.09,9.09,0,0,1-2.53,1.33,10,10,0,0,1-3.27.49c-2.23,0-3.78-.58-4.67-1.76s-1.35-3.14-1.39-5.9a16.12,16.12,0,0,0,4.48-.89,12.19,12.19,0,0,0,3.89-2.23,10.76,10.76,0,0,0,2.72-3.55,11.05,11.05,0,0,0,1-4.88,15.14,15.14,0,0,0-.15-1.67,6.25,6.25,0,0,0-.93-2.41,6.54,6.54,0,0,0-2.38-2.16,9.2,9.2,0,0,0-4.57-.93,11.18,11.18,0,0,0-6.43,1.73,12.83,12.83,0,0,0-4,4.32,18.19,18.19,0,0,0-2.07,5.66,29.7,29.7,0,0,0-.59,5.71,25.43,25.43,0,0,0,.19,3.13,27.7,27.7,0,0,1-3.34,2.68V112a30.7,30.7,0,0,0-.25-4.14,40.4,40.4,0,0,0-.86-4.36c-.42-1.66-1-3.74-1.67-6.24s-1.57-5.73-2.6-9.73l-8.89,1.24a61.56,61.56,0,0,1-1.7,9.11,90.81,90.81,0,0,1-3,9.18,3.84,3.84,0,0,0-1.64,1.67,5.82,5.82,0,0,0-.65,2.84c0,.13,0,.27,0,.41a8.12,8.12,0,0,1-.61,1.13,3.83,3.83,0,0,1-3.43,1.61,2.45,2.45,0,0,1-2.23-1,6.47,6.47,0,0,1-.61-3.3v-21H95.9v19.83a6.46,6.46,0,0,1-1.11,3.89A3.34,3.34,0,0,1,92,114.73a2.13,2.13,0,0,1-1.88-1,6.2,6.2,0,0,1-.65-3.3v-21h-8.9v20.11c-.14.67-.3,1.31-.46,1.88a7.43,7.43,0,0,1-.71,1.73,3.15,3.15,0,0,1-1.11,1.15,3.36,3.36,0,0,1-1.73.4A2.58,2.58,0,0,1,74,113.4a9.44,9.44,0,0,1-.65-4q0-.81,0-2c0-.78.06-1.59.1-2.41s.07-1.64.09-2.44,0-1.47,0-2a18.67,18.67,0,0,0-.68-5.41A9.42,9.42,0,0,0,71,91.65a6.87,6.87,0,0,0-2.79-1.88,10,10,0,0,0-3.32-.56,10.55,10.55,0,0,0-2,.19,6.72,6.72,0,0,0-2,.74,7.57,7.57,0,0,0-2,1.6,10,10,0,0,0-1.7,2.72A8,8,0,0,0,54,90.26a8.57,8.57,0,0,0-4.26-1.11,10.1,10.1,0,0,0-3.43.65A6.93,6.93,0,0,0,43,92.67V89.46h-8.9V109.3a7.1,7.1,0,0,1-1.39,3.88,3.68,3.68,0,0,1-3,1.55,3.17,3.17,0,0,1-2.5-.83c-.48-.56-.71-1.7-.71-3.43v-21h-8.9v3a4.28,4.28,0,0,0-1.05-1.76,5.05,5.05,0,0,0-1.48-1,6.13,6.13,0,0,0-1.67-.43,15.62,15.62,0,0,0-1.61-.09,9,9,0,0,0-5.47,1.64A12.55,12.55,0,0,0,2.69,95a20.16,20.16,0,0,0-2,5.56A28.14,28.14,0,0,0,0,106.39a20.64,20.64,0,0,0,1,6.76,12.12,12.12,0,0,0,2.53,4.42A9.47,9.47,0,0,0,7,120a10.63,10.63,0,0,0,3.9.74,8,8,0,0,0,2.93-.49,7.73,7.73,0,0,0,2.22-1.3,8.33,8.33,0,0,0,1.64-1.82A15.42,15.42,0,0,0,18.85,115a8,8,0,0,0,2.38,4.17,7.24,7.24,0,0,0,5,1.51,12.65,12.65,0,0,0,2.84-.37,8,8,0,0,0,3.15-1.57,9.76,9.76,0,0,0,1.92-2.09v3.66H43V100.52a10.23,10.23,0,0,1,1.08-4,2.79,2.79,0,0,1,2.56-1.7,2.17,2.17,0,0,1,1.33.4,2.93,2.93,0,0,1,.83,1,4.53,4.53,0,0,1,.44,1.36A9.9,9.9,0,0,1,49.37,99v21.32h8.9V100.52a10.88,10.88,0,0,1,1-4,2.75,2.75,0,0,1,2.62-1.7,2.63,2.63,0,0,1,2.35,1.58,11.65,11.65,0,0,1,.87,5.28c0,.37,0,.91,0,1.61s0,1.42,0,2.16,0,1.45,0,2.13,0,1.21,0,1.58a14.69,14.69,0,0,0,2.15,8.4q2.14,3.15,6.81,3.15a10.57,10.57,0,0,0,2.87-.4,6,6,0,0,0,2.69-1.64A10.21,10.21,0,0,0,81.36,116a8.72,8.72,0,0,0,1.16,2.13q2,2.59,6.33,2.59a12.82,12.82,0,0,0,2-.18,6.93,6.93,0,0,0,2.23-.81A8.54,8.54,0,0,0,95.28,118a9.39,9.39,0,0,0,1.79-3.12,7.94,7.94,0,0,0,2.32,4.33,7.24,7.24,0,0,0,5,1.54,12.87,12.87,0,0,0,2.91-.37,8,8,0,0,0,3.15-1.57,10.7,10.7,0,0,0,2.46-2.92,9,9,0,0,0,1.43,1.8,10.91,10.91,0,0,0,3.4,2.2,12.22,12.22,0,0,0,4.76.86,14.74,14.74,0,0,0,4.63-.8,8.67,8.67,0,0,0,4-2.72q1.84-1.29,4-3.15a18.37,18.37,0,0,0,1.61-1.58l.15.56a11.55,11.55,0,0,0,2.54,4.39,10,10,0,0,0,3.86,2.5,14.4,14.4,0,0,0,4.88.8,14.1,14.1,0,0,0,5.5-1,13.94,13.94,0,0,0,4.11-2.59,16.05,16.05,0,0,0,3-3.65,31.45,31.45,0,0,0,2.07-4.2Zm-15.16-9.12a20.21,20.21,0,0,1,1-4,9.18,9.18,0,0,1,1.51-2.71,2.5,2.5,0,0,1,1.92-1,2.09,2.09,0,0,1,1.6.9,4.77,4.77,0,0,1,.74,3,9,9,0,0,1-.55,3.2,8.56,8.56,0,0,1-1.55,2.61,8,8,0,0,1-2.35,1.85,7.45,7.45,0,0,1-2.9.82A37.59,37.59,0,0,1,145.61,100.17Zm-128,9.12a6.88,6.88,0,0,1-.37,2.38,5.44,5.44,0,0,1-1,1.7,4,4,0,0,1-1.3,1,3.13,3.13,0,0,1-1.39.34,7.67,7.67,0,0,1-1.36-.15,2.77,2.77,0,0,1-1.51-1,7.13,7.13,0,0,1-1.2-2.66,20.39,20.39,0,0,1-.5-5.1,31,31,0,0,1,.31-4.29,22.07,22.07,0,0,1,1-4.14A9.5,9.5,0,0,1,12,94.25,3.25,3.25,0,0,1,14.58,93a2.8,2.8,0,0,1,1.3.28,3.11,3.11,0,0,1,.93.68,3.19,3.19,0,0,1,.55.8,3.56,3.56,0,0,1,.25.65Zm105,5.59a5,5,0,0,1-3.09,1,4.22,4.22,0,0,1-3.12-1.08,6.57,6.57,0,0,1-1.58-3.24,1.5,1.5,0,0,0,.84.65,3.71,3.71,0,0,0,1,.15,1.89,1.89,0,0,0,1.61-.77,2.85,2.85,0,0,0,.55-1.7,2.52,2.52,0,0,0-.52-1.64,3.43,3.43,0,0,0-1.21-1c.66-2,1.29-3.88,1.89-5.71a55.65,55.65,0,0,0,1.51-5.72c.62,2.31,1.14,4.22,1.57,5.75s.79,2.84,1,4a29.67,29.67,0,0,1,.59,3,20.84,20.84,0,0,1,.19,3A3.89,3.89,0,0,1,122.59,114.88Z" fill="#231f20"/><path d="M57,143.84l-3.19,8,.93.37-.4,1-2-.8,4-10,2,.81-.4,1Z" fill="#231f20"/><path d="M65.27,147.34l-3.07-.86-.51,1.84,3,.83-.31,1.09-3-.84L60.66,152l3.06.87-.3,1.08-4.22-1.19,2.16-7.64,4.21,1.19Z" fill="#231f20"/><path d="M70.62,148.48l-1.06.38a1.69,1.69,0,0,0-.39-.7,1.13,1.13,0,0,0-.62-.29,1.22,1.22,0,0,0-.87.11.86.86,0,0,0-.45.63q-.12.57.66,1.08l.72.47a3.35,3.35,0,0,1,1.2,1.21,2.11,2.11,0,0,1,.17,1.44,2.39,2.39,0,0,1-1.06,1.63,2.49,2.49,0,0,1-1.93.36,2.46,2.46,0,0,1-1.56-.93A2.87,2.87,0,0,1,65,152l1.25,0a2.05,2.05,0,0,0,.09,1,1.37,1.37,0,0,0,1.95.52,1.29,1.29,0,0,0,.54-.86,1.27,1.27,0,0,0,0-.43,1.12,1.12,0,0,0-.13-.39,1.47,1.47,0,0,0-.28-.36,4.92,4.92,0,0,0-.46-.37l-.69-.46A2.21,2.21,0,0,1,66,148.36,1.93,1.93,0,0,1,67,147a2.48,2.48,0,0,1,1.79-.27A2.35,2.35,0,0,1,70.62,148.48Z" fill="#231f20"/><path d="M74,148.84l-.8,6.76L72,155.46l.79-6.76L71,148.49l.13-1.12,4.81.57-.13,1.11Z" fill="#231f20"/><path d="M75.56,155.25a.66.66,0,0,1,.24-.48.71.71,0,0,1,.52-.18.69.69,0,0,1,.49.25.64.64,0,0,1,.17.51.7.7,0,0,1-.24.5.74.74,0,0,1-.52.17.72.72,0,0,1-.49-.24A.68.68,0,0,1,75.56,155.25Z" fill="#231f20"/><path d="M83.31,154.9l3-.09,0,1.12-5.33.18,2.64-3.43c.26-.34.48-.63.65-.88a5.54,5.54,0,0,0,.4-.63,1.77,1.77,0,0,0,.27-.88,1.25,1.25,0,0,0-.43-.91,1.34,1.34,0,0,0-1-.35c-.81,0-1.25.52-1.33,1.47l-1.2,0c.14-1.68,1-2.54,2.45-2.59a2.61,2.61,0,0,1,1.85.63,2.24,2.24,0,0,1,.79,1.68,2.48,2.48,0,0,1-.3,1.28,6.19,6.19,0,0,1-.49.79c-.21.3-.48.66-.81,1.07Z" fill="#231f20"/><path d="M87.15,151.86a4.81,4.81,0,0,1,.52-3.11,2.31,2.31,0,0,1,3.81-.46,4.87,4.87,0,0,1,1.24,3,4.81,4.81,0,0,1-.51,3.16,2.34,2.34,0,0,1-1.78,1.24,2.39,2.39,0,0,1-2-.78A5,5,0,0,1,87.15,151.86Zm1.17-.14a4.78,4.78,0,0,0,.72,2.13,1.33,1.33,0,0,0,1.26.71c.47-.05.82-.38,1.06-1a4.61,4.61,0,0,0,.2-2.19,4.42,4.42,0,0,0-.72-2.09,1.33,1.33,0,0,0-1.26-.71,1.35,1.35,0,0,0-1,1A4.33,4.33,0,0,0,88.32,151.72Z" fill="#231f20"/><path d="M94.25,148l-1.34.26.42-1.22,1.88-.37,1.54,7.78-1.18.23Z" fill="#231f20"/><path d="M99,149.75a2,2,0,0,1-1.29-1.39,2.13,2.13,0,0,1,.2-1.73,2.3,2.3,0,0,1,1.43-1.07,2.24,2.24,0,0,1,1.76.19,2.15,2.15,0,0,1,1.07,1.38,2,2,0,0,1-.4,1.84,1.88,1.88,0,0,1,.93.52,2.19,2.19,0,0,1,.56,1,2.32,2.32,0,0,1-.2,1.85,2.43,2.43,0,0,1-1.52,1.12,2.55,2.55,0,0,1-1.93-.17,2.28,2.28,0,0,1-1.15-1.45A1.9,1.9,0,0,1,99,149.75Zm-.21-1.7a1.18,1.18,0,0,0,.56.74,1.2,1.2,0,0,0,.91.11,1.17,1.17,0,0,0,.71-.56,1.16,1.16,0,0,0,.11-.91,1.11,1.11,0,0,0-.56-.71,1.18,1.18,0,0,0-1.61.45A1.1,1.1,0,0,0,98.74,148.05Zm.8,3.43a1.26,1.26,0,0,0,.61.81,1.31,1.31,0,0,0,1.8-.49,1.32,1.32,0,0,0,.13-1,1.35,1.35,0,0,0-1.63-.92,1.32,1.32,0,0,0-.79.62A1.23,1.23,0,0,0,99.54,151.48Z" fill="#231f20"/><path d="M109.11,151.85l-3.19-8-.93.37-.4-1,2-.81,4,10-2,.8-.4-1Z" fill="#231f20"/><path d="M31.19,29.52l-6.53-7.71,1.16-1a6.7,6.7,0,0,1,1.33-.92,2.36,2.36,0,0,1,1.13-.26,2.69,2.69,0,0,1,1.14.3,2.78,2.78,0,0,1,.95.73,2.41,2.41,0,0,1,.56,1.94,2.41,2.41,0,0,1,1.59-.09,2.77,2.77,0,0,1,1.38.91,2.66,2.66,0,0,1,.65,2.07,2.69,2.69,0,0,1-.41,1.26A6.74,6.74,0,0,1,33,28Zm-2.56-5.38.36-.31a1.79,1.79,0,0,0,.71-1.09,1.46,1.46,0,0,0-.42-1.11,1.36,1.36,0,0,0-1-.56,1.71,1.71,0,0,0-1.14.48l-.41.35Zm2.8,3.3.71-.61a2.29,2.29,0,0,0,.9-1.29,1.42,1.42,0,0,0-.33-1.18,1.44,1.44,0,0,0-1.08-.52,2.61,2.61,0,0,0-1.59.77l-.59.5Z" fill="#231f20"/><path d="M40.15,19.61,36.57,22,37,24.7l-1.36.92L33.77,13.93l10,6.19-1.38.93Zm-1.32-.83-3.17-2,.63,3.73Z" fill="#231f20"/><path d="M42.9,13.81l1.64-5.39,1.81-.94-2,6.16L51,16.44l-1.82.94-5.29-2.32-.14.43L45.7,19.2l-1.36.7-4.64-9,1.35-.7Z" fill="#231f20"/><path d="M53.7,6.12,49.93,7.61l.89,2.25,3.66-1.44L55,9.75,51.35,11.2l1.24,3.14,3.76-1.49.53,1.33-5.19,2.05L48,6.83l5.19-2Z" fill="#231f20"/><path d="M60.07,8.73,64.27,12l-1.79.52L58.56,9.34l-.27.08,1.15,4L58,13.81l-2.81-9.7,1.72-.5a4.49,4.49,0,0,1,3-.08,2.75,2.75,0,0,1,1.56,1.85,2.89,2.89,0,0,1-.08,2A2.77,2.77,0,0,1,60.07,8.73Zm-2.15-.59L58.39,8q2.09-.6,1.62-2.19c-.29-1-1.11-1.3-2.45-.91L57,5.06Z" fill="#231f20"/><path d="M65.72,7.3l-4.33-5L63.12,2l3,3.53,1.51-4.4L69.38.75,67.21,7,68,11.3l-1.5.29Z" fill="#231f20"/><path d="M75,10.32,74.51.23,76,.16a6.54,6.54,0,0,1,1.62.08,2.31,2.31,0,0,1,1,.48,2.64,2.64,0,0,1,.72.92,2.91,2.91,0,0,1,.31,1.17A2.35,2.35,0,0,1,79,4.68a2.46,2.46,0,0,1,1.32.9,2.77,2.77,0,0,1,.55,1.56,2.72,2.72,0,0,1-.74,2,2.91,2.91,0,0,1-1.1.76,6.8,6.8,0,0,1-1.71.27Zm1.24-5.83.47,0A1.79,1.79,0,0,0,78,4a1.48,1.48,0,0,0,.34-1.13,1.39,1.39,0,0,0-.46-1.06,1.67,1.67,0,0,0-1.19-.31l-.54,0Zm.21,4.33.94-.05a2.3,2.3,0,0,0,1.5-.48,1.48,1.48,0,0,0-.09-2.21,2.55,2.55,0,0,0-1.73-.35l-.77,0Z" fill="#231f20"/><path d="M81.83,4.83a5,5,0,0,1,1.81-3.55A5.19,5.19,0,0,1,87.48,0a5.09,5.09,0,0,1,3.59,1.8,5.05,5.05,0,0,1,1.29,3.81A5,5,0,0,1,90.55,9.2a5.22,5.22,0,0,1-3.87,1.26,5.15,5.15,0,0,1-3.41-1.6A4.93,4.93,0,0,1,81.83,4.83ZM83.36,5a3.64,3.64,0,0,0,.93,2.83,3.73,3.73,0,0,0,5.26.35A3.79,3.79,0,0,0,90.83,5.5a3.77,3.77,0,0,0-.89-2.78,3.78,3.78,0,0,0-5.31-.37A3.66,3.66,0,0,0,83.36,5Z" fill="#231f20"/><path d="M96.53,1.3l-1.23,6a3.28,3.28,0,0,0,0,2,2.27,2.27,0,0,0,3.5.72,3.25,3.25,0,0,0,.8-1.77l1.24-6,1.49.31L101,8.87a3.64,3.64,0,0,1-1.5,2.38,3.85,3.85,0,0,1-5.38-1.11,3.63,3.63,0,0,1-.44-2.78L95,1Z" fill="#231f20"/><path d="M107.06,5.43l-2.59,8.27L103,13.25,105.6,5l-2.22-.69.43-1.37,5.88,1.84-.42,1.37Z" fill="#231f20"/><path d="M112.25,5.76l-3.59,9.44-1.42-.54,3.59-9.44Z" fill="#231f20"/><path d="M119.33,20.38l-1.72-.85-.35-1.08a5.1,5.1,0,0,1-2.88-.52,5.26,5.26,0,0,1-2.59-2.8A4.9,4.9,0,0,1,112,11a5,5,0,0,1,3.13-2.7,5.12,5.12,0,0,1,4,.3,5.18,5.18,0,0,1,2.52,2.69,5.09,5.09,0,0,1-.16,4.45,4.94,4.94,0,0,1-2.84,2.49Zm-1.91-5.61.67,2a3.46,3.46,0,0,0,2-1.81A3.74,3.74,0,0,0,120.3,12a3.59,3.59,0,0,0-1.91-2.17,3.51,3.51,0,0,0-2.88-.2,3.78,3.78,0,0,0-2.17,2,3.53,3.53,0,0,0-.22,2.88,3.72,3.72,0,0,0,3.65,2.5l-1.11-3.12Z" fill="#231f20"/><path d="M127,13.19l-3.4,5a3.38,3.38,0,0,0-.71,1.81,2.28,2.28,0,0,0,3,2,3.36,3.36,0,0,0,1.41-1.35l3.41-5,1.26.85-3.64,5.39A3.61,3.61,0,0,1,126,23.54,3.7,3.7,0,0,1,123,23a3.68,3.68,0,0,1-1-5.23l3.64-5.39Z" fill="#231f20"/><path d="M137.29,22.83l-3.1-2.6-1.56,1.86,3,2.53-.92,1.09-3-2.52-2.17,2.58,3.1,2.6-.92,1.1-4.27-3.58,6.5-7.74,4.26,3.59Z" fill="#231f20"/></g></g></svg>