<svg xmlns="http://www.w3.org/2000/svg" viewBox="0 0 127.57 36.18"><title>Asset 181012442</title><g id="Layer_2" data-name="Layer 2"><g id="Texto"><path d="M6.62,7.61S17.32,4,20.46,6.75c0,0,6.92,7.76-4.61,15.94,0,0-13.42,3.88-14.68-9.47,0,0-4,10.55,9.44,12.49,0,0,9.43.64,14.26-10.77l1.46-.43s0,4.32,3.66,2.83c.17-.07.35-.15.54-.25a8,8,0,0,0,5.24-7.54h2.31l-1.26,5.17L36.61,16l5.66-5.81v5.39s2.31,1.5,2.1-3.67c0,0,3.77-7.32-3.57-1.94V7.83H35.14s-6.08-1.08-8.81,4.09l-.21.65-.83-.22s3.14-7.32-6.93-9c0,0-10.48.86-11.74,4.3" fill="#231f20"/><path d="M6.62,7.61S17.32,4,20.46,6.75c0,0,6.92,7.76-4.61,15.94,0,0-13.42,3.88-14.68-9.47,0,0-4,10.55,9.44,12.49,0,0,9.43.64,14.26-10.77l1.46-.43s0,4.32,3.66,2.83c.17-.07.35-.15.54-.25a8,8,0,0,0,5.24-7.54h2.31l-1.26,5.17L36.61,16l5.66-5.81v5.39s2.31,1.5,2.1-3.67c0,0,3.77-7.32-3.57-1.94V7.83H35.14s-6.08-1.08-8.81,4.09l-.21.65-.83-.22s3.14-7.32-6.93-9C18.36,3.31,7.88,4.17,6.62,7.61Z" fill="none" stroke="#231f20" stroke-width="1.23"/><polygon points="13.96 8.05 11.65 16.45 14.8 14.29 16.06 7.83 13.96 8.05" fill="#231f20"/><polygon points="13.96 8.05 11.65 16.45 14.8 14.29 16.06 7.83 13.96 8.05" fill="none" stroke="#231f20" stroke-width="1.23"/><path d="M31.37,9.55S27,10,27.8,14.94c0,0,.63,2.58,4,.21,0,0,4.19-5.6-.42-5.6" fill="#fff"/><path d="M31.37,9.55S27,10,27.8,14.94c0,0,.63,2.58,4,.21C31.79,15.15,36,9.55,31.37,9.55Z" fill="none" stroke="#231f20" stroke-width="1.23"/><polygon points="59.01 4.88 56.87 6.35 54.19 16.08 57.05 14.43 59.01 4.88" fill="#231f20"/><polygon points="59.01 4.88 56.87 6.35 54.19 16.08 57.05 14.43 59.01 4.88" fill="none" stroke="#231f20" stroke-width="1.23"/><path d="M55.62,3.41A15,15,0,0,1,68.31,1.76s4.3,5-5.18,8.26v14.7s-.54,7.53,6.44,9.18c0,0,3,1.84-2.15,1.65,0,0-7.69-.55-7-14.14V10.57s8.77-4,6.26-6.24c0,0-.71-4.23-11.08-.92" fill="#231f20"/><path d="M55.62,3.41A15,15,0,0,1,68.31,1.76s4.3,5-5.18,8.26v14.7s-.54,7.53,6.44,9.18c0,0,3,1.84-2.15,1.65,0,0-7.69-.55-7-14.14V10.57s8.77-4,6.26-6.24C66.7,4.33,66,.1,55.62,3.41Z" fill="none" stroke="#231f20" stroke-width="1.23"/><path d="M72.07,6.72s-5.19,5.69-3.58,10.47c0,0-.18,3.67,5.72-4.78,0,0,1.61-2.2.9,1.47,0,0-2.15,5.69,2.68-.37l3.94-3.12-.18,4.77v.92L87.63,10l-.54,4.59-.18.92L93.17,10l-.89,5.7s-.18.91,4.47-2.58c0,0,1.07-1.83,1.25.92,0,0,.89,3.68,6.62-.36a7.56,7.56,0,0,0,3.75-6.25s4.83-1.47,3.22,2c0,0-4.65,10.1.89,3.67L117,8.55s2.15-.92-.35,4.41c0,0,0,4.41,8.58.55,0,0,5-5.69-1.79-.73,0,0-5,3.3-3.4-3.12,0,0,3.4-6.62-1.6-3.13a10.72,10.72,0,0,1-3.76,1.84c-2.5.73.36-.55.36-.55s1.07-3.49-2.51-1.65a9.17,9.17,0,0,1-5.54-.92s-2.5-.74-5.72,1.83c0,0-6.44,9.19-5.72,2.39,0,0,3.33-4.62-2.55-1l-.67.42s-4.65,5.33-2.15-1.47a10.51,10.51,0,0,0-5.36,2.76V7.45a10.18,10.18,0,0,0-6.08,3.31l.89-3.86S74,6.35,72.07,6.72" fill="#231f20"/><path d="M72.07,6.72s-5.19,5.69-3.58,10.47c0,0-.18,3.67,5.72-4.78,0,0,1.61-2.2.9,1.47,0,0-2.15,5.69,2.68-.37l3.94-3.12-.18,4.77v.92L87.63,10l-.54,4.59-.18.92L93.17,10l-.89,5.7s-.18.91,4.47-2.58c0,0,1.07-1.83,1.25.92,0,0,.89,3.68,6.62-.36a7.56,7.56,0,0,0,3.75-6.25s4.83-1.47,3.22,2c0,0-4.65,10.1.89,3.67L117,8.55s2.15-.92-.35,4.41c0,0,0,4.41,8.58.55,0,0,5-5.69-1.79-.73,0,0-5,3.3-3.4-3.12,0,0,3.4-6.62-1.6-3.13a10.72,10.72,0,0,1-3.76,1.84c-2.5.73.36-.55.36-.55s1.07-3.49-2.51-1.65a9.17,9.17,0,0,1-5.54-.92s-2.5-.74-5.72,1.83c0,0-6.44,9.19-5.72,2.39,0,0,3.33-4.62-2.55-1l-.67.42s-4.65,5.33-2.15-1.47a10.51,10.51,0,0,0-5.36,2.76V7.45a10.18,10.18,0,0,0-6.08,3.31l.89-3.86S74,6.35,72.07,6.72Z" fill="none" stroke="#231f20" stroke-width="1.23"/><path d="M72.61,8.74s-3.4,3.12-2.69,5.32c0,0,.9-.18,3.94-2.94,0,0,3.57-2.93-1.25-2.38" fill="#fff"/><path d="M72.61,8.74s-3.4,3.12-2.69,5.32c0,0,.9-.18,3.94-2.94C73.86,11.12,77.43,8.19,72.61,8.74Z" fill="none" stroke="#231f20" stroke-width="1.23"/><path d="M104.08,7.08A6.3,6.3,0,0,0,100,12.41s-.54,3.49,4.29.18c0,0,2.86-5.14-.18-5.51" fill="#fff"/><path d="M104.08,7.08A6.3,6.3,0,0,0,100,12.41s-.54,3.49,4.29.18C104.26,12.59,107.12,7.45,104.08,7.08Z" fill="none" stroke="#231f20" stroke-width="1.23"/><path d="M60,24.66s-33.86,2.69-37.44,5.87l.24,2S46.38,26.86,60,26.86Z" fill="#231f20"/><path d="M60,24.66s-33.86,2.69-37.44,5.87l.24,2S46.38,26.86,60,26.86Z" fill="none" stroke="#231f20" stroke-width="1.23"/><path d="M63.13,24.72s34.75-.55,50.49,5.57c0,0,2.62,2-1.2,2.2,0,0-19.55-5.39-49.11-5.88l-.48-2.44" fill="#231f20"/><path d="M63.13,24.72s34.75-.55,50.49,5.57c0,0,2.62,2-1.2,2.2,0,0-19.55-5.39-49.11-5.88l-.48-2.44" fill="none" stroke="#231f20" stroke-width="1.23"/><polygon points="106.08 4.19 109.75 1 110.26 2.12 107.22 4.51 106.08 4.19" fill="#231f20"/><polygon points="106.08 4.19 109.75 1 110.26 2.12 107.22 4.51 106.08 4.19" fill="none" stroke="#231f20" stroke-width="1.23"/></g></g></svg>