<svg xmlns="http://www.w3.org/2000/svg" viewBox="0 0 125 29.92"><title>Asset 178012442</title><g id="Layer_2" data-name="Layer 2"><g id="Texto"><path d="M50.3,29.84a21.6,21.6,0,0,0,9.6-2c4.92-2.48,7.93-6.43,8.32-12s-2-9.69-6.46-12.72C55.66-1,44.82-1,38.64,3.05a14,14,0,0,0-.19,23.64C42,29.08,46,29.77,50.3,29.84M30.14.13a6.76,6.76,0,0,0-5.12,1C18.77,5.67,12.4,10,6.07,14.4c-1.26.87-2.53,1.73-4,2.7V.1H0V29.81H2.12V28.66c0-2.72,0-5.44,0-8.17a1.72,1.72,0,0,1,.49-1.24C5.3,17.34,8,15.49,10.76,13.58l.94.85C16.81,19.14,22,23.8,27,28.61c1.33,1.27,2.67,1.35,4.44,1.17L12.52,12.35,30.14.13m72.52,29.63c-.09-.22-.15-.43-.25-.62Q95,15.07,87.57,1C87.1.07,86.48.05,85.66,0A1.57,1.57,0,0,0,84,1Q76.85,14.67,69.64,28.28c-.25.48-.48,1-.7,1.43,1.77.59,2.67-.12,3.38-1.67,1.09-2.4,2.43-4.69,3.62-7a1.25,1.25,0,0,1,1.31-.8q8.5,0,17,0a1.4,1.4,0,0,1,1.46.93c1.19,2.36,2.43,4.69,3.65,7,1,1.88,1,1.89,3.29,1.6m2.75-9.83h-2a8,8,0,0,0,5.3,9,16.94,16.94,0,0,0,7.38.79C122,29.18,125,25.93,125,20q0-9.36,0-18.71V.11H122.8V1.54c0,4.68,0,9.37,0,14.05,0,2,0,4.09-.08,6.12a6.25,6.25,0,0,1-5.25,6.12,14.62,14.62,0,0,1-6.74-.06,6.39,6.39,0,0,1-5.16-5.87c-.08-.63-.1-1.27-.16-2" fill="#fff"/><path d="M50.3,29.84C46,29.77,42,29.08,38.45,26.69a14,14,0,0,1,.19-23.64C44.82-1,55.66-1,61.76,3.12c4.44,3,6.85,7.28,6.46,12.72s-3.4,9.5-8.32,12a21.6,21.6,0,0,1-9.6,2m-.17-1.59.08.31a55,55,0,0,0,7.23-1.68c4.59-1.7,7.65-5,8.49-9.92a11.88,11.88,0,0,0-4.49-11.7C55.82.63,45.65.39,39.72,4.61a12.36,12.36,0,0,0-.45,20.31c3.19,2.47,6.92,3.27,10.86,3.33" fill="#231f20"/><path d="M30.14.13,12.52,12.35,31.43,29.78c-1.77.18-3.11.1-4.44-1.17C22,23.8,16.81,19.14,11.7,14.43l-.94-.85C8,15.49,5.3,17.34,2.63,19.25a1.72,1.72,0,0,0-.49,1.24c-.05,2.72,0,5.45,0,8.17V29.8H0V.1H2.11v17c1.43-1,2.7-1.83,4-2.7C12.4,10,18.76,5.67,25,1.17a6.76,6.76,0,0,1,5.12-1" fill="#231f20"/><path d="M102.66,29.76c-2.31.29-2.31.28-3.29-1.6-1.22-2.35-2.46-4.68-3.65-7a1.4,1.4,0,0,0-1.46-.93q-8.51,0-17,0a1.25,1.25,0,0,0-1.31.8c-1.19,2.36-2.53,4.65-3.62,7.05-.71,1.55-1.61,2.27-3.38,1.67.22-.45.45-.95.7-1.43Q76.84,14.66,84,1a1.57,1.57,0,0,1,1.65-1c.83,0,1.44.06,1.91,1q7.37,14.1,14.84,28.16c.1.19.16.4.25.62M85.8,2.22c-2.9,5.52-5.7,10.87-8.54,16.29H94.34L85.8,2.22" fill="#231f20"/><path d="M105.41,19.93c.06.7.08,1.34.16,2a6.39,6.39,0,0,0,5.16,5.87,14.62,14.62,0,0,0,6.74.06,6.25,6.25,0,0,0,5.25-6.12c.12-2,.08-4.08.08-6.12,0-4.68,0-9.37,0-14V.11H125V1.28q0,9.36,0,18.71c0,5.94-3,9.19-8.9,9.73a16.94,16.94,0,0,1-7.38-.79,8,8,0,0,1-5.3-9Z" fill="#231f20"/><path d="M50.13,28.25c-3.94-.06-7.67-.86-10.86-3.33a12.36,12.36,0,0,1,.45-20.31c5.93-4.22,16.1-4,21.72.65A11.88,11.88,0,0,1,65.93,17c-.84,4.94-3.9,8.22-8.49,9.92a55,55,0,0,1-7.23,1.68Z" fill="#fff"/><path d="M85.8,2.22l8.54,16.29H77.26C80.1,13.09,82.9,7.74,85.8,2.22" fill="#fff"/></g></g></svg>