<svg xmlns="http://www.w3.org/2000/svg" viewBox="0 0 68.5 65.65"><title>Asset 176012442</title><g id="Layer_2" data-name="Layer 2"><g id="Texto"><path d="M21.84,36a5.68,5.68,0,0,0,1.2-.16,3.28,3.28,0,0,0,1.32-.66,4.69,4.69,0,0,0,1.17-1.46,4,4,0,0,0,.66,1,3.92,3.92,0,0,0,1.47,1A4.47,4.47,0,0,0,29.3,36a3.3,3.3,0,0,0,1.23-.21,3.23,3.23,0,0,0,.94-.55,3.55,3.55,0,0,0,.69-.76,7.63,7.63,0,0,0,.49-.87,3.41,3.41,0,0,0,1,1.75,3.07,3.07,0,0,0,2.09.64,5.68,5.68,0,0,0,1.2-.16,3.28,3.28,0,0,0,1.32-.66,4.53,4.53,0,0,0,1.17-1.46,7.19,7.19,0,0,0,.73-2.53H39.07a3,3,0,0,1-.59,1.64,1.53,1.53,0,0,1-1.26.65,1.3,1.3,0,0,1-1-.36,2.36,2.36,0,0,1-.3-1.44V22.88H32.13v1.24a1.8,1.8,0,0,0-.44-.74,2,2,0,0,0-.62-.41,2.18,2.18,0,0,0-.71-.18,5.33,5.33,0,0,0-.67,0,3.8,3.8,0,0,0-2.3.69,5.18,5.18,0,0,0-1.53,1.75A8.49,8.49,0,0,0,25,27.53,11.89,11.89,0,0,0,24.73,30,9.69,9.69,0,0,0,25,32.2a3,3,0,0,1-.37.66,1.56,1.56,0,0,1-1.26.65,1.3,1.3,0,0,1-1.05-.36,2.36,2.36,0,0,1-.3-1.44V15.4l-3.74,2.8V32a4.88,4.88,0,0,0,.8,2.92A3.26,3.26,0,0,0,21.84,36ZM28.65,28a9.47,9.47,0,0,1,.4-1.74,4.13,4.13,0,0,1,.73-1.33,1.38,1.38,0,0,1,1.08-.53,1.13,1.13,0,0,1,.54.12,1.15,1.15,0,0,1,.39.28,1.18,1.18,0,0,1,.24.34,1.91,1.91,0,0,1,.1.27v5.85a3,3,0,0,1-.15,1,2.32,2.32,0,0,1-.41.71,1.56,1.56,0,0,1-.54.43,1.32,1.32,0,0,1-.59.15,3.63,3.63,0,0,1-.57-.07,1.12,1.12,0,0,1-.64-.42,2.89,2.89,0,0,1-.5-1.11,8.55,8.55,0,0,1-.21-2.15A12.71,12.71,0,0,1,28.65,28Z" fill="#231f20"/><path d="M38.71,19.89c.21.14.31.28.31.44l-1.27,1.82a.38.38,0,0,0,.23.36,8.16,8.16,0,0,0,2.31-2.15,3.93,3.93,0,0,0,.83-2.21,1.83,1.83,0,0,0-.42-1.24,1.58,1.58,0,0,0-1.24-.48,1.83,1.83,0,0,0-1.35.54,1.73,1.73,0,0,0-.55,1.28,1.45,1.45,0,0,0,.33.95A2.92,2.92,0,0,0,38.71,19.89Z" fill="#231f20"/><path d="M67.61,46a11.87,11.87,0,0,1-.75,1,4.8,4.8,0,0,1-.86.83,4,4,0,0,1-1.06.56,4.17,4.17,0,0,1-1.38.21,2.31,2.31,0,0,1-2-.74A4.37,4.37,0,0,1,61,45.37,6.9,6.9,0,0,0,62.9,45a5.08,5.08,0,0,0,1.63-.94,4.48,4.48,0,0,0,1.15-1.49,4.72,4.72,0,0,0,.43-2.05c0-.14,0-.38-.07-.71a2.51,2.51,0,0,0-.39-1,2.7,2.7,0,0,0-1-.91,3.88,3.88,0,0,0-1.92-.39,4.65,4.65,0,0,0-2.7.73A5.35,5.35,0,0,0,58.34,40a7.46,7.46,0,0,0-.87,2.38,12.24,12.24,0,0,0-.25,2.4,10.89,10.89,0,0,0,.08,1.32,11.57,11.57,0,0,1-1.41,1.12v-.15a13.17,13.17,0,0,0-.1-1.74,18.33,18.33,0,0,0-.36-1.84c-.18-.7-.41-1.57-.7-2.62s-.66-2.41-1.1-4.09l-3.74.52a25.52,25.52,0,0,1-.71,3.83A38.51,38.51,0,0,1,47.92,45a1.61,1.61,0,0,0-.69.7A2.46,2.46,0,0,0,47,46.92a1.09,1.09,0,0,0,0,.18,3.54,3.54,0,0,1-.26.47,1.61,1.61,0,0,1-1.44.68,1,1,0,0,1-.94-.4,2.74,2.74,0,0,1-.26-1.39V37.62H40.33V46a2.74,2.74,0,0,1-.47,1.64,1.4,1.4,0,0,1-1.17.65.89.89,0,0,1-.79-.4,2.62,2.62,0,0,1-.27-1.39V37.62H33.89v8.46c-.07.28-.13.55-.2.79a3.27,3.27,0,0,1-.3.73,1.28,1.28,0,0,1-.47.48,1.42,1.42,0,0,1-.72.17,1.08,1.08,0,0,1-1.08-.56A4,4,0,0,1,30.84,46c0-.22,0-.5,0-.83s0-.66,0-1,0-.69,0-1,0-.62,0-.84A7.86,7.86,0,0,0,30.66,40a3.93,3.93,0,0,0-.79-1.48,2.9,2.9,0,0,0-1.18-.79,4.31,4.31,0,0,0-1.39-.23,3.93,3.93,0,0,0-.82.08,2.76,2.76,0,0,0-.87.31,3.3,3.3,0,0,0-.83.67,4.36,4.36,0,0,0-.72,1.15A3.27,3.27,0,0,0,22.71,38a3.6,3.6,0,0,0-1.79-.47,4.34,4.34,0,0,0-1.44.27A3,3,0,0,0,18.09,39V37.62H14.34V46a2.93,2.93,0,0,1-.58,1.63,1.56,1.56,0,0,1-1.26.65,1.34,1.34,0,0,1-1.05-.35,2.4,2.4,0,0,1-.3-1.44V37.62H7.41v1.25A1.86,1.86,0,0,0,7,38.13a2.12,2.12,0,0,0-.62-.42,2.77,2.77,0,0,0-.7-.18,5.49,5.49,0,0,0-.68,0,3.82,3.82,0,0,0-2.3.69,5.28,5.28,0,0,0-1.53,1.75,8.49,8.49,0,0,0-.86,2.34A11.89,11.89,0,0,0,0,44.74a8.7,8.7,0,0,0,.4,2.85,5.07,5.07,0,0,0,1.07,1.85,4,4,0,0,0,1.47,1,4.41,4.41,0,0,0,1.63.31,3.39,3.39,0,0,0,1.24-.21A3.54,3.54,0,0,0,6.74,50a3.6,3.6,0,0,0,.69-.77,7.75,7.75,0,0,0,.5-.87,3.37,3.37,0,0,0,1,1.75,3,3,0,0,0,2.09.64,5.08,5.08,0,0,0,1.19-.16A3.32,3.32,0,0,0,13.54,50a4,4,0,0,0,.8-.87v1.53h3.75V42.27a4.34,4.34,0,0,1,.45-1.7,1.16,1.16,0,0,1,1.08-.71.93.93,0,0,1,.56.16,1.57,1.57,0,0,1,.35.42,1.73,1.73,0,0,1,.18.57,4.72,4.72,0,0,1,.05.64v9H24.5V42.27a4.81,4.81,0,0,1,.43-1.67A1.17,1.17,0,0,1,26,39.88a1.12,1.12,0,0,1,1,.66,5,5,0,0,1,.36,2.23c0,.15,0,.38,0,.67s0,.6,0,.91,0,.61,0,.9,0,.5,0,.66a6.18,6.18,0,0,0,.9,3.53,3.21,3.21,0,0,0,2.86,1.33,4.59,4.59,0,0,0,1.21-.17,2.46,2.46,0,0,0,1.13-.69,4.46,4.46,0,0,0,.78-1.13,3.87,3.87,0,0,0,.48.9,3.12,3.12,0,0,0,2.67,1.09,5.38,5.38,0,0,0,.85-.08,2.67,2.67,0,0,0,.94-.34,3.57,3.57,0,0,0,.91-.74,3.86,3.86,0,0,0,.75-1.31,3.38,3.38,0,0,0,1,1.82,3.06,3.06,0,0,0,2.12.65,5.18,5.18,0,0,0,1.22-.16A3.28,3.28,0,0,0,46.46,50a4.47,4.47,0,0,0,1-1.23,3.58,3.58,0,0,0,.6.76,4.6,4.6,0,0,0,1.43.93,5.14,5.14,0,0,0,2,.36,6.07,6.07,0,0,0,1.95-.34,3.64,3.64,0,0,0,1.69-1.14c.52-.36,1.08-.81,1.69-1.33a6.92,6.92,0,0,0,.67-.66,2.17,2.17,0,0,0,.07.24,4.8,4.8,0,0,0,1.06,1.84,4.09,4.09,0,0,0,1.63,1,6.46,6.46,0,0,0,4.36-.08,5.78,5.78,0,0,0,1.73-1.09,6.81,6.81,0,0,0,1.25-1.53A14.51,14.51,0,0,0,68.5,46Zm-6.38-3.83a8.9,8.9,0,0,1,.45-1.67,4.06,4.06,0,0,1,.63-1.14,1.08,1.08,0,0,1,.81-.43.87.87,0,0,1,.67.38,2,2,0,0,1,.32,1.28,3.67,3.67,0,0,1-.24,1.34,3.37,3.37,0,0,1-.65,1.1A3.28,3.28,0,0,1,61,44.12,17.55,17.55,0,0,1,61.23,42.13ZM7.41,46a3,3,0,0,1-.16,1,2.25,2.25,0,0,1-.4.72,1.83,1.83,0,0,1-.55.43,1.41,1.41,0,0,1-.58.14,2.59,2.59,0,0,1-.57-.07,1.12,1.12,0,0,1-.64-.41A2.93,2.93,0,0,1,4,46.65a8.46,8.46,0,0,1-.21-2.14,14.54,14.54,0,0,1,.13-1.81A8.87,8.87,0,0,1,4.33,41a4,4,0,0,1,.72-1.32,1.39,1.39,0,0,1,1.08-.54,1.2,1.2,0,0,1,.55.12,1.42,1.42,0,0,1,.39.29,1.32,1.32,0,0,1,.23.33c0,.12.09.21.11.28Zm44.15,2.35a2.14,2.14,0,0,1-1.3.41,1.77,1.77,0,0,1-1.32-.46,2.8,2.8,0,0,1-.66-1.36.58.58,0,0,0,.35.27,1.68,1.68,0,0,0,.43.07.78.78,0,0,0,.68-.33A1.23,1.23,0,0,0,50,46.2a1,1,0,0,0-.22-.69,1.37,1.37,0,0,0-.51-.4c.28-.84.54-1.64.8-2.41a22.17,22.17,0,0,0,.63-2.4c.26,1,.48,1.77.66,2.41s.33,1.2.45,1.67.19.89.24,1.26a8,8,0,0,1,.08,1.26A1.64,1.64,0,0,1,51.56,48.31Z" fill="#231f20"/><path d="M24,60.49l-1.34,3.37L23,64l-.17.42L22,64.1l1.68-4.21.85.34-.17.42Z" fill="#231f20"/><path d="M27.45,62l-1.29-.37-.22.77,1.25.36-.13.45-1.25-.35-.3,1.07,1.29.37-.13.45-1.77-.5L25.8,61l1.78.5Z" fill="#231f20"/><path d="M29.7,62.44l-.45.16a.69.69,0,0,0-.16-.29.49.49,0,0,0-.26-.12.51.51,0,0,0-.37,0,.38.38,0,0,0-.19.27c0,.16.06.31.28.45l.3.2a1.37,1.37,0,0,1,.51.51.87.87,0,0,1,.07.6A1,1,0,0,1,29,65a1,1,0,0,1-.81.15,1,1,0,0,1-.65-.39,1.14,1.14,0,0,1-.2-.78h.52a.81.81,0,0,0,0,.42.53.53,0,0,0,.4.3.51.51,0,0,0,.42-.08.53.53,0,0,0,.23-.36.54.54,0,0,0,0-.18.3.3,0,0,0-.05-.16.83.83,0,0,0-.12-.16,1.57,1.57,0,0,0-.19-.15l-.29-.19a.94.94,0,0,1-.51-1,.82.82,0,0,1,.4-.56,1,1,0,0,1,.75-.11A1,1,0,0,1,29.7,62.44Z" fill="#231f20"/><path d="M31.12,62.59l-.33,2.85-.5-.06.33-2.84-.76-.09.05-.47,2,.23-.06.47Z" fill="#231f20"/><path d="M31.78,65.29a.26.26,0,0,1,.1-.2A.29.29,0,0,1,32.1,65a.27.27,0,0,1,.2.11.28.28,0,0,1,.08.21.31.31,0,0,1-.11.21.28.28,0,0,1-.22.07.26.26,0,0,1-.2-.1A.25.25,0,0,1,31.78,65.29Z" fill="#231f20"/><path d="M35,65.15l1.24-.05,0,.48-2.24.07,1.11-1.44c.11-.14.2-.27.27-.37l.17-.26a.76.76,0,0,0,.11-.37.52.52,0,0,0-.18-.39.54.54,0,0,0-.41-.14c-.34,0-.52.21-.56.61l-.5,0c.06-.7.4-1.07,1-1.09a1.13,1.13,0,0,1,.78.26,1,1,0,0,1,.33.71,1.07,1.07,0,0,1-.13.54,2.23,2.23,0,0,1-.2.33c-.09.13-.21.28-.34.45Z" fill="#231f20"/><path d="M36.65,63.86a2,2,0,0,1,.22-1.3,1,1,0,0,1,.75-.53,1,1,0,0,1,.85.33A2,2,0,0,1,39,63.61a2,2,0,0,1-.21,1.32,1,1,0,0,1-.75.53,1,1,0,0,1-.85-.33A2.1,2.1,0,0,1,36.65,63.86Zm.49,0a2,2,0,0,0,.31.89A.55.55,0,0,0,38,65c.19,0,.34-.16.44-.42a1.92,1.92,0,0,0,.09-.92,2,2,0,0,0-.31-.88.54.54,0,0,0-.53-.29.56.56,0,0,0-.44.41A1.87,1.87,0,0,0,37.14,63.81Z" fill="#231f20"/><path d="M39.64,62.25l-.57.11.18-.51.79-.16L40.69,65l-.5.1Z" fill="#231f20"/><path d="M41.61,63a.84.84,0,0,1-.54-.59.93.93,0,0,1,.09-.73,1,1,0,0,1,1.34-.37.92.92,0,0,1,.44.59.81.81,0,0,1-.16.77.76.76,0,0,1,.39.22,1,1,0,0,1,.15,1.2,1,1,0,0,1-.64.47,1.07,1.07,0,0,1-.81-.07,1,1,0,0,1-.48-.61A.8.8,0,0,1,41.61,63Zm-.08-.72a.46.46,0,0,0,.23.31.46.46,0,0,0,.38,0,.51.51,0,0,0,.3-.24.46.46,0,0,0,.05-.38.51.51,0,0,0-.24-.3.5.5,0,0,0-.38,0,.46.46,0,0,0-.3.23A.48.48,0,0,0,41.53,62.26Zm.33,1.45a.59.59,0,0,0,.26.34.57.57,0,0,0,.76-.21.57.57,0,0,0,0-.42.56.56,0,0,0-.26-.34.57.57,0,0,0-.42,0,.55.55,0,0,0-.39.68Z" fill="#231f20"/><path d="M45.88,63.86l-1.34-3.37-.39.16L44,60.23l.85-.34,1.68,4.21-.85.34L45.49,64Z" fill="#231f20"/><path d="M13.12,12.42,10.37,9.17l.49-.41a3.21,3.21,0,0,1,.56-.39,1.19,1.19,0,0,1,.47-.11,1.23,1.23,0,0,1,.48.13,1.13,1.13,0,0,1,.4.31,1,1,0,0,1,.24.81,1,1,0,0,1,.66,0,1.12,1.12,0,0,1,.59.38,1.14,1.14,0,0,1,.27.87,1.18,1.18,0,0,1-.17.53,3,3,0,0,1-.5.53ZM12,10.15l.15-.13a.77.77,0,0,0,.3-.46.61.61,0,0,0-.17-.46.61.61,0,0,0-.43-.24.76.76,0,0,0-.48.2l-.17.15Zm1.18,1.39.3-.26a1,1,0,0,0,.38-.54.62.62,0,0,0-.6-.71,1.09,1.09,0,0,0-.67.32l-.24.21Z" fill="#231f20"/><path d="M16.88,8.25l-1.5,1,.18,1.12-.57.38L14.2,5.86l4.21,2.6-.58.39Zm-.55-.35L15,7.05l.26,1.57Z" fill="#231f20"/><path d="M18,5.81l.69-2.27.76-.39-.82,2.59,2.79,1.17-.77.4-2.22-1-.06.18.81,1.56-.57.3-2-3.77.57-.3Z" fill="#231f20"/><path d="M22.58,2.57,21,3.2l.37,1,1.54-.61.22.56-1.54.61L22.12,6,23.7,5.4l.22.56-2.18.86L20.18,2.87,22.36,2Z" fill="#231f20"/><path d="M25.26,3.67,27,5l-.75.22L24.63,3.93l-.11,0L25,5.63l-.62.18L23.2,1.73l.72-.21a1.82,1.82,0,0,1,1.26,0,1.12,1.12,0,0,1,.65.77,1.15,1.15,0,0,1,0,.82A1.11,1.11,0,0,1,25.26,3.67Zm-.9-.25.2,0c.58-.17.81-.48.68-.92s-.47-.55-1-.38L24,2.13Z" fill="#231f20"/><path d="M27.64,3.07,25.82,1l.72-.14,1.28,1.49L28.45.46l.73-.14L28.27,3l.34,1.8L28,4.87Z" fill="#231f20"/><path d="M31.54,4.34,31.34.1l.63,0a2.44,2.44,0,0,1,.69,0,.94.94,0,0,1,.44.2,1.19,1.19,0,0,1,.3.39,1.23,1.23,0,0,1,.13.49,1,1,0,0,1-.31.79,1,1,0,0,1,.55.38A1,1,0,0,1,34,3a1.1,1.1,0,0,1-.31.86,1.13,1.13,0,0,1-.46.32,2.73,2.73,0,0,1-.72.11Zm.53-2.45h.2a.68.68,0,0,0,.51-.19.55.55,0,0,0,.14-.47.56.56,0,0,0-.19-.45.75.75,0,0,0-.5-.13H32Zm.08,1.82.4,0a1,1,0,0,0,.63-.2A.58.58,0,0,0,33.37,3a.59.59,0,0,0-.23-.45,1,1,0,0,0-.72-.15h-.33Z" fill="#231f20"/><path d="M34.41,2A2.07,2.07,0,0,1,35.18.54,2.11,2.11,0,0,1,36.79,0,2.12,2.12,0,0,1,38.3.76a2.15,2.15,0,0,1,.54,1.6,2.1,2.1,0,0,1-.76,1.51A2.24,2.24,0,0,1,35,3.73,2.13,2.13,0,0,1,34.41,2Zm.65.05a1.52,1.52,0,0,0,.39,1.19,1.49,1.49,0,0,0,1,.53,1.57,1.57,0,0,0,1.7-1.49,1.54,1.54,0,0,0-.38-1.16A1.59,1.59,0,0,0,35.59,1,1.54,1.54,0,0,0,35.06,2.08Z" fill="#231f20"/><path d="M40.59.55l-.51,2.5a1.38,1.38,0,0,0,0,.82.85.85,0,0,0,.66.51.86.86,0,0,0,.81-.2,1.38,1.38,0,0,0,.34-.75L42.42.92l.63.13-.56,2.68a1.54,1.54,0,0,1-.63,1A1.57,1.57,0,0,1,40.63,5a1.52,1.52,0,0,1-1-.71,1.5,1.5,0,0,1-.19-1.16L40,.42Z" fill="#231f20"/><path d="M45,2.28,43.94,5.76l-.62-.19,1.09-3.48-.93-.29.18-.57L46.13,2,46,2.57Z" fill="#231f20"/><path d="M47.21,2.42l-1.51,4-.6-.22,1.51-4Z" fill="#231f20"/><path d="M50.18,8.57l-.72-.36-.14-.45a2.17,2.17,0,0,1-1.22-.22A2.21,2.21,0,0,1,47,6.36a2.05,2.05,0,0,1,.08-1.76A2.1,2.1,0,0,1,48.4,3.47a2.13,2.13,0,0,1,1.66.13,2.1,2.1,0,0,1,1.06,1.13,2.09,2.09,0,0,1-.07,1.87,2,2,0,0,1-1.19,1Zm-.8-2.36.28.83a1.47,1.47,0,0,0,.83-.76,1.58,1.58,0,0,0-.7-2.15,1.47,1.47,0,0,0-1.21-.08,1.62,1.62,0,0,0-.92.85,1.51,1.51,0,0,0-.09,1.21,1.55,1.55,0,0,0,.78.88,1.48,1.48,0,0,0,.76.17l-.47-1.31Z" fill="#231f20"/><path d="M53.39,5.55,52,7.67a1.48,1.48,0,0,0-.3.76.87.87,0,0,0,.42.73.89.89,0,0,0,.83.12,1.35,1.35,0,0,0,.59-.57l1.43-2.12.54.36L53.94,9.22a1.57,1.57,0,0,1-1,.68,1.55,1.55,0,0,1-1.23-.25,1.54,1.54,0,0,1-.41-2.19l1.53-2.27Z" fill="#231f20"/><path d="M57.74,9.6,56.43,8.51l-.65.78L57,10.35l-.38.46L55.39,9.75l-.91,1.09,1.3,1.09-.39.46-1.79-1.5,2.73-3.26,1.8,1.51Z" fill="#231f20"/></g></g></svg>