<svg xmlns="http://www.w3.org/2000/svg" viewBox="0 0 127.1 70.69"><title>Asset 180012442</title><g id="Layer_2" data-name="Layer 2"><g id="Texto"><rect x="47.07" width="32.97" height="32.97" fill="#231f20"/><rect x="63.16" y="16.09" width="14.58" height="14.58" fill="#fff"/><path d="M14.06,69.56a1.14,1.14,0,0,0,.3.35,1.3,1.3,0,0,0,.45.19,2.47,2.47,0,0,0,.56.06,1.8,1.8,0,0,0,.37,0,1.31,1.31,0,0,0,.37-.15.9.9,0,0,0,.28-.27.69.69,0,0,0,.12-.41.54.54,0,0,0-.09-.31.63.63,0,0,0-.21-.22,1.25,1.25,0,0,0-.28-.15l-.31-.09-1-.24a2.17,2.17,0,0,1-.36-.12A1,1,0,0,1,14,68a1,1,0,0,1-.22-.3,1.06,1.06,0,0,1-.08-.43,1.34,1.34,0,0,1,.06-.36,1,1,0,0,1,.23-.4,1.3,1.3,0,0,1,.45-.32,1.78,1.78,0,0,1,.74-.13,2,2,0,0,1,.61.09,1.35,1.35,0,0,1,.51.25,1.31,1.31,0,0,1,.35.42,1.34,1.34,0,0,1,.13.58h-.41a1,1,0,0,0-.12-.43,1,1,0,0,0-.25-.31,1.43,1.43,0,0,0-.37-.19,1.61,1.61,0,0,0-.44-.06,1.84,1.84,0,0,0-.41,0,.94.94,0,0,0-.34.14.85.85,0,0,0-.24.26.86.86,0,0,0-.09.41.57.57,0,0,0,.19.45.74.74,0,0,0,.21.13,1,1,0,0,0,.25.07l1.05.26a4.31,4.31,0,0,1,.43.15,1.28,1.28,0,0,1,.36.22,1,1,0,0,1,.24.32,1,1,0,0,1,.09.45,1.76,1.76,0,0,1,0,.19.92.92,0,0,1-.07.26,1.28,1.28,0,0,1-.16.27,1,1,0,0,1-.29.25,1.47,1.47,0,0,1-.46.18,2.49,2.49,0,0,1-.65.07,2.58,2.58,0,0,1-.7-.09,1.38,1.38,0,0,1-.56-.26,1.19,1.19,0,0,1-.35-.47,1.57,1.57,0,0,1-.11-.68H14a1.34,1.34,0,0,0,.1.56" fill="#231f20"/><path d="M18.67,67.41a2.31,2.31,0,0,1,.38-.71,1.88,1.88,0,0,1,.64-.5,2.27,2.27,0,0,1,1.77,0,1.88,1.88,0,0,1,.64.5,2.31,2.31,0,0,1,.38.71,3.11,3.11,0,0,1,0,1.71,2.31,2.31,0,0,1-.38.71,1.85,1.85,0,0,1-.64.49,2.27,2.27,0,0,1-1.77,0,1.85,1.85,0,0,1-.64-.49,2.31,2.31,0,0,1-.38-.71,3.11,3.11,0,0,1,0-1.71M19.05,69a1.91,1.91,0,0,0,.29.61,1.61,1.61,0,0,0,.5.43,1.68,1.68,0,0,0,.74.16,1.64,1.64,0,0,0,.73-.16,1.61,1.61,0,0,0,.5-.43A1.91,1.91,0,0,0,22.1,69a2.73,2.73,0,0,0,0-1.39,1.76,1.76,0,0,0-.29-.6,1.52,1.52,0,0,0-.5-.44,1.64,1.64,0,0,0-.73-.16,1.68,1.68,0,0,0-.74.16,1.52,1.52,0,0,0-.5.44,1.76,1.76,0,0,0-.29.6,2.47,2.47,0,0,0,0,1.39" fill="#231f20"/><polygon points="24.86 66.11 24.86 70.07 27.27 70.07 27.27 70.42 24.45 70.42 24.45 66.11 24.86 66.11" fill="#231f20"/><path d="M29.26,66.11v2.67a1.91,1.91,0,0,0,.09.63,1.05,1.05,0,0,0,.24.43,1,1,0,0,0,.4.24,1.83,1.83,0,0,0,1.07,0,.93.93,0,0,0,.64-.67,1.91,1.91,0,0,0,.09-.63V66.11h.41v2.76a2.18,2.18,0,0,1-.09.63,1.58,1.58,0,0,1-.3.52,1.29,1.29,0,0,1-.52.35,2,2,0,0,1-.77.13,1.92,1.92,0,0,1-.76-.13,1.29,1.29,0,0,1-.52-.35A1.4,1.4,0,0,1,29,69.5a1.89,1.89,0,0,1-.1-.63V66.11Z" fill="#231f20"/><path d="M37.2,67a1.18,1.18,0,0,0-.3-.33,1.44,1.44,0,0,0-.39-.2,1.63,1.63,0,0,0-.45-.07,1.68,1.68,0,0,0-.74.16,1.52,1.52,0,0,0-.5.44,1.76,1.76,0,0,0-.29.6,2.73,2.73,0,0,0,0,1.39,1.91,1.91,0,0,0,.29.61,1.61,1.61,0,0,0,.5.43,1.68,1.68,0,0,0,.74.16,1.33,1.33,0,0,0,.54-.11,1.25,1.25,0,0,0,.42-.3,1.6,1.6,0,0,0,.28-.43,2,2,0,0,0,.14-.54h.41a2.39,2.39,0,0,1-.19.72,1.73,1.73,0,0,1-.37.54,1.5,1.5,0,0,1-.54.34,1.92,1.92,0,0,1-.69.12,2,2,0,0,1-.89-.18,1.85,1.85,0,0,1-.64-.49,2.31,2.31,0,0,1-.38-.71,3.11,3.11,0,0,1,0-1.71,2.31,2.31,0,0,1,.38-.71,1.88,1.88,0,0,1,.64-.5,2,2,0,0,1,.89-.18,2.08,2.08,0,0,1,.6.09,1.77,1.77,0,0,1,.53.27,1.54,1.54,0,0,1,.4.44,1.59,1.59,0,0,1,.2.59h-.41A1.57,1.57,0,0,0,37.2,67" fill="#231f20"/><rect x="39.71" y="66.11" width="0.41" height="4.31" fill="#231f20"/><path d="M42.13,67.41a2.12,2.12,0,0,1,.38-.71,1.84,1.84,0,0,1,.63-.5,2.29,2.29,0,0,1,1.78,0,1.94,1.94,0,0,1,.63.5,2.12,2.12,0,0,1,.38.71,2.88,2.88,0,0,1,0,1.71,2.12,2.12,0,0,1-.38.71,1.91,1.91,0,0,1-.63.49,2.29,2.29,0,0,1-1.78,0,1.81,1.81,0,0,1-.63-.49,2.12,2.12,0,0,1-.38-.71,2.88,2.88,0,0,1,0-1.71M42.5,69a1.91,1.91,0,0,0,.29.61,1.54,1.54,0,0,0,.51.43,1.64,1.64,0,0,0,.73.16,1.61,1.61,0,0,0,.73-.16,1.65,1.65,0,0,0,.51-.43,1.88,1.88,0,0,0,.28-.61,2.47,2.47,0,0,0,0-1.39,1.74,1.74,0,0,0-.28-.6,1.55,1.55,0,0,0-.51-.44,1.61,1.61,0,0,0-.73-.16,1.64,1.64,0,0,0-.73.16,1.46,1.46,0,0,0-.51.44,1.76,1.76,0,0,0-.29.6,2.73,2.73,0,0,0,0,1.39" fill="#231f20"/><polygon points="48.36 66.11 50.87 69.75 50.88 69.75 50.88 66.11 51.29 66.11 51.29 70.42 50.83 70.42 48.32 66.78 48.31 66.78 48.31 70.42 47.9 70.42 47.9 66.11 48.36 66.11" fill="#231f20"/><polygon points="56.33 66.11 56.33 66.46 53.77 66.46 53.77 68.02 56.17 68.02 56.17 68.37 53.77 68.37 53.77 70.07 56.36 70.07 56.36 70.42 53.36 70.42 53.36 66.11 56.33 66.11" fill="#231f20"/><path d="M58.43,69.56a1.14,1.14,0,0,0,.3.35,1.3,1.3,0,0,0,.45.19,2.47,2.47,0,0,0,.56.06,1.63,1.63,0,0,0,.36,0,1.11,1.11,0,0,0,.37-.15.94.94,0,0,0,.29-.27.69.69,0,0,0,.12-.41.54.54,0,0,0-.09-.31.63.63,0,0,0-.21-.22,1.25,1.25,0,0,0-.28-.15L60,68.51l-1-.24a2.17,2.17,0,0,1-.36-.12,1.13,1.13,0,0,1-.32-.19,1.14,1.14,0,0,1-.21-.3,1.06,1.06,0,0,1-.08-.43,1.34,1.34,0,0,1,.06-.36,1,1,0,0,1,.23-.4,1.3,1.3,0,0,1,.45-.32,1.75,1.75,0,0,1,.74-.13,2,2,0,0,1,.61.09,1.43,1.43,0,0,1,.51.25,1.31,1.31,0,0,1,.35.42,1.34,1.34,0,0,1,.12.58h-.4a1,1,0,0,0-.12-.43.86.86,0,0,0-.26-.31,1.23,1.23,0,0,0-.36-.19,1.61,1.61,0,0,0-.44-.06,1.84,1.84,0,0,0-.41,0,.94.94,0,0,0-.34.14.85.85,0,0,0-.24.26.86.86,0,0,0-.09.41.57.57,0,0,0,.19.45.74.74,0,0,0,.21.13,1,1,0,0,0,.25.07l1.05.26a4.31,4.31,0,0,1,.43.15,1.45,1.45,0,0,1,.36.22,1,1,0,0,1,.24.32,1,1,0,0,1,.09.45,1.76,1.76,0,0,1,0,.19.92.92,0,0,1-.07.26A1.28,1.28,0,0,1,61,70a1,1,0,0,1-.29.25,1.47,1.47,0,0,1-.46.18,2.49,2.49,0,0,1-.65.07,2.71,2.71,0,0,1-.71-.09,1.4,1.4,0,0,1-.55-.26,1.19,1.19,0,0,1-.35-.47,1.43,1.43,0,0,1-.11-.68h.41a1.34,1.34,0,0,0,.1.56" fill="#231f20"/><path d="M67.52,66.11a2,2,0,0,1,1.48.55,2.87,2.87,0,0,1,0,3.21,2,2,0,0,1-1.48.55H66V66.11Zm-.21,4a2.69,2.69,0,0,0,.8-.1,1.25,1.25,0,0,0,.55-.32,1.23,1.23,0,0,0,.32-.56,3.45,3.45,0,0,0,0-1.65,1.23,1.23,0,0,0-.32-.56,1.25,1.25,0,0,0-.55-.32,2.69,2.69,0,0,0-.8-.1h-.87v3.61Z" fill="#231f20"/><polygon points="74.34 66.11 74.34 66.46 71.77 66.46 71.77 68.02 74.17 68.02 74.17 68.37 71.77 68.37 71.77 70.07 74.37 70.07 74.37 70.42 71.36 70.42 71.36 66.11 74.34 66.11" fill="#231f20"/><polygon points="82 66.11 82 66.46 79.44 66.46 79.44 68.02 81.84 68.02 81.84 68.37 79.44 68.37 79.44 70.07 82.03 70.07 82.03 70.42 79.03 70.42 79.03 66.11 82 66.11" fill="#231f20"/><polygon points="84.4 66.11 85.83 69.89 87.32 66.11 87.92 66.11 87.92 70.42 87.51 70.42 87.51 66.7 87.5 66.7 86.03 70.42 85.64 70.42 84.22 66.7 84.21 66.7 84.21 70.42 83.8 70.42 83.8 66.11 84.4 66.11" fill="#231f20"/><path d="M91.88,66.11a1.67,1.67,0,0,1,.52.08,1.27,1.27,0,0,1,.41.24,1.16,1.16,0,0,1,.26.39,1.46,1.46,0,0,1,.09.52,1.38,1.38,0,0,1-.09.52,1.16,1.16,0,0,1-.26.39,1,1,0,0,1-.41.24,1.42,1.42,0,0,1-.52.08h-1.5v1.85H90V66.11Zm-.09,2.11a1,1,0,0,0,.69-.22.78.78,0,0,0,.27-.66.8.8,0,0,0-.27-.66,1,1,0,0,0-.69-.22H90.38v1.76Z" fill="#231f20"/><path d="M96.25,66.11l1.69,4.31H97.5L97,69.08H95l-.52,1.34h-.43l1.73-4.31Zm.58,2.62L96,66.52l-.86,2.21Z" fill="#231f20"/><path d="M102.45,70.19a1.84,1.84,0,0,1-1.11.31,2,2,0,0,1-.89-.18,1.85,1.85,0,0,1-.64-.49,2.12,2.12,0,0,1-.38-.71,2.88,2.88,0,0,1,0-1.71,2.12,2.12,0,0,1,.38-.71,1.88,1.88,0,0,1,.64-.5,2.27,2.27,0,0,1,1.77,0,1.88,1.88,0,0,1,.64.5,2.31,2.31,0,0,1,.38.71,3,3,0,0,1,.12.85,2.67,2.67,0,0,1-.16.95,2,2,0,0,1-.49.76l.62.47-.21.25Zm.37-1.12a2.45,2.45,0,0,0,.13-.81,2.72,2.72,0,0,0-.09-.69,1.76,1.76,0,0,0-.29-.6,1.52,1.52,0,0,0-.5-.44,1.64,1.64,0,0,0-.73-.16,1.68,1.68,0,0,0-.74.16,1.52,1.52,0,0,0-.5.44,1.76,1.76,0,0,0-.29.6,2.47,2.47,0,0,0,0,1.39,1.91,1.91,0,0,0,.29.61,1.61,1.61,0,0,0,.5.43,1.68,1.68,0,0,0,.74.16,1.46,1.46,0,0,0,.79-.21l-.56-.43.21-.26.62.48a1.47,1.47,0,0,0,.42-.67" fill="#231f20"/><path d="M105.58,66.11v2.67a2.25,2.25,0,0,0,.08.63,1.06,1.06,0,0,0,.25.43,1,1,0,0,0,.4.24,1.8,1.8,0,0,0,1.06,0,1,1,0,0,0,.4-.24,1.06,1.06,0,0,0,.25-.43,1.93,1.93,0,0,0,.08-.63V66.11h.41v2.76a2.18,2.18,0,0,1-.09.63,1.4,1.4,0,0,1-.29.52,1.37,1.37,0,0,1-.52.35,2,2,0,0,1-.77.13,2,2,0,0,1-.77-.13,1.26,1.26,0,0,1-.51-.35,1.29,1.29,0,0,1-.3-.52,2.18,2.18,0,0,1-.09-.63V66.11Z" fill="#231f20"/><polygon points="113.52 66.11 113.52 66.46 110.96 66.46 110.96 68.02 113.36 68.02 113.36 68.37 110.96 68.37 110.96 70.07 113.55 70.07 113.55 70.42 110.55 70.42 110.55 66.11 113.52 66.11" fill="#231f20"/><path d="M9.57,58.07,9.42,56h0A4.12,4.12,0,0,1,8.68,57a4,4,0,0,1-.94.72,3.9,3.9,0,0,1-1.11.41,5.34,5.34,0,0,1-1.21.13,5.37,5.37,0,0,1-2.37-.49,4.94,4.94,0,0,1-1.7-1.31,5.51,5.51,0,0,1-1-1.9,7.71,7.71,0,0,1,0-4.53,5.55,5.55,0,0,1,1-1.91,5,5,0,0,1,1.7-1.32,5.51,5.51,0,0,1,2.37-.49,5.87,5.87,0,0,1,1.7.24,4.45,4.45,0,0,1,1.44.73A4.35,4.35,0,0,1,9.62,48.5a4.62,4.62,0,0,1,.59,1.65H9.12a2.51,2.51,0,0,0-.33-1A3.49,3.49,0,0,0,8,48.22a3.82,3.82,0,0,0-1.13-.68,3.86,3.86,0,0,0-1.48-.27,4.11,4.11,0,0,0-2,.44,3.75,3.75,0,0,0-1.34,1.15,5,5,0,0,0-.78,1.62,7.12,7.12,0,0,0-.25,1.85,7.22,7.22,0,0,0,.25,1.84,5.07,5.07,0,0,0,.78,1.62,3.75,3.75,0,0,0,1.34,1.15,4.11,4.11,0,0,0,2,.43,4.37,4.37,0,0,0,1.7-.31,3.45,3.45,0,0,0,1.26-.88,3.66,3.66,0,0,0,.77-1.33,5.08,5.08,0,0,0,.24-1.69H5.48v-.93h4.88v5.84Z" fill="#231f20"/><path d="M19.33,46.58a4.87,4.87,0,0,1,1.34.18,3.19,3.19,0,0,1,1.11.54,2.58,2.58,0,0,1,.76.93,3,3,0,0,1,.28,1.34,3.25,3.25,0,0,1-.56,1.9,2.56,2.56,0,0,1-1.67,1v0a2.83,2.83,0,0,1,.93.3,1.8,1.8,0,0,1,.6.56,2.13,2.13,0,0,1,.34.78,6.56,6.56,0,0,1,.14.95c0,.2,0,.43,0,.71s0,.56.06.85a4.93,4.93,0,0,0,.16.8,1.54,1.54,0,0,0,.28.59H21.92a1.68,1.68,0,0,1-.15-.4,2.41,2.41,0,0,1-.08-.48c0-.17,0-.33,0-.49s0-.3,0-.42c0-.41-.05-.81-.1-1.21A3.31,3.31,0,0,0,21.2,54a1.83,1.83,0,0,0-.67-.76A2,2,0,0,0,19.31,53H15.17v5.1h-1.1V46.58ZM19.25,52a3,3,0,0,0,.95-.16,2.44,2.44,0,0,0,.79-.44,2.34,2.34,0,0,0,.54-.7,2.16,2.16,0,0,0,.2-.94,2.27,2.27,0,0,0-.61-1.67,2.54,2.54,0,0,0-1.87-.61H15.17V52Z" fill="#231f20"/><path d="M27.39,46.58v7.11a5.61,5.61,0,0,0,.22,1.7,2.84,2.84,0,0,0,.66,1.14,2.5,2.5,0,0,0,1.06.64,5.18,5.18,0,0,0,2.85,0,2.44,2.44,0,0,0,1.06-.64,2.84,2.84,0,0,0,.66-1.14,5.59,5.59,0,0,0,.23-1.7V46.58h1.09v7.35A5.47,5.47,0,0,1,35,55.61,3.68,3.68,0,0,1,34.18,57a3.6,3.6,0,0,1-1.38.94,5.23,5.23,0,0,1-2,.35,5.16,5.16,0,0,1-2-.35A3.56,3.56,0,0,1,27.33,57a3.68,3.68,0,0,1-.79-1.39,5.78,5.78,0,0,1-.24-1.68V46.58Z" fill="#231f20"/><path d="M44.13,46.58a4.37,4.37,0,0,1,1.4.22,2.93,2.93,0,0,1,1.08.64,2.87,2.87,0,0,1,.69,1,4.12,4.12,0,0,1,0,2.77,2.83,2.83,0,0,1-.69,1,3,3,0,0,1-1.08.65,4.38,4.38,0,0,1-1.4.21h-4v4.93H39V46.58Zm-.24,5.63a2.81,2.81,0,0,0,1.85-.58,2.14,2.14,0,0,0,.71-1.77,2.17,2.17,0,0,0-.71-1.77,2.86,2.86,0,0,0-1.85-.57H40.13v4.69Z" fill="#231f20"/><path d="M50.5,50.06a5.55,5.55,0,0,1,1-1.91,5,5,0,0,1,1.7-1.32,6,6,0,0,1,4.74,0,5,5,0,0,1,1.68,1.32,5.75,5.75,0,0,1,1,1.91,7.94,7.94,0,0,1,0,4.53,5.7,5.7,0,0,1-1,1.9A5,5,0,0,1,58,57.8a6,6,0,0,1-4.74,0,4.94,4.94,0,0,1-1.7-1.31,5.51,5.51,0,0,1-1-1.9,7.71,7.71,0,0,1,0-4.53m1,4.11a5.07,5.07,0,0,0,.78,1.62,3.75,3.75,0,0,0,1.34,1.15,4.14,4.14,0,0,0,2,.43,4.07,4.07,0,0,0,2-.43,3.84,3.84,0,0,0,1.34-1.15,4.85,4.85,0,0,0,.77-1.62,6.82,6.82,0,0,0,.25-1.85,6.7,6.7,0,0,0-.25-1.84,4.76,4.76,0,0,0-.77-1.62,3.84,3.84,0,0,0-1.34-1.15,4.07,4.07,0,0,0-2-.44,4.14,4.14,0,0,0-2,.44,3.75,3.75,0,0,0-1.34,1.15,5,5,0,0,0-.78,1.62,7.1,7.1,0,0,0-.25,1.84,7.23,7.23,0,0,0,.25,1.85" fill="#231f20"/><polygon points="70.44 46.58 72.45 46.58 72.45 56.33 78.29 56.33 78.29 58.07 70.44 58.07 70.44 46.58" fill="#231f20"/><path d="M84.35,46.58h2.14l4.42,11.49H88.76l-1.08-3H83.1l-1.08,3H80Zm-.71,6.92h3.51l-1.72-4.94h-.05Z" fill="#231f20"/><path d="M94.93,54.24a2.54,2.54,0,0,0,.23,1.12,2.06,2.06,0,0,0,.63.77,2.6,2.6,0,0,0,.92.43,4.56,4.56,0,0,0,1.14.14A3.7,3.7,0,0,0,99,56.55a2.58,2.58,0,0,0,.76-.4,1.47,1.47,0,0,0,.42-.55,1.77,1.77,0,0,0,.12-.64,1.41,1.41,0,0,0-.29-1,1.63,1.63,0,0,0-.66-.44,12.25,12.25,0,0,0-1.42-.43c-.54-.13-1.21-.31-2-.52a4.38,4.38,0,0,1-1.23-.51,2.82,2.82,0,0,1-.78-.7,2.53,2.53,0,0,1-.41-.82,3.28,3.28,0,0,1-.12-.88,3,3,0,0,1,.36-1.51,3.21,3.21,0,0,1,1-1A4,4,0,0,1,96,46.51a6.06,6.06,0,0,1,1.53-.2,6.16,6.16,0,0,1,1.69.23,4.28,4.28,0,0,1,1.4.7,3.56,3.56,0,0,1,1,1.15A3.51,3.51,0,0,1,102,50h-2a1.92,1.92,0,0,0-.75-1.57A3,3,0,0,0,97.48,48a3.68,3.68,0,0,0-.73.07,2.31,2.31,0,0,0-.67.24,1.51,1.51,0,0,0-.51.46,1.28,1.28,0,0,0-.2.73,1.2,1.2,0,0,0,.38.95,2.46,2.46,0,0,0,1,.53l.5.13,1,.27,1.07.28.75.2a3.58,3.58,0,0,1,1,.48,3.32,3.32,0,0,1,.7.7,2.81,2.81,0,0,1,.42.85,3.11,3.11,0,0,1,.13.9,3.3,3.3,0,0,1-.39,1.65,3.35,3.35,0,0,1-1,1.11,4.6,4.6,0,0,1-1.46.64,7.26,7.26,0,0,1-1.67.2,6.89,6.89,0,0,1-1.85-.24,4.26,4.26,0,0,1-1.51-.74,3.52,3.52,0,0,1-1-1.28,4.19,4.19,0,0,1-.41-1.84Z" fill="#231f20"/><polygon points="105.64 46.58 113.91 46.58 113.91 48.32 107.66 48.32 107.66 51.33 113.44 51.33 113.44 52.97 107.66 52.97 107.66 56.33 114.03 56.33 114.03 58.07 105.64 58.07 105.64 46.58" fill="#231f20"/><path d="M117.39,46.58h5.48a4.32,4.32,0,0,1,2.85.82,2.88,2.88,0,0,1,1,2.29,3.37,3.37,0,0,1-.25,1.36,2.85,2.85,0,0,1-.56.86,2.34,2.34,0,0,1-.63.48,4.19,4.19,0,0,1-.46.19v0a2.76,2.76,0,0,1,.55.16,1.79,1.79,0,0,1,.56.41,2.28,2.28,0,0,1,.42.74,3,3,0,0,1,.17,1.12,10.3,10.3,0,0,0,.15,1.84,2.46,2.46,0,0,0,.48,1.19h-2.16a1.8,1.8,0,0,1-.26-.82,8.71,8.71,0,0,1,0-.87,7.64,7.64,0,0,0-.1-1.36,2.33,2.33,0,0,0-.35-1,1.55,1.55,0,0,0-.7-.56,3.3,3.3,0,0,0-1.14-.17H119.4v4.73h-2Zm2,5.23h3.29a2.09,2.09,0,0,0,1.47-.46,1.76,1.76,0,0,0,.49-1.37,2.1,2.1,0,0,0-.16-.9,1.24,1.24,0,0,0-.44-.54,1.71,1.71,0,0,0-.64-.25,4.54,4.54,0,0,0-.75-.07H119.4Z" fill="#231f20"/></g></g></svg>