<svg xmlns="http://www.w3.org/2000/svg" viewBox="0 0 137.03 37.63"><title>Asset 179012442</title><g id="Layer_2" data-name="Layer 2"><g id="Texto"><path d="M18.88,0A18.82,18.82,0,1,0,37.64,18.82,18.78,18.78,0,0,0,18.88,0M31.51,9.84a11.91,11.91,0,0,1-1,5.46c-.13.33-.28.66-.45,1.05a36,36,0,0,0-8.87-8.77A13.72,13.72,0,0,1,27.41,6a4,4,0,0,1,4.1,3.85m-2.82,8.92-.13.22a32.07,32.07,0,0,1-9.47,9.59.33.33,0,0,1-.44,0A32.29,32.29,0,0,1,9,19.09a.39.39,0,0,1,0-.48,32.14,32.14,0,0,1,7.44-8.12c.65-.5,1.33-1,2-1.42a.33.33,0,0,1,.44,0,31.89,31.89,0,0,1,9.58,9.46l.14.24m-10-16.34A16.28,16.28,0,0,1,25.08,3.7a21,21,0,0,0-4.27,1.36c-.62.28-1.24.58-1.84.92a.39.39,0,0,1-.43,0,20,20,0,0,0-6.2-2.2,15.22,15.22,0,0,1,6.35-1.39M6,9.66A3.92,3.92,0,0,1,9.71,6.13a11.75,11.75,0,0,1,5.61,1l1,.43a36.49,36.49,0,0,0-8.75,8.87A17.36,17.36,0,0,1,6.5,13.8,10,10,0,0,1,6,9.66M6,19.18a20.18,20.18,0,0,0-2,5.38,5.44,5.44,0,0,1-.17.73,15.92,15.92,0,0,1-.08-12.74A20.88,20.88,0,0,0,6,18.69a.45.45,0,0,1,0,.49m1,11a4.55,4.55,0,0,1-.87-2.62A13.46,13.46,0,0,1,7.6,21.3a36.18,36.18,0,0,0,8.87,8.76,13.8,13.8,0,0,1-6,1.6A4.23,4.23,0,0,1,7,30.13m5.57,3.78,1-.21a19.72,19.72,0,0,0,4.9-1.94.84.84,0,0,1,.9,0,19.86,19.86,0,0,0,5.94,2.1,16,16,0,0,1-12.76,0m19-5.61a3.88,3.88,0,0,1-3.73,3.22,12,12,0,0,1-5.47-1.05l-1-.44A36.1,36.1,0,0,0,30,21.17,16.07,16.07,0,0,1,31.5,25.4a7.08,7.08,0,0,1,0,2.9m2.15-4.25a19.87,19.87,0,0,0-2-5,.5.5,0,0,1,0-.56,21.09,21.09,0,0,0,2.19-6.1,15.91,15.91,0,0,1,0,12.74c-.08-.35-.15-.7-.24-1.05" fill="#231f20"/><path d="M54,14.07l3-4.74q1.85-2.85,3.68-5.72a.54.54,0,0,1,.51-.28q1.88,0,3.75,0c.28,0,.36.08.36.36q0,11.18,0,22.35c0,.29-.09.36-.36.36-1.15,0-2.29,0-3.43,0-.33,0-.44-.07-.44-.42,0-5.09,0-10.17,0-15.26V10.3c-.14,0-.17.17-.23.25l-6.65,9.94c-.27.4-.36.4-.62,0l-6.54-9.8c-.08-.11-.16-.22-.29-.42v.47q0,7.62,0,15.22c0,.35-.1.44-.44.43-1.13,0-2.26,0-3.38,0-.25,0-.33-.06-.33-.32q0-11.2,0-22.42c0-.25.07-.33.32-.33q1.91,0,3.81,0a.52.52,0,0,1,.48.28q3.23,5,6.47,10.06c.07.12.15.24.26.4" fill="#231f20"/><path d="M88.26,26.74a14.37,14.37,0,0,1-9.45-3.52c-.21-.17-.21-.29,0-.49.71-.83,1.41-1.66,2.11-2.51.17-.21.28-.2.48,0a11.35,11.35,0,0,0,4.09,2.37,7.89,7.89,0,0,0,4.9.1,2.57,2.57,0,0,0,2-2.33,2.18,2.18,0,0,0-.91-2.08A9.59,9.59,0,0,0,88.2,17a34,34,0,0,1-4.43-1.29,8.25,8.25,0,0,1-2.53-1.48,5.4,5.4,0,0,1-1.72-3.94A6.51,6.51,0,0,1,85,3.3,12.6,12.6,0,0,1,95.6,5.75c.21.16.21.28.06.49C95,7.11,94.4,8,93.79,8.88c-.16.22-.26.23-.47.08a11,11,0,0,0-4.17-2,6.46,6.46,0,0,0-3.62.09A2.5,2.5,0,0,0,83.76,10a2,2,0,0,0,.94,1.4,10.2,10.2,0,0,0,3.09,1.23A34.14,34.14,0,0,1,92.32,14a8.56,8.56,0,0,1,2.39,1.44,5.32,5.32,0,0,1,1.78,3.91,6.53,6.53,0,0,1-1.71,5,7.54,7.54,0,0,1-3.89,2.09,12,12,0,0,1-2.63.29" fill="#231f20"/><path d="M128.35,3a12.87,12.87,0,0,1,7.76,2.73c.22.17.23.28.07.51q-.94,1.29-1.86,2.61c-.15.22-.26.26-.49.09a10.72,10.72,0,0,0-4.52-2.07,6.16,6.16,0,0,0-3.27.18,2.51,2.51,0,0,0-1.71,3.16,2.18,2.18,0,0,0,1.06,1.28,10.45,10.45,0,0,0,2.68,1.05,45.89,45.89,0,0,1,4.44,1.28,9.22,9.22,0,0,1,2.56,1.44A5.69,5.69,0,0,1,137,20.52a6.53,6.53,0,0,1-5.62,5.92,13.76,13.76,0,0,1-11.57-2.84c-.75-.58-.74-.59-.12-1.33s1.14-1.33,1.69-2c.18-.23.3-.24.53,0a11.17,11.17,0,0,0,4.34,2.43,8,8,0,0,0,4.39.1,2.72,2.72,0,0,0,2.15-2.09,2.27,2.27,0,0,0-1.08-2.54,12,12,0,0,0-3.57-1.28,25.94,25.94,0,0,1-4.21-1.3c-2.85-1.23-4-3.06-3.87-6.16a6.23,6.23,0,0,1,4.15-5.66,9.78,9.78,0,0,1,4.14-.7" fill="#231f20"/><path d="M108.32,13.38l2.4-3.75,3.82-6a.56.56,0,0,1,.54-.3c1.36,0,2.71,0,4.07,0,.1,0,.24,0,.3.05s-.06.21-.12.3c-2.76,4.19-5.52,8.39-8.31,12.56a3.51,3.51,0,0,0-.64,2.11c.05,2.54,0,5.08,0,7.62,0,.33-.08.43-.41.42-1.16,0-2.31,0-3.46,0-.33,0-.39-.1-.39-.4,0-2.79,0-5.59,0-8.38a1,1,0,0,0-.16-.56L97.25,3.73c-.06-.11-.22-.21-.13-.34s.22-.05.34-.05c1.39,0,2.78,0,4.17,0a.54.54,0,0,1,.51.28c2,3.14,4,6.26,5.93,9.39.07.12.15.24.25.38" fill="#231f20"/><path d="M74.85,14.86q0,5.55,0,11.12c0,.35-.1.43-.44.42-1.15,0-2.3,0-3.45,0-.25,0-.33-.06-.33-.32q0-11.2,0-22.41c0-.27.09-.34.35-.34q1.73,0,3.45,0c.32,0,.42.07.42.41,0,3.71,0,7.41,0,11.12" fill="#231f20"/><path d="M111.89,30.32c1-.06,1-.06,1.32.85l.93,2.87a.35.35,0,0,0,.12.22c.41-1.23.83-2.46,1.22-3.71.12-.4.4-.21.62-.26s.33.06.4.28c.39,1.23.8,2.45,1.23,3.77.33-1,.62-1.92.91-2.83.11-.33.23-.65.32-1,0-.16.1-.24.28-.23s.52,0,.82,0c-.25.75-.5,1.48-.76,2.2-.35,1-.72,2.06-1.06,3.09-.12.38-.39.21-.6.24s-.35,0-.43-.24c-.36-1.12-.75-2.22-1.13-3.33L116,32c-.31.9-.59,1.73-.88,2.56-.1.3-.23.6-.3.91s-.26.46-.61.44a.46.46,0,0,1-.51-.35c-.54-1.62-1.1-3.23-1.66-4.84,0-.11-.07-.22-.11-.36" fill="#231f20"/><path d="M54.12,34.09c0-1.2,0-2.29,0-3.38,0-.29.06-.39.37-.38.61,0,.61,0,.61.62,0,1.51,0,3,0,4.53,0,.27-.06.36-.35.37a.86.86,0,0,1-.79-.4c-.82-1.09-1.67-2.16-2.51-3.24a2,2,0,0,0-.19-.23c0,1.22,0,2.36,0,3.51,0,.28-.08.36-.36.35-.61,0-.62,0-.62-.63,0-1.52,0-3,0-4.56,0-.25.07-.3.32-.32a1,1,0,0,1,1,.46c.8,1.09,1.65,2.14,2.55,3.3" fill="#231f20"/><path d="M63.69,32.06a.51.51,0,0,0-.06.37c0,1,0,2,0,3,0,.28-.05.39-.36.38-.61,0-.61,0-.61-.62,0-1.5,0-3,0-4.49,0-.3.05-.4.38-.41a1,1,0,0,1,.88.45c.78,1,1.59,2.06,2.39,3.09l.11.14c.1-.12.06-.25.06-.36,0-1,0-2,0-3,0-.26,0-.35.33-.34.64,0,.64,0,.64.63,0,1.51,0,3,0,4.55,0,.25,0,.35-.32.36a.86.86,0,0,1-.79-.39c-.78-1.05-1.6-2.07-2.4-3.1-.07-.1-.15-.19-.24-.3" fill="#231f20"/><path d="M129.87,34c-.11-.13-.18-.21.06-.32a1.64,1.64,0,0,0,1-1.89,1.56,1.56,0,0,0-1.47-1.37,22.36,22.36,0,0,0-2.84-.07c-.15,0-.17.08-.17.2v5.1c0,.1,0,.2.14.2a2.11,2.11,0,0,0,.8-.06c.14-.06,0-.38,0-.6s0-.38,0-.56c0-.7,0-.67.71-.71a.74.74,0,0,1,.77.42,7.78,7.78,0,0,1,.47.7,1.33,1.33,0,0,0,1.6.81l.08,0s0,0,0-.05L129.87,34m-.55-1a2.82,2.82,0,0,1-1,0c-.28,0-.66.11-.82,0s-.05-.55-.06-.84-.13-.68,0-.86.58-.05.89-.05a4.39,4.39,0,0,1,.81,0A.79.79,0,0,1,130,32a.83.83,0,0,1-.66,1" fill="#231f20"/><path d="M98.08,30.23A2.84,2.84,0,1,0,101,33a2.77,2.77,0,0,0-2.87-2.79m0,4.77a1.86,1.86,0,0,1-1.83-2,1.82,1.82,0,0,1,1.84-1.85,1.85,1.85,0,0,1,1.82,2A1.81,1.81,0,0,1,98.08,35" fill="#231f20"/><path d="M132.15,33.06c0-.82,0-1.64,0-2.46,0-.23.06-.3.3-.3h3.49c.25,0,.35.07.31.32a1.31,1.31,0,0,0,0,.28c0,.23-.07.28-.28.28-.83,0-1.66,0-2.5,0-.29,0-.37.09-.34.36a5.08,5.08,0,0,1,0,.78c0,.22,0,.29.27.28.73,0,1.45,0,2.18,0,.24,0,.36.05.31.31a.54.54,0,0,0,0,.18c.05.3,0,.41-.38.39-.7,0-1.4,0-2.1,0-.22,0-.3,0-.28.28a7.22,7.22,0,0,1,0,.93c0,.22.07.28.28.27.84,0,1.69,0,2.53,0,.27,0,.38.06.33.33a1.4,1.4,0,0,0,0,.29c0,.19,0,.26-.25.26h-3.6c-.23,0-.27-.08-.27-.28,0-.82,0-1.64,0-2.46" fill="#231f20"/><path d="M125.52,35.64q-1.14-2.58-2.26-5.18a.27.27,0,0,0-.32-.19,2,2,0,0,1-.42,0c-.21,0-.3.07-.37.25-.15.38-.32.74-.48,1.11l-1.82,4.16c1,.06,1,.06,1.35-.79,0-.08.07-.16.1-.23a.35.35,0,0,1,.42-.29,13.79,13.79,0,0,0,1.7,0,.68.68,0,0,1,.8.53c.32.87.35.86,1.28.8l0,0a.7.7,0,0,0,0-.12m-3.72-2.07c.3-.7.58-1.37.9-2.11.32.73.61,1.41.91,2.11Z" fill="#231f20"/><path d="M61.61,35.53c-.68-1.55-1.35-3.11-2-4.65-.27-.6-.27-.59-.92-.59a.3.3,0,0,0-.34.22c-.2.47-.41.93-.61,1.4-.53,1.21-1.06,2.43-1.58,3.65,0,.07-.24.23,0,.27.66.12.83,0,1.09-.59a4.89,4.89,0,0,0,.2-.48.31.31,0,0,1,.36-.25,17.61,17.61,0,0,0,1.78,0,.64.64,0,0,1,.77.51c.34.88.36.87,1.36.81l-.12-.29m-2.06-1.89H57.93c.31-.71.61-1.41.92-2.15l.85,2c.07.17,0,.2-.15.19" fill="#231f20"/><path d="M80.19,30.84a.74.74,0,0,0-.89-.55.41.41,0,0,0-.41.27c-.45,1.09-.93,2.16-1.4,3.22-.29.67-.57,1.33-.88,2,.26,0,.47,0,.67,0a.4.4,0,0,0,.48-.29c.08-.28.22-.54.32-.8a.29.29,0,0,1,.34-.22c.59,0,1.18,0,1.78,0A.65.65,0,0,1,81,35c.33.88.36.87,1.28.82l.07,0c-.71-1.66-1.44-3.28-2.13-4.94m0,2.78H78.73c-.23,0-.14-.12-.1-.22.27-.62.53-1.24.82-1.92.31.69.58,1.32.85,1.94.06.13.06.2-.1.2" fill="#231f20"/><path d="M92.42,35.88a3.4,3.4,0,0,1-2.15-.7c-.15-.12-.21-.21,0-.36a.1.1,0,0,0,0,0c.36-.44.36-.44.82-.14a2.33,2.33,0,0,0,1.45.38,1,1,0,0,0,.54-.17.6.6,0,0,0,0-1,3.22,3.22,0,0,0-.84-.29c-.3-.09-.6-.16-.88-.27a1.37,1.37,0,0,1-1-1.4,1.5,1.5,0,0,1,1-1.45,2.91,2.91,0,0,1,2.74.43c.09.06.13.13,0,.23a.27.27,0,0,0-.07.08c-.33.51-.33.5-.87.24a1.85,1.85,0,0,0-1.34-.22.63.63,0,0,0-.54.58.58.58,0,0,0,.44.61c.32.12.66.21,1,.3a4.8,4.8,0,0,1,.8.29,1.34,1.34,0,0,1,.83,1.26,1.52,1.52,0,0,1-.82,1.43,2,2,0,0,1-1.1.25" fill="#231f20"/><path d="M71.83,30.24a2.67,2.67,0,0,1,1.59.71c.13.11.16.17,0,.3s-.27.41-.46.49-.35-.2-.53-.3a1.82,1.82,0,0,0-2.41.36,2.1,2.1,0,0,0,.08,2.65,1.82,1.82,0,0,0,2.4.21l0,0c.17-.08.3-.35.44-.28s.35.31.52.47,0,.19-.06.26a2.81,2.81,0,0,1-2.86.71,2.57,2.57,0,0,1-1.94-2.06c-.41-1.9.9-3.51,3.17-3.5" fill="#231f20"/><path d="M102.09,33.05c0-.82,0-1.64,0-2.46,0-.21,0-.28.27-.28,1.18,0,2.35,0,3.53,0,.25,0,.31.07.31.32,0,.6,0,.6-.59.6s-1.45,0-2.18,0c-.31,0-.39.09-.36.38a2.81,2.81,0,0,1,0,.71c0,.29.05.39.36.38.7,0,1.4,0,2.1,0,.23,0,.31,0,.31.28,0,.63,0,.63-.63.63s-1.14,0-1.71,0c-.33,0-.46.05-.43.41s0,1,0,1.53c0,.2,0,.29-.26.29-.71,0-.71,0-.72-.69V33.05Z" fill="#231f20"/><path d="M42.69,33.07c0-.82,0-1.64,0-2.46,0-.22.06-.28.28-.28,1.16,0,2.33,0,3.49,0,.25,0,.32.07.32.32,0,.58,0,.58-.58.58H44c-.21,0-.31,0-.28.27,0,.39-.17.92.08,1.15s.72.06,1.1.07.86,0,1.28,0c.23,0,.28.07.28.28,0,.61,0,.61-.59.61s-1.21,0-1.82,0c-.25,0-.35,0-.34.33,0,.54,0,1.09,0,1.64,0,.22-.08.28-.29.28-.71,0-.71,0-.71-.7Z" fill="#231f20"/><path d="M108.58,33.5c0-.67,0-1.35,0-2,0-.2-.06-.26-.26-.25-.42,0-.83,0-1.25,0-.18,0-.24,0-.25-.24,0-.68,0-.68.65-.68H111c.23,0,.33,0,.32.3,0,.62,0,.61-.61.62-.37,0-.85-.15-1.06.07s-.06.68-.06,1c0,1,0,2.09,0,3.14,0,.25,0,.35-.32.34-.67,0-.67,0-.67-.66Z" fill="#231f20"/><path d="M83.27,33.07c0-.82,0-1.64,0-2.46,0-.22,0-.3.29-.3.7,0,.7,0,.7.7,0,1.2,0,2.4,0,3.6,0,.27.08.33.34.32.75,0,1.49,0,2.24,0,.24,0,.3.07.29.3,0,.59,0,.59-.6.59-1,0-1.94,0-2.92,0-.29,0-.34-.09-.34-.36,0-.8,0-1.59,0-2.39" fill="#231f20"/><path d="M75.64,33.09c0,.81,0,1.61,0,2.42,0,.21,0,.31-.28.31-.71,0-.71,0-.71-.7,0-1.49,0-3,0-4.45,0-.26,0-.37.34-.36.65,0,.65,0,.65.65Z" fill="#231f20"/><path d="M48.84,33.08c0,.81,0,1.61,0,2.42,0,.26-.05.35-.32.34-.63,0-.63,0-.63-.64,0-1.49,0-3,0-4.48,0-.33.1-.4.4-.39.59,0,.59,0,.59.58Z" fill="#231f20"/></g></g></svg>