<svg xmlns="http://www.w3.org/2000/svg" viewBox="0 0 123.43 109.59"><title>Asset 126vectores-Truequería</title><g data-name="Layer 2"><circle cx="61.72" cy="38.42" r="38.42" fill="#f15d2a"/><path d="M65.81 42.43h-.15a9.56 9.56 0 0 1-1.54 2.87 9.15 9.15 0 0 1-2.36 2.12 11.18 11.18 0 0 1-2.95 1.3 11.84 11.84 0 0 1-3.23.46 12.13 12.13 0 0 1-5.36-1.12 10.74 10.74 0 0 1-3.79-3 12.72 12.72 0 0 1-2.25-4.54 20.6 20.6 0 0 1-.74-5.66 20.81 20.81 0 0 1 .69-5.4 13.66 13.66 0 0 1 2.12-4.54 10.55 10.55 0 0 1 3.67-3.14 11.31 11.31 0 0 1 5.31-1.17 11.36 11.36 0 0 1 6.22 1.62 12.47 12.47 0 0 1 4.25 4.87h.11v-5.88h2v37.1h-2zm-10.2 5a9.31 9.31 0 0 0 4.54-1.06 9.1 9.1 0 0 0 3.16-2.84 13.17 13.17 0 0 0 1.83-4 17.67 17.67 0 0 0 .62-4.65 17.47 17.47 0 0 0-.62-4.6 12.11 12.11 0 0 0-1.86-4 9.52 9.52 0 0 0-3.13-2.82 9 9 0 0 0-4.49-1.06 9.46 9.46 0 0 0-4.57 1 9.23 9.23 0 0 0-3.16 2.79 12.16 12.16 0 0 0-1.86 4 17.56 17.56 0 0 0-.62 4.65 19.81 19.81 0 0 0 .55 4.74 11.88 11.88 0 0 0 1.81 4A9.32 9.32 0 0 0 51 46.39a9.63 9.63 0 0 0 4.61 1.03zm21.68-4.37H80v5.48h-2.71z" fill="#fff"/><path d="M1.73 97.66H0v-2.91h1.73V91.9h3.74v2.85h2.35v2.91H5.47v3.87a1.23 1.23 0 0 0 .33 1 1.45 1.45 0 0 0 .91.26 4.4 4.4 0 0 0 1-.13l.47 2.71a8.53 8.53 0 0 1-2.55.39 3.94 3.94 0 0 1-3-1 4.5 4.5 0 0 1-.9-3.1zm10.74-2.91h3.63v1.32a3.67 3.67 0 0 1 1.32-1.15 3.87 3.87 0 0 1 1.71-.36 4.64 4.64 0 0 1 1.05.11l-.41 3.19a3.36 3.36 0 0 0-.54-.09h-.61a4.43 4.43 0 0 0-.9.09 2.39 2.39 0 0 0-.8.34 1.69 1.69 0 0 0-.54.73 3 3 0 0 0-.18 1.07v5.55h-3.73zm18.61 10.83v-1.28a3.73 3.73 0 0 1-1.45 1.24 4.25 4.25 0 0 1-1.79.37 3.24 3.24 0 0 1-2.55-1 4.22 4.22 0 0 1-.9-2.92v-7.24h3.74v6.64a1.58 1.58 0 0 0 .31 1.15 1.19 1.19 0 0 0 .87.3 1.65 1.65 0 0 0 1.19-.48 2 2 0 0 0 .34-.51A2 2 0 0 0 31 101v-6.25h3.73v10.83zM50.23 101h-7.14a3.11 3.11 0 0 0 .53 1.69 1.65 1.65 0 0 0 1.33.5 1.55 1.55 0 0 0 1.71-1.13h3.49A4.21 4.21 0 0 1 48.5 105a5.84 5.84 0 0 1-3.51 1 5.47 5.47 0 0 1-4.11-1.44 5.74 5.74 0 0 1-1.38-4.13 7.6 7.6 0 0 1 .39-2.53A5.11 5.11 0 0 1 41 96a4.49 4.49 0 0 1 1.73-1.15 6.41 6.41 0 0 1 2.3-.39 6.2 6.2 0 0 1 2.25.38 4.45 4.45 0 0 1 1.63 1.09 4.61 4.61 0 0 1 1 1.73 7.19 7.19 0 0 1 .33 2.25zm-5.2-4a1.77 1.77 0 0 0-1.4.5 2.31 2.31 0 0 0-.54 1.36h3.7a2.17 2.17 0 0 0-.47-1.43 1.72 1.72 0 0 0-1.32-.37zm18.04 7.08a4.88 4.88 0 0 1-1.53 1.35 4.11 4.11 0 0 1-2 .48 4.44 4.44 0 0 1-2-.43 3.91 3.91 0 0 1-1.42-1.19 5.12 5.12 0 0 1-.82-1.78 8.75 8.75 0 0 1-.3-2.21 8 8 0 0 1 .33-2.38 5.27 5.27 0 0 1 .94-1.81A4 4 0 0 1 57.73 95a4.85 4.85 0 0 1 3.74 0 4 4 0 0 1 1.62 1.35v-1.44h1.77v14.68h-1.79zm0-4.15a5.54 5.54 0 0 0-.28-2 2.74 2.74 0 0 0-.9-1.21 3 3 0 0 0-.93-.52 3.66 3.66 0 0 0-1-.14 3.23 3.23 0 0 0-1.22.23 2.41 2.41 0 0 0-1 .73 3.39 3.39 0 0 0-.66 1.3 6.73 6.73 0 0 0-.24 1.93 6.34 6.34 0 0 0 .26 2 3.37 3.37 0 0 0 .68 1.28 2.42 2.42 0 0 0 1 .68 2.93 2.93 0 0 0 1.09.21 3.43 3.43 0 0 0 1.06-.15 3 3 0 0 0 .94-.49 3.38 3.38 0 0 0 .93-1.24 4.66 4.66 0 0 0 .33-1.88zm7.41-5.02h1.79v6.73a3.47 3.47 0 0 0 .49 2.11 1.89 1.89 0 0 0 1.58.62 3.13 3.13 0 0 0 2.16-.87 3.31 3.31 0 0 0 .79-1 2.77 2.77 0 0 0 .27-1.31v-6.28h1.79v10.67h-1.77v-1.65a5.35 5.35 0 0 1-1.69 1.51 4.26 4.26 0 0 1-2 .47 3.23 3.23 0 0 1-2.64-1 4.52 4.52 0 0 1-.81-2.94zm23.75 7.68a3.86 3.86 0 0 1-1.37 2.41 5 5 0 0 1-3.17.88 4.71 4.71 0 0 1-3.69-1.44 6 6 0 0 1-1.3-4.12 7.48 7.48 0 0 1 .3-2.46 5 5 0 0 1 1-1.79A4.6 4.6 0 0 1 87.67 95a5.34 5.34 0 0 1 2-.38 5.09 5.09 0 0 1 2.13.4 3.86 3.86 0 0 1 1.45 1.08 4.65 4.65 0 0 1 .85 1.64 7.58 7.58 0 0 1 .28 2.08v.91h-7.91a4.81 4.81 0 0 0 .22 1.5 3.59 3.59 0 0 0 .62 1.2 2.88 2.88 0 0 0 1 .79 3.18 3.18 0 0 0 1.38.29 3 3 0 0 0 2-.51 2.46 2.46 0 0 0 .85-1.37zm-1.63-3.24a5.34 5.34 0 0 0-.16-1.35 2.92 2.92 0 0 0-.52-1.06 2.37 2.37 0 0 0-.91-.7 3.38 3.38 0 0 0-1.34-.24 2.85 2.85 0 0 0-2.22.86 4.2 4.2 0 0 0-.94 2.52zM99.8 95h.44v1.9a4.62 4.62 0 0 1 1.55-1.53 4.13 4.13 0 0 1 2.12-.54 5.32 5.32 0 0 1 .78.06l-.06.44a2 2 0 0 0-.36-.05h-.36a3.87 3.87 0 0 0-1.84.41 4.17 4.17 0 0 0-1.4 1.24 1.62 1.62 0 0 0-.23.37 2.19 2.19 0 0 0-.13.43 2.26 2.26 0 0 0-.06.53v7.29h-.45z" fill="#404041"/><path d="M109.85 93.49h-.49l2.33-2.64h.56zM109.5 95h.44v10.54h-.44z" fill="#f15d2a"/><path d="M123 105.58v-2a4.2 4.2 0 0 1-1.63 1.66 4.7 4.7 0 0 1-2.35.57 4.15 4.15 0 0 1-2.76-.83 3 3 0 0 1-1-2.39 3.14 3.14 0 0 1 .43-1.71 2.94 2.94 0 0 1 1.16-1 5.77 5.77 0 0 1 1.66-.51 17.36 17.36 0 0 1 2-.18l2.5-.11v-.51a7.39 7.39 0 0 0-.14-1.51 2.44 2.44 0 0 0-.52-1.07 2.22 2.22 0 0 0-1-.65 5.08 5.08 0 0 0-1.64-.22 4.34 4.34 0 0 0-2.39.55 2.62 2.62 0 0 0-1.1 1.64l-.39-.09a2.76 2.76 0 0 1 1.17-1.86 4.76 4.76 0 0 1 2.69-.65 5.54 5.54 0 0 1 1.76.24 2.67 2.67 0 0 1 1.15.74 2.9 2.9 0 0 1 .62 1.18 6.66 6.66 0 0 1 .18 1.63v7.08zm0-6.11l-2.43.11a17.3 17.3 0 0 0-1.87.17 5.47 5.47 0 0 0-1.54.45 2.38 2.38 0 0 0-1 .89 2.72 2.72 0 0 0-.38 1.52 2.56 2.56 0 0 0 .86 2.1 3.75 3.75 0 0 0 2.42.71 4.6 4.6 0 0 0 1.81-.33 4.06 4.06 0 0 0 1.39-1 2.85 2.85 0 0 0 .59-.9A3.09 3.09 0 0 0 123 102z" fill="#404041"/></g></svg>