<svg xmlns="http://www.w3.org/2000/svg" viewBox="0 0 186.72 28.35"><title>Asset 127vectores-Truequería</title><g data-name="Layer 2"><path d="M2.62 10.3H0V5.9h2.62V1.59h5.65V5.9h3.56v4.4H8.27v5.86a1.89 1.89 0 0 0 .5 1.53 2.2 2.2 0 0 0 1.38.39 7.53 7.53 0 0 0 1.56-.19l.72 4.11a13.12 13.12 0 0 1-3.87.59c-2.15 0-3.67-.5-4.58-1.5a6.85 6.85 0 0 1-1.36-4.68zm16.24-4.4h5.49v2a5.41 5.41 0 0 1 2-1.73 5.77 5.77 0 0 1 2.59-.55 6.89 6.89 0 0 1 1.59.16l-.62 4.83a6.73 6.73 0 0 0-.81-.14h-.94a6.22 6.22 0 0 0-1.36.14 3.14 3.14 0 0 0-1.2.51 2.66 2.66 0 0 0-.83 1.1 4.77 4.77 0 0 0-.26 1.71v8.4h-5.65zM47 22.29v-1.94a5.77 5.77 0 0 1-2.2 1.88 6.52 6.52 0 0 1-2.7.56 5 5 0 0 1-3.86-1.51 6.46 6.46 0 0 1-1.36-4.42V5.9h5.65V16a2.45 2.45 0 0 0 .47 1.69 1.81 1.81 0 0 0 1.31.45 2.51 2.51 0 0 0 1.81-.72 3.22 3.22 0 0 0 .52-.78 3.16 3.16 0 0 0 .2-1.25V5.9h5.65v16.39zm29-6.87H65.19A4.67 4.67 0 0 0 66 18a2.49 2.49 0 0 0 2 .76A2.34 2.34 0 0 0 70.59 17h5.28a6.42 6.42 0 0 1-2.5 4.34 8.88 8.88 0 0 1-5.31 1.44q-4.12 0-6.21-2.19a8.63 8.63 0 0 1-2.1-6.24 11.26 11.26 0 0 1 .6-3.82A7.7 7.7 0 0 1 62 7.73 7.08 7.08 0 0 1 64.64 6a9.77 9.77 0 0 1 3.48-.59 9.2 9.2 0 0 1 3.41.59A6.63 6.63 0 0 1 74 7.63a6.88 6.88 0 0 1 1.5 2.61 11 11 0 0 1 .5 3.4zm-7.87-6a2.75 2.75 0 0 0-2.12.75 3.39 3.39 0 0 0-.81 2.06h5.59a3.26 3.26 0 0 0-.71-2.16 2.62 2.62 0 0 0-1.96-.67zM95.41 20a7.57 7.57 0 0 1-2.31 2 6.18 6.18 0 0 1-3.06.73 6.73 6.73 0 0 1-3.04-.6 5.87 5.87 0 0 1-2.13-1.79 7.63 7.63 0 0 1-1.25-2.7 13.29 13.29 0 0 1-.41-3.34 12.26 12.26 0 0 1 .5-3.61A8 8 0 0 1 85.09 8a6.05 6.05 0 0 1 2.25-1.72 7.38 7.38 0 0 1 3-.59 7.18 7.18 0 0 1 2.66.49 5.94 5.94 0 0 1 2.45 2V6.15h2.68v22.2h-2.72zm.06-6.27a8.63 8.63 0 0 0-.42-3 4.6 4.6 0 0 0-2.78-2.6 5 5 0 0 0-1.54-.22 4.92 4.92 0 0 0-1.86.34 3.82 3.82 0 0 0-1.5 1.11 5.45 5.45 0 0 0-1 2 10.25 10.25 0 0 0-.37 2.88 9.9 9.9 0 0 0 .39 3 5.37 5.37 0 0 0 1 1.94 3.77 3.77 0 0 0 1.45 1 4.56 4.56 0 0 0 1.66.31 5.31 5.31 0 0 0 1.61-.22 4.66 4.66 0 0 0 1.42-.75A5 5 0 0 0 95 17.67a7.08 7.08 0 0 0 .5-2.84zm11.15-7.58h2.71v10.18a5.23 5.23 0 0 0 .74 3.18 2.82 2.82 0 0 0 2.38.94 4.82 4.82 0 0 0 3.28-1.31 5.24 5.24 0 0 0 1.19-1.45 4.24 4.24 0 0 0 .4-2V6.15H120v16.14h-2.68v-2.5a8 8 0 0 1-2.56 2.28 6.33 6.33 0 0 1-3 .72 4.89 4.89 0 0 1-4-1.48 6.85 6.85 0 0 1-1.23-4.45zm35.93 11.61a5.79 5.79 0 0 1-2.08 3.69 7.51 7.51 0 0 1-4.79 1.34 7.13 7.13 0 0 1-5.68-2.23 9.13 9.13 0 0 1-2-6.23 11.22 11.22 0 0 1 .57-3.72 7.59 7.59 0 0 1 1.63-2.71 6.78 6.78 0 0 1 2.42-1.67 7.9 7.9 0 0 1 3.06-.58 8 8 0 0 1 3.22.59 6 6 0 0 1 2.2 1.64 7 7 0 0 1 1.28 2.48 11.24 11.24 0 0 1 .42 3.16v1.37h-12a7.55 7.55 0 0 0 .33 2.27 5.55 5.55 0 0 0 .94 1.81 4.24 4.24 0 0 0 1.51 1.2 4.76 4.76 0 0 0 2.09.43 4.7 4.7 0 0 0 3-.76 3.87 3.87 0 0 0 1.28-2.08zm-2.47-4.9a7.93 7.93 0 0 0-.25-2.09 4.24 4.24 0 0 0-.78-1.61 3.59 3.59 0 0 0-1.37-1 5 5 0 0 0-2-.38 4.35 4.35 0 0 0-3.36 1.31 6.37 6.37 0 0 0-1.42 3.81zM151 6.34h.65v2.87A7 7 0 0 1 154 6.9a6.24 6.24 0 0 1 3.2-.81 8.47 8.47 0 0 1 1.19.09l-.1.66-.54-.08h-.55a5.85 5.85 0 0 0-2.78.63 6.3 6.3 0 0 0-2.12 1.87 2.62 2.62 0 0 0-.34.56 3.42 3.42 0 0 0-.21.66 4.89 4.89 0 0 0-.09.79v11.08H151z" fill="#404041"/><path d="M166.18 4h-.75L169 0h.84zm-.53 2.34h.66v16h-.66z" fill="#f15d2a"/><path d="M186.07 22.29v-3a6.44 6.44 0 0 1-2.47 2.52 7.16 7.16 0 0 1-3.56.86 6.21 6.21 0 0 1-4.16-1.27 4.46 4.46 0 0 1-1.49-3.6 4.64 4.64 0 0 1 .66-2.6 4.42 4.42 0 0 1 1.75-1.54 8.4 8.4 0 0 1 2.51-.77 27.66 27.66 0 0 1 3-.28l3.78-.15v-.78a10.12 10.12 0 0 0-.22-2.28 3.7 3.7 0 0 0-.78-1.63 3.44 3.44 0 0 0-1.54-1 8 8 0 0 0-2.55-.31 6.57 6.57 0 0 0-3.6.83 3.92 3.92 0 0 0-1.67 2.48l-.6-.12A4.28 4.28 0 0 1 177 6.82a7.37 7.37 0 0 1 4.08-1 8.23 8.23 0 0 1 2.67.37 4.11 4.11 0 0 1 1.73 1.11 4.29 4.29 0 0 1 .93 1.8 9.52 9.52 0 0 1 .28 2.46v10.73zm0-9.24l-3.68.16a26.76 26.76 0 0 0-2.83.26 8.76 8.76 0 0 0-2.33.67 3.78 3.78 0 0 0-1.57 1.36 4.11 4.11 0 0 0-.58 2.3 3.85 3.85 0 0 0 1.31 3.2 5.59 5.59 0 0 0 3.61 1 6.92 6.92 0 0 0 2.75-.5 5.93 5.93 0 0 0 2.09-1.47 4.29 4.29 0 0 0 .91-1.35 4.86 4.86 0 0 0 .28-1.8z" fill="#404041"/></g></svg>