<svg xmlns="http://www.w3.org/2000/svg" viewBox="0 0 40.85 40.85"><title>OpenAsset 162ekastudio_logo_04</title><g fill="#231f20" data-name="Layer 2"><path d="M40.85 40.85H0V0h40.85zM1 39.9h38.9V1H1z"/><path d="M10.51 29a4.21 4.21 0 0 1-2.95 1.06 4.59 4.59 0 0 1-2.16-.48 4.48 4.48 0 0 1-1.55-1.36 6.52 6.52 0 0 1-.94-2.08 12.48 12.48 0 0 1-.35-2.63 8.64 8.64 0 0 1 .37-2.62 6.83 6.83 0 0 1 1-2.06 4.76 4.76 0 0 1 1.57-1.34 4.09 4.09 0 0 1 2-.48 3.67 3.67 0 0 1 2.31.69 5 5 0 0 1 1.47 1.75 7.73 7.73 0 0 1 .72 2.32 11.79 11.79 0 0 1 .17 2.4H4.38a5.66 5.66 0 0 0 .16 1.56A4 4 0 0 0 5.12 27a3.11 3.11 0 0 0 1 .91 3.12 3.12 0 0 0 1.47.33 2.64 2.64 0 0 0 1.79-.6 3.1 3.1 0 0 0 .92-1.84H12a5.3 5.3 0 0 1-1.49 3.2zm-.42-8a3.56 3.56 0 0 0-.62-1.12 3.08 3.08 0 0 0-.93-.75 2.45 2.45 0 0 0-1.18-.28 2.53 2.53 0 0 0-1.2.28 3 3 0 0 0-.92.76 4.06 4.06 0 0 0-.6 1.11 5 5 0 0 0-.26 1.37h6a4.91 4.91 0 0 0-.29-1.37zm8.35 2.42L22 29.8h-2.17l-2.71-4.94 1.32-1.44m-3.5 1.72v4.67h-1.71V12.72h1.71v10l4.76-5.42H22zm16.92 4.62a2.11 2.11 0 0 1-1.23.31 1.3 1.3 0 0 1-1.06-.45 2.18 2.18 0 0 1-.4-1.46 4.11 4.11 0 0 1-1.64 1.46 4.46 4.46 0 0 1-2 .45 4.59 4.59 0 0 1-1.35-.19 3 3 0 0 1-1.1-.6 2.9 2.9 0 0 1-.73-1.08 5.07 5.07 0 0 1 0-3.35 3.08 3.08 0 0 1 .8-1.11 3.55 3.55 0 0 1 1.12-.64c.43-.14.86-.26 1.3-.36a12.59 12.59 0 0 1 1.35-.25 7.53 7.53 0 0 0 1.12-.24 1.84 1.84 0 0 0 .76-.46 1.27 1.27 0 0 0 .29-.89 2.42 2.42 0 0 0-.22-1.09 1.68 1.68 0 0 0-.54-.63 2.06 2.06 0 0 0-.75-.29 4.54 4.54 0 0 0-.82-.07 3.14 3.14 0 0 0-1.81.5 2.25 2.25 0 0 0-.79 1.87h-1.7a5.28 5.28 0 0 1 .4-2 3.66 3.66 0 0 1 1-1.29 3.88 3.88 0 0 1 1.38-.72 6.37 6.37 0 0 1 1.64-.18 8.18 8.18 0 0 1 1.4.12 3.29 3.29 0 0 1 1.26.49 2.76 2.76 0 0 1 .91 1.05 4 4 0 0 1 .34 1.76v6.43a5.51 5.51 0 0 0 .07 1.06.42.42 0 0 0 .47.34 1.63 1.63 0 0 0 .53-.1zm-2.78-6.41a2.06 2.06 0 0 1-.85.42 9.31 9.31 0 0 1-1.1.21l-1.16.2a3.71 3.71 0 0 0-1 .35 2.07 2.07 0 0 0-.76.68 2.25 2.25 0 0 0-.29 1.22 2 2 0 0 0 .17.85 1.52 1.52 0 0 0 .45.57 1.69 1.69 0 0 0 .63.31 2.76 2.76 0 0 0 .77.1 3.38 3.38 0 0 0 1.4-.26 2.9 2.9 0 0 0 1-.7 2.8 2.8 0 0 0 .56-.91 2.75 2.75 0 0 0 .19-.93zM5.41 33a1.29 1.29 0 0 0-.88-.3 1.54 1.54 0 0 0-.43.05 1 1 0 0 0-.38.17 1 1 0 0 0-.26.33 1.29 1.29 0 0 0-.1.51.72.72 0 0 0 .15.47.91.91 0 0 0 .37.29 2.63 2.63 0 0 0 .54.19l.61.16a6.08 6.08 0 0 1 .6.21 2.05 2.05 0 0 1 .54.31 1.62 1.62 0 0 1 .38.51 1.93 1.93 0 0 1 .14.77 1.75 1.75 0 0 1-.19.85 1.69 1.69 0 0 1-.47.58 2 2 0 0 1-.65.32 2.66 2.66 0 0 1-.72.1 2.53 2.53 0 0 1-.83-.13 1.86 1.86 0 0 1-.68-.4 1.8 1.8 0 0 1-.47-.68 2.64 2.64 0 0 1-.17-1h.66a1.76 1.76 0 0 0 .12.68 1.45 1.45 0 0 0 .34.46 1.15 1.15 0 0 0 .48.27 1.88 1.88 0 0 0 .57.09 2.5 2.5 0 0 0 .47 0 1.5 1.5 0 0 0 .43-.18 1 1 0 0 0 .3-.34 1.19 1.19 0 0 0 .12-.63 1 1 0 0 0-.14-.53 1.35 1.35 0 0 0-.38-.33 2.63 2.63 0 0 0-.54-.2l-.6-.16a5.45 5.45 0 0 1-.61-.2 2 2 0 0 1-.54-.24 1.48 1.48 0 0 1-.38-.47 1.63 1.63 0 0 1-.14-.71 2 2 0 0 1 .16-.82 1.65 1.65 0 0 1 .43-.57 1.6 1.6 0 0 1 .6-.33 2.09 2.09 0 0 1 .7-.11 2.55 2.55 0 0 1 .74.11 1.66 1.66 0 0 1 .6.36 1.77 1.77 0 0 1 .41.61 2.62 2.62 0 0 1 .16.89h-.66a1.35 1.35 0 0 0-.4-.96zm2.22-.19v-.71h4.15v.71h-1.73v5.53h-.69v-5.53zm9 5.07a1.91 1.91 0 0 1-1.51.6 2.12 2.12 0 0 1-1.57-.57 2.5 2.5 0 0 1-.55-1.82v-4h.7v4a1.89 1.89 0 0 0 .37 1.27 1.31 1.31 0 0 0 1.07.43 1.23 1.23 0 0 0 1-.43 2 2 0 0 0 .34-1.27v-4h.69v4a2.64 2.64 0 0 1-.54 1.79zm4.08-5.78a2.35 2.35 0 0 1 1.85.74 3.31 3.31 0 0 1 .64 2.24 5.89 5.89 0 0 1-.14 1.39 3 3 0 0 1-.45 1 2 2 0 0 1-.78.63 2.6 2.6 0 0 1-1.12.22h-1.79V32.1zm.05 5.54a1.73 1.73 0 0 0 .3 0 1.47 1.47 0 0 0 .37-.1 2.06 2.06 0 0 0 .39-.24 1.51 1.51 0 0 0 .34-.43 2.55 2.55 0 0 0 .25-.68 4 4 0 0 0 .1-1 5 5 0 0 0-.09-1 2 2 0 0 0-.3-.75 1.2 1.2 0 0 0-.53-.47 1.8 1.8 0 0 0-.81-.16h-1.16v4.83zm4.66-5.54v6.24h-.69V32.1zm1.69 1.9a3.24 3.24 0 0 1 .47-1 2.44 2.44 0 0 1 .78-.72 2.11 2.11 0 0 1 1.08-.28 2.18 2.18 0 0 1 1.09.27 2.31 2.31 0 0 1 .77.72 3.24 3.24 0 0 1 .47 1 4.77 4.77 0 0 1 0 2.45 3.24 3.24 0 0 1-.47 1 2.31 2.31 0 0 1-.77.72 2.28 2.28 0 0 1-1.09.26 2.21 2.21 0 0 1-1.08-.26 2.44 2.44 0 0 1-.78-.72 3.24 3.24 0 0 1-.47-1 4.77 4.77 0 0 1 0-2.45zm.63 2.15a2.67 2.67 0 0 0 .33.83 1.67 1.67 0 0 0 .56.59 1.42 1.42 0 0 0 .81.22 1.46 1.46 0 0 0 .82-.22 1.87 1.87 0 0 0 .56-.59 2.93 2.93 0 0 0 .32-.83 4.08 4.08 0 0 0 .1-.93 4.2 4.2 0 0 0-.1-.93 3 3 0 0 0-.32-.82 1.87 1.87 0 0 0-.56-.59 1.46 1.46 0 0 0-.82-.22 1.42 1.42 0 0 0-.81.22 1.67 1.67 0 0 0-.56.59 2.71 2.71 0 0 0-.33.82 4.9 4.9 0 0 0-.1.93 4.73 4.73 0 0 0 .1.93z"/></g></svg>