<svg xmlns="http://www.w3.org/2000/svg" viewBox="0 0 44.69 185.14"><title>OpenAsset 153Color -Home</title><g data-name="Layer 2"><path d="M28.55 179.99a1.64 1.64 0 0 0-.42.37 1.51 1.51 0 0 0-.27.5 1.61 1.61 0 0 0-.1.58 2 2 0 0 0 .21.95 1.76 1.76 0 0 0 .58.63 2.51 2.51 0 0 0 .82.35 3.82 3.82 0 0 0 1 .11 3.51 3.51 0 0 0 .92-.11 2.46 2.46 0 0 0 .81-.35 1.82 1.82 0 0 0 .57-.63 2 2 0 0 0 .21-.95 1.52 1.52 0 0 0-.46-1.18 2.13 2.13 0 0 0-1.22-.52v-1.6a3.6 3.6 0 0 1 1.27.33 2.92 2.92 0 0 1 1.58 1.7 3.72 3.72 0 0 1 .21 1.27 3.83 3.83 0 0 1-.3 1.55 3.39 3.39 0 0 1-.82 1.17 3.81 3.81 0 0 1-1.24.72 4.47 4.47 0 0 1-1.53.25 4.64 4.64 0 0 1-1.56-.25 3.91 3.91 0 0 1-1.26-.72 3.58 3.58 0 0 1-.84-1.17 3.83 3.83 0 0 1-.3-1.55 3.77 3.77 0 0 1 .18-1.17 3.12 3.12 0 0 1 .52-1 2.79 2.79 0 0 1 .84-.72 3.09 3.09 0 0 1 1.16-.36v1.6a1.36 1.36 0 0 0-.56.2zm.22-13.42a3.73 3.73 0 0 1-1.26-.72 3.53 3.53 0 0 1-.84-1.16 4.18 4.18 0 0 1 0-3.11 3.53 3.53 0 0 1 .84-1.16 3.91 3.91 0 0 1 1.26-.72 4.64 4.64 0 0 1 1.56-.26 4.47 4.47 0 0 1 1.53.26 3.81 3.81 0 0 1 1.24.72 3.35 3.35 0 0 1 .82 1.16 4.18 4.18 0 0 1 0 3.11 3.35 3.35 0 0 1-.82 1.16 3.64 3.64 0 0 1-1.24.72 4.47 4.47 0 0 1-1.53.26 4.64 4.64 0 0 1-1.56-.26zm2.48-1.5a2.7 2.7 0 0 0 .81-.36 1.82 1.82 0 0 0 .57-.63 2.23 2.23 0 0 0 0-1.89 1.82 1.82 0 0 0-.57-.63 2.46 2.46 0 0 0-.81-.35 3.51 3.51 0 0 0-.92-.11 3.82 3.82 0 0 0-1 .11 2.51 2.51 0 0 0-.82.35 1.76 1.76 0 0 0-.51.67 2.23 2.23 0 0 0 0 1.89 1.76 1.76 0 0 0 .58.63 2.76 2.76 0 0 0 .82.36 4.35 4.35 0 0 0 1 .11 4 4 0 0 0 .85-.15zm-4.7-18.9l5-3.14h-5v-1.55h7.5v1.66L29 146.23h5v1.55h-7.5zm1.38-16.08h-1.38v-6.15h1.38v2.29h6.12v1.65h-6.12zM24 107.76l1.86 1.72v1L24 109.4zm2.54 2.75l7.5 2.84v-1.66l-1.67-.59v-2.81l1.67-.57v-1.71l-7.5 2.81zm4.6.16l-2.75-1 2.75-1zm-2.59-20.64a1.54 1.54 0 0 0-.69.86 1.66 1.66 0 0 0-.1.59 2 2 0 0 0 .21.94 1.76 1.76 0 0 0 .58.63 2.53 2.53 0 0 0 .82.36 4.35 4.35 0 0 0 1 .11 4 4 0 0 0 .92-.11 2.48 2.48 0 0 0 .81-.36 1.82 1.82 0 0 0 .57-.63 2 2 0 0 0 .21-.94 1.54 1.54 0 0 0-.46-1.19 2.2 2.2 0 0 0-1.22-.52v-1.6a4.08 4.08 0 0 1 1.27.33 3.15 3.15 0 0 1 1 .69 3 3 0 0 1 .61 1 3.74 3.74 0 0 1 .21 1.28 3.86 3.86 0 0 1-.3 1.55 3.35 3.35 0 0 1-.89 1.21 3.84 3.84 0 0 1-1.24.73 4.72 4.72 0 0 1-1.53.25 4.9 4.9 0 0 1-1.56-.25 3.93 3.93 0 0 1-1.26-.73 3.53 3.53 0 0 1-.84-1.16 3.86 3.86 0 0 1-.3-1.55 3.79 3.79 0 0 1 .18-1.18 3.18 3.18 0 0 1 .52-1 2.54 2.54 0 0 1 .84-.72 3.09 3.09 0 0 1 1.16-.39v1.6a1.21 1.21 0 0 0-.52.2zm-.62-12.91h-1.38v-6.15h1.38v2.26h6.12v1.65h-6.12zm-1.38-20.3l7.5-2.81v1.72l-1.67.56v2.81l1.67.59v1.66l-7.5-2.84zm4.6-.09l-2.75.94 2.75 1zm-4.6-15.5l5-3.14h-5V36.5h7.5v1.66l-5 3.12h5v1.55h-7.5zm2.22-16.62a3.91 3.91 0 0 1-1.26-.72 3.58 3.58 0 0 1-.84-1.17 4.15 4.15 0 0 1 0-3.1 3.53 3.53 0 0 1 .84-1.16 3.73 3.73 0 0 1 1.26-.72 4.64 4.64 0 0 1 1.56-.26 4.47 4.47 0 0 1 1.53.26 3.64 3.64 0 0 1 1.24.72 3.35 3.35 0 0 1 .82 1.16 4.15 4.15 0 0 1 0 3.1 3.39 3.39 0 0 1-.82 1.17 3.81 3.81 0 0 1-1.24.72 4.47 4.47 0 0 1-1.53.25 4.64 4.64 0 0 1-1.56-.25zm2.48-1.51a2.46 2.46 0 0 0 .81-.35 1.82 1.82 0 0 0 .57-.63 2.23 2.23 0 0 0 0-1.89 1.82 1.82 0 0 0-.57-.63 2.7 2.7 0 0 0-.81-.36 4 4 0 0 0-.92-.11 4.35 4.35 0 0 0-1 .11 2.76 2.76 0 0 0-.82.36 1.76 1.76 0 0 0-.51.63 2.23 2.23 0 0 0 0 1.89 1.76 1.76 0 0 0 .58.63 2.51 2.51 0 0 0 .82.35 3.82 3.82 0 0 0 1 .11 3.51 3.51 0 0 0 .85-.11zm.95-18.52a1.17 1.17 0 0 0 .43-.36 1.51 1.51 0 0 0 .24-.53 2.67 2.67 0 0 0 0-1.11 1.59 1.59 0 0 0-.14-.47 1.06 1.06 0 0 0-.29-.37.71.71 0 0 0-.47-.14.66.66 0 0 0-.49.19 1.59 1.59 0 0 0-.32.51c-.08.21-.15.45-.22.71s-.13.54-.21.81a6.55 6.55 0 0 1-.25.82 3.12 3.12 0 0 1-.4.72 1.73 1.73 0 0 1-1.48.7 2 2 0 0 1-1-.24 2.32 2.32 0 0 1-.71-.65 3.38 3.38 0 0 1-.42-.9 3.94 3.94 0 0 1-.13-1 4.6 4.6 0 0 1 .13-1.13 3 3 0 0 1 .42-1 2.11 2.11 0 0 1 .76-.66 2.22 2.22 0 0 1 1.14-.25v1.6a1.28 1.28 0 0 0-.56.14 1 1 0 0 0-.35.32 1.58 1.58 0 0 0-.18.46 3.24 3.24 0 0 0-.05.56 1.81 1.81 0 0 0 0 .4 1.14 1.14 0 0 0 .15.36 1 1 0 0 0 .26.27.72.72 0 0 0 .4.11.64.64 0 0 0 .36-.09.71.71 0 0 0 .25-.33 3.32 3.32 0 0 0 .23-.68q.12-.44.3-1.14c0-.14.08-.34.15-.59a2.76 2.76 0 0 1 .35-.74 2.18 2.18 0 0 1 .65-.63 1.81 1.81 0 0 1 1-.27 2.17 2.17 0 0 1 1 .2 2 2 0 0 1 .76.59 2.74 2.74 0 0 1 .5 1 4.6 4.6 0 0 1 .18 1.35 4.75 4.75 0 0 1-.15 1.2 2.88 2.88 0 0 1-.48 1 2.28 2.28 0 0 1-.83.71 2.53 2.53 0 0 1-1.2.26v-1.6a1.38 1.38 0 0 0 .67-.11z"/><path fill="none" stroke="#404041" stroke-miterlimit="10" stroke-width=".17" d="M44.61 68.21v106.51L.11 147.17l44.5-78.96z"/></g></svg>