<svg xmlns="http://www.w3.org/2000/svg" viewBox="0 0 147.98 129.61"><title>OpenAsset 160ekastudio_logo_03</title><path d="M40.22 82q-5.88 5.37-14.8 5.36a23.27 23.27 0 0 1-10.92-2.48 22.39 22.39 0 0 1-7.75-6.82A31.56 31.56 0 0 1 2 67.59 61.15 61.15 0 0 1 .25 54.33a44.66 44.66 0 0 1 1.83-13.15A33.56 33.56 0 0 1 7.2 30.82 24.18 24.18 0 0 1 15 24a20.61 20.61 0 0 1 9.9-2.43 18.73 18.73 0 0 1 11.61 3.47 25.64 25.64 0 0 1 7.41 8.83 39.07 39.07 0 0 1 3.84 11.67 59.66 59.66 0 0 1 .87 12.06H9.38a29.51 29.51 0 0 0 .82 7.85A19.35 19.35 0 0 0 13.13 72a14.74 14.74 0 0 0 12.58 6.3 13.28 13.28 0 0 0 9-3q3.48-3 4.61-9.26h8.52Q46.11 76.59 40.22 82zm-2.08-40.47A18.75 18.75 0 0 0 35 35.87a15.25 15.25 0 0 0-4.67-3.76 12.68 12.68 0 0 0-5.93-1.4 12.83 12.83 0 0 0-6 1.4 14.21 14.21 0 0 0-4.63 3.83 19.66 19.66 0 0 0-3 5.66 25.67 25.67 0 0 0-1.32 6.88h30.06a25 25 0 0 0-1.37-6.95zm41.99 12.29L98 86H87L73.5 61.08l6.63-7.26m-17.64 8.66v23.49h-8.57V0h8.61v50.55L86.48 23H98zm85.12 23.25a10.59 10.59 0 0 1-6.2 1.58 6.72 6.72 0 0 1-5.32-2.26c-1.31-1.5-2-4-2-7.36a21.3 21.3 0 0 1-8.26 7.36 24.05 24.05 0 0 1-16.94 1.29 14.7 14.7 0 0 1-5.53-3 14.22 14.22 0 0 1-3.7-5.42 21.19 21.19 0 0 1-1.37-8.09A21.47 21.47 0 0 1 99.84 61a15.41 15.41 0 0 1 4-5.55 17.41 17.41 0 0 1 5.68-3.22 61.93 61.93 0 0 1 6.54-1.83 68.11 68.11 0 0 1 6.75-1.27 33.4 33.4 0 0 0 5.63-1.22 8.84 8.84 0 0 0 3.85-2.31 6.29 6.29 0 0 0 1.43-4.44 11.86 11.86 0 0 0-1.08-5.48 8.14 8.14 0 0 0-2.73-3.17 9.82 9.82 0 0 0-3.75-1.45 22.3 22.3 0 0 0-4.12-.37 15.86 15.86 0 0 0-9.13 2.49q-3.64 2.5-3.94 9.44h-8.64a26.11 26.11 0 0 1 2-9.87 17.77 17.77 0 0 1 4.87-6.51 18.8 18.8 0 0 1 7-3.59 31.23 31.23 0 0 1 8.36-1.09 40.6 40.6 0 0 1 7 .61 16.21 16.21 0 0 1 6.34 2.49 13.46 13.46 0 0 1 4.61 5.34 19.59 19.59 0 0 1 1.73 8.86v32.28a28.48 28.48 0 0 0 .35 5.33 2.1 2.1 0 0 0 2.38 1.7 8.66 8.66 0 0 0 2.64-.48zm-14-32.27a9.8 9.8 0 0 1-4.28 2.13 55 55 0 0 1-5.52 1.09c-1.92.28-3.87.6-5.83 1a18.57 18.57 0 0 0-5.27 1.76 9.87 9.87 0 0 0-3.81 3.45 11 11 0 0 0-1.46 6.11 9.68 9.68 0 0 0 .86 4.31 8.09 8.09 0 0 0 2.24 2.84 8.44 8.44 0 0 0 3.19 1.57 14.67 14.67 0 0 0 3.85.48 17.44 17.44 0 0 0 7.31-1.38 15 15 0 0 0 5-3.51 14.08 14.08 0 0 0 2.85-4.6 13.61 13.61 0 0 0 .92-4.67zM14.59 101.81a6.6 6.6 0 0 0-4.46-1.51 8.28 8.28 0 0 0-2.15.27 5.12 5.12 0 0 0-1.89.87 4.47 4.47 0 0 0-1.32 1.65 5.91 5.91 0 0 0-.5 2.57A3.63 3.63 0 0 0 5 108a5.43 5.43 0 0 0 1.89 1.47 14.21 14.21 0 0 0 2.7 1c1 .24 2 .51 3.06.81a31.43 31.43 0 0 1 3.06 1 10 10 0 0 1 2.69 1.6 7.27 7.27 0 0 1 1.89 2.55 10.52 10.52 0 0 1-.21 8.15 8.59 8.59 0 0 1-2.41 2.9 9.52 9.52 0 0 1-3.26 1.63 13.39 13.39 0 0 1-3.61.51 13 13 0 0 1-4.16-.67 9.64 9.64 0 0 1-3.44-2 9.21 9.21 0 0 1-2.34-3.42 12.85 12.85 0 0 1-.86-5h3.3a8.37 8.37 0 0 0 .63 3.47 6.76 6.76 0 0 0 1.69 2.35 6.45 6.45 0 0 0 2.43 1.36 9.48 9.48 0 0 0 2.86.43 11.27 11.27 0 0 0 2.36-.25 6.21 6.21 0 0 0 2.14-.91 4.67 4.67 0 0 0 1.59-1.74 6 6 0 0 0 .58-2.82 4.52 4.52 0 0 0-.7-2.63 5.61 5.61 0 0 0-1.91-1.66 13.09 13.09 0 0 0-2.69-1c-1-.25-2-.54-3.06-.81s-2.07-.6-3.06-1a10.22 10.22 0 0 1-2.69-1.45 6.57 6.57 0 0 1-1.91-2.33A7.91 7.91 0 0 1 .81 106a9.88 9.88 0 0 1 .8-4.11A8 8 0 0 1 3.75 99a8.93 8.93 0 0 1 3-1.67 11.18 11.18 0 0 1 3.5-.54 11.76 11.76 0 0 1 3.73.56 8.13 8.13 0 0 1 3 1.8 8.75 8.75 0 0 1 2.05 3.1 12.76 12.76 0 0 1 .82 4.46h-3.3a7 7 0 0 0-1.96-4.9zm11.14-.76v-3.53h20.9v3.53h-8.7v27.85h-3.49v-27.85zM71 126.59q-2.69 3-7.63 3a10.55 10.55 0 0 1-7.88-2.89c-1.9-1.91-2.85-5-2.85-9.16v-20h3.48v20c0 2.82.63 4.94 1.87 6.4a6.73 6.73 0 0 0 5.38 2.16 6.15 6.15 0 0 0 5.11-2.1c1.16-1.46 1.74-3.58 1.74-6.4v-20h3.47v20c0 3.98-.9 6.98-2.69 8.99zm20.53-29.07q6 0 9.3 3.7t3.25 11.25a30 30 0 0 1-.73 7 14 14 0 0 1-2.27 5.14 9.81 9.81 0 0 1-3.92 3.18 13.18 13.18 0 0 1-5.63 1.11h-9V97.52zm.28 27.87a13.22 13.22 0 0 0 1.48-.11 7.76 7.76 0 0 0 1.86-.53 8.4 8.4 0 0 0 2-1.22 7.24 7.24 0 0 0 1.74-2.15 13.24 13.24 0 0 0 1.26-3.39 21 21 0 0 0 .49-5 25.37 25.37 0 0 0-.45-5 10.69 10.69 0 0 0-1.5-3.78 6.77 6.77 0 0 0-2.69-2.36 9.33 9.33 0 0 0-4.06-.8H86v24.34zm23.44-27.87v31.38h-3.48V97.52zm8.47 9.48a17.11 17.11 0 0 1 2.37-5.25 12 12 0 0 1 3.91-3.6 11.62 11.62 0 0 1 10.91 0 12 12 0 0 1 3.9 3.63 16.65 16.65 0 0 1 2.37 5.25 24.57 24.57 0 0 1 0 12.36 16.45 16.45 0 0 1-2.37 5.25 11.83 11.83 0 0 1-3.9 3.62 11.7 11.7 0 0 1-10.91 0 11.89 11.89 0 0 1-3.92-3.62 16.89 16.89 0 0 1-2.37-5.25 24.57 24.57 0 0 1 0-12.36zm3.2 10.86a13.77 13.77 0 0 0 1.62 4.16 9 9 0 0 0 2.81 3 8.15 8.15 0 0 0 8.21 0 9 9 0 0 0 2.82-3 14 14 0 0 0 1.61-4.16 21.73 21.73 0 0 0 0-9.36 13.9 13.9 0 0 0-1.61-4.14 9 9 0 0 0-2.82-3 8.08 8.08 0 0 0-8.21 0 9 9 0 0 0-2.81 3 13.65 13.65 0 0 0-1.62 4.14 21.73 21.73 0 0 0 0 9.36z" data-name="Layer 2"/></svg>