<svg xmlns="http://www.w3.org/2000/svg" viewBox="0 0 24.31 197.71"><title>OpenAsset 151vector-eka</title><path d="M20.24 4a1.67 1.67 0 0 1-.94-.27 1.72 1.72 0 0 1-.64-.78 2.72 2.72 0 0 1-.23-1.19 4.26 4.26 0 0 1 .08-.95 3.13 3.13 0 0 1 .28-.81h1.37a4.47 4.47 0 0 0-.35.92 3.22 3.22 0 0 0-.13.87.87.87 0 0 0 .12.51.36.36 0 0 0 .31.16.29.29 0 0 0 .2-.07.72.72 0 0 0 .18-.2c.06-.1.18-.35.37-.76a3.57 3.57 0 0 1 .49-.84 1.45 1.45 0 0 1 .55-.41 1.79 1.79 0 0 1 .73-.14 1.48 1.48 0 0 1 1.23.61 2.58 2.58 0 0 1 .44 1.58 4.48 4.48 0 0 1-.41 1.81l-1.19-.51a3.48 3.48 0 0 0 .36-1.38.73.73 0 0 0-.1-.44.33.33 0 0 0-.26-.14.35.35 0 0 0-.3.18 6.58 6.58 0 0 0-.49.94 2.61 2.61 0 0 1-.71 1 1.5 1.5 0 0 1-.96.31zm-1.73 8.88h5.71v1.56h-5.71zm3.34 13.08v2.47h-3.08a6.78 6.78 0 0 1-.34-2.21 2.66 2.66 0 0 1 .76-2 3.08 3.08 0 0 1 2.19-.72 2.85 2.85 0 0 1 2.15.79 3 3 0 0 1 .77 2.21 5.51 5.51 0 0 1-.1 1 4.79 4.79 0 0 1-.26.83l-1.21-.49a3 3 0 0 0 .3-1.35 1.28 1.28 0 0 0-.44-1.05 1.92 1.92 0 0 0-1.25-.37 1.87 1.87 0 0 0-1.22.34 1.15 1.15 0 0 0-.42 1 3.06 3.06 0 0 0 .06.63h.9v-1zm2.37 16.49h-3.44a2.29 2.29 0 0 1-1.78-.64 3 3 0 0 1 0-3.62 2.27 2.27 0 0 1 1.72-.63h3.48v1.55h-3.34a1.35 1.35 0 0 0-.87.23.79.79 0 0 0-.28.67.81.81 0 0 0 .29.64 1.47 1.47 0 0 0 .89.21h3.35zm-5.71 12.59v-3.39h5.71v3.39H23v-1.85h-.9v1.71h-1.26v-1.71h-1.08v1.85zm5.71 19.07v2a3.42 3.42 0 0 1-.35 1.73 1.18 1.18 0 0 1-1.08.56 1.33 1.33 0 0 1-.79-.25 1.09 1.09 0 0 1-.43-.64 1.31 1.31 0 0 1-.47.76 1.4 1.4 0 0 1-.85.24 1.46 1.46 0 0 1-1.25-.58 2.54 2.54 0 0 1-.44-1.59v-2.23zm-3.32 1.54h-1.2v.54c0 .48.2.72.61.72a.5.5 0 0 0 .43-.19.85.85 0 0 0 .16-.56zm1.1 0v.46a.87.87 0 0 0 .14.52.48.48 0 0 0 .41.18c.32 0 .48-.24.48-.73v-.43zm-3.49 15.36l1.07-.28v-1.86l-1.07-.29v-1.69l5.73 1.86v2.06l-5.73 1.89zm2.33-.6l.94-.25.81-.21.71-.16-.66-.14c-.3-.07-.9-.22-1.8-.46zm-4.13 10.45a4.17 4.17 0 0 1 .08-.8H18a2.56 2.56 0 0 1 0 .27 1.45 1.45 0 0 0 0 .3.63.63 0 0 0 .23.55 1.42 1.42 0 0 0 .79.17h5.29v1.55h-5.25a2.63 2.63 0 0 1-1.75-.51 1.9 1.9 0 0 1-.6-1.53zm1.8 14.79l1.07-.28v-1.85l-1.07-.29v-1.7l5.73 1.87v2.06l-5.73 1.88zm2.33-.6l.94-.24.81-.21c.33-.08.56-.14.71-.16l-.66-.14-1.8-.46zm-2.33 16.33v-2l4-2.08c-.63 0-1.12.08-1.45.08h-2.55v-1.37h5.71v2l-4 2.08c.57 0 1-.06 1.38-.06h2.59v1.38zm2.97 14.08a2.92 2.92 0 0 1-2.2-.79 3 3 0 0 1-.77-2.21v-1.81h5.71v2a3 3 0 0 1-.71 2.12 2.64 2.64 0 0 1-2.03.69zm-.05-1.6a1.85 1.85 0 0 0 1.16-.31 1.16 1.16 0 0 0 .38-1v-.45h-3.2v.35a1.25 1.25 0 0 0 .41 1 2 2 0 0 0 1.25.41zm-.06 15.97a3.08 3.08 0 0 1-2.19-.71 3.22 3.22 0 0 1 0-4.13 3.07 3.07 0 0 1 2.2-.72 3 3 0 0 1 2.17.71 3.22 3.22 0 0 1 0 4.14 3.08 3.08 0 0 1-2.18.71zm0-3.93c-1.11 0-1.66.38-1.66 1.15a1 1 0 0 0 .4.87 2.22 2.22 0 0 0 1.26.28 2.13 2.13 0 0 0 1.26-.29 1 1 0 0 0 .41-.85c-.04-.78-.56-1.16-1.67-1.16zm-8.98 26.99l-6 14.82h-.54L0 182.89z" fill="#00babc" data-name="Layer 2"/></svg>