<svg xmlns="http://www.w3.org/2000/svg" viewBox="0 0 44.69 185.14"><title>OpenAsset 157Logo menu</title><g data-name="Layer 2"><path d="M16.14 5.14a1.64 1.64 0 0 0 .42-.37 1.72 1.72 0 0 0 .38-1.08 1.88 1.88 0 0 0-.22-.95 1.67 1.67 0 0 0-.58-.63 2.42 2.42 0 0 0-.82-.35 4.35 4.35 0 0 0-1-.11 4.06 4.06 0 0 0-.92.11 2.41 2.41 0 0 0-.8.35 1.85 1.85 0 0 0-.58.63 2 2 0 0 0-.21.95 1.5 1.5 0 0 0 .46 1.18 2.1 2.1 0 0 0 1.22.52v1.6a3.89 3.89 0 0 1-1.27-.32 3.13 3.13 0 0 1-1-.7 3 3 0 0 1-.61-1 3.68 3.68 0 0 1-.21-1.27 3.86 3.86 0 0 1 .3-1.55 3.28 3.28 0 0 1 .83-1.16 3.62 3.62 0 0 1 1.3-.74A4.55 4.55 0 0 1 14.36 0a4.64 4.64 0 0 1 1.56.25 3.76 3.76 0 0 1 1.26.73A3.18 3.18 0 0 1 18 2.14a3.86 3.86 0 0 1 .31 1.55 3.77 3.77 0 0 1-.18 1.17 3.34 3.34 0 0 1-.52 1 2.83 2.83 0 0 1-.85.72 3 3 0 0 1-1.16.36V5.33a1.3 1.3 0 0 0 .54-.19zm-.22 13.46a3.91 3.91 0 0 1 1.26.72 3.31 3.31 0 0 1 .82 1.13 4 4 0 0 1 0 3.15 3.27 3.27 0 0 1-.84 1.16 3.76 3.76 0 0 1-1.26.73 4.9 4.9 0 0 1-1.56.25 4.81 4.81 0 0 1-1.53-.25 3.62 3.62 0 0 1-1.23-.73 3.37 3.37 0 0 1-.81-1.16 4.15 4.15 0 0 1 0-3.1 3.41 3.41 0 0 1 .83-1.17 3.76 3.76 0 0 1 1.23-.73 4.55 4.55 0 0 1 1.53-.25 4.64 4.64 0 0 1 1.56.25zm-2.48 1.51a2.41 2.41 0 0 0-.8.35 1.85 1.85 0 0 0-.58.63 2 2 0 0 0-.21.95 2 2 0 0 0 .21.94 1.85 1.85 0 0 0 .58.63 2.42 2.42 0 0 0 .8.36 4.06 4.06 0 0 0 .92.11 4.35 4.35 0 0 0 1-.11 2.44 2.44 0 0 0 .82-.36 1.67 1.67 0 0 0 .58-.63 1.84 1.84 0 0 0 .22-.94 1.88 1.88 0 0 0-.22-.95 1.67 1.67 0 0 0-.58-.63 2.42 2.42 0 0 0-.82-.35 3.82 3.82 0 0 0-1-.11 3.56 3.56 0 0 0-.92.07zm4.71 18.86l-5 3.13h5v1.55h-7.51v-1.63l5-3.13h-5v-1.56h7.51zm-1.39 16.08h1.39v6.15h-1.39v-2.25h-6.12V57.3h6.12zm1.39 21.27l-7.51 2.8v-1.71l1.67-.57v-2.8l-1.67-.59v-1.66l7.51 2.81zm-4.61.09l2.76-.94-2.76-1zm7.14-.68l-1.86-1.13v1l1.86 1.72zm-4.54 19.38a1.64 1.64 0 0 0 .42-.37 1.74 1.74 0 0 0 .28-.5 1.65 1.65 0 0 0 .1-.58 1.86 1.86 0 0 0-.22-1 1.67 1.67 0 0 0-.58-.63 2.42 2.42 0 0 0-.82-.35 3.82 3.82 0 0 0-1-.11 3.56 3.56 0 0 0-.92.11 2.41 2.41 0 0 0-.8.35 1.85 1.85 0 0 0-.58.63 2 2 0 0 0-.21 1 1.52 1.52 0 0 0 .46 1.18 2.16 2.16 0 0 0 1.22.52v1.6a3.66 3.66 0 0 1-1.23-.36 2.92 2.92 0 0 1-1.58-1.7 3.72 3.72 0 0 1-.21-1.27 3.79 3.79 0 0 1 .3-1.55 3.41 3.41 0 0 1 .83-1.17 3.76 3.76 0 0 1 1.23-.72 4.55 4.55 0 0 1 1.53-.25 4.64 4.64 0 0 1 1.56.25 3.91 3.91 0 0 1 1.26.72 3.31 3.31 0 0 1 .82 1.2 4 4 0 0 1 .13 2.72 3.34 3.34 0 0 1-.52 1 2.83 2.83 0 0 1-.85.72 2.87 2.87 0 0 1-1.16.35v-1.6a1.3 1.3 0 0 0 .54-.19zm.62 12.9h1.39v6.15h-1.39v-2.25h-6.12v-1.65h6.12zm1.39 20.3l-7.51 2.81v-1.71l1.67-.57v-2.81l-1.67-.59v-1.66l7.51 2.82zm-4.61.1l2.76-1-2.76-1zm4.61 15.52l-5 3.13h5v1.54h-7.51v-1.65l5-3.13h-5v-1.54h7.51zm-2.23 16.59a3.76 3.76 0 0 1 1.26.73 3.18 3.18 0 0 1 .84 1.16 3.83 3.83 0 0 1 .31 1.55 3.88 3.88 0 0 1-.31 1.56 3.23 3.23 0 0 1-.84 1.15 3.76 3.76 0 0 1-1.26.73 4.64 4.64 0 0 1-1.56.25 4.55 4.55 0 0 1-1.53-.25 3.62 3.62 0 0 1-1.23-.73 3.33 3.33 0 0 1-.83-1.15 3.88 3.88 0 0 1-.3-1.56 3.83 3.83 0 0 1 .3-1.55 3.28 3.28 0 0 1 .83-1.16 3.62 3.62 0 0 1 1.23-.73 4.55 4.55 0 0 1 1.53-.25 4.64 4.64 0 0 1 1.56.25zm-2.48 1.51a2.41 2.41 0 0 0-.8.35 1.85 1.85 0 0 0-.58.63 2.25 2.25 0 0 0 0 1.9 2.05 2.05 0 0 0 .58.63 2.63 2.63 0 0 0 .8.35 4.06 4.06 0 0 0 .92.11 4.35 4.35 0 0 0 1-.11 2.64 2.64 0 0 0 .82-.35 1.83 1.83 0 0 0 .58-.63 2.16 2.16 0 0 0 0-1.9 1.67 1.67 0 0 0-.58-.63 2.42 2.42 0 0 0-.82-.35 4.35 4.35 0 0 0-1-.11 4.06 4.06 0 0 0-.92.11zm-.95 18.57a1.26 1.26 0 0 0-.43.36 2 2 0 0 0-.24.53 2.74 2.74 0 0 0-.08.64 4.26 4.26 0 0 0 0 .47 1.83 1.83 0 0 0 .14.47 1.06 1.06 0 0 0 .29.37.72.72 0 0 0 .47.15.65.65 0 0 0 .49-.2 1.44 1.44 0 0 0 .32-.51 5.43 5.43 0 0 0 .22-.71q.09-.41.21-.81a7.13 7.13 0 0 1 .26-.82 2.76 2.76 0 0 1 .39-.72 1.89 1.89 0 0 1 .61-.51 1.82 1.82 0 0 1 .88-.19 1.9 1.9 0 0 1 1 .25 2.29 2.29 0 0 1 .71.64 2.81 2.81 0 0 1 .42.91 3.85 3.85 0 0 1 .14 1 5.22 5.22 0 0 1-.13 1.13 2.8 2.8 0 0 1-.43 1 2.3 2.3 0 0 1-.73.55 2.39 2.39 0 0 1-1.11.24v-1.59a1.48 1.48 0 0 0 .56-.15.87.87 0 0 0 .34-.32 1.12 1.12 0 0 0 .18-.45 2.57 2.57 0 0 0 .05-.57 1.87 1.87 0 0 0 0-.4 1.14 1.14 0 0 0-.15-.36.84.84 0 0 0-.26-.27.7.7 0 0 0-.4-.1.68.68 0 0 0-.36.08.83.83 0 0 0-.25.33 5.49 5.49 0 0 0-.23.69c-.08.29-.17.67-.29 1.14 0 .14-.08.33-.16.58a2.62 2.62 0 0 1-.35.74 2.17 2.17 0 0 1-.64.64 1.85 1.85 0 0 1-1 .27 2.39 2.39 0 0 1-1-.2 2.2 2.2 0 0 1-.76-.6 2.92 2.92 0 0 1-.5-1 4.55 4.55 0 0 1-.18-1.35 4.81 4.81 0 0 1 .15-1.2 3.37 3.37 0 0 1 .48-1 2.37 2.37 0 0 1 .83-.71 2.41 2.41 0 0 1 1.2-.25v1.59a1.41 1.41 0 0 0-.66.22z"/><path fill="none" stroke="#404041" stroke-miterlimit="10" stroke-width=".17" d="M.08 116.93V10.42l44.5 27.55-44.5 78.96z"/></g></svg>