<svg xmlns="http://www.w3.org/2000/svg" viewBox="0 0 141.74 129.35"><title>Asset 236012442</title><g id="Layer_2" data-name="Layer 2"><g id="Texto"><path d="M.46,103.55H3.1l3.66,10.23,3.76-10.23h2.56v12.86h-2v-9.34l-3.53,9.34H5.82l-3.41-9.33v9.33H.46Z" fill="#231f20"/><path d="M30.32,116.41,26.61,106l-3.68,10.39H20.68l4.9-12.86h2.16l4.9,12.86Z" fill="#231f20"/><path d="M50.77,109.59v5.29a6.47,6.47,0,0,1-2.34,1.39,8.28,8.28,0,0,1-2.72.47,6.57,6.57,0,0,1-2.61-.48,5.1,5.1,0,0,1-1.89-1.35,5.75,5.75,0,0,1-1.13-2.12A9.23,9.23,0,0,1,39.7,110a8.89,8.89,0,0,1,.42-2.82,6.1,6.1,0,0,1,1.17-2.13,4.91,4.91,0,0,1,1.83-1.35,6,6,0,0,1,2.41-.47,6.33,6.33,0,0,1,2,.3,4.35,4.35,0,0,1,1.47.82,4.21,4.21,0,0,1,1,1.21,5.87,5.87,0,0,1,.53,1.49l-2.14.3a6,6,0,0,0-.36-1,2.13,2.13,0,0,0-.54-.71,2.22,2.22,0,0,0-.82-.44,4,4,0,0,0-1.17-.15,3.28,3.28,0,0,0-1.57.35,3.06,3.06,0,0,0-1.13,1,4.51,4.51,0,0,0-.66,1.56,8.17,8.17,0,0,0-.22,2,8.42,8.42,0,0,0,.22,2,4.25,4.25,0,0,0,.68,1.54,3.11,3.11,0,0,0,1.18,1,3.88,3.88,0,0,0,1.72.34,6.21,6.21,0,0,0,1.62-.19,4.28,4.28,0,0,0,1.39-.65v-2.62H45.91v-1.83Z" fill="#231f20"/><path d="M60.91,103.55v7.71a4.55,4.55,0,0,0,.66,2.71,2.57,2.57,0,0,0,2.22.89A2.49,2.49,0,0,0,66,114a4.71,4.71,0,0,0,.64-2.71v-7.71H68.8v7.71a7.74,7.74,0,0,1-.36,2.53,4.2,4.2,0,0,1-1,1.69,3.94,3.94,0,0,1-1.58,1,6.63,6.63,0,0,1-2,.3A5,5,0,0,1,60,115.41a5.83,5.83,0,0,1-1.28-4.2v-7.66Z" fill="#231f20"/><path d="M76.81,103.55h8.51v1.88H79v3.42H84.8v1.89H79v3.8h6.33v1.87H76.81Z" fill="#231f20"/><path d="M97.83,111.07l-4.47-7.52h2.43l3.1,5.59,3.17-5.59h2.3L100,111.07v5.34H97.83Z" fill="#231f20"/><path d="M116.72,103.55a7.08,7.08,0,0,1,2.4.35,4,4,0,0,1,1.5.89,3.13,3.13,0,0,1,.76,1.21,4.15,4.15,0,0,1,.22,1.32,4.08,4.08,0,0,1-.5,2.1,3.52,3.52,0,0,1-1.59,1.38l2.66,5.61h-2.38l-2.3-5.11-.34,0h-2.68v5.08h-2.15V103.55Zm.16,6a3.84,3.84,0,0,0,1.22-.16,1.79,1.79,0,0,0,.77-.43,1.6,1.6,0,0,0,.39-.67,3.09,3.09,0,0,0,.12-.89,2.43,2.43,0,0,0-.14-.82,1.5,1.5,0,0,0-.44-.62,2.13,2.13,0,0,0-.84-.41,4.79,4.79,0,0,0-1.3-.15h-2.19v4.15Z" fill="#231f20"/><path d="M135.42,116.74a6.57,6.57,0,0,1-2.49-.46A5.41,5.41,0,0,1,131,115a5.88,5.88,0,0,1-1.21-2.12,8.6,8.6,0,0,1-.43-2.84,8.42,8.42,0,0,1,.44-2.84,5.91,5.91,0,0,1,1.22-2.14,5.18,5.18,0,0,1,1.91-1.33,6.31,6.31,0,0,1,2.46-.46,6.39,6.39,0,0,1,2.49.46A5.29,5.29,0,0,1,139.8,105a5.91,5.91,0,0,1,1.19,2.12,8.65,8.65,0,0,1,.43,2.84,8.9,8.9,0,0,1-.42,2.85,6.11,6.11,0,0,1-1.18,2.13,5.19,5.19,0,0,1-1.89,1.33A6.57,6.57,0,0,1,135.42,116.74Zm0-1.88a3.27,3.27,0,0,0,2.81-1.3,6,6,0,0,0,.95-3.57,7.5,7.5,0,0,0-.25-2,4.5,4.5,0,0,0-.7-1.53,3.45,3.45,0,0,0-1.17-1,4.13,4.13,0,0,0-3.28,0,3.39,3.39,0,0,0-1.18,1,4.16,4.16,0,0,0-.71,1.53,7.93,7.93,0,0,0-.24,2,6,6,0,0,0,1,3.57A3.25,3.25,0,0,0,135.41,114.86Z" fill="#231f20"/><path d="M.32,49.37H3.86V50H1v1.73H3.35v.63H1v1.9H3.86v.62H.32Z" fill="#231f20"/><path d="M6.84,53.32a1.29,1.29,0,0,0,.46.84,2,2,0,0,0,1.1.25,1.74,1.74,0,0,0,.6-.08,1,1,0,0,0,.39-.21.81.81,0,0,0,.21-.32,1.21,1.21,0,0,0,.06-.38,1.06,1.06,0,0,0,0-.31.51.51,0,0,0-.15-.28,1.12,1.12,0,0,0-.31-.22,1.88,1.88,0,0,0-.5-.14L8,52.35a4.17,4.17,0,0,1-.72-.19,2,2,0,0,1-.54-.3,1.25,1.25,0,0,1-.33-.45,1.82,1.82,0,0,1-.11-.66,1.29,1.29,0,0,1,.16-.66,1.49,1.49,0,0,1,.42-.48,1.83,1.83,0,0,1,.65-.28,3.32,3.32,0,0,1,.8-.09,3.33,3.33,0,0,1,.91.11,1.7,1.7,0,0,1,.6.32,1.45,1.45,0,0,1,.35.47,2.47,2.47,0,0,1,.18.52l-.66.13a1.67,1.67,0,0,0-.16-.41.83.83,0,0,0-.26-.3,1,1,0,0,0-.38-.18,2.27,2.27,0,0,0-.57-.07,2.74,2.74,0,0,0-.63.07,1.31,1.31,0,0,0-.41.2.66.66,0,0,0-.22.28,1,1,0,0,0-.06.35,1,1,0,0,0,0,.36.66.66,0,0,0,.16.26,1.07,1.07,0,0,0,.32.18,3.24,3.24,0,0,0,.48.13l.77.14a2.55,2.55,0,0,1,1.26.53,1.47,1.47,0,0,1,.4,1.1,1.6,1.6,0,0,1-.13.62,1.37,1.37,0,0,1-.38.51,1.72,1.72,0,0,1-.63.34A2.88,2.88,0,0,1,8.4,55a3.51,3.51,0,0,1-.89-.1,2,2,0,0,1-.69-.3,1.61,1.61,0,0,1-.47-.53,2,2,0,0,1-.22-.77Z" fill="#231f20"/><path d="M14.3,50H12.48v-.64h4.36V50H15v4.87H14.3Z" fill="#231f20"/><path d="M19,54h.77v.9H19Z" fill="#231f20"/><path d="M119.66,54.32c.19-.17.4-.36.64-.55l.68-.6.65-.59a4.19,4.19,0,0,0,.46-.52,1.67,1.67,0,0,0,.28-.5,1.63,1.63,0,0,0,.09-.55,1,1,0,0,0-.26-.74,1,1,0,0,0-.73-.26,1.73,1.73,0,0,0-.49.06.92.92,0,0,0-.34.18,1,1,0,0,0-.23.3,3.22,3.22,0,0,0-.15.41l-.65-.1a2.62,2.62,0,0,1,.2-.53,1.54,1.54,0,0,1,.33-.47,1.58,1.58,0,0,1,.55-.33,2,2,0,0,1,.79-.13,2.27,2.27,0,0,1,.72.11,1.58,1.58,0,0,1,.54.32,1.53,1.53,0,0,1,.32.5,1.81,1.81,0,0,1,.11.63,2,2,0,0,1-.1.65,2.15,2.15,0,0,1-.29.59,3.88,3.88,0,0,1-.51.6c-.21.21-.45.43-.73.67s-.3.26-.47.39l-.45.4h2.6l-.1.62h-3.46Z" fill="#231f20"/><path d="M127.54,55a1.7,1.7,0,0,1-1.43-.68,3.52,3.52,0,0,1-.51-2.12,5.14,5.14,0,0,1,.13-1.26,2.66,2.66,0,0,1,.4-.88,1.62,1.62,0,0,1,.62-.52,2,2,0,0,1,.82-.16,1.92,1.92,0,0,1,.81.16,1.46,1.46,0,0,1,.61.52,2.3,2.3,0,0,1,.38.88,5.7,5.7,0,0,1,0,2.51,2.25,2.25,0,0,1-.38.87,1.52,1.52,0,0,1-.62.51A2,2,0,0,1,127.54,55Zm0-.6a1.06,1.06,0,0,0,.58-.15,1.18,1.18,0,0,0,.38-.44,2.57,2.57,0,0,0,.21-.69,7.16,7.16,0,0,0,0-1.85,2.69,2.69,0,0,0-.21-.69,1.18,1.18,0,0,0-.38-.44,1.06,1.06,0,0,0-.58-.15,1.08,1.08,0,0,0-.59.15,1,1,0,0,0-.38.44,2.08,2.08,0,0,0-.21.69,6.15,6.15,0,0,0,0,1.85,2,2,0,0,0,.21.69,1,1,0,0,0,.38.44A1.08,1.08,0,0,0,127.56,54.42Z" fill="#231f20"/><path d="M133.67,50.3l-1.23.74-.29-.51,1.59-1h.62v5.33h-.69Z" fill="#231f20"/><path d="M138.79,52.16a1.33,1.33,0,0,1-.58-.45,1.31,1.31,0,0,1-.24-.82,1.63,1.63,0,0,1,.11-.59,1.26,1.26,0,0,1,.33-.47,1.73,1.73,0,0,1,.57-.32,2.66,2.66,0,0,1,.8-.11,2.78,2.78,0,0,1,.81.11,1.67,1.67,0,0,1,.56.31,1.27,1.27,0,0,1,.32.48,1.63,1.63,0,0,1,.11.59,1.26,1.26,0,0,1-.24.81,1.21,1.21,0,0,1-.57.43,1.66,1.66,0,0,1,.33.16,1.53,1.53,0,0,1,.31.26,1.45,1.45,0,0,1,.24.38,1.36,1.36,0,0,1,.09.51,1.75,1.75,0,0,1-.12.65,1.28,1.28,0,0,1-.37.5,1.67,1.67,0,0,1-.61.31,3.14,3.14,0,0,1-1.72,0,1.72,1.72,0,0,1-.62-.31,1.28,1.28,0,0,1-.37-.5,1.75,1.75,0,0,1-.12-.65,1.31,1.31,0,0,1,.1-.5,1.41,1.41,0,0,1,.25-.37,1.1,1.1,0,0,1,.31-.26A1.3,1.3,0,0,1,138.79,52.16Zm-.29,1.28a1,1,0,0,0,.31.74,1.42,1.42,0,0,0,1,.28,1.36,1.36,0,0,0,1-.28,1,1,0,0,0,.3-.74A1.25,1.25,0,0,0,141,53a.77.77,0,0,0-.22-.32.89.89,0,0,0-.39-.19,2,2,0,0,0-.59-.07,2.09,2.09,0,0,0-.61.07,1,1,0,0,0-.39.2.68.68,0,0,0-.22.31A1.34,1.34,0,0,0,138.5,53.44Zm.13-2.52a.89.89,0,0,0,.28.72,1.76,1.76,0,0,0,1.74,0,.89.89,0,0,0,.28-.73,1.15,1.15,0,0,0-.06-.37.79.79,0,0,0-.2-.31,1.25,1.25,0,0,0-.36-.2,1.8,1.8,0,0,0-1.06,0,1.07,1.07,0,0,0-.36.21.92.92,0,0,0-.2.31A1.15,1.15,0,0,0,138.63,50.92Z" fill="#231f20"/><path d="M79.7,46.29a22.84,22.84,0,0,0,5.71-3.55c6.47-5.54,8.2-15.32,8.2-14.11A23.06,23.06,0,0,0,95,36.72a11.88,11.88,0,0,0,2.78,4.17,10.36,10.36,0,0,1-1.08,6.17c-2,3.68-6.8,6.56-11.27,5.09C81.47,50.87,79.93,46.93,79.7,46.29Z" fill="#231f20"/><path d="M94.85,55.68a8,8,0,0,0,.92,2.85,7.65,7.65,0,0,0,1.93,2.29,16.49,16.49,0,0,1-1.84,5.24c-1.08,2-3.78,6.81-7.9,6.71-2.92-.08-5.69-2.62-7.07-6.16a27.39,27.39,0,0,0,6.52-3.31A27.73,27.73,0,0,0,94.85,55.68Z" fill="#231f20"/><path d="M82.66,56.74a9,9,0,0,1-1.85,2.5c-2.25,2.1-5,2.37-7.27,2.59a20.68,20.68,0,0,1-2.6.07,20.62,20.62,0,0,1-2.6-.07c-2.25-.22-5-.49-7.27-2.59a8.75,8.75,0,0,1-1.85-2.5,15.53,15.53,0,0,0,9.2-5.32,14.73,14.73,0,0,0,2.52-4.69,14.53,14.53,0,0,0,2.52,4.69A15.53,15.53,0,0,0,82.66,56.74Z" fill="#231f20"/><path d="M83.25,77.37a9.57,9.57,0,0,1-2,2.62c-2.36,2.2-5.27,2.48-7.63,2.71a18.89,18.89,0,0,1-2.73.09,18.89,18.89,0,0,1-2.73-.09c-2.37-.23-5.27-.51-7.63-2.71a9.37,9.37,0,0,1-1.95-2.62,16.41,16.41,0,0,0,9.67-5.6,15.56,15.56,0,0,0,2.64-4.92,15.36,15.36,0,0,0,2.64,4.92A16.41,16.41,0,0,0,83.25,77.37Z" fill="#231f20"/><path d="M62.18,46.29a22.84,22.84,0,0,1-5.71-3.55c-6.48-5.54-8.2-15.28-8.2-14.11a23.3,23.3,0,0,1-1.37,8.09,12,12,0,0,1-2.78,4.17,10.28,10.28,0,0,0,1.08,6.17c2,3.68,6.79,6.56,11.27,5.09C60.41,50.87,61.94,46.93,62.18,46.29Z" fill="#231f20"/><path d="M47,55.68a8,8,0,0,1-.92,2.85,7.8,7.8,0,0,1-1.93,2.29A16.67,16.67,0,0,0,46,66.06c1.09,2,3.78,6.81,7.91,6.71,2.91-.08,5.69-2.62,7.07-6.16A27.55,27.55,0,0,1,47,55.68Z" fill="#231f20"/><path d="M85.76,29.36a14.61,14.61,0,0,1-2.62,3.85,14.74,14.74,0,0,1-6.49,3.86,16.51,16.51,0,0,1-5.72,1,15.54,15.54,0,0,1-5.71-1,14.11,14.11,0,0,1-9.11-7.71A54.63,54.63,0,0,0,61.05,24,43.91,43.91,0,0,0,68.46,11.6,33.82,33.82,0,0,0,70.94,0a33.38,33.38,0,0,0,2.47,11.6A43.62,43.62,0,0,0,80.82,24,55.9,55.9,0,0,0,85.76,29.36Z" fill="#231f20"/><path d="M0,123.7H1.84a3.22,3.22,0,0,1,1,.13,1.65,1.65,0,0,1,.63.35,1.3,1.3,0,0,1,.31.53,2.08,2.08,0,0,1,.09.63,2.39,2.39,0,0,1-.09.66,1.39,1.39,0,0,1-.33.56,1.62,1.62,0,0,1-.62.37,3.08,3.08,0,0,1-1,.14H.7v2.14H0Zm1.83,2.77a2.16,2.16,0,0,0,.67-.08,1.06,1.06,0,0,0,.41-.22.94.94,0,0,0,.2-.35,1.65,1.65,0,0,0,.06-.46,1.68,1.68,0,0,0-.06-.47.83.83,0,0,0-.22-.33,1,1,0,0,0-.41-.19,2.39,2.39,0,0,0-.65-.07H.7v2.17Z" fill="#231f20"/><path d="M13.89,129.35a2.86,2.86,0,0,1-1-.19,2.15,2.15,0,0,1-.8-.56,2.35,2.35,0,0,1-.52-.9,3.71,3.71,0,0,1-.19-1.24,4,4,0,0,1,.19-1.24,2.73,2.73,0,0,1,.52-.9,2.3,2.3,0,0,1,.81-.57,2.61,2.61,0,0,1,1-.19,2.66,2.66,0,0,1,1,.19,2,2,0,0,1,.8.56,2.46,2.46,0,0,1,.51.9,3.57,3.57,0,0,1,.19,1.23,4,4,0,0,1-.18,1.24,2.6,2.6,0,0,1-.51.91,2,2,0,0,1-.8.56A2.68,2.68,0,0,1,13.89,129.35Zm0-.62a1.78,1.78,0,0,0,.78-.16,1.45,1.45,0,0,0,.55-.46,2.2,2.2,0,0,0,.35-.72,3.83,3.83,0,0,0,.11-.93,3.71,3.71,0,0,0-.11-.93,2.16,2.16,0,0,0-.35-.73,1.56,1.56,0,0,0-.56-.46,2,2,0,0,0-1.55,0,1.48,1.48,0,0,0-.56.46,2,2,0,0,0-.35.73,3.71,3.71,0,0,0-.11.93,3.83,3.83,0,0,0,.11.93,2.18,2.18,0,0,0,.34.72,1.56,1.56,0,0,0,.56.46A1.77,1.77,0,0,0,13.89,128.73Z" fill="#231f20"/><path d="M24.24,123.7h1.81a3.24,3.24,0,0,1,1,.14,1.69,1.69,0,0,1,.61.35,1.25,1.25,0,0,1,.32.5,1.87,1.87,0,0,1,.08.57,1.75,1.75,0,0,1-.21.89,1.45,1.45,0,0,1-.73.58l1.16,2.48h-.8l-1-2.31-.21,0h-1.3v2.29h-.7Zm1.87,2.61a2.09,2.09,0,0,0,.61-.07.92.92,0,0,0,.38-.21.7.7,0,0,0,.19-.32,1.51,1.51,0,0,0,.06-.44,1.31,1.31,0,0,0-.06-.41.69.69,0,0,0-.21-.3,1,1,0,0,0-.41-.19,2.39,2.39,0,0,0-.65-.07H24.94v2Z" fill="#231f20"/><path d="M37.14,124.33H35.32v-.63h4.36v.63H37.86v4.88h-.72Z" fill="#231f20"/><path d="M48.07,123.7h.75L51,129.21h-.78l-.57-1.54H47.24l-.57,1.54h-.75Zm1.32,3.35-1-2.55-.95,2.55Z" fill="#231f20"/><path d="M58.44,123.7h.71v4.88H62l-.11.63H58.44Z" fill="#231f20"/><path d="M78.08,123.7H79l1.78,4.66,1.8-4.66h.85v5.51h-.65v-4.35L81,129.21h-.58l-1.7-4.33v4.33h-.65Z" fill="#231f20"/><path d="M91.4,123.7H95v.63H92.11v1.72h2.7v.64h-2.7v1.9h3l-.11.62H91.4Z" fill="#231f20"/><path d="M102.52,128.66l3.17-4.33h-3.11v-.63h4v.55l-3.16,4.33h3.25l-.11.63h-4Z" fill="#231f20"/><path d="M118.53,127.4a2.83,2.83,0,0,1-.21.77,2,2,0,0,1-.44.62,1.85,1.85,0,0,1-.68.41,2.57,2.57,0,0,1-.92.15,2.63,2.63,0,0,1-1-.2,1.91,1.91,0,0,1-.76-.56,2.62,2.62,0,0,1-.5-.9,4.25,4.25,0,0,1-.17-1.23,3.71,3.71,0,0,1,.19-1.24,2.55,2.55,0,0,1,.51-.9,2.19,2.19,0,0,1,.78-.57,2.48,2.48,0,0,1,1-.19,2.55,2.55,0,0,1,.88.13,1.78,1.78,0,0,1,.63.37,2,2,0,0,1,.42.57,3.78,3.78,0,0,1,.24.74l-.69.11a3.42,3.42,0,0,0-.18-.54,1.58,1.58,0,0,0-.29-.41,1.32,1.32,0,0,0-.42-.27,1.72,1.72,0,0,0-.59-.08,1.42,1.42,0,0,0-.72.17,1.53,1.53,0,0,0-.55.46,2.18,2.18,0,0,0-.33.72,3.28,3.28,0,0,0-.12.93,3.48,3.48,0,0,0,.12.93,2.33,2.33,0,0,0,.33.71,1.51,1.51,0,0,0,1.28.63,2,2,0,0,0,.64-.09,1.15,1.15,0,0,0,.44-.28,1.34,1.34,0,0,0,.28-.42,2.39,2.39,0,0,0,.15-.54Z" fill="#231f20"/><path d="M127.79,123.7h.75l2.13,5.51h-.77l-.58-1.54H127l-.58,1.54h-.74Zm1.32,3.35-1-2.55-1,2.55Z" fill="#231f20"/><path d="M138.16,123.7h.71v4.88h2.86l-.11.63h-3.46Z" fill="#231f20"/></g></g></svg>