<svg xmlns="http://www.w3.org/2000/svg" viewBox="0 0 86.89 75.86"><title>Asset 5001</title><g id="Layer_2" data-name="Layer 2"><g id="Diseño"><path d="M42.87,39.37h0Z" fill="#231f20"/><path d="M63.22,21.19v-2h-.76V7.6a.76.76,0,0,0-.21-1.48A.76.76,0,0,0,62,7.6V17.72A19.35,19.35,0,0,0,46.91,1.18h8.42a.75.75,0,1,0,.73-1,.76.76,0,0,0-.73.53H44V0H42V.75H30.39a.75.75,0,1,0-.72,1,.74.74,0,0,0,.72-.54h8.44A19.35,19.35,0,0,0,23.57,19.74h0V39.37H43.18A19.32,19.32,0,0,0,62,22.41V32.53a.78.78,0,0,0-.53.73.75.75,0,1,0,1-.73V21.19ZM42.47.43h1.08V1.51H42.47Zm-.43,1v.51H44v-.5a18.49,18.49,0,0,1,7.41,2,9.81,9.81,0,0,0-9.45,16.27H24.21A18.68,18.68,0,0,1,42,1.43ZM24.19,38.73V25A19.39,19.39,0,0,0,37.91,38.73Zm18.34,0A18.68,18.68,0,0,1,24.21,20.39H42.53Zm.33-19a8.82,8.82,0,1,1,.32.29Zm18.63,1.45A18.66,18.66,0,0,1,43.18,38.72V20.85a9.73,9.73,0,0,0,5.89,2A9.83,9.83,0,0,0,58.89,13a9.73,9.73,0,0,0-.65-3.51,18.54,18.54,0,0,1,3.27,9.74h-.23v2Zm.22-.43V19.68h1.08v1.08Z" fill="#231f20"/><path d="M2,59.59v7.28H6.32v1.65H0V59.59Z"/><path d="M7.2,62.24a4.38,4.38,0,0,1,.87-1.5,3.78,3.78,0,0,1,1.38-1,4.54,4.54,0,0,1,1.84-.36,4.57,4.57,0,0,1,1.86.36,3.83,3.83,0,0,1,1.37,1,4.36,4.36,0,0,1,.86,1.5,5.32,5.32,0,0,1,.3,1.85,5.15,5.15,0,0,1-.3,1.82,4.14,4.14,0,0,1-.86,1.47,3.78,3.78,0,0,1-1.37,1,4.57,4.57,0,0,1-1.86.36,4.54,4.54,0,0,1-1.84-.36,3.73,3.73,0,0,1-1.38-1,4.16,4.16,0,0,1-.87-1.47,5.39,5.39,0,0,1-.3-1.82A5.56,5.56,0,0,1,7.2,62.24ZM9,65.19a3,3,0,0,0,.42,1,2.16,2.16,0,0,0,.75.69,2.29,2.29,0,0,0,1.12.25,2.3,2.3,0,0,0,1.13-.25,2.16,2.16,0,0,0,.75-.69,3,3,0,0,0,.42-1,4.48,4.48,0,0,0,.13-1.1A4.8,4.8,0,0,0,13.59,63a3.19,3.19,0,0,0-.42-1,2.16,2.16,0,0,0-.75-.69A2.3,2.3,0,0,0,11.29,61a2.29,2.29,0,0,0-1.12.25,2.16,2.16,0,0,0-.75.69A3.19,3.19,0,0,0,9,63a4.8,4.8,0,0,0-.13,1.14A4.48,4.48,0,0,0,9,65.19Z"/><path d="M21.71,59.59a2.94,2.94,0,0,1,1.09.19,2.58,2.58,0,0,1,.82.53,2.34,2.34,0,0,1,.53.79,2.47,2.47,0,0,1,.18.95A2.72,2.72,0,0,1,24,63.42a2.11,2.11,0,0,1-1.09.87v0a1.52,1.52,0,0,1,.61.3,1.84,1.84,0,0,1,.38.49,2.18,2.18,0,0,1,.22.62,5.31,5.31,0,0,1,.1.68c0,.14,0,.3,0,.5s0,.38,0,.58.06.39.1.57a1.4,1.4,0,0,0,.21.46h-2a3.23,3.23,0,0,1-.2-1c0-.39-.07-.77-.12-1.13a1.67,1.67,0,0,0-.42-1A1.45,1.45,0,0,0,20.83,65h-2v3.49h-2V59.59Zm-.7,4a1.51,1.51,0,0,0,1-.3,1.27,1.27,0,0,0,.33-1,1.21,1.21,0,0,0-.33-.94,1.51,1.51,0,0,0-1-.29H18.86v2.51Z"/><path d="M32.48,59.59v1.65H27.77v1.91H32.1v1.53H27.77v2.19h4.81v1.65H25.8V59.59Z"/><path d="M36.55,59.59l2.09,6.14h0l2-6.14H43.4v8.93H41.56V62.19h0l-2.19,6.33H37.84l-2.19-6.27h0v6.27H33.78V59.59Z"/><path d="M50.32,59.59v8.93h-2V59.59Z"/><path d="M56,59.59a3.73,3.73,0,0,1,1.42.24,2.62,2.62,0,0,1,1,.65,2.35,2.35,0,0,1,.54.91A3.46,3.46,0,0,1,59,62.45a3.51,3.51,0,0,1-.17,1.06,2.38,2.38,0,0,1-.54.92,2.49,2.49,0,0,1-1,.64,3.54,3.54,0,0,1-1.42.25H53.88v3.2h-2V59.59Zm-.54,4.2a3.43,3.43,0,0,0,.65,0,1.56,1.56,0,0,0,.55-.19,1,1,0,0,0,.38-.41,1.36,1.36,0,0,0,.15-.69,1.34,1.34,0,0,0-.15-.68,1,1,0,0,0-.38-.41,1.38,1.38,0,0,0-.55-.19,3.43,3.43,0,0,0-.65-.05H53.88v2.67Z"/><path d="M61.64,66.32a1.43,1.43,0,0,0,.43.51,2,2,0,0,0,.63.28,2.71,2.71,0,0,0,.75.1,3.88,3.88,0,0,0,.57,0,1.82,1.82,0,0,0,.56-.17,1.22,1.22,0,0,0,.44-.34.91.91,0,0,0,.17-.56.78.78,0,0,0-.23-.58,1.82,1.82,0,0,0-.61-.38,5.35,5.35,0,0,0-.85-.26l-1-.25a10,10,0,0,1-1-.31,3.39,3.39,0,0,1-.86-.47,2.11,2.11,0,0,1-.6-.72,2.08,2.08,0,0,1-.23-1,2.32,2.32,0,0,1,.29-1.2,2.69,2.69,0,0,1,.77-.84,3.34,3.34,0,0,1,1.08-.5,4.5,4.5,0,0,1,1.2-.16,5.92,5.92,0,0,1,1.34.15A3.48,3.48,0,0,1,65.7,60a2.53,2.53,0,0,1,.8.89,2.74,2.74,0,0,1,.29,1.32h-1.9a1.46,1.46,0,0,0-.17-.66,1.07,1.07,0,0,0-.38-.41A1.6,1.6,0,0,0,63.8,61a2.87,2.87,0,0,0-.67-.07,2.61,2.61,0,0,0-.48.05,1.27,1.27,0,0,0-.43.18,1.18,1.18,0,0,0-.32.31.88.88,0,0,0-.12.48.77.77,0,0,0,.1.42.85.85,0,0,0,.39.3,5.29,5.29,0,0,0,.81.28l1.36.35a6.63,6.63,0,0,1,.7.18,3.52,3.52,0,0,1,.88.42,2.63,2.63,0,0,1,.75.77,2.12,2.12,0,0,1,.32,1.23A2.87,2.87,0,0,1,66.86,67a2.47,2.47,0,0,1-.71.9,3.27,3.27,0,0,1-1.16.6,6,6,0,0,1-3,0A3.48,3.48,0,0,1,60.72,68a2.78,2.78,0,0,1-.84-1,2.89,2.89,0,0,1-.3-1.42h1.9A1.61,1.61,0,0,0,61.64,66.32Z"/><path d="M74.7,67.84a4.12,4.12,0,0,1-2.8.88,4.08,4.08,0,0,1-2.81-.88,3.41,3.41,0,0,1-1-2.7V59.59h2v5.55a4.37,4.37,0,0,0,.06.72,1.49,1.49,0,0,0,.26.62,1.55,1.55,0,0,0,.56.43,2.17,2.17,0,0,0,1,.17,1.82,1.82,0,0,0,1.45-.47,2.26,2.26,0,0,0,.4-1.47V59.59h2v5.55A3.41,3.41,0,0,1,74.7,67.84Z"/><path d="M80,59.59l2.09,6.14h0l2-6.14h2.76v8.93H85.05V62.19h0l-2.19,6.33H81.33l-2.19-6.27h0v6.27H77.27V59.59Z"/><path d="M23.77,71.12v.36H22.22v4.1h-.43v-4.1H20.24v-.36Z"/><path d="M24.51,71.12v2.76a2.1,2.1,0,0,0,.09.66,1.11,1.11,0,0,0,.26.45,1.13,1.13,0,0,0,.41.25,1.88,1.88,0,0,0,.55.07,2,2,0,0,0,.56-.07,1.13,1.13,0,0,0,.41-.25,1.24,1.24,0,0,0,.26-.45,2.48,2.48,0,0,0,.08-.66V71.12h.43V74a2,2,0,0,1-.1.65,1.42,1.42,0,0,1-.3.54,1.52,1.52,0,0,1-.54.37,2.13,2.13,0,0,1-.8.13,2.08,2.08,0,0,1-.79-.13,1.52,1.52,0,0,1-.54-.37,1.44,1.44,0,0,1-.31-.54,2.32,2.32,0,0,1-.09-.65V71.12Z"/><path d="M30.64,71.12,32.12,75l1.54-3.91h.63v4.46h-.43V71.72h0l-1.53,3.86h-.4l-1.47-3.86h0v3.86H30V71.12Z"/><path d="M36.88,71.12l1.75,4.46h-.45l-.55-1.39h-2l-.54,1.39h-.45l1.8-4.46Zm.61,2.71-.86-2.29-.9,2.29Z"/><path d="M41,71.12a1.83,1.83,0,0,1,.53.07,1.15,1.15,0,0,1,.43.21.94.94,0,0,1,.29.36,1.21,1.21,0,0,1,.11.52,1.24,1.24,0,0,1-.22.74,1,1,0,0,1-.65.4h0a.85.85,0,0,1,.36.12.7.7,0,0,1,.24.21,1,1,0,0,1,.13.31,2,2,0,0,1,0,.37c0,.07,0,.17,0,.27s0,.22,0,.33a1.42,1.42,0,0,0,.06.31.55.55,0,0,0,.11.23H42a1.16,1.16,0,0,1-.06-.15l0-.19c0-.06,0-.13,0-.19a.76.76,0,0,0,0-.16c0-.16,0-.32,0-.47a1.29,1.29,0,0,0-.12-.42.76.76,0,0,0-.26-.3.82.82,0,0,0-.47-.1H39.4v2H39V71.12Zm0,2.12a1.15,1.15,0,0,0,.37-.06,1,1,0,0,0,.31-.17.83.83,0,0,0,.21-.28.8.8,0,0,0,.08-.36.87.87,0,0,0-.24-.65,1,1,0,0,0-.73-.24H39.4v1.76Z"/><path d="M46.17,72a1.16,1.16,0,0,0-.32-.34,1.39,1.39,0,0,0-.4-.21,1.45,1.45,0,0,0-.47-.07,1.52,1.52,0,0,0-.76.17,1.49,1.49,0,0,0-.52.44,1.83,1.83,0,0,0-.3.63,2.46,2.46,0,0,0-.1.72,2.55,2.55,0,0,0,.1.72,1.83,1.83,0,0,0,.3.63,1.46,1.46,0,0,0,1.28.61,1.29,1.29,0,0,0,1-.42,1.39,1.39,0,0,0,.29-.45,1.71,1.71,0,0,0,.14-.56h.43a2.43,2.43,0,0,1-.19.75,1.87,1.87,0,0,1-.39.56,1.92,1.92,0,0,1-.56.36,2.28,2.28,0,0,1-1.64-.07A2.09,2.09,0,0,1,43.4,75a2,2,0,0,1-.39-.74,2.84,2.84,0,0,1,0-1.76,2,2,0,0,1,.39-.74,2,2,0,0,1,.66-.52A2.19,2.19,0,0,1,45,71a1.83,1.83,0,0,1,.62.1,1.64,1.64,0,0,1,.56.28,1.61,1.61,0,0,1,.41.45,1.52,1.52,0,0,1,.21.62h-.43A1.58,1.58,0,0,0,46.17,72Z"/><path d="M49.21,71.12,51,75.58H50.5L50,74.19h-2l-.54,1.39h-.45l1.8-4.46Zm.61,2.71L49,71.54l-.89,2.29Z"/><path d="M54.76,71.12l1.75,4.46h-.45l-.55-1.39h-2l-.54,1.39h-.45l1.8-4.46Zm.61,2.71-.86-2.29-.9,2.29Z"/><path d="M59.89,75.35a2,2,0,0,1-1.16.32,2,2,0,0,1-.92-.19,1.89,1.89,0,0,1-.66-.51,2.12,2.12,0,0,1-.4-.74,3,3,0,0,1,0-1.76,2.12,2.12,0,0,1,.4-.74,1.8,1.8,0,0,1,.66-.52,2.32,2.32,0,0,1,1.84,0,1.85,1.85,0,0,1,.65.52,2.12,2.12,0,0,1,.4.74,2.84,2.84,0,0,1,.13.88,2.94,2.94,0,0,1-.17,1,2,2,0,0,1-.51.78l.64.48-.21.26Zm.38-1.16a2.63,2.63,0,0,0,.13-.84,2.84,2.84,0,0,0-.09-.72A2.29,2.29,0,0,0,60,72a1.59,1.59,0,0,0-.52-.44,1.52,1.52,0,0,0-.76-.17,1.5,1.5,0,0,0-.76.17,1.53,1.53,0,0,0-.53.44,2.29,2.29,0,0,0-.3.63,2.84,2.84,0,0,0-.09.72,3,3,0,0,0,.09.72,2.29,2.29,0,0,0,.3.63,1.67,1.67,0,0,0,.53.45,1.61,1.61,0,0,0,.76.16,1.54,1.54,0,0,0,.82-.21L59,74.65l.21-.27.66.5A1.65,1.65,0,0,0,60.27,74.19Z"/><path d="M61.81,71.12v2.76a2.1,2.1,0,0,0,.09.66,1.11,1.11,0,0,0,.26.45,1.13,1.13,0,0,0,.41.25,1.84,1.84,0,0,0,.55.07,2,2,0,0,0,.56-.07,1.13,1.13,0,0,0,.41-.25,1.1,1.1,0,0,0,.25-.45,2.1,2.1,0,0,0,.09-.66V71.12h.43V74a2,2,0,0,1-.1.65,1.32,1.32,0,0,1-.31.54,1.48,1.48,0,0,1-.53.37,2.13,2.13,0,0,1-.8.13,2.08,2.08,0,0,1-.79-.13,1.52,1.52,0,0,1-.54-.37,1.44,1.44,0,0,1-.31-.54,2.32,2.32,0,0,1-.09-.65V71.12Z"/><path d="M66.11,71.12v4.46h-.43V71.12Z"/></g></g></svg>