<svg xmlns="http://www.w3.org/2000/svg" viewBox="0 0 45.83 44.99"><title>Asset 5401</title><g id="Layer_2" data-name="Layer 2"><g id="Diseño"><path d="M18.64,40.36H12.45a.94.94,0,0,0,0,1.87h6.19a.94.94,0,1,0,0-1.87Z" fill="#231f20"/><path d="M34.29,2.76a8.77,8.77,0,0,0-5.54,2,8.77,8.77,0,0,0,0,13.61,9,9,0,0,0,1.87,1.16,8.68,8.68,0,0,0,3.67.81,8.78,8.78,0,1,0,0-17.56Zm0,16.31a7.59,7.59,0,0,1-3.67-.95,7.68,7.68,0,0,1-1.87-1.48,7.53,7.53,0,0,1,0-10.2A7.93,7.93,0,0,1,30.62,5a7.53,7.53,0,1,1,3.67,14.11Z" fill="#231f20"/><path d="M34.29,0a11.4,11.4,0,0,0-4.78,1A2.84,2.84,0,0,0,27.82.47H2.8A2.81,2.81,0,0,0,0,3.28V42.19A2.8,2.8,0,0,0,2.8,45h25a2.8,2.8,0,0,0,2.8-2.8V22.49a11.71,11.71,0,0,0,3.67.59A11.54,11.54,0,0,0,34.29,0ZM27.82,43.12H2.8a.93.93,0,0,1-.93-.93V38.71H28.75v3.48A.93.93,0,0,1,27.82,43.12Zm.93-6.28H1.87V3.28a.94.94,0,0,1,.93-.94H27.33a11.53,11.53,0,0,0,1.42,19.32Zm5.54-15a10.18,10.18,0,0,1-3.67-.68,10.56,10.56,0,0,1-1.87-.94,10.29,10.29,0,0,1-.07-17.3A10,10,0,0,1,30.33,2a10.3,10.3,0,1,1,4,19.8Z" fill="#231f20"/><g opacity="0.96"><path d="M32.67,14.48a2.11,2.11,0,0,0,1.37.64l0-3.35c-.31-.07-.62-.16-.91-.25a2.26,2.26,0,0,1-.75-.41,1.69,1.69,0,0,1-.51-.64,2.24,2.24,0,0,1-.19-1,2.06,2.06,0,0,1,.2-.91,1.94,1.94,0,0,1,.51-.69,2.14,2.14,0,0,1,.76-.44,2.83,2.83,0,0,1,.93-.15V6.41h.44V7.3a2.41,2.41,0,0,1,.93.18,2.49,2.49,0,0,1,.77.5,2.29,2.29,0,0,1,.51.78,2.52,2.52,0,0,1,.17,1h-.71a2,2,0,0,0-.47-1.36,1.56,1.56,0,0,0-1.21-.51l0,3.26c.32.07.64.15,1,.25a2.76,2.76,0,0,1,.84.42,2,2,0,0,1,.59.65,2,2,0,0,1,.22,1,2.06,2.06,0,0,1-.23,1,2.26,2.26,0,0,1-.59.71,3,3,0,0,1-.84.42,3.54,3.54,0,0,1-1,.13v1H34v-1a2.91,2.91,0,0,1-1.93-.8,3,3,0,0,1-.64-2h.72A2.19,2.19,0,0,0,32.67,14.48ZM33.45,8a1.62,1.62,0,0,0-.53.3,1.37,1.37,0,0,0-.37.53,2.1,2.1,0,0,0-.14.76,1.39,1.39,0,0,0,.14.65,1.32,1.32,0,0,0,.37.41,2.16,2.16,0,0,0,.53.25l.62.17,0-3.16A2.2,2.2,0,0,0,33.45,8ZM35.18,15a1.81,1.81,0,0,0,.61-.29,1.72,1.72,0,0,0,.44-.52,1.66,1.66,0,0,0,.17-.75,1.21,1.21,0,0,0-.18-.68,1.45,1.45,0,0,0-.44-.45,2.29,2.29,0,0,0-.61-.29,5.67,5.67,0,0,0-.67-.2l0,3.26A3.19,3.19,0,0,0,35.18,15Z" fill="#231f20"/></g></g></g></svg>