<svg xmlns="http://www.w3.org/2000/svg" viewBox="0 0 104.43 104.43"><title>Asset 161012442</title><g id="Layer_2" data-name="Layer 2"><g id="Texto"><rect width="104.43" height="104.43"/><path d="M39.85,58.49a7.72,7.72,0,0,1-5.42,2,8.51,8.51,0,0,1-4-.89,8.28,8.28,0,0,1-2.84-2.5,11.51,11.51,0,0,1-1.73-3.83,22.83,22.83,0,0,1-.65-4.86,16.54,16.54,0,0,1,.67-4.81,12.11,12.11,0,0,1,1.88-3.79,8.72,8.72,0,0,1,2.86-2.5,7.55,7.55,0,0,1,3.62-.89,6.86,6.86,0,0,1,4.25,1.27,9.41,9.41,0,0,1,2.71,3.24,14.3,14.3,0,0,1,1.41,4.27,21.88,21.88,0,0,1,.32,4.41H28.57a10.44,10.44,0,0,0,.3,2.88,7.07,7.07,0,0,0,1.07,2.4,5.52,5.52,0,0,0,1.89,1.67,5.59,5.59,0,0,0,2.71.63A4.84,4.84,0,0,0,37.83,56a5.64,5.64,0,0,0,1.69-3.39h3.12A9.67,9.67,0,0,1,39.85,58.49ZM39.09,43.7a6.68,6.68,0,0,0-1.15-2.07,5.42,5.42,0,0,0-1.71-1.38,4.63,4.63,0,0,0-2.17-.51,4.73,4.73,0,0,0-2.21.51,5.28,5.28,0,0,0-1.69,1.4,7.08,7.08,0,0,0-1.11,2.07,9.38,9.38,0,0,0-.48,2.52h11A8.88,8.88,0,0,0,39.09,43.7Z" fill="#fff"/><path d="M54.46,48.19,61,60H57l-5-9.11,2.43-2.66M48,51.36V60H44.87V28.49H48V47l8.77-10.07H61Z" fill="#fff"/><path d="M79.17,59.88a3.93,3.93,0,0,1-2.27.58,2.46,2.46,0,0,1-2-.83,4.07,4.07,0,0,1-.73-2.7,7.77,7.77,0,0,1-3,2.7,8.53,8.53,0,0,1-3.73.83A8.34,8.34,0,0,1,65,60.1,5.49,5.49,0,0,1,63,59a5.24,5.24,0,0,1-1.35-2,9.25,9.25,0,0,1,.06-6.17,5.73,5.73,0,0,1,1.46-2,6.38,6.38,0,0,1,2.08-1.18A24.14,24.14,0,0,1,67.61,47a23.11,23.11,0,0,1,2.48-.46A12.69,12.69,0,0,0,72.15,46a3.38,3.38,0,0,0,1.41-.84,2.36,2.36,0,0,0,.52-1.63,4.41,4.41,0,0,0-.39-2,3,3,0,0,0-1-1.16,3.61,3.61,0,0,0-1.38-.53,8.53,8.53,0,0,0-1.5-.13,5.82,5.82,0,0,0-3.35.91q-1.33.91-1.44,3.45H61.86a9.46,9.46,0,0,1,.75-3.61,6.35,6.35,0,0,1,1.78-2.38,6.93,6.93,0,0,1,2.54-1.32,11.55,11.55,0,0,1,3.06-.4,14.82,14.82,0,0,1,2.58.23,5.82,5.82,0,0,1,2.32.91,4.82,4.82,0,0,1,1.68,1.93,7.19,7.19,0,0,1,.63,3.24V54.54a10.28,10.28,0,0,0,.13,2,.78.78,0,0,0,.87.62,3.3,3.3,0,0,0,1-.18ZM74,48.07a3.63,3.63,0,0,1-1.56.77,17.61,17.61,0,0,1-2,.4c-.71.1-1.42.22-2.14.36a7,7,0,0,0-1.93.64A3.74,3.74,0,0,0,65,51.5a4,4,0,0,0-.54,2.24,3.45,3.45,0,0,0,.32,1.58,3,3,0,0,0,.81,1,3.19,3.19,0,0,0,1.17.57,5.45,5.45,0,0,0,1.41.18,6.38,6.38,0,0,0,2.68-.51,5.46,5.46,0,0,0,1.82-1.28,5.26,5.26,0,0,0,1-1.69A5,5,0,0,0,74,51.92Z" fill="#fff"/><path d="M30.47,65.76a2.43,2.43,0,0,0-1.63-.55,3.06,3.06,0,0,0-.79.1,1.82,1.82,0,0,0-.69.32,1.6,1.6,0,0,0-.48.6,2.16,2.16,0,0,0-.18.94A1.3,1.3,0,0,0,27,68a2,2,0,0,0,.69.54,5.22,5.22,0,0,0,1,.35l1.12.29c.38.11.75.24,1.12.38a3.66,3.66,0,0,1,1,.59,2.69,2.69,0,0,1,.69.93,3.87,3.87,0,0,1-.08,3,3.2,3.2,0,0,1-.88,1.07,3.54,3.54,0,0,1-1.2.59,4.63,4.63,0,0,1-1.32.19,4.75,4.75,0,0,1-1.52-.25A3.45,3.45,0,0,1,26.3,75a3.23,3.23,0,0,1-.85-1.25,4.54,4.54,0,0,1-.32-1.81h1.21a3.17,3.17,0,0,0,.23,1.25,2.6,2.6,0,0,0,.62.86,2.34,2.34,0,0,0,.89.49,3.37,3.37,0,0,0,1,.16,4.36,4.36,0,0,0,.87-.09,2.48,2.48,0,0,0,.78-.33,1.82,1.82,0,0,0,.57-.63,2.22,2.22,0,0,0,.21-1,1.68,1.68,0,0,0-.26-1,2,2,0,0,0-.7-.6,4.54,4.54,0,0,0-1-.38l-1.12-.3c-.39-.1-.76-.22-1.12-.35a3.9,3.9,0,0,1-1-.53,2.35,2.35,0,0,1-.69-.86,2.8,2.8,0,0,1-.26-1.31,3.49,3.49,0,0,1,.29-1.5,3,3,0,0,1,.78-1,3.48,3.48,0,0,1,1.12-.61,4.35,4.35,0,0,1,2.64,0,3,3,0,0,1,1.11.66,3.24,3.24,0,0,1,.75,1.13,4.9,4.9,0,0,1,.3,1.64H31.21A2.55,2.55,0,0,0,30.47,65.76Z" fill="#fff"/><path d="M34.55,65.48V64.19H42.2v1.29H39v10.2H37.74V65.48Z" fill="#fff"/><path d="M51.13,74.83a3.52,3.52,0,0,1-2.79,1.11,3.87,3.87,0,0,1-2.89-1.06,4.63,4.63,0,0,1-1-3.35V64.19h1.28v7.34a3.48,3.48,0,0,0,.68,2.34,2.46,2.46,0,0,0,2,.79,2.25,2.25,0,0,0,1.86-.79,3.71,3.71,0,0,0,.64-2.34V64.19H52.1v7.34A4.84,4.84,0,0,1,51.13,74.83Z" fill="#fff"/><path d="M58.64,64.19A4.28,4.28,0,0,1,62,65.55a6.09,6.09,0,0,1,1.19,4.11A11,11,0,0,1,63,72.23a5,5,0,0,1-.83,1.88,3.52,3.52,0,0,1-1.43,1.16,4.85,4.85,0,0,1-2.06.41H55.35V64.19Zm.1,10.2a3.91,3.91,0,0,0,.54,0,2.42,2.42,0,0,0,.68-.19,3.1,3.1,0,0,0,.72-.44,2.87,2.87,0,0,0,.64-.79,5.13,5.13,0,0,0,.46-1.25A7.84,7.84,0,0,0,62,69.87,9.3,9.3,0,0,0,61.79,68a3.73,3.73,0,0,0-.55-1.38,2.49,2.49,0,0,0-1-.87,3.35,3.35,0,0,0-1.49-.3H56.63v8.91Z" fill="#fff"/><path d="M67.32,64.19V75.68H66V64.19Z" fill="#fff"/><path d="M70.42,67.68a6.07,6.07,0,0,1,.87-1.93,4.43,4.43,0,0,1,1.43-1.33,4.25,4.25,0,0,1,4,0,4.53,4.53,0,0,1,1.43,1.33A6.28,6.28,0,0,1,79,67.68a9,9,0,0,1,0,4.52,6.22,6.22,0,0,1-.86,1.92,4.53,4.53,0,0,1-1.43,1.33,4.33,4.33,0,0,1-4,0,4.43,4.43,0,0,1-1.43-1.33,6,6,0,0,1-.87-1.92,9,9,0,0,1,0-4.52Zm1.17,4a5.23,5.23,0,0,0,.59,1.52,3.23,3.23,0,0,0,1,1.08,2.67,2.67,0,0,0,1.51.41,2.64,2.64,0,0,0,1.5-.41,3.23,3.23,0,0,0,1-1.08,5,5,0,0,0,.59-1.52A8.22,8.22,0,0,0,78,69.94a8.31,8.31,0,0,0-.19-1.72,4.91,4.91,0,0,0-.59-1.51,3.27,3.27,0,0,0-1-1.09,2.64,2.64,0,0,0-1.5-.41,2.67,2.67,0,0,0-1.51.41,3.27,3.27,0,0,0-1,1.09,5.17,5.17,0,0,0-.59,1.51,8.3,8.3,0,0,0-.18,1.72A8.21,8.21,0,0,0,71.59,71.65Z" fill="#fff"/></g></g></svg>