<svg xmlns="http://www.w3.org/2000/svg" viewBox="0 0 168.29 105.53"><title>Asset 220012442</title><g id="Layer_2" data-name="Layer 2"><g id="Texto"><path d="M66.38,8.58V.44h-3V0h6.52V.44h-3V8.58Z" fill="#231f20"/><path d="M86.88,8.58V4.36h-5.2V8.58H81.2V0h.48V3.92h5.2V0h.48V8.58Z" fill="#231f20"/><path d="M99.47,8.58V0h5.3V.44H100V3.93h4.58v.44H100V8.14h5l-.13.44Z" fill="#231f20"/><path d="M21,101.45v-1.22h.5v1.22Z" fill="#231f20"/><path d="M30.41,101.08a3.57,3.57,0,0,1-1.87-.74A2,2,0,0,1,28,98.83a2,2,0,0,1,.76-1.7,3.47,3.47,0,0,1,2.18-.6,3.43,3.43,0,0,1,2,.48,2.68,2.68,0,0,1,1,1.55l-.45.12a2.36,2.36,0,0,0-.84-1.34A3,3,0,0,0,30.87,97a2.93,2.93,0,0,0-1.82.47,1.63,1.63,0,0,0-.62,1.39,1.53,1.53,0,0,0,.48,1.21,2.75,2.75,0,0,0,1.49.59l1.08.17a3.37,3.37,0,0,1,1.86.77,2,2,0,0,1,.6,1.56,2.2,2.2,0,0,1-.77,1.8,3.39,3.39,0,0,1-2.18.62,4,4,0,0,1-2.28-.59,2.35,2.35,0,0,1-1-1.72h.46c.24,1.25,1.17,1.88,2.79,1.88a2.87,2.87,0,0,0,1.84-.49,1.77,1.77,0,0,0,.6-1.47,1.69,1.69,0,0,0-.48-1.28,2.86,2.86,0,0,0-1.53-.62Z" fill="#231f20"/><path d="M40.51,105.33V96.74h2.86c1.91,0,2.86.83,2.86,2.47a2.41,2.41,0,0,1-.72,1.9,3.2,3.2,0,0,1-2.17.65H41v3.57Zm2.83-4a2.69,2.69,0,0,0,1.82-.51,2,2,0,0,0,.58-1.59,2,2,0,0,0-.57-1.57,2.85,2.85,0,0,0-1.84-.49H41v4.16Z" fill="#231f20"/><path d="M56,105.53a3.41,3.41,0,0,1-2.76-1.21,4.92,4.92,0,0,1-1-3.29,5.65,5.65,0,0,1,.46-2.36A3.44,3.44,0,0,1,56,96.53a3.43,3.43,0,0,1,2.76,1.2,5,5,0,0,1,1,3.29,5.74,5.74,0,0,1-.46,2.36,3.6,3.6,0,0,1-1.3,1.59A3.66,3.66,0,0,1,56,105.53Zm0-.43a3.16,3.16,0,0,0,1.74-.48,3.05,3.05,0,0,0,1.14-1.39,5.46,5.46,0,0,0,.4-2.21,4.64,4.64,0,0,0-.87-3A2.91,2.91,0,0,0,56,97a3.24,3.24,0,0,0-1.74.47,3.13,3.13,0,0,0-1.14,1.4,5.44,5.44,0,0,0-.4,2.2,4.67,4.67,0,0,0,.87,3A2.91,2.91,0,0,0,56,105.1Z" fill="#231f20"/><path d="M71.74,105.33,70,101.41a4.61,4.61,0,0,1-.71,0H66.85v3.88h-.47V96.74h2.83c1.86,0,2.8.77,2.8,2.31a2.44,2.44,0,0,1-.41,1.45,2.07,2.07,0,0,1-1.18.8l1.86,4ZM69.22,101a2.68,2.68,0,0,0,1.74-.47,1.86,1.86,0,0,0,.55-1.49A1.71,1.71,0,0,0,71,97.63a2.88,2.88,0,0,0-1.81-.45H66.85V101Z" fill="#231f20"/><path d="M80.56,105.33V97.19h-3v-.45h6.51v.45h-3v8.14Z" fill="#231f20"/><path d="M92.21,101.08a3.57,3.57,0,0,1-1.87-.74,2,2,0,0,1-.59-1.51,2,2,0,0,1,.76-1.7,3.47,3.47,0,0,1,2.18-.6,3.37,3.37,0,0,1,1.94.48,2.69,2.69,0,0,1,1,1.55l-.45.12a2.37,2.37,0,0,0-.85-1.34,3.74,3.74,0,0,0-3.48.08,1.63,1.63,0,0,0-.62,1.39A1.56,1.56,0,0,0,90.7,100a2.82,2.82,0,0,0,1.5.59l1.08.17a3.31,3.31,0,0,1,1.85.77,2,2,0,0,1,.6,1.56,2.2,2.2,0,0,1-.76,1.8,3.41,3.41,0,0,1-2.18.62,4,4,0,0,1-2.28-.59,2.35,2.35,0,0,1-1-1.72H90c.24,1.25,1.17,1.88,2.79,1.88a2.87,2.87,0,0,0,1.84-.49,1.77,1.77,0,0,0,.6-1.47,1.69,1.69,0,0,0-.48-1.28,2.86,2.86,0,0,0-1.53-.62Z" fill="#231f20"/><path d="M109.88,105.33V96.74h2.87a3.19,3.19,0,0,1,2,.54,1.85,1.85,0,0,1,.68,1.55,2.06,2.06,0,0,1-.38,1.27,2,2,0,0,1-1.1.69,2.26,2.26,0,0,1,1.3.76,2.19,2.19,0,0,1,.45,1.43,2.11,2.11,0,0,1-.73,1.74,3.14,3.14,0,0,1-2.09.61Zm3-4.73a2.39,2.39,0,0,0,1.54-.44,1.61,1.61,0,0,0,.52-1.3,1.54,1.54,0,0,0-.54-1.28,2.77,2.77,0,0,0-1.68-.42h-2.38v3.44Zm0,4.29a2.88,2.88,0,0,0,1.78-.45,1.69,1.69,0,0,0,.58-1.41,1.85,1.85,0,0,0-.58-1.48,2.5,2.5,0,0,0-1.68-.5h-2.61v3.84Z" fill="#231f20"/><path d="M128.08,105.33,127,102.59h-4.16l-1.06,2.74h-.5l3.39-8.59h.55l3.39,8.59Zm-3.16-8.07-1.9,4.88h3.81Z" fill="#231f20"/><path d="M140.09,105.33l-1.79-3.92a4.69,4.69,0,0,1-.71,0H135.2v3.88h-.47V96.74h2.82c1.87,0,2.8.77,2.8,2.31a2.44,2.44,0,0,1-.4,1.45,2.11,2.11,0,0,1-1.18.8l1.86,4ZM137.57,101a2.68,2.68,0,0,0,1.74-.47,1.86,1.86,0,0,0,.55-1.49,1.74,1.74,0,0,0-.56-1.43,2.88,2.88,0,0,0-1.81-.45H135.2V101Z" fill="#231f20"/><path d="M146.82,101.45v-1.22h.51v1.22Z" fill="#231f20"/><path d="M16.13,23.58a28,28,0,0,1,3.8.25,9.9,9.9,0,0,1,3.31,1.05,6.21,6.21,0,0,1,2.34,2.24A7.19,7.19,0,0,1,26.47,31,4.94,4.94,0,0,1,26,33.11a7.12,7.12,0,0,1-1.24,1.83A7.48,7.48,0,0,1,23,36.32a9.94,9.94,0,0,1-2.13.9,9.53,9.53,0,0,1,5.6,2.16,6.21,6.21,0,0,1,2,4.89,9.12,9.12,0,0,1-.84,4.13,7,7,0,0,1-2.32,2.69,9.76,9.76,0,0,1-3.58,1.49,21.66,21.66,0,0,1-4.58.46H.19V51.65c2.35,0,3.52-.61,3.52-1.83v-23C3.71,25.57,2.54,25,.19,25V23.58ZM7.8,26V36.58h8.8a6.48,6.48,0,0,0,4-1.21,4.7,4.7,0,0,0,1.58-4,5.2,5.2,0,0,0-1.51-4.11A6,6,0,0,0,16.6,26Zm0,12.61v12.1h9.83c2.33,0,4-.6,4.94-1.79A7.48,7.48,0,0,0,24,44a6.13,6.13,0,0,0-.48-2.58,4.51,4.51,0,0,0-1.31-1.69,5.21,5.21,0,0,0-2-.93,11.58,11.58,0,0,0-2.6-.28Z" fill="#231f20"/><path d="M73.66,32.54l-1.59.12q-.7-6.9-5.75-6.9H56V36.58h6c2,0,3.05-1.7,3.29-5.11h1.51l-.6,12.37H64.82q-.41-5.28-3.06-5.28H56v12.3H64.9q7.09,0,8-9.4l1.67.28-1,11.3H48.4V51.65c2.35,0,3.53-.61,3.53-1.83v-23c0-1.22-1.18-1.83-3.53-1.83V23.58H73.66Z" fill="#231f20"/><path d="M119.22,32.54l-1.59.12q-.7-6.9-5.75-6.9H101.57V36.58h6c2,0,3.05-1.7,3.29-5.11h1.51l-.6,12.37h-1.42q-.41-5.28-3.06-5.28h-5.75v12.3h8.88q7.11,0,8-9.4l1.67.28-1,11.3H94V51.65c2.35,0,3.53-.61,3.53-1.83v-23C97.49,25.57,96.31,25,94,25V23.58h25.26Z" fill="#231f20"/><path d="M168.11,49.55a4.2,4.2,0,0,1-.84,2.71c-.55.7-1.59,1.05-3.13,1.05a6.16,6.16,0,0,1-2.06-.29,3.45,3.45,0,0,1-1.35-.84,3.28,3.28,0,0,1-.75-1.24,5,5,0,0,1-.24-1.59V45.94a10.81,10.81,0,0,0-1.13-5.49,4.25,4.25,0,0,0-4-1.89h-7.5V49.82q0,1.83,4.4,1.83V53h-12V51.69c2.35,0,3.53-.61,3.53-1.83V26.79c0-1.22-1.18-1.83-3.53-1.83V23.58h15.11a28,28,0,0,1,3.8.25,9.9,9.9,0,0,1,3.31,1.05,6.08,6.08,0,0,1,2.32,2.24,7.39,7.39,0,0,1,.87,3.83,7.14,7.14,0,0,1-.47,2.72,6.53,6.53,0,0,1-1.25,2A6.61,6.61,0,0,1,161.45,37a8.71,8.71,0,0,1-2.07.75,9,9,0,0,1,1.83,1,5.16,5.16,0,0,1,1.41,1.55,7.94,7.94,0,0,1,.89,2.3,14.36,14.36,0,0,1,.32,3.22v4.1a2,2,0,0,0,.35,1.29,1.14,1.14,0,0,0,.91.42,1.2,1.2,0,0,0,1-.42,2,2,0,0,0,.35-1.29V48h1.71Zm-21-23.6V36.58h8a6.4,6.4,0,0,0,4-1.21,4.72,4.72,0,0,0,1.56-4,5.25,5.25,0,0,0-1.48-4.11A6,6,0,0,0,155.1,26Z" fill="#231f20"/><path d="M13,71.46l-1,.21a6.39,6.39,0,0,0-.6-2.34,5.22,5.22,0,0,0-1.29-1.66,5.12,5.12,0,0,0-1.8-1,6.89,6.89,0,0,0-2.14-.33,8.44,8.44,0,0,0-2,.21,3.79,3.79,0,0,0-1.34.6,2.22,2.22,0,0,0-.73.92,3.09,3.09,0,0,0-.23,1.2,1.89,1.89,0,0,0,.51,1.39,3.58,3.58,0,0,0,1.34.84,10.1,10.1,0,0,0,1.9.49l2.18.39c.73.13,1.46.3,2.17.49a6.57,6.57,0,0,1,1.9.84,4.2,4.2,0,0,1,1.35,1.4,4.39,4.39,0,0,1,.5,2.2,5.53,5.53,0,0,1-.45,2.33A4.09,4.09,0,0,1,12,81.26a5.71,5.71,0,0,1-2.07.93,11.88,11.88,0,0,1-2.72.29,8.14,8.14,0,0,1-2.45-.35,7.59,7.59,0,0,1-2.1-1.07A1.25,1.25,0,0,0,2,80.81a.65.65,0,0,0-.48.18,1.59,1.59,0,0,0-.31.5L1,82.12H0v-6.4l1-.13a6.15,6.15,0,0,0,.61,2.18,5.87,5.87,0,0,0,1.31,1.76A6.14,6.14,0,0,0,4.84,80.7a7.22,7.22,0,0,0,2.53.43q4.64,0,4.64-3.35a2,2,0,0,0-.51-1.45,3.34,3.34,0,0,0-1.34-.84A10.44,10.44,0,0,0,8.27,75l-2.18-.36c-.74-.13-1.46-.29-2.17-.48A6,6,0,0,1,2,73.33,4.16,4.16,0,0,1,.69,71.85a4.76,4.76,0,0,1-.51-2.33,5.11,5.11,0,0,1,.27-1.63,3.58,3.58,0,0,1,1-1.46,5,5,0,0,1,1.8-1A8.85,8.85,0,0,1,6.06,65a8.88,8.88,0,0,1,2.39.29,9.38,9.38,0,0,1,2,.85,1.55,1.55,0,0,0,.83.28A.83.83,0,0,0,12,66l.39-.61H13Z" fill="#231f20"/><path d="M52.83,72.27l-.9.07a19.16,19.16,0,0,0-.37-2.87,5.13,5.13,0,0,0-.71-1.75,2.29,2.29,0,0,0-1.09-.86,4.39,4.39,0,0,0-1.53-.24H45.71V80.29c0,.69.68,1,2,1v.79H41.39v-.79c1.33,0,2-.35,2-1V66.62H40.85a4.39,4.39,0,0,0-1.53.24,2.27,2.27,0,0,0-1.08.86,5.35,5.35,0,0,0-.7,1.75,20.18,20.18,0,0,0-.39,2.87l-.9-.07V65.38H52.83Z" fill="#231f20"/><path d="M84,65a11.79,11.79,0,0,1,3.32.45A6.52,6.52,0,0,1,90,66.94a7.08,7.08,0,0,1,1.76,2.69,11.39,11.39,0,0,1,.64,4.1,11.15,11.15,0,0,1-.54,3.57,7.32,7.32,0,0,1-1.63,2.77,7.44,7.44,0,0,1-2.73,1.78,10.58,10.58,0,0,1-3.82.63A11.89,11.89,0,0,1,80.41,82,6.53,6.53,0,0,1,76,78a10.26,10.26,0,0,1-.66-3.92,12.74,12.74,0,0,1,.51-3.73,7.42,7.42,0,0,1,1.58-2.87,7.16,7.16,0,0,1,2.7-1.84A10.63,10.63,0,0,1,84,65Zm.11,1.35a7.59,7.59,0,0,0-2.94.51,5,5,0,0,0-2,1.41A5.56,5.56,0,0,0,78.1,70.4a9.48,9.48,0,0,0-.35,2.67A16.56,16.56,0,0,0,78.14,77a6.11,6.11,0,0,0,1.16,2.47,4.16,4.16,0,0,0,1.87,1.29,8.06,8.06,0,0,0,2.5.37,7.42,7.42,0,0,0,3.07-.56,4.8,4.8,0,0,0,1.93-1.51,6,6,0,0,0,1-2.28,12.9,12.9,0,0,0,.3-2.87,14,14,0,0,0-.41-3.69,6,6,0,0,0-1.19-2.33,4,4,0,0,0-1.85-1.2A8.06,8.06,0,0,0,84.12,66.35Z" fill="#231f20"/><path d="M131.14,80.14a2.44,2.44,0,0,1-.47,1.54,2.18,2.18,0,0,1-1.78.6,3.53,3.53,0,0,1-1.17-.17,2.09,2.09,0,0,1-.77-.47,2,2,0,0,1-.43-.71,2.94,2.94,0,0,1-.13-.91V78.09a6.21,6.21,0,0,0-.64-3.12,2.42,2.42,0,0,0-2.27-1.07h-4.26v6.39c0,.69.84,1,2.5,1v.79H114.9v-.77c1.33,0,2-.34,2-1V67.21c0-.7-.67-1-2-1v-.79h8.58a15.26,15.26,0,0,1,2.16.15,5.31,5.31,0,0,1,1.89.59,3.5,3.5,0,0,1,1.31,1.28,4.15,4.15,0,0,1,.5,2.17,4,4,0,0,1-.27,1.54,3.62,3.62,0,0,1-.71,1.14,3.72,3.72,0,0,1-1,.77,5.56,5.56,0,0,1-1.18.43,4.51,4.51,0,0,1,1,.56,3,3,0,0,1,.8.88,4.48,4.48,0,0,1,.51,1.31,8.09,8.09,0,0,1,.18,1.83v2.33a1.12,1.12,0,0,0,.2.73.66.66,0,0,0,.52.24.68.68,0,0,0,.54-.24,1.06,1.06,0,0,0,.2-.73V79.28h1ZM119.22,66.73v6h4.53a3.63,3.63,0,0,0,2.29-.69,2.69,2.69,0,0,0,.89-2.26,2.94,2.94,0,0,0-.85-2.33,3.34,3.34,0,0,0-2.33-.76Z" fill="#231f20"/><path d="M167.75,70.47l-.9.07q-.4-3.92-3.27-3.92h-5.85v6.15h3.42c1.11,0,1.74-1,1.87-2.91h.86l-.34,7h-.81c-.15-2-.73-3-1.74-3h-3.26v7h5q4,0,4.58-5.34l.94.16-.54,6.42H153.4v-.79c1.34,0,2-.35,2-1V67.2c0-.69-.67-1-2-1v-.79h14.35Z" fill="#231f20"/></g></g></svg>