<svg xmlns="http://www.w3.org/2000/svg" viewBox="0 0 40 35.03"><title>Asset 7001</title><g id="Layer_2" data-name="Layer 2"><g id="Diseño"><path d="M10.87,22.15a5.69,5.69,0,0,1-4,1.45,6.21,6.21,0,0,1-2.95-.66,6.06,6.06,0,0,1-2.1-1.84A8.45,8.45,0,0,1,.55,18.27a16,16,0,0,1-.48-3.59,12.09,12.09,0,0,1,.49-3.55A9,9,0,0,1,2,8.33,6.37,6.37,0,0,1,4.06,6.49a5.5,5.5,0,0,1,2.67-.66,5.05,5.05,0,0,1,3.14.94,6.87,6.87,0,0,1,2,2.39,10.52,10.52,0,0,1,1,3.15,16.17,16.17,0,0,1,.24,3.26H2.54a7.78,7.78,0,0,0,.22,2.13,5.27,5.27,0,0,0,.79,1.77A4.08,4.08,0,0,0,5,20.71a4.24,4.24,0,0,0,2,.45,3.56,3.56,0,0,0,2.43-.82,4.19,4.19,0,0,0,1.25-2.5h2.3A7.16,7.16,0,0,1,10.87,22.15Zm-.56-10.92A4.93,4.93,0,0,0,9.46,9.7a4.11,4.11,0,0,0-1.26-1A3.44,3.44,0,0,0,6.59,8.3,3.53,3.53,0,0,0,5,8.68a3.89,3.89,0,0,0-1.25,1,5.2,5.2,0,0,0-.82,1.53,6.6,6.6,0,0,0-.35,1.86h8.14A6.82,6.82,0,0,0,10.31,11.23Z" fill="#231f20"/><path d="M21.66,14.55l4.84,8.68h-3l-3.67-6.72,1.79-2m-4.77,2.34v6.35H14.57V0H16.9V13.66l6.48-7.43H26.5Z" fill="#231f20"/><path d="M39.9,23.17a2.81,2.81,0,0,1-1.67.43A1.79,1.79,0,0,1,36.79,23a3,3,0,0,1-.54-2A5.81,5.81,0,0,1,34,23a6.27,6.27,0,0,1-2.76.61,6.41,6.41,0,0,1-1.82-.26,4.13,4.13,0,0,1-1.5-.82,4,4,0,0,1-1-1.47,5.9,5.9,0,0,1-.37-2.19A5.78,5.78,0,0,1,27,16.49,4.19,4.19,0,0,1,28.07,15a4.83,4.83,0,0,1,1.53-.87,17.81,17.81,0,0,1,1.77-.49c.64-.15,1.25-.27,1.83-.35A8.43,8.43,0,0,0,34.72,13a2.54,2.54,0,0,0,1-.63,1.71,1.71,0,0,0,.38-1.2,3.14,3.14,0,0,0-.29-1.48,2.22,2.22,0,0,0-.73-.86,2.92,2.92,0,0,0-1-.39A6,6,0,0,0,33,8.3,4.35,4.35,0,0,0,30.52,9a3.09,3.09,0,0,0-1.07,2.56H27.12a7.05,7.05,0,0,1,.55-2.67A4.83,4.83,0,0,1,29,7.1a5,5,0,0,1,1.88-1,8.18,8.18,0,0,1,2.26-.3A11,11,0,0,1,35,6a4.35,4.35,0,0,1,1.71.67A3.62,3.62,0,0,1,38,8.1a5.29,5.29,0,0,1,.47,2.39v8.74a8.23,8.23,0,0,0,.09,1.44.57.57,0,0,0,.65.46A2.28,2.28,0,0,0,39.9,21Zm-3.78-8.72A2.64,2.64,0,0,1,35,15c-.47.12-1,.21-1.49.29s-1,.16-1.58.26a5.05,5.05,0,0,0-1.42.48,2.71,2.71,0,0,0-1,.93,2.92,2.92,0,0,0-.4,1.65,2.74,2.74,0,0,0,.23,1.17,2.34,2.34,0,0,0,.61.77,2.23,2.23,0,0,0,.86.42,4,4,0,0,0,1,.13,4.76,4.76,0,0,0,2-.37,4.2,4.2,0,0,0,1.34-1,3.92,3.92,0,0,0,.77-1.25,3.71,3.71,0,0,0,.25-1.26Z" fill="#231f20"/><path d="M3.94,27.52a1.76,1.76,0,0,0-1.2-.41,2.25,2.25,0,0,0-.58.07,1.55,1.55,0,0,0-.52.24,1.29,1.29,0,0,0-.35.44,1.62,1.62,0,0,0-.13.7,1,1,0,0,0,.19.64,1.44,1.44,0,0,0,.51.39,3.68,3.68,0,0,0,.73.26l.83.22c.28.08.55.17.83.28a2.5,2.5,0,0,1,.72.43,1.91,1.91,0,0,1,.52.69,2.48,2.48,0,0,1,.19,1,2.45,2.45,0,0,1-.25,1.16,2.53,2.53,0,0,1-.65.79,2.85,2.85,0,0,1-.89.44,3.6,3.6,0,0,1-1,.13,3.52,3.52,0,0,1-1.13-.18,2.7,2.7,0,0,1-.93-.54,2.68,2.68,0,0,1-.63-.92A3.61,3.61,0,0,1,0,32.05H.89a2.29,2.29,0,0,0,.17.92,1.91,1.91,0,0,0,.46.64,1.69,1.69,0,0,0,.66.36,2.53,2.53,0,0,0,.77.12A2.85,2.85,0,0,0,3.59,34a2,2,0,0,0,.58-.24,1.25,1.25,0,0,0,.41-.47,1.56,1.56,0,0,0,.16-.76,1.27,1.27,0,0,0-.19-.71A1.53,1.53,0,0,0,4,31.39a3.84,3.84,0,0,0-.73-.28l-.82-.22a8,8,0,0,1-.83-.26,2.76,2.76,0,0,1-.72-.39,1.7,1.7,0,0,1-.52-.63,2.15,2.15,0,0,1-.19-1,2.59,2.59,0,0,1,.22-1.11A2.12,2.12,0,0,1,1,26.76a2.47,2.47,0,0,1,.83-.45,3,3,0,0,1,.94-.15,3,3,0,0,1,1,.16,2.19,2.19,0,0,1,.82.48,2.27,2.27,0,0,1,.55.84,3.57,3.57,0,0,1,.22,1.2H4.49A1.86,1.86,0,0,0,3.94,27.52Z" fill="#231f20"/><path d="M7,27.31v-.95H12.6v.95H10.25v7.53H9.31V27.31Z" fill="#231f20"/><path d="M19.2,34.22a2.62,2.62,0,0,1-2.06.81A2.85,2.85,0,0,1,15,34.25a3.36,3.36,0,0,1-.77-2.47V26.36h.94v5.42a2.64,2.64,0,0,0,.5,1.73,1.83,1.83,0,0,0,1.46.58,1.65,1.65,0,0,0,1.37-.58A2.76,2.76,0,0,0,19,31.78V26.36h.94v5.42A3.59,3.59,0,0,1,19.2,34.22Z" fill="#231f20"/><path d="M24.74,26.36a3.14,3.14,0,0,1,2.51,1,4.49,4.49,0,0,1,.88,3,8.27,8.27,0,0,1-.19,1.89,3.63,3.63,0,0,1-.62,1.39,2.61,2.61,0,0,1-1.06.86,3.52,3.52,0,0,1-1.52.3H22.32V26.36Zm.08,7.53.4,0a2.24,2.24,0,0,0,.5-.14,2.56,2.56,0,0,0,.53-.33,2,2,0,0,0,.47-.58,3.48,3.48,0,0,0,.34-.92,5.73,5.73,0,0,0,.13-1.34,6.84,6.84,0,0,0-.12-1.35,2.92,2.92,0,0,0-.4-1,2,2,0,0,0-.73-.64,2.6,2.6,0,0,0-1.1-.22H23.26v6.58Z" fill="#231f20"/><path d="M31.15,26.36v8.48h-.94V26.36Z" fill="#231f20"/><path d="M33.44,28.93a5,5,0,0,1,.64-1.42,3.3,3.3,0,0,1,1.06-1,3.13,3.13,0,0,1,3,0,3.3,3.3,0,0,1,1.06,1,5,5,0,0,1,.64,1.42A6.65,6.65,0,0,1,40,30.6a6.53,6.53,0,0,1-.21,1.67,4.73,4.73,0,0,1-.64,1.42,3.3,3.3,0,0,1-1.06,1,3.2,3.2,0,0,1-3,0,3.3,3.3,0,0,1-1.06-1,4.73,4.73,0,0,1-.64-1.42,6.53,6.53,0,0,1-.21-1.67A6.65,6.65,0,0,1,33.44,28.93Zm.87,2.94A4,4,0,0,0,34.74,33a2.46,2.46,0,0,0,.77.8,2.19,2.19,0,0,0,2.21,0,2.46,2.46,0,0,0,.77-.8,4,4,0,0,0,.43-1.12,6,6,0,0,0,.14-1.27,5.93,5.93,0,0,0-.14-1.26,3.84,3.84,0,0,0-.43-1.12,2.49,2.49,0,0,0-.77-.81,2.19,2.19,0,0,0-2.21,0,2.49,2.49,0,0,0-.77.81,3.84,3.84,0,0,0-.43,1.12,5.93,5.93,0,0,0-.14,1.26A6,6,0,0,0,34.31,31.87Z" fill="#231f20"/></g></g></svg>