<svg xmlns="http://www.w3.org/2000/svg" viewBox="0 0 38.14 100.28"><title>Asset 6501</title><g id="Layer_2" data-name="Layer 2"><g id="Diseño"><path d="M19.07,14.56a7.28,7.28,0,1,0-7.28-7.28A7.28,7.28,0,0,0,19.07,14.56Z"/><path d="M33,20.07V20H5.11v.08A5.11,5.11,0,0,0,0,25.18V49a1.5,1.5,0,0,0,3,0V25.18a2.11,2.11,0,0,1,4.13-.59v31H31v-31a2.11,2.11,0,0,1,4.13.59V49a1.5,1.5,0,0,0,3,0V25.18A5.11,5.11,0,0,0,33,20.07Z"/><path d="M28.21,60.06V97.28a3,3,0,0,1-6,0V63.7a3.14,3.14,0,0,0-6.27,0V97.28a3,3,0,0,1-6,0V60.06A8.92,8.92,0,0,1,10,58.9H28.13A7.45,7.45,0,0,1,28.21,60.06Z"/></g></g></svg>