<svg xmlns="http://www.w3.org/2000/svg" viewBox="0 0 261.67 145.53"><title>Asset 223012442</title><g id="Layer_2" data-name="Layer 2"><g id="Texto"><rect x="96.9" width="67.88" height="67.88" fill="#88bb3d"/><rect x="130.02" y="33.13" width="30.01" height="30.01" fill="#fff"/><path d="M29,143.2a1.82,1.82,0,0,0,.61.73,2.3,2.3,0,0,0,.93.39,5.11,5.11,0,0,0,1.14.12,2.54,2.54,0,0,0,.75-.1,2.49,2.49,0,0,0,.77-.31,2.26,2.26,0,0,0,.59-.56,1.53,1.53,0,0,0,.24-.83,1.23,1.23,0,0,0-.17-.65,1.54,1.54,0,0,0-.43-.45,2.43,2.43,0,0,0-.6-.31c-.21-.08-.42-.14-.62-.2l-2-.48a6,6,0,0,1-.75-.24,2.15,2.15,0,0,1-.65-.4,2,2,0,0,1-.44-.61,2,2,0,0,1-.17-.89,3,3,0,0,1,.13-.75,2.21,2.21,0,0,1,.47-.82,3.08,3.08,0,0,1,.93-.66,4.18,4.18,0,0,1,1.53-.25,4.36,4.36,0,0,1,1.26.17,3,3,0,0,1,1,.52,2.52,2.52,0,0,1,1,2.06h-.85a1.81,1.81,0,0,0-.23-.89,2,2,0,0,0-.53-.64,2.34,2.34,0,0,0-.76-.37,2.63,2.63,0,0,0-.89-.13,3.89,3.89,0,0,0-.85.08,2.12,2.12,0,0,0-.7.3,1.73,1.73,0,0,0-.5.54,1.87,1.87,0,0,0-.18.84,1.09,1.09,0,0,0,.11.53,1,1,0,0,0,.29.4,1.27,1.27,0,0,0,.42.25,3.5,3.5,0,0,0,.52.17l2.16.53a7.76,7.76,0,0,1,.89.31,2.78,2.78,0,0,1,.73.44,2,2,0,0,1,.5.66,2.13,2.13,0,0,1,.18.92,3.58,3.58,0,0,1,0,.41,2.16,2.16,0,0,1-.15.53,3.85,3.85,0,0,1-.33.56,2.47,2.47,0,0,1-.59.51,3.84,3.84,0,0,1-.95.37A5.83,5.83,0,0,1,30,145a3.31,3.31,0,0,1-1.15-.54,2.74,2.74,0,0,1-.72-1,3.13,3.13,0,0,1-.22-1.39h.85A2.47,2.47,0,0,0,29,143.2" fill="#58595b"/><path d="M38.44,138.79a4.35,4.35,0,0,1,.79-1.47,3.6,3.6,0,0,1,1.31-1,4,4,0,0,1,1.82-.37,4.09,4.09,0,0,1,1.84.37,3.7,3.7,0,0,1,1.29,1,4.53,4.53,0,0,1,.79,1.47,6,6,0,0,1,.25,1.76,5.91,5.91,0,0,1-.25,1.74,4.38,4.38,0,0,1-.79,1.46,3.82,3.82,0,0,1-1.29,1,4.09,4.09,0,0,1-1.84.38,4,4,0,0,1-1.82-.38,3.71,3.71,0,0,1-1.31-1,4.21,4.21,0,0,1-.79-1.46,5.91,5.91,0,0,1-.26-1.74,6,6,0,0,1,.26-1.76m.78,3.17a4,4,0,0,0,.6,1.26,3,3,0,0,0,1,.89,3.36,3.36,0,0,0,1.51.33,3.3,3.3,0,0,0,1.51-.33,3.18,3.18,0,0,0,1-.89,4,4,0,0,0,.6-1.26,4.85,4.85,0,0,0,.2-1.41,4.8,4.8,0,0,0-.2-1.43,3.81,3.81,0,0,0-.6-1.25,2.86,2.86,0,0,0-1-.89,3.18,3.18,0,0,0-1.51-.33,3.23,3.23,0,0,0-1.51.33,2.7,2.7,0,0,0-1,.89,3.81,3.81,0,0,0-.6,1.25,5.15,5.15,0,0,0-.19,1.43,5.21,5.21,0,0,0,.19,1.41" fill="#58595b"/><polygon points="51.18 136.11 51.18 144.26 56.16 144.26 56.16 144.97 50.34 144.97 50.34 136.11 51.18 136.11" fill="#58595b"/><path d="M60.24,136.11v5.49a4.38,4.38,0,0,0,.18,1.3,2.26,2.26,0,0,0,.51.9,2,2,0,0,0,.82.49,4.12,4.12,0,0,0,1.1.15,4,4,0,0,0,1.09-.15,2.15,2.15,0,0,0,.83-.49,2.24,2.24,0,0,0,.5-.9,4.08,4.08,0,0,0,.18-1.3v-5.49h.84v5.67a4.59,4.59,0,0,1-.19,1.3,2.85,2.85,0,0,1-1.68,1.81,4.9,4.9,0,0,1-3.15,0,3.24,3.24,0,0,1-1.07-.74,3.07,3.07,0,0,1-.61-1.07,4.59,4.59,0,0,1-.19-1.3v-5.67Z" fill="#58595b"/><path d="M76.59,137.88a2.38,2.38,0,0,0-.62-.68,2.64,2.64,0,0,0-.8-.41,2.83,2.83,0,0,0-.93-.14,3.28,3.28,0,0,0-1.52.33,3,3,0,0,0-1,.89,4,4,0,0,0-.59,1.25,5.15,5.15,0,0,0-.2,1.43,5.22,5.22,0,0,0,.2,1.41,4.17,4.17,0,0,0,.59,1.26,3.33,3.33,0,0,0,1,.89,3.41,3.41,0,0,0,1.52.33,2.67,2.67,0,0,0,1.12-.23,2.34,2.34,0,0,0,.85-.61,2.74,2.74,0,0,0,.58-.89,3.71,3.71,0,0,0,.29-1.11h.84a4.54,4.54,0,0,1-.38,1.47,3.77,3.77,0,0,1-.77,1.13,3.43,3.43,0,0,1-1.11.7,3.74,3.74,0,0,1-1.42.25,4,4,0,0,1-1.83-.38,3.71,3.71,0,0,1-1.31-1,4.19,4.19,0,0,1-.78-1.46,5.6,5.6,0,0,1-.26-1.74,5.68,5.68,0,0,1,.26-1.76,4.33,4.33,0,0,1,.78-1.47,3.6,3.6,0,0,1,1.31-1,4.56,4.56,0,0,1,3.07-.19,3.39,3.39,0,0,1,1.09.55,3.09,3.09,0,0,1,1.24,2.13H77a3,3,0,0,0-.37-.91" fill="#58595b"/><rect x="81.76" y="136.11" width="0.85" height="8.85" fill="#58595b"/><path d="M86.73,138.79a4.51,4.51,0,0,1,.78-1.47,3.77,3.77,0,0,1,1.31-1,4.71,4.71,0,0,1,3.66,0,3.74,3.74,0,0,1,1.3,1,4.53,4.53,0,0,1,.79,1.47,6,6,0,0,1,.25,1.76,5.91,5.91,0,0,1-.25,1.74,4.38,4.38,0,0,1-.79,1.46,3.86,3.86,0,0,1-1.3,1,4.6,4.6,0,0,1-3.66,0,3.9,3.9,0,0,1-1.31-1,4.36,4.36,0,0,1-.78-1.46,5.6,5.6,0,0,1-.26-1.74,5.68,5.68,0,0,1,.26-1.76m.78,3.17a3.76,3.76,0,0,0,.6,1.26,3,3,0,0,0,1,.89,3.62,3.62,0,0,0,3,0,3.08,3.08,0,0,0,1-.89,4,4,0,0,0,.6-1.26,5.63,5.63,0,0,0,.19-1.41,5.55,5.55,0,0,0-.19-1.43,3.81,3.81,0,0,0-.6-1.25,2.78,2.78,0,0,0-1-.89,3.62,3.62,0,0,0-3,0,2.7,2.7,0,0,0-1,.89,3.62,3.62,0,0,0-.6,1.25,5.15,5.15,0,0,0-.2,1.43,5.22,5.22,0,0,0,.2,1.41" fill="#58595b"/><polygon points="99.56 136.11 104.72 143.6 104.75 143.6 104.75 136.11 105.59 136.11 105.59 144.97 104.64 144.97 99.48 137.48 99.46 137.48 99.46 144.97 98.61 144.97 98.61 136.11 99.56 136.11" fill="#58595b"/><polygon points="115.96 136.11 115.96 136.82 110.69 136.82 110.69 140.04 115.63 140.04 115.63 140.75 110.69 140.75 110.69 144.26 116.03 144.26 116.03 144.97 109.85 144.97 109.85 136.11 115.96 136.11" fill="#58595b"/><path d="M120.31,143.2a1.88,1.88,0,0,0,.6.73,2.42,2.42,0,0,0,.93.39,5.27,5.27,0,0,0,1.15.12,2.59,2.59,0,0,0,.75-.1,2.53,2.53,0,0,0,.76-.31,2.11,2.11,0,0,0,.59-.56,1.45,1.45,0,0,0,.24-.83,1.23,1.23,0,0,0-.17-.65,1.32,1.32,0,0,0-.43-.45,2.2,2.2,0,0,0-.59-.31c-.21-.08-.42-.14-.64-.2l-2-.48a6.12,6.12,0,0,1-.76-.24,2,2,0,0,1-.64-.4,2.2,2.2,0,0,1-.45-.61,2.28,2.28,0,0,1-.16-.89,2.62,2.62,0,0,1,.13-.75,2,2,0,0,1,.46-.82,3,3,0,0,1,.94-.66,4.14,4.14,0,0,1,1.53-.25,4.41,4.41,0,0,1,1.26.17,2.71,2.71,0,0,1,1,.52,2.5,2.5,0,0,1,1,2.06H125a2,2,0,0,0-.76-1.53,2.34,2.34,0,0,0-.76-.37,2.67,2.67,0,0,0-.89-.13,3.74,3.74,0,0,0-.84.08,2.08,2.08,0,0,0-.71.3,1.54,1.54,0,0,0-.69,1.38,1.22,1.22,0,0,0,.11.53,1,1,0,0,0,.3.4,1.22,1.22,0,0,0,.43.25,2.54,2.54,0,0,0,.51.17l2.16.53a7,7,0,0,1,.88.31,2.69,2.69,0,0,1,.74.44,1.87,1.87,0,0,1,.49.66,2,2,0,0,1,.19.92,3.58,3.58,0,0,1,0,.41,2.81,2.81,0,0,1-.16.53,3.12,3.12,0,0,1-.33.56,2,2,0,0,1-.59.51,4.09,4.09,0,0,1-.94.37,5.27,5.27,0,0,1-1.34.15,5.21,5.21,0,0,1-1.46-.19,3.26,3.26,0,0,1-1.14-.54,2.42,2.42,0,0,1-.72-1,3,3,0,0,1-.22-1.39h.85a2.47,2.47,0,0,0,.21,1.14" fill="#58595b"/><path d="M139,136.11a4.16,4.16,0,0,1,3.05,1.14,5.83,5.83,0,0,1,0,6.59A4.12,4.12,0,0,1,139,145h-3.06v-8.85Zm-.42,8.15a5.59,5.59,0,0,0,1.64-.21,2.55,2.55,0,0,0,1.8-1.81,6,6,0,0,0,.21-1.69,6.05,6.05,0,0,0-.21-1.71,2.7,2.7,0,0,0-.66-1.16,2.61,2.61,0,0,0-1.14-.65,6,6,0,0,0-1.64-.21h-1.81v7.44Z" fill="#58595b"/><polygon points="153.04 136.11 153.04 136.82 147.77 136.82 147.77 140.04 152.71 140.04 152.71 140.75 147.77 140.75 147.77 144.26 153.11 144.26 153.11 144.97 146.92 144.97 146.92 136.11 153.04 136.11" fill="#58595b"/><polygon points="168.83 136.11 168.83 136.82 163.55 136.82 163.55 140.04 168.49 140.04 168.49 140.75 163.55 140.75 163.55 144.26 168.88 144.26 168.88 144.97 162.7 144.97 162.7 136.11 168.83 136.11" fill="#58595b"/><polygon points="173.77 136.11 176.7 143.88 179.76 136.11 181.01 136.11 181.01 144.97 180.16 144.97 180.16 137.32 180.14 137.32 177.12 144.97 176.32 144.97 173.39 137.32 173.37 137.32 173.37 144.97 172.53 144.97 172.53 136.11 173.77 136.11" fill="#58595b"/><path d="M189.17,136.11a3.59,3.59,0,0,1,1.07.16,2,2,0,0,1,.83.51,1.87,1.87,0,0,1,.53.79,3.14,3.14,0,0,1,0,2.15,1.94,1.94,0,0,1-.53.79,2,2,0,0,1-.83.49,3,3,0,0,1-1.07.18h-3.1V145h-.84v-8.85Zm-.2,4.35a2.2,2.2,0,0,0,1.44-.45,1.69,1.69,0,0,0,.55-1.36,1.75,1.75,0,0,0-.55-1.38,2.25,2.25,0,0,0-1.44-.45h-2.9v3.64Z" fill="#58595b"/><path d="M198.16,136.11l3.46,8.85h-.9l-1.08-2.75h-4L194.54,145h-.89l3.55-8.85Zm1.2,5.39L197.64,137l-1.77,4.54Z" fill="#58595b"/><path d="M210.93,144.5a3.86,3.86,0,0,1-2.3.65,4,4,0,0,1-1.82-.38,3.88,3.88,0,0,1-1.33-1,4.75,4.75,0,0,1-.78-1.46,5.91,5.91,0,0,1-.26-1.74,6,6,0,0,1,.26-1.76,4.92,4.92,0,0,1,.78-1.47,3.76,3.76,0,0,1,1.33-1,4.66,4.66,0,0,1,3.64,0,3.68,3.68,0,0,1,1.31,1,4.14,4.14,0,0,1,.77,1.47,5.4,5.4,0,0,1,.27,1.76,5.61,5.61,0,0,1-.33,1.94,4,4,0,0,1-1,1.56l1.27,1-.43.51Zm.77-2.3a5.42,5.42,0,0,0,.26-1.65,4.8,4.8,0,0,0-.2-1.43,3.79,3.79,0,0,0-.59-1.25,2.86,2.86,0,0,0-1-.89,3.62,3.62,0,0,0-3,0,2.81,2.81,0,0,0-1,.89,4,4,0,0,0-.6,1.25,5.55,5.55,0,0,0-.19,1.43,5.63,5.63,0,0,0,.19,1.41,4.19,4.19,0,0,0,.6,1.26,3.12,3.12,0,0,0,1,.89,3.33,3.33,0,0,0,1.51.33,3.08,3.08,0,0,0,1.64-.43l-1.17-.89.44-.53,1.28,1a3.18,3.18,0,0,0,.88-1.37" fill="#58595b"/><path d="M217.36,136.11v5.49a4.08,4.08,0,0,0,.18,1.3,2.15,2.15,0,0,0,.51.9,2,2,0,0,0,.81.49,4,4,0,0,0,1.09.15,4.14,4.14,0,0,0,1.11-.15,2.11,2.11,0,0,0,.82-.49,2.38,2.38,0,0,0,.51-.9,4.41,4.41,0,0,0,.17-1.3v-5.49h.85v5.67a4.26,4.26,0,0,1-.2,1.3,2.8,2.8,0,0,1-1.67,1.81,4.93,4.93,0,0,1-3.16,0,3.09,3.09,0,0,1-1.06-.74,3,3,0,0,1-.62-1.07,4.26,4.26,0,0,1-.18-1.3v-5.67Z" fill="#58595b"/><polygon points="233.72 136.11 233.72 136.82 228.44 136.82 228.44 140.04 233.38 140.04 233.38 140.75 228.44 140.75 228.44 144.26 233.77 144.26 233.77 144.97 227.59 144.97 227.59 136.11 233.72 136.11" fill="#58595b"/><path d="M19.7,119.54l-.29-4.3h-.07a8.28,8.28,0,0,1-1.47,2.17,8.06,8.06,0,0,1-1.94,1.48,8.49,8.49,0,0,1-2.27.85,11.34,11.34,0,0,1-2.5.26,11.05,11.05,0,0,1-4.88-1,10.32,10.32,0,0,1-3.5-2.68,11.91,11.91,0,0,1-2.09-3.92,16.11,16.11,0,0,1,0-9.33,11.86,11.86,0,0,1,2.09-3.93,10,10,0,0,1,3.5-2.71,11.05,11.05,0,0,1,4.88-1,12,12,0,0,1,3.5.5,8.6,8.6,0,0,1,3,1.49,9.06,9.06,0,0,1,2.19,2.45A9.56,9.56,0,0,1,21,103.26H18.78a5.41,5.41,0,0,0-.68-2.08,7.45,7.45,0,0,0-1.56-1.9,8,8,0,0,0-2.33-1.41,8.24,8.24,0,0,0-3.05-.55,8.49,8.49,0,0,0-4,.9,8,8,0,0,0-2.76,2.37,10,10,0,0,0-1.59,3.33,14.11,14.11,0,0,0,0,7.59,10.16,10.16,0,0,0,1.59,3.35,8.15,8.15,0,0,0,2.76,2.37,8.6,8.6,0,0,0,4,.89,9.12,9.12,0,0,0,3.49-.64,7.29,7.29,0,0,0,4.19-4.56,10.48,10.48,0,0,0,.5-3.47h-8v-1.92h10v12Z" fill="#58595b"/><path d="M39.8,95.91a10.23,10.23,0,0,1,2.76.35,7.08,7.08,0,0,1,2.29,1.11,5.46,5.46,0,0,1,1.56,1.92,6.15,6.15,0,0,1,.57,2.77A6.59,6.59,0,0,1,45.82,106a5.34,5.34,0,0,1-3.44,2.12v.06a5.42,5.42,0,0,1,1.92.61,4,4,0,0,1,1.25,1.15,4.82,4.82,0,0,1,.69,1.6,12.72,12.72,0,0,1,.29,2c0,.39,0,.87.06,1.45s.07,1.15.14,1.74a10.49,10.49,0,0,0,.3,1.65,3.25,3.25,0,0,0,.58,1.21H45.13a3,3,0,0,1-.31-.81,7.72,7.72,0,0,1-.17-1c0-.33,0-.67-.08-1s0-.62-.07-.87c0-.83-.11-1.67-.21-2.49a7,7,0,0,0-.63-2.23,3.9,3.9,0,0,0-1.4-1.56,4,4,0,0,0-2.49-.53H31.22v10.49H29V95.91Zm-.16,11.22a6,6,0,0,0,2-.32,4.6,4.6,0,0,0,1.62-.91,4.4,4.4,0,0,0,1.12-1.43,4.47,4.47,0,0,0,.41-2,4.68,4.68,0,0,0-1.26-3.44,5.28,5.28,0,0,0-3.84-1.26H31.22v9.31Z" fill="#58595b"/><path d="M56.39,95.91v14.63a11,11,0,0,0,.47,3.48,5.72,5.72,0,0,0,1.35,2.37,5.56,5.56,0,0,0,2.18,1.32,9.76,9.76,0,0,0,2.92.41,9.87,9.87,0,0,0,3-.41,5.49,5.49,0,0,0,2.18-1.32A5.85,5.85,0,0,0,69.8,114a11.31,11.31,0,0,0,.47-3.48V95.91h2.24V111a11.49,11.49,0,0,1-.51,3.46,7.35,7.35,0,0,1-4.48,4.8,12.78,12.78,0,0,1-8.4,0,7.43,7.43,0,0,1-4.47-4.8,11.19,11.19,0,0,1-.52-3.46V95.91Z" fill="#58595b"/><path d="M90.85,95.91a8.62,8.62,0,0,1,2.88.44A6,6,0,0,1,96,97.68a5.62,5.62,0,0,1,1.42,2.13,7.69,7.69,0,0,1,.5,2.84,7.85,7.85,0,0,1-.5,2.87A5.82,5.82,0,0,1,96,107.64,6.12,6.12,0,0,1,93.73,109a8.62,8.62,0,0,1-2.88.44H82.62v10.13H80.36V95.91Zm-.49,11.59a5.85,5.85,0,0,0,3.81-1.2,5.29,5.29,0,0,0,0-7.28,5.79,5.79,0,0,0-3.81-1.2H82.62v9.68Z" fill="#58595b"/><path d="M104,103.06a11.7,11.7,0,0,1,2.1-3.93,9.9,9.9,0,0,1,3.49-2.71,12.16,12.16,0,0,1,9.75,0,10.14,10.14,0,0,1,3.48,2.71,11.66,11.66,0,0,1,2.08,3.93,16.11,16.11,0,0,1,0,9.33,11.71,11.71,0,0,1-2.08,3.92A10.43,10.43,0,0,1,119.3,119a12.27,12.27,0,0,1-9.75,0,10.18,10.18,0,0,1-3.49-2.68,11.75,11.75,0,0,1-2.1-3.92,16.11,16.11,0,0,1,0-9.33m2.08,8.45a10.34,10.34,0,0,0,1.58,3.35,8.23,8.23,0,0,0,2.78,2.37,9.55,9.55,0,0,0,8,0,8.35,8.35,0,0,0,2.76-2.37,10.34,10.34,0,0,0,1.58-3.35,14.11,14.11,0,0,0,0-7.59,10.14,10.14,0,0,0-1.58-3.33,8.23,8.23,0,0,0-2.76-2.37,9.45,9.45,0,0,0-8,0,8.12,8.12,0,0,0-2.78,2.37,10.14,10.14,0,0,0-1.58,3.33,14.11,14.11,0,0,0,0,7.59" fill="#58595b"/><polygon points="145.02 95.91 149.16 95.91 149.16 115.97 161.17 115.97 161.17 119.54 145.02 119.54 145.02 95.91" fill="#58595b"/><path d="M173.66,95.91h4.41l9.1,23.63h-4.43l-2.23-6.26h-9.44l-2.21,6.26H164.6Zm-1.46,14.23h7.23L175.88,100h-.11Z" fill="#58595b"/><path d="M195.45,111.67a5.29,5.29,0,0,0,.46,2.31,4.14,4.14,0,0,0,1.29,1.57,5.11,5.11,0,0,0,1.91.9,10.12,10.12,0,0,0,2.33.28,8.14,8.14,0,0,0,2.32-.31,5.41,5.41,0,0,0,1.56-.81,3.1,3.1,0,0,0,.86-1.14,3.65,3.65,0,0,0,.26-1.32,2.82,2.82,0,0,0-.62-2,3.57,3.57,0,0,0-1.33-.9,29,29,0,0,0-2.92-.88c-1.13-.27-2.5-.64-4.13-1.08a8.67,8.67,0,0,1-2.54-1,5.59,5.59,0,0,1-1.59-1.44,5.2,5.2,0,0,1-.86-1.69,6.5,6.5,0,0,1-.25-1.82A6.1,6.1,0,0,1,193,99.2a6.52,6.52,0,0,1,2-2.17,8.42,8.42,0,0,1,2.78-1.28,12.63,12.63,0,0,1,6.64.07,8.73,8.73,0,0,1,2.88,1.43,6.82,6.82,0,0,1,2.7,5.64h-4.14a3.93,3.93,0,0,0-1.57-3.23,6,6,0,0,0-3.53-.94,7.68,7.68,0,0,0-1.49.15,4.66,4.66,0,0,0-1.39.48,3,3,0,0,0-1,1,2.47,2.47,0,0,0-.42,1.48,2.51,2.51,0,0,0,.78,2,4.9,4.9,0,0,0,2,1.08l1,.29c.6.16,1.29.33,2,.54l2.19.58c.73.18,1.24.32,1.55.42a6.79,6.79,0,0,1,2,1,7,7,0,0,1,1.44,1.43,6.14,6.14,0,0,1,.86,1.74,6.66,6.66,0,0,1,.28,1.86,6.57,6.57,0,0,1-3,5.69,9.34,9.34,0,0,1-3,1.31,14.8,14.8,0,0,1-3.45.41,14.2,14.2,0,0,1-3.81-.49,8.84,8.84,0,0,1-3.12-1.53,7.56,7.56,0,0,1-2.12-2.63,8.59,8.59,0,0,1-.82-3.78Z" fill="#58595b"/><polygon points="217.5 95.91 234.51 95.91 234.51 99.48 221.64 99.48 221.64 105.67 233.56 105.67 233.56 109.05 221.64 109.05 221.64 115.97 234.75 115.97 234.75 119.54 217.5 119.54 217.5 95.91" fill="#58595b"/><path d="M241.66,95.91H253c2.61,0,4.57.55,5.86,1.68a5.86,5.86,0,0,1,1.95,4.7,6.91,6.91,0,0,1-.5,2.8,5.53,5.53,0,0,1-1.15,1.79,4.75,4.75,0,0,1-1.3,1,9.86,9.86,0,0,1-1,.4v.07a3.88,3.88,0,0,1,1.15.33,3.72,3.72,0,0,1,1.15.85A5.21,5.21,0,0,1,260,111a6.7,6.7,0,0,1,.34,2.31,22.05,22.05,0,0,0,.31,3.8,4.94,4.94,0,0,0,1,2.43h-4.43a3.94,3.94,0,0,1-.56-1.68c-.05-.62-.07-1.22-.07-1.8a17.17,17.17,0,0,0-.21-2.79,5.05,5.05,0,0,0-.72-2,3,3,0,0,0-1.46-1.15,6.25,6.25,0,0,0-2.31-.36h-6.09v9.73h-4.16Zm4.16,10.76h6.78a4.34,4.34,0,0,0,3-1,3.71,3.71,0,0,0,1-2.83,4.41,4.41,0,0,0-.34-1.84,2.64,2.64,0,0,0-.9-1.11,3.34,3.34,0,0,0-1.32-.53,8.8,8.8,0,0,0-1.56-.13h-6.7Z" fill="#58595b"/></g></g></svg>