<svg xmlns="http://www.w3.org/2000/svg" viewBox="0 0 166.93 92.84"><title>Asset 101vectores-Grupo Laser</title><g data-name="Layer 2"><path fill="#88bb3d" d="M61.82 0h43.3v43.3h-43.3z"/><path fill="#fff" d="M82.95 21.13h19.15v19.14H82.95z"/><path d="M18.48 91.36a1.22 1.22 0 0 0 .38.46 1.47 1.47 0 0 0 .6.25 3.31 3.31 0 0 0 .72.08 1.81 1.81 0 0 0 .49-.07 1.74 1.74 0 0 0 .49-.2 1.27 1.27 0 0 0 .37-.36.89.89 0 0 0 .15-.52.68.68 0 0 0-.11-.41.84.84 0 0 0-.27-.29 1.38 1.38 0 0 0-.38-.2 3.1 3.1 0 0 0-.4-.13l-1.26-.31a2.67 2.67 0 0 1-.48-.15 1.41 1.41 0 0 1-.41-.25 1.26 1.26 0 0 1-.28-.39 1.23 1.23 0 0 1-.09-.57 2 2 0 0 1 .08-.48 1.38 1.38 0 0 1 .3-.52 1.64 1.64 0 0 1 .6-.42 2.65 2.65 0 0 1 1-.16 3 3 0 0 1 .8.1 1.76 1.76 0 0 1 1.12.89 1.67 1.67 0 0 1 .17.76h-.54a1.15 1.15 0 0 0-.15-.57 1.16 1.16 0 0 0-.33-.4 1.6 1.6 0 0 0-.49-.24 1.79 1.79 0 0 0-.57-.09 2.35 2.35 0 0 0-.54.06 1.36 1.36 0 0 0-.44.19 1 1 0 0 0-.32.34 1.08 1.08 0 0 0-.12.54.74.74 0 0 0 .07.34.53.53 0 0 0 .19.25.61.61 0 0 0 .27.16 1.17 1.17 0 0 0 .33.11l1.38.34a5.27 5.27 0 0 1 .56.19 1.86 1.86 0 0 1 .47.29 1.18 1.18 0 0 1 .31.42 1.32 1.32 0 0 1 .12.59v.26a1 1 0 0 1-.1.33 2.36 2.36 0 0 1-.21.36 1.32 1.32 0 0 1-.37.33 2.68 2.68 0 0 1-.61.23 3 3 0 0 1-.85.1 3.48 3.48 0 0 1-.93-.12 2.06 2.06 0 0 1-.73-.35 1.71 1.71 0 0 1-.46-.62 2 2 0 0 1-.14-.88h.54a1.51 1.51 0 0 0 .14.73m5.98-2.82a2.59 2.59 0 0 1 .5-.94 2.21 2.21 0 0 1 .83-.64 2.55 2.55 0 0 1 1.14-.24 2.51 2.51 0 0 1 1.16.24 2.21 2.21 0 0 1 .83.64 2.93 2.93 0 0 1 .5.94 3.77 3.77 0 0 1 0 2.24 2.78 2.78 0 0 1-.5.93 2.45 2.45 0 0 1-.83.65 2.64 2.64 0 0 1-1.16.24 2.69 2.69 0 0 1-1.17-.24 2.57 2.57 0 0 1-1.33-1.58 3.77 3.77 0 0 1 0-2.24m.49 2a2.56 2.56 0 0 0 .38.8 1.9 1.9 0 0 0 .66.56 2.1 2.1 0 0 0 1 .22 2 2 0 0 0 1-.22 2.1 2.1 0 0 0 .66-.56 2.56 2.56 0 0 0 .38-.8 3.16 3.16 0 0 0 .12-.91 3 3 0 0 0-.12-.91 2.46 2.46 0 0 0-.38-.8 2 2 0 0 0-.66-.56 1.92 1.92 0 0 0-1-.22 2 2 0 0 0-1 .22 1.8 1.8 0 0 0-.66.56 2.46 2.46 0 0 0-.38.8 3.39 3.39 0 0 0-.12.91 3.56 3.56 0 0 0 .12.91m7.66-3.71v5.2h3.18v.45h-3.72v-5.65h.54zm5.78 0v3.5a2.47 2.47 0 0 0 .12.83 1.48 1.48 0 0 0 .32.58 1.41 1.41 0 0 0 .52.31 2.52 2.52 0 0 0 .7.1 2.46 2.46 0 0 0 .7-.1 1.46 1.46 0 0 0 .53-.31 1.48 1.48 0 0 0 .32-.58 2.78 2.78 0 0 0 .11-.83v-3.5h.54v3.62a2.82 2.82 0 0 1-.12.83 1.82 1.82 0 0 1-1.07 1.15 2.77 2.77 0 0 1-1 .17 2.68 2.68 0 0 1-1-.17 1.91 1.91 0 0 1-.68-.47 1.78 1.78 0 0 1-.39-.68 2.82 2.82 0 0 1-.12-.83v-3.62zM48.86 88a1.66 1.66 0 0 0-.91-.69 1.63 1.63 0 0 0-.59-.1 2 2 0 0 0-1.63.78 2.46 2.46 0 0 0-.38.8 3.39 3.39 0 0 0-.12.91 3.56 3.56 0 0 0 .12.91 2.56 2.56 0 0 0 .38.8 2 2 0 0 0 1.63.78 1.61 1.61 0 0 0 .71-.15 1.53 1.53 0 0 0 .55-.39A1.87 1.87 0 0 0 49 91a2.55 2.55 0 0 0 .19-.71h.53a2.77 2.77 0 0 1-.24.94A2.48 2.48 0 0 1 49 92a2.26 2.26 0 0 1-.71.45 2.38 2.38 0 0 1-.91.16 2.72 2.72 0 0 1-1.17-.24 2.55 2.55 0 0 1-.83-.65 2.62 2.62 0 0 1-.5-.93 3.77 3.77 0 0 1 0-2.24 2.75 2.75 0 0 1 .5-.94 2.29 2.29 0 0 1 .83-.64 2.58 2.58 0 0 1 1.17-.24 2.65 2.65 0 0 1 .79.11 2.42 2.42 0 0 1 .7.35 2.21 2.21 0 0 1 .52.58 2 2 0 0 1 .27.78h-.56a1.87 1.87 0 0 0-.24-.58m3.3-1.14h.54v5.65h-.54zm3.17 1.71a2.93 2.93 0 0 1 .5-.94 2.24 2.24 0 0 1 .84-.64 2.48 2.48 0 0 1 1.16-.24A2.55 2.55 0 0 1 59 87a2.29 2.29 0 0 1 .83.64 3.14 3.14 0 0 1 .5.94 4 4 0 0 1 0 2.24 3 3 0 0 1-.5.93 2.55 2.55 0 0 1-.83.65 2.69 2.69 0 0 1-1.17.24 2.61 2.61 0 0 1-1.16-.24 2.49 2.49 0 0 1-.84-.65 2.78 2.78 0 0 1-.5-.93 3.77 3.77 0 0 1 0-2.24m.5 2a2.56 2.56 0 0 0 .38.8 1.81 1.81 0 0 0 .66.56 2.06 2.06 0 0 0 1 .22 2 2 0 0 0 1-.22 1.9 1.9 0 0 0 .66-.56 2.56 2.56 0 0 0 .38-.8 3.56 3.56 0 0 0 .12-.91 3.39 3.39 0 0 0-.12-.91 2.46 2.46 0 0 0-.38-.8 1.8 1.8 0 0 0-.66-.56 1.89 1.89 0 0 0-1-.22 2 2 0 0 0-1 .22 1.72 1.72 0 0 0-.66.56 2.46 2.46 0 0 0-.38.8 3 3 0 0 0-.13.91 3.18 3.18 0 0 0 .13.91m7.68-3.75l3.3 4.78h.02v-4.78h.53v5.65h-.6l-3.3-4.78h-.01v4.78h-.54v-5.65h.6zm10.47 0v.46h-3.36v2.05h3.15v.45h-3.15v2.24h3.4v.45h-3.94v-5.65h3.9zm2.77 4.53a1.16 1.16 0 0 0 .39.46 1.49 1.49 0 0 0 .59.25 3.33 3.33 0 0 0 .73.08 1.69 1.69 0 0 0 .48-.07 1.74 1.74 0 0 0 .49-.2 1.16 1.16 0 0 0 .37-.36.89.89 0 0 0 .2-.52.76.76 0 0 0-.11-.41.86.86 0 0 0-.28-.29 1.33 1.33 0 0 0-.37-.2 3.84 3.84 0 0 0-.41-.13l-1.26-.31a3 3 0 0 1-.48-.15 1.41 1.41 0 0 1-.41-.25 1.44 1.44 0 0 1-.28-.39 1.39 1.39 0 0 1-.1-.57 1.59 1.59 0 0 1 .08-.48 1.35 1.35 0 0 1 .29-.52 1.83 1.83 0 0 1 .6-.42 2.67 2.67 0 0 1 1-.16 3 3 0 0 1 .8.1 1.86 1.86 0 0 1 .66.33 1.92 1.92 0 0 1 .46.56 1.67 1.67 0 0 1 .17.76h-.54a1.59 1.59 0 0 0-.15-.57 1.19 1.19 0 0 0-.34-.4 1.54 1.54 0 0 0-.48-.24 1.88 1.88 0 0 0-.57-.09 2.35 2.35 0 0 0-.54.06 1.53 1.53 0 0 0-.45.19 1 1 0 0 0-.32.34 1.2 1.2 0 0 0-.12.54.89.89 0 0 0 .07.34.69.69 0 0 0 .19.25.74.74 0 0 0 .27.16 1.28 1.28 0 0 0 .33.11l1.29.34a4.08 4.08 0 0 1 .56.19 1.7 1.7 0 0 1 .47.29 1.1 1.1 0 0 1 .32.42 1.32 1.32 0 0 1 .12.59 1.58 1.58 0 0 1 0 .26 1.27 1.27 0 0 1-.09.33 1.84 1.84 0 0 1-.22.36 1.2 1.2 0 0 1-.37.33 2.78 2.78 0 0 1-.6.23 3.13 3.13 0 0 1-.86.1 3.48 3.48 0 0 1-.93-.12 1.94 1.94 0 0 1-.72-.35 1.51 1.51 0 0 1-.46-.62 2 2 0 0 1-.15-.88h.55a1.52 1.52 0 0 0 .13.73m11.93-4.53a2.65 2.65 0 0 1 1.94.73 3.72 3.72 0 0 1 0 4.2 2.6 2.6 0 0 1-1.94.72h-2v-5.65zM88.41 92a3.88 3.88 0 0 0 1-.13 1.69 1.69 0 0 0 .73-.42 1.73 1.73 0 0 0 .42-.74 3.73 3.73 0 0 0 .14-1.08 3.85 3.85 0 0 0-.14-1.09 1.69 1.69 0 0 0-.42-.73 1.6 1.6 0 0 0-.73-.42 3.88 3.88 0 0 0-1-.13h-1.16V92zm9.22-5.17v.46h-3.36v2.05h3.15v.45h-3.15v2.24h3.41v.45h-3.95v-5.65h3.9zm10.07 0v.46h-3.36v2.05h3.15v.45h-3.15v2.24h3.4v.45h-3.95v-5.65h3.91zm3.16 0l1.87 4.96 1.95-4.96h.8v5.65h-.55V87.6h-.01l-1.93 4.88h-.51l-1.87-4.88h-.01v4.88h-.54v-5.65h.8zm9.82 0a2.06 2.06 0 0 1 .68.11 1.13 1.13 0 0 1 .54.32 1.32 1.32 0 0 1 .33.5 2 2 0 0 1 0 1.37 1.36 1.36 0 0 1-.33.51 1.3 1.3 0 0 1-.54.31 2.06 2.06 0 0 1-.68.11h-2v2.42h-.54v-5.65zm-.12 2.78a1.38 1.38 0 0 0 .91-.29 1.07 1.07 0 0 0 .35-.87 1.09 1.09 0 0 0-.35-.88 1.43 1.43 0 0 0-.91-.28h-1.85v2.32zm5.86-2.78l2.21 5.65h-.58l-.69-1.75h-2.57l-.68 1.75h-.57l2.27-5.65zm.76 3.44l-1.1-2.9-1.08 2.9zm7.39 1.91a2.46 2.46 0 0 1-1.47.42 2.69 2.69 0 0 1-1.17-.24 2.6 2.6 0 0 1-.84-.65 3 3 0 0 1-.5-.93 3.77 3.77 0 0 1 0-2.24 3.14 3.14 0 0 1 .5-.94 2.32 2.32 0 0 1 .84-.64 2.55 2.55 0 0 1 1.17-.24 2.51 2.51 0 0 1 1.16.24 2.21 2.21 0 0 1 .83.64 2.75 2.75 0 0 1 .5.94 3.8 3.8 0 0 1 .17 1.12 3.59 3.59 0 0 1-.21 1.24 2.59 2.59 0 0 1-.65 1l.81.62-.27.32zm.48-1.46a3.46 3.46 0 0 0 .17-1.06 3 3 0 0 0-.13-.91 2.46 2.46 0 0 0-.38-.8 1.77 1.77 0 0 0-.65-.56 2.23 2.23 0 0 0-1.93 0 1.8 1.8 0 0 0-.66.56 2.46 2.46 0 0 0-.38.8 3.39 3.39 0 0 0-.13.91 3.57 3.57 0 0 0 .13.91 2.56 2.56 0 0 0 .38.8 1.9 1.9 0 0 0 .66.56 2.07 2.07 0 0 0 1 .22 2 2 0 0 0 1-.28l-.75-.56.29-.34.81.62a2 2 0 0 0 .56-.87m3.63-3.89v3.5a2.49 2.49 0 0 0 .11.83 1.49 1.49 0 0 0 .33.58 1.29 1.29 0 0 0 .51.31 2.52 2.52 0 0 0 .7.1 2.41 2.41 0 0 0 .7-.1 1.46 1.46 0 0 0 .53-.31 1.48 1.48 0 0 0 .32-.58 2.49 2.49 0 0 0 .11-.83v-3.5h.54v3.62a2.82 2.82 0 0 1-.12.83 1.92 1.92 0 0 1-.4.72 2 2 0 0 1-.68.47 3.06 3.06 0 0 1-2 0 1.91 1.91 0 0 1-.68-.47 1.78 1.78 0 0 1-.39-.68 2.53 2.53 0 0 1-.12-.83v-3.66zm10.43 0v.46h-3.37v2.05h3.15v.45h-3.15v2.24h3.4v.45h-3.94v-5.65h3.91zM12.57 76.26l-.19-2.74a5.5 5.5 0 0 1-.94 1.38 5.38 5.38 0 0 1-1.24.95 5.21 5.21 0 0 1-1.44.54 7.07 7.07 0 0 1-1.6.17A7.16 7.16 0 0 1 4 75.91a6.68 6.68 0 0 1-2.23-1.71 7.79 7.79 0 0 1-1.33-2.5 10.09 10.09 0 0 1-.44-3 10 10 0 0 1 .44-3 7.74 7.74 0 0 1 1.33-2.51A6.6 6.6 0 0 1 4 61.51a7.16 7.16 0 0 1 3.12-.65 7.66 7.66 0 0 1 2.23.32 5.61 5.61 0 0 1 1.89 1 6 6 0 0 1 1.4 1.56 6.06 6.06 0 0 1 .77 2.18H12a3.59 3.59 0 0 0-.43-1.32 4.75 4.75 0 0 0-1-1.22 5.16 5.16 0 0 0-1.48-.89 5.29 5.29 0 0 0-1.95-.35 5.46 5.46 0 0 0-2.58.57 5.06 5.06 0 0 0-1.76 1.51 6.21 6.21 0 0 0-1 2.12 9.08 9.08 0 0 0 0 4.85 6.4 6.4 0 0 0 1 2.14 5.28 5.28 0 0 0 1.76 1.51 5.58 5.58 0 0 0 2.58.57A6 6 0 0 0 9.35 75 4.69 4.69 0 0 0 11 73.79 4.57 4.57 0 0 0 12 72a6.63 6.63 0 0 0 .32-2.22H7.21V68.6h6.39v7.66zm12.82-15.07a6.68 6.68 0 0 1 1.76.22 4.51 4.51 0 0 1 1.46.71 3.51 3.51 0 0 1 1 1.22 3.94 3.94 0 0 1 .39 1.77 4.16 4.16 0 0 1-.74 2.49A3.34 3.34 0 0 1 27 69a3.5 3.5 0 0 1 1.22.4 2.53 2.53 0 0 1 .8.72 3.18 3.18 0 0 1 .44 1 7.8 7.8 0 0 1 .18 1.26v.93c0 .37.05.73.09 1.11a8.17 8.17 0 0 0 .19 1 2.21 2.21 0 0 0 .37.77h-1.5a1.66 1.66 0 0 1-.2-.52 4.14 4.14 0 0 1-.1-.63c0-.21 0-.43-.06-.64s0-.4 0-.55c0-.54-.07-1.07-.14-1.59a4.18 4.18 0 0 0-.4-1.43 2.45 2.45 0 0 0-.89-1 2.66 2.66 0 0 0-1.59-.33h-5.49v6.69h-1.43v-15zm-.1 7.15a3.93 3.93 0 0 0 1.24-.2 3.11 3.11 0 0 0 1-.58 3 3 0 0 0 .71-.92 2.86 2.86 0 0 0 .26-1.24 3 3 0 0 0-.8-2.19 3.36 3.36 0 0 0-2.45-.81h-5.33v5.94zM36 61.19v9.33a7.18 7.18 0 0 0 .3 2.22 3.89 3.89 0 0 0 .86 1.51 3.55 3.55 0 0 0 1.4.84 6 6 0 0 0 1.86.27 6.05 6.05 0 0 0 1.88-.27 3.44 3.44 0 0 0 1.39-.84 3.78 3.78 0 0 0 .87-1.51 7.18 7.18 0 0 0 .3-2.22v-9.33h1.43v9.64a7.25 7.25 0 0 1-.36 2.17 4.73 4.73 0 0 1-1 1.83 4.88 4.88 0 0 1-1.82 1.23 8.07 8.07 0 0 1-5.37 0A4.74 4.74 0 0 1 34.86 73a7.25 7.25 0 0 1-.33-2.21v-9.6zm22 0a5.35 5.35 0 0 1 1.84.28 3.92 3.92 0 0 1 1.41.84 3.62 3.62 0 0 1 .91 1.37 4.87 4.87 0 0 1 .32 1.81 5 5 0 0 1-.32 1.82 3.74 3.74 0 0 1-.91 1.36 3.94 3.94 0 0 1-1.41.85 5.6 5.6 0 0 1-1.84.28h-5.3v6.46h-1.43V61.19zm-.31 7.39a3.68 3.68 0 0 0 2.42-.77 3.36 3.36 0 0 0 0-4.64 3.68 3.68 0 0 0-2.42-.77H52.7v6.18zm8.63-2.83a7.57 7.57 0 0 1 1.34-2.51 6.41 6.41 0 0 1 2.23-1.73 7.77 7.77 0 0 1 6.22 0 6.66 6.66 0 0 1 2.22 1.73 7.53 7.53 0 0 1 1.32 2.51 9.37 9.37 0 0 1 .44 3 9.47 9.47 0 0 1-.44 3 7.58 7.58 0 0 1-1.32 2.5 6.74 6.74 0 0 1-2.22 1.71 7.77 7.77 0 0 1-6.22 0 6.48 6.48 0 0 1-2.23-1.71 7.62 7.62 0 0 1-1.34-2.5 10.09 10.09 0 0 1-.44-3 10 10 0 0 1 .44-3m1.33 5.39a6.81 6.81 0 0 0 1 2.14 5.31 5.31 0 0 0 1.77 1.51 6.08 6.08 0 0 0 5.14 0 5.34 5.34 0 0 0 1.75-1.51 6.59 6.59 0 0 0 1-2.14 9.08 9.08 0 0 0 0-4.85 6.4 6.4 0 0 0-1-2.12 5.12 5.12 0 0 0-1.75-1.51 6.08 6.08 0 0 0-5.14 0 5.09 5.09 0 0 0-1.77 1.51 6.6 6.6 0 0 0-1 2.12 9.08 9.08 0 0 0 0 4.85m24.87-9.95h2.64v12.79h7.66v2.28h-10.3V61.19zm18.27 0h2.81l5.8 15.07h-2.82l-1.42-4h-6l-1.41 4H105zm-.94 9.07h4.62l-2.27-6.48h-.07zm14.84.98a3.37 3.37 0 0 0 .29 1.48 2.69 2.69 0 0 0 .83 1 3.47 3.47 0 0 0 1.21.57 6.4 6.4 0 0 0 1.49.18 5.24 5.24 0 0 0 1.48-.2 3.27 3.27 0 0 0 1-.52 1.84 1.84 0 0 0 .55-.73 2.25 2.25 0 0 0 .17-.84 1.83 1.83 0 0 0-.39-1.28 2.35 2.35 0 0 0-.86-.57 18.25 18.25 0 0 0-1.86-.57c-.72-.17-1.59-.4-2.63-.68a5.41 5.41 0 0 1-1.62-.67 3.64 3.64 0 0 1-1-.91 3.32 3.32 0 0 1-.54-1.08 4.11 4.11 0 0 1-.16-1.16 4 4 0 0 1 .47-2 4.27 4.27 0 0 1 1.26-1.38 5.63 5.63 0 0 1 1.77-.82 8.09 8.09 0 0 1 2-.26 7.75 7.75 0 0 1 2.23.31 5.56 5.56 0 0 1 1.84.91 4.77 4.77 0 0 1 1.26 1.52 4.58 4.58 0 0 1 .46 2.08h-2.64a2.51 2.51 0 0 0-1-2.06A3.86 3.86 0 0 0 128 63a5.34 5.34 0 0 0-1 .09 3.06 3.06 0 0 0-.88.31 1.77 1.77 0 0 0-.66.61 1.51 1.51 0 0 0-.28.95 1.63 1.63 0 0 0 .5 1.26 3.15 3.15 0 0 0 1.3.68l.67.19 1.3.34 1.4.37 1 .27a4.25 4.25 0 0 1 1.28.63 4 4 0 0 1 .92.92 3.66 3.66 0 0 1 .55 1.1 4.09 4.09 0 0 1 .18 1.19 4.23 4.23 0 0 1-.52 2.17 4.42 4.42 0 0 1-1.36 1.46 5.83 5.83 0 0 1-1.92.83 9 9 0 0 1-2.19.27 9.53 9.53 0 0 1-2.44-.31 5.7 5.7 0 0 1-2-1 4.69 4.69 0 0 1-1.35-1.68 5.63 5.63 0 0 1-.53-2.41zm14.07-10.05h10.85v2.28h-8.21v3.94h7.6v2.16h-7.6v4.41h8.36v2.28h-11V61.19zm15.41 0h7.2a5.6 5.6 0 0 1 3.74 1.06 3.77 3.77 0 0 1 1.25 3A4.36 4.36 0 0 1 166 67a3.67 3.67 0 0 1-.73 1.15 3.18 3.18 0 0 1-.83.61 5.05 5.05 0 0 1-.62.26 2.48 2.48 0 0 1 .74.22 2.23 2.23 0 0 1 .73.53 3.16 3.16 0 0 1 .56 1 4.24 4.24 0 0 1 .22 1.48 13.77 13.77 0 0 0 .2 2.42 3.18 3.18 0 0 0 .62 1.55h-2.82a2.47 2.47 0 0 1-.36-1.07c0-.4-.05-.78-.05-1.15a11.39 11.39 0 0 0-.13-1.78 3.09 3.09 0 0 0-.46-1.24 1.91 1.91 0 0 0-.93-.74 4.07 4.07 0 0 0-1.48-.23h-3.88v6.21h-2.65zm2.65 6.86h4.33a2.72 2.72 0 0 0 1.92-.61 2.34 2.34 0 0 0 .65-1.8 2.63 2.63 0 0 0-.22-1.17 1.57 1.57 0 0 0-.57-.71 2 2 0 0 0-.84-.34 5.36 5.36 0 0 0-1-.09h-4.28z" fill="#58595b"/></g></svg>