<svg xmlns="http://www.w3.org/2000/svg" viewBox="0 0 77.61 67.76"><title>Asset 163012442</title><g id="Layer_2" data-name="Layer 2"><g id="Texto"><path d="M38.29,35.17h0Z" fill="#231f20"/><path d="M56.47,18.92V17.19h-.68V6.79a.69.69,0,0,0,.48-.65.67.67,0,0,0-1.34,0,.69.69,0,0,0,.48.65v9A17.29,17.29,0,0,0,41.9,1.06h7.52a.67.67,0,0,0,.65.48.68.68,0,0,0,.67-.67.68.68,0,0,0-1.32-.2H39.28V0H37.55V.67H27.14a.68.68,0,1,0,0,.39h7.54A17.26,17.26,0,0,0,21.05,17.63h0V35.17H38.56A17.26,17.26,0,0,0,55.41,20v9a.67.67,0,0,0-.48.65.67.67,0,1,0,1.34,0,.67.67,0,0,0-.48-.65V18.92ZM37.94.38h1v1h-1Zm-.39.9v.45h1.73V1.29A16.39,16.39,0,0,1,45.9,3.1a8.38,8.38,0,0,0-2.07-.25,8.78,8.78,0,0,0-8.77,8.77,8.69,8.69,0,0,0,2.4,6H21.62A16.69,16.69,0,0,1,37.55,1.28ZM21.61,34.59V22.3A17.31,17.31,0,0,0,33.86,34.59Zm16.38,0A16.7,16.7,0,0,1,21.62,18.21H38Zm.29-17a7.64,7.64,0,1,1,.28.26Zm16.64,1.29A16.68,16.68,0,0,1,38.56,34.59v-16A8.76,8.76,0,0,0,52,8.49a16.55,16.55,0,0,1,2.92,8.7h-.21v1.73Zm.2-.38v-1h1v1Z" fill="#231f20"/><path d="M1.75,53.22v6.51H5.64V61.2H0v-8Z"/><path d="M6.43,55.59a4,4,0,0,1,.78-1.34,3.36,3.36,0,0,1,1.23-.89A4,4,0,0,1,10.09,53a3.92,3.92,0,0,1,1.65.33,3.36,3.36,0,0,1,1.23.89,4,4,0,0,1,.77,1.34A4.94,4.94,0,0,1,14,57.25a4.75,4.75,0,0,1-.27,1.62A3.81,3.81,0,0,1,13,60.18a3.34,3.34,0,0,1-1.23.88,4.08,4.08,0,0,1-1.65.32,4.15,4.15,0,0,1-1.65-.32,3.34,3.34,0,0,1-1.23-.88,3.84,3.84,0,0,1-.78-1.31,5,5,0,0,1-.26-1.62A5.2,5.2,0,0,1,6.43,55.59ZM8,58.22a2.77,2.77,0,0,0,.37.86,2.07,2.07,0,0,0,.67.61,2.09,2.09,0,0,0,1,.23,2.05,2.05,0,0,0,1-.23,2,2,0,0,0,.67-.61,2.57,2.57,0,0,0,.38-.86,3.91,3.91,0,0,0,.12-1,4.31,4.31,0,0,0-.12-1,2.58,2.58,0,0,0-.38-.88,1.79,1.79,0,0,0-.67-.61,2,2,0,0,0-1-.23,2,2,0,0,0-1,.23,1.87,1.87,0,0,0-.67.61,2.78,2.78,0,0,0-.37.88,4.31,4.31,0,0,0-.12,1A3.91,3.91,0,0,0,8,58.22Z"/><path d="M19.39,53.22a2.5,2.5,0,0,1,1,.18,2.18,2.18,0,0,1,.74.47,2.21,2.21,0,0,1,.47.7,2.5,2.5,0,0,1-.14,2.07,1.81,1.81,0,0,1-1,.78v0a1.4,1.4,0,0,1,.53.27,1.51,1.51,0,0,1,.35.44,1.88,1.88,0,0,1,.19.55,4.14,4.14,0,0,1,.09.6c0,.13,0,.28,0,.45s0,.35,0,.52a3.86,3.86,0,0,0,.09.51,1.19,1.19,0,0,0,.18.41H20.21a2.88,2.88,0,0,1-.18-.91c0-.34-.05-.68-.1-1a1.64,1.64,0,0,0-.38-.92,1.32,1.32,0,0,0-.95-.29H16.85V61.2H15.09v-8Zm-.62,3.61a1.31,1.31,0,0,0,.9-.27,1.12,1.12,0,0,0,.31-.87,1.06,1.06,0,0,0-.31-.84,1.31,1.31,0,0,0-.9-.26H16.85v2.24Z"/><path d="M29,53.22V54.7H24.8v1.71h3.87v1.36H24.8v2h4.3V61.2H23.05v-8Z"/><path d="M32.64,53.22l1.87,5.49h0l1.77-5.49h2.47v8H37.12V55.55h0l-2,5.65H33.79l-1.95-5.6h0v5.6H30.17v-8Z"/><path d="M44.94,53.22v8H43.19v-8Z"/><path d="M50,53.22a3.4,3.4,0,0,1,1.27.22,2.46,2.46,0,0,1,.86.58,2.15,2.15,0,0,1,.48.81,3,3,0,0,1,.15,1,3.09,3.09,0,0,1-.15.95,2.27,2.27,0,0,1-.48.82,2.31,2.31,0,0,1-.86.57,3.21,3.21,0,0,1-1.27.22H48.13V61.2H46.37v-8ZM49.49,57a3.58,3.58,0,0,0,.58,0,1.42,1.42,0,0,0,.49-.17,1,1,0,0,0,.34-.36,1.27,1.27,0,0,0,.13-.62,1.2,1.2,0,0,0-.13-.61.94.94,0,0,0-.34-.37,1.42,1.42,0,0,0-.49-.17,3.6,3.6,0,0,0-.58,0H48.13V57Z"/><path d="M55.05,59.23a1.35,1.35,0,0,0,.39.46,1.68,1.68,0,0,0,.56.25,2.52,2.52,0,0,0,.67.09,4.75,4.75,0,0,0,.51,0,2.07,2.07,0,0,0,.5-.15,1.1,1.1,0,0,0,.39-.31.75.75,0,0,0,.16-.5.69.69,0,0,0-.21-.52,1.61,1.61,0,0,0-.54-.34,4.56,4.56,0,0,0-.76-.23c-.28-.07-.57-.14-.86-.23a6.28,6.28,0,0,1-.87-.27,2.92,2.92,0,0,1-.76-.42,1.76,1.76,0,0,1-.54-.64,1.94,1.94,0,0,1-.21-.93,2.15,2.15,0,0,1,.26-1.07,2.48,2.48,0,0,1,.69-.75,2.83,2.83,0,0,1,1-.45A4,4,0,0,1,56.46,53a5.19,5.19,0,0,1,1.2.14,3.12,3.12,0,0,1,1,.46,2.22,2.22,0,0,1,.7.79,2.42,2.42,0,0,1,.27,1.18H58a1.59,1.59,0,0,0-.15-.59,1,1,0,0,0-.34-.37,1.52,1.52,0,0,0-.49-.19,3.64,3.64,0,0,0-.6-.05,2,2,0,0,0-.42,0,1.11,1.11,0,0,0-.39.16.83.83,0,0,0-.28.28.69.69,0,0,0-.11.42.71.71,0,0,0,.09.38.73.73,0,0,0,.35.27,4.61,4.61,0,0,0,.72.24l1.22.32c.15,0,.35.08.62.16A3.07,3.07,0,0,1,59,57a2.36,2.36,0,0,1,.68.69,2,2,0,0,1,.29,1.1,2.45,2.45,0,0,1-.22,1,2.23,2.23,0,0,1-.63.81,3,3,0,0,1-1,.53,4.76,4.76,0,0,1-1.43.19,5.41,5.41,0,0,1-1.28-.16,3.27,3.27,0,0,1-1.1-.51,2.67,2.67,0,0,1-.75-.88,2.6,2.6,0,0,1-.27-1.28h1.7A1.52,1.52,0,0,0,55.05,59.23Z"/><path d="M66.72,60.59a4.39,4.39,0,0,1-5,0,3.07,3.07,0,0,1-.89-2.42v-5h1.75v5a3.39,3.39,0,0,0,.06.64,1.29,1.29,0,0,0,.23.55,1.32,1.32,0,0,0,.5.39,2,2,0,0,0,.86.16,1.64,1.64,0,0,0,1.29-.42,2,2,0,0,0,.36-1.32v-5h1.75v5A3,3,0,0,1,66.72,60.59Z"/><path d="M71.49,53.22l1.86,5.49h0l1.76-5.49h2.47v8H76V55.55h0L74,61.2H72.64l-2-5.6h0v5.6H69v-8Z"/><path d="M21.23,63.52v.32H19.84v3.67h-.38V63.84H18.08v-.32Z"/><path d="M21.89,63.52V66a2,2,0,0,0,.08.59.94.94,0,0,0,.23.39.83.83,0,0,0,.37.23,1.81,1.81,0,0,0,.49.07,1.89,1.89,0,0,0,.5-.07.89.89,0,0,0,.37-.23,1.06,1.06,0,0,0,.23-.39,2,2,0,0,0,.07-.59V63.52h.38v2.55a1.91,1.91,0,0,1-.08.59,1.29,1.29,0,0,1-.28.48,1.21,1.21,0,0,1-.48.33,1.85,1.85,0,0,1-.71.12,1.92,1.92,0,0,1-.71-.12,1.37,1.37,0,0,1-.48-.33,1.42,1.42,0,0,1-.27-.48,1.92,1.92,0,0,1-.09-.59V63.52Z"/><path d="M27.37,63.52,28.69,67l1.38-3.5h.55v4h-.38V64.06h0l-1.36,3.45h-.36L27.2,64.06h0v3.45h-.38v-4Z"/><path d="M32.94,63.52l1.57,4H34.1l-.49-1.24H31.8l-.48,1.24h-.4l1.6-4Zm.54,2.42-.77-2-.79,2Z"/><path d="M36.64,63.52a1.84,1.84,0,0,1,.47.06,1,1,0,0,1,.38.19.82.82,0,0,1,.26.32,1,1,0,0,1,.1.47,1.14,1.14,0,0,1-.19.66,1,1,0,0,1-.58.36h0a.93.93,0,0,1,.32.1.55.55,0,0,1,.21.19,1.11,1.11,0,0,1,.12.27,1.86,1.86,0,0,1,0,.34c0,.06,0,.14,0,.24a2.64,2.64,0,0,0,0,.29,2,2,0,0,0,0,.28.69.69,0,0,0,.1.21h-.42a.46.46,0,0,1,0-.14.47.47,0,0,1,0-.17.91.91,0,0,1,0-.17s0-.1,0-.14,0-.28,0-.42a1.12,1.12,0,0,0-.11-.38.58.58,0,0,0-.23-.26.71.71,0,0,0-.43-.09H35.19v1.77h-.38v-4Zm0,1.89a.88.88,0,0,0,.33,0,.84.84,0,0,0,.28-.15A.76.76,0,0,0,37.4,65a.66.66,0,0,0,.07-.32.78.78,0,0,0-.21-.58.85.85,0,0,0-.65-.22H35.19v1.57Z"/><path d="M41.24,64.32A1.05,1.05,0,0,0,41,64a1.62,1.62,0,0,0-.37-.19,1.4,1.4,0,0,0-.41-.06,1.42,1.42,0,0,0-.68.15,1.31,1.31,0,0,0-.47.4,1.82,1.82,0,0,0-.27.56,2.32,2.32,0,0,0,0,1.28,1.87,1.87,0,0,0,.27.57,1.36,1.36,0,0,0,1.15.55,1.35,1.35,0,0,0,.5-.1,1.08,1.08,0,0,0,.38-.28,1.41,1.41,0,0,0,.27-.4,2,2,0,0,0,.13-.5h.38a2.21,2.21,0,0,1-.18.66,1.69,1.69,0,0,1-.34.51,1.61,1.61,0,0,1-.5.31,1.69,1.69,0,0,1-.64.12,2,2,0,0,1-.83-.17,1.92,1.92,0,0,1-.59-.46,2.08,2.08,0,0,1-.35-.66,2.63,2.63,0,0,1,0-1.57,2.25,2.25,0,0,1,.35-.67,1.75,1.75,0,0,1,.59-.45,1.81,1.81,0,0,1,.83-.17,1.7,1.7,0,0,1,.55.08,1.62,1.62,0,0,1,.49.25,1.41,1.41,0,0,1,.37.4,1.43,1.43,0,0,1,.19.56H41.4A1.25,1.25,0,0,0,41.24,64.32Z"/><path d="M44,63.52l1.57,4h-.41l-.49-1.24H42.81l-.48,1.24h-.41l1.61-4Zm.54,2.42-.77-2-.8,2Z"/><path d="M48.91,63.52l1.57,4h-.41l-.49-1.24H47.77l-.48,1.24h-.4l1.6-4Zm.54,2.42-.77-2-.79,2Z"/><path d="M53.49,67.3a1.77,1.77,0,0,1-1,.29,1.94,1.94,0,0,1-.82-.17A1.81,1.81,0,0,1,51,67a1.9,1.9,0,0,1-.35-.66,2.63,2.63,0,0,1,0-1.57,2,2,0,0,1,.35-.67,1.66,1.66,0,0,1,.59-.45,2.09,2.09,0,0,1,1.65,0,1.62,1.62,0,0,1,.58.45,1.87,1.87,0,0,1,.35.67,2.54,2.54,0,0,1,.12.78,2.5,2.5,0,0,1-.15.88,1.76,1.76,0,0,1-.45.7l.57.43-.19.24Zm.34-1a2.36,2.36,0,0,0,.12-.75,2.3,2.3,0,0,0-.09-.64,1.6,1.6,0,0,0-.26-.56,1.31,1.31,0,0,0-.47-.4,1.42,1.42,0,0,0-.68-.15,1.45,1.45,0,0,0-.68.15,1.27,1.27,0,0,0-.46.4,1.82,1.82,0,0,0-.27.56,2.32,2.32,0,0,0,0,1.28,1.87,1.87,0,0,0,.27.57,1.37,1.37,0,0,0,.46.4,1.45,1.45,0,0,0,.68.15,1.36,1.36,0,0,0,.74-.2l-.52-.39.19-.24.58.44A1.49,1.49,0,0,0,53.83,66.26Z"/><path d="M55.21,63.52V66a1.72,1.72,0,0,0,.08.59.85.85,0,0,0,.23.39.86.86,0,0,0,.36.23,1.89,1.89,0,0,0,.5.07,1.81,1.81,0,0,0,.49-.07.83.83,0,0,0,.37-.23.94.94,0,0,0,.23-.39,2,2,0,0,0,.08-.59V63.52h.38v2.55a1.92,1.92,0,0,1-.09.59,1.42,1.42,0,0,1-.27.48,1.37,1.37,0,0,1-.48.33,1.92,1.92,0,0,1-.71.12,1.85,1.85,0,0,1-.71-.12,1.21,1.21,0,0,1-.48-.33,1.29,1.29,0,0,1-.28-.48,2.27,2.27,0,0,1-.08-.59V63.52Z"/><path d="M59.05,63.52v4h-.38v-4Z"/></g></g></svg>