<svg xmlns="http://www.w3.org/2000/svg" viewBox="0 0 53.98 53.98"><title>Asset 171012442</title><g id="Layer_2" data-name="Layer 2"><g id="Texto"><rect width="53.98" height="53.98" fill="#ef3e2d"/><path d="M20.6,30.23a4,4,0,0,1-2.8,1,4.48,4.48,0,0,1-2.07-.46,4.2,4.2,0,0,1-1.46-1.29,5.9,5.9,0,0,1-.9-2A11,11,0,0,1,13,25a8.47,8.47,0,0,1,.34-2.49,6.42,6.42,0,0,1,1-2,4.65,4.65,0,0,1,1.48-1.29,3.84,3.84,0,0,1,1.87-.46,3.53,3.53,0,0,1,2.2.66,4.76,4.76,0,0,1,1.4,1.67A7.28,7.28,0,0,1,22,23.35a11.33,11.33,0,0,1,.16,2.28H14.77a5.47,5.47,0,0,0,.15,1.48,3.84,3.84,0,0,0,.55,1.25,2.79,2.79,0,0,0,2.39,1.18,2.53,2.53,0,0,0,1.7-.57,3,3,0,0,0,.87-1.75H22A5,5,0,0,1,20.6,30.23Zm-.39-7.64a3.46,3.46,0,0,0-.6-1.07,2.9,2.9,0,0,0-.88-.72,2.59,2.59,0,0,0-2.26,0,2.69,2.69,0,0,0-.88.73A3.92,3.92,0,0,0,15,22.6a4.61,4.61,0,0,0-.24,1.3h5.7A5.08,5.08,0,0,0,20.21,22.59Z" fill="#fff"/><path d="M28.15,24.91,31.54,31H29.47l-2.57-4.7,1.25-1.38m-3.34,1.64V31H23.19V14.73h1.63v9.56l4.53-5.2h2.19Z" fill="#fff"/><path d="M40.92,31a2,2,0,0,1-1.17.3,1.27,1.27,0,0,1-1-.43,2.08,2.08,0,0,1-.37-1.39,4,4,0,0,1-1.57,1.39,4.3,4.3,0,0,1-1.93.43,4.07,4.07,0,0,1-1.27-.19,2.74,2.74,0,0,1-1.05-.57,2.69,2.69,0,0,1-.7-1,4.08,4.08,0,0,1-.26-1.53,4.15,4.15,0,0,1,.29-1.66,3,3,0,0,1,.76-1.05,3.43,3.43,0,0,1,1.07-.61c.41-.13.82-.25,1.24-.34A11,11,0,0,1,36.23,24a6.73,6.73,0,0,0,1.06-.23,1.7,1.7,0,0,0,.73-.44,1.18,1.18,0,0,0,.27-.84,2.35,2.35,0,0,0-.2-1,1.62,1.62,0,0,0-.52-.6,1.75,1.75,0,0,0-.71-.27,4.11,4.11,0,0,0-.78-.07,3.06,3.06,0,0,0-1.73.47,2.15,2.15,0,0,0-.74,1.79H32a5,5,0,0,1,.39-1.87,3.32,3.32,0,0,1,.92-1.23A3.46,3.46,0,0,1,34.6,19a5.75,5.75,0,0,1,1.58-.21,7.39,7.39,0,0,1,1.33.12,2.93,2.93,0,0,1,1.2.47,2.51,2.51,0,0,1,.87,1,3.79,3.79,0,0,1,.32,1.67v6.12a5,5,0,0,0,.07,1,.41.41,0,0,0,.45.32,1.71,1.71,0,0,0,.5-.09Zm-2.65-6.11a1.82,1.82,0,0,1-.81.41c-.33.08-.68.15-1,.2l-1.1.19a3.27,3.27,0,0,0-1,.33,1.81,1.81,0,0,0-.72.65,2.05,2.05,0,0,0-.28,1.16,1.8,1.8,0,0,0,.16.81,1.54,1.54,0,0,0,.42.54,1.66,1.66,0,0,0,.61.3,2.86,2.86,0,0,0,.73.09,3.36,3.36,0,0,0,1.38-.26,2.9,2.9,0,0,0,.94-.67,2.64,2.64,0,0,0,.54-.87,2.68,2.68,0,0,0,.17-.88Z" fill="#fff"/><path d="M15.75,34a1.24,1.24,0,0,0-.84-.28,1.4,1.4,0,0,0-.41,0,1.17,1.17,0,0,0-.36.16,1,1,0,0,0-.25.31,1.19,1.19,0,0,0-.09.49.67.67,0,0,0,.14.45,1,1,0,0,0,.35.27,2,2,0,0,0,.52.18l.57.16A5.62,5.62,0,0,1,16,36a2.14,2.14,0,0,1,.51.3,1.39,1.39,0,0,1,.36.49,1.94,1.94,0,0,1,0,1.54,1.65,1.65,0,0,1-.46.55,2,2,0,0,1-.61.31,2.72,2.72,0,0,1-.69.09,2.45,2.45,0,0,1-.78-.12,2,2,0,0,1-.66-.38,1.91,1.91,0,0,1-.44-.65,2.47,2.47,0,0,1-.16-.94h.62a1.6,1.6,0,0,0,.12.65,1.22,1.22,0,0,0,.32.44,1.17,1.17,0,0,0,.46.26,1.68,1.68,0,0,0,.54.08,1.73,1.73,0,0,0,.45-.05,1.15,1.15,0,0,0,.41-.17,1,1,0,0,0,.29-.32,1.2,1.2,0,0,0,.11-.54.81.81,0,0,0-.14-.49,1,1,0,0,0-.36-.32,2.35,2.35,0,0,0-.51-.19l-.58-.16a5.4,5.4,0,0,1-.57-.18,2.06,2.06,0,0,1-.51-.27,1.24,1.24,0,0,1-.36-.45,1.45,1.45,0,0,1-.14-.67A1.73,1.73,0,0,1,13.3,34a1.37,1.37,0,0,1,.4-.54,1.73,1.73,0,0,1,.58-.32,2.07,2.07,0,0,1,.66-.1,2.23,2.23,0,0,1,.7.11,1.38,1.38,0,0,1,.57.34,1.45,1.45,0,0,1,.39.59,2.28,2.28,0,0,1,.16.84h-.63A1.3,1.3,0,0,0,15.75,34Z" fill="#fff"/><path d="M17.86,33.85v-.67h3.95v.67H20.17v5.27h-.66V33.85Z" fill="#fff"/><path d="M26.43,38.68a1.83,1.83,0,0,1-1.44.57,2,2,0,0,1-1.5-.54A2.45,2.45,0,0,1,23,37V33.18h.65V37A1.77,1.77,0,0,0,24,38.18a1.24,1.24,0,0,0,1,.41,1.14,1.14,0,0,0,1-.41A1.88,1.88,0,0,0,26.28,37V33.18h.65V37A2.55,2.55,0,0,1,26.43,38.68Z" fill="#fff"/><path d="M30.31,33.18a2.21,2.21,0,0,1,1.76.7A3.17,3.17,0,0,1,32.68,36a5.24,5.24,0,0,1-.14,1.32,2.74,2.74,0,0,1-.42,1,2,2,0,0,1-.75.6,2.47,2.47,0,0,1-1.06.21h-1.7V33.18Zm.05,5.27a1.47,1.47,0,0,0,.28,0,1.24,1.24,0,0,0,.35-.1,1.33,1.33,0,0,0,.37-.23,1.2,1.2,0,0,0,.33-.4,2.45,2.45,0,0,0,.24-.65,3.63,3.63,0,0,0,.1-.93,4.44,4.44,0,0,0-.09-.95,2,2,0,0,0-.28-.72,1.37,1.37,0,0,0-.51-.45,1.79,1.79,0,0,0-.77-.15H29.27v4.6Z" fill="#fff"/><path d="M34.8,33.18v5.94h-.66V33.18Z" fill="#fff"/><path d="M36.4,35a3.2,3.2,0,0,1,.45-1,2.22,2.22,0,0,1,.74-.69,2.17,2.17,0,0,1,2.06,0,2.22,2.22,0,0,1,.74.69,3.2,3.2,0,0,1,.45,1A4.58,4.58,0,0,1,41,36.15a4.52,4.52,0,0,1-.15,1.17,3.2,3.2,0,0,1-.45,1,2.22,2.22,0,0,1-.74.69,2.25,2.25,0,0,1-2.06,0,2.22,2.22,0,0,1-.74-.69,3.2,3.2,0,0,1-.45-1,4.52,4.52,0,0,1-.15-1.17A4.58,4.58,0,0,1,36.4,35ZM37,37a2.41,2.41,0,0,0,.3.79,1.78,1.78,0,0,0,.53.56,1.55,1.55,0,0,0,1.56,0,1.78,1.78,0,0,0,.53-.56,2.41,2.41,0,0,0,.3-.79,3.65,3.65,0,0,0,.1-.88,3.86,3.86,0,0,0-.1-.89,2.44,2.44,0,0,0-.3-.78,1.78,1.78,0,0,0-.53-.56,1.55,1.55,0,0,0-1.56,0,1.78,1.78,0,0,0-.53.56,2.44,2.44,0,0,0-.3.78,3.86,3.86,0,0,0-.1.89A3.65,3.65,0,0,0,37,37Z" fill="#fff"/></g></g></svg>