<svg xmlns="http://www.w3.org/2000/svg" viewBox="0 0 29.33 28.8"><title>Asset 167012442</title><g id="Layer_2" data-name="Layer 2"><g id="Texto"><path d="M11.93,25.83H8A.6.6,0,1,0,8,27h4a.6.6,0,0,0,0-1.2Z" fill="#231f20"/><path d="M22,1.77a5.57,5.57,0,0,0-2.35.51A5.75,5.75,0,0,0,18.4,3a5.62,5.62,0,0,0,0,8.71,5.75,5.75,0,0,0,1.2.75A5.62,5.62,0,1,0,22,1.77Zm0,10.44a4.76,4.76,0,0,1-2.35-.62,5,5,0,0,1-1.2-.94,4.83,4.83,0,0,1,0-6.53,5,5,0,0,1,1.2-.94A4.75,4.75,0,0,1,22,2.57a4.82,4.82,0,0,1,0,9.64Z" fill="#231f20"/><path d="M22,0a7.33,7.33,0,0,0-3.07.67A1.76,1.76,0,0,0,17.8.3h-16A1.8,1.8,0,0,0,0,2.1V27a1.8,1.8,0,0,0,1.79,1.8h16A1.81,1.81,0,0,0,19.6,27V14.39a7.28,7.28,0,0,0,2.35.38A7.39,7.39,0,0,0,22,0ZM17.8,27.6h-16A.59.59,0,0,1,1.2,27V24.77H18.4V27A.6.6,0,0,1,17.8,27.6Zm.6-4H1.2V2.1a.59.59,0,0,1,.59-.6h15.7a7.38,7.38,0,0,0,.91,12.36ZM22,14a6.54,6.54,0,0,1-2.35-.44,6.72,6.72,0,0,1-1.2-.6,6.59,6.59,0,0,1,0-11.07,7.21,7.21,0,0,1,1.06-.57A6.69,6.69,0,0,1,22,.8,6.59,6.59,0,0,1,22,14Z" fill="#231f20"/><g opacity="0.96"><path d="M20.91,9.27a1.38,1.38,0,0,0,.88.41V7.53a4.91,4.91,0,0,1-.58-.16,1.53,1.53,0,0,1-.49-.26,1.3,1.3,0,0,1-.32-.41,1.48,1.48,0,0,1-.12-.63,1.41,1.41,0,0,1,.12-.59A1.31,1.31,0,0,1,20.74,5a1.57,1.57,0,0,1,.49-.28,1.92,1.92,0,0,1,.59-.09V4.1h.28v.57a1.46,1.46,0,0,1,.6.12,1.34,1.34,0,0,1,.49.32,1.45,1.45,0,0,1,.33.5,1.49,1.49,0,0,1,.11.64h-.46a1.24,1.24,0,0,0-.3-.87,1,1,0,0,0-.77-.33V7.14l.61.16a2,2,0,0,1,.53.27,1.28,1.28,0,0,1,.38.42,1.33,1.33,0,0,1,.14.63,1.33,1.33,0,0,1-.53,1.08,1.56,1.56,0,0,1-.53.27,1.89,1.89,0,0,1-.62.08v.62h-.28V10a1.84,1.84,0,0,1-1.23-.5,1.91,1.91,0,0,1-.41-1.25h.46A1.39,1.39,0,0,0,20.91,9.27Zm.5-4.16a.88.88,0,0,0-.34.19,1,1,0,0,0-.24.34,1.38,1.38,0,0,0-.08.48.77.77,0,0,0,.08.42.85.85,0,0,0,.24.26,1.19,1.19,0,0,0,.34.16l.39.11,0-2A1.35,1.35,0,0,0,21.41,5.11Zm1.11,4.51a1.15,1.15,0,0,0,.39-.18,1.09,1.09,0,0,0,.27-.33.9.9,0,0,0,.11-.48.76.76,0,0,0-.11-.44,1,1,0,0,0-.28-.29,2.32,2.32,0,0,0-.39-.18l-.43-.13V9.68A1.74,1.74,0,0,0,22.52,9.62Z" fill="#231f20"/></g></g></g></svg>