<svg xmlns="http://www.w3.org/2000/svg" viewBox="0 0 55.61 48.55"><title>Asset 162012442</title><g id="Layer_2" data-name="Layer 2"><g id="Texto"><path d="M27.44,25.2h0Z" fill="#231f20"/><path d="M40.46,13.56V12.31H40V4.86a.48.48,0,0,0-.14-.94.48.48,0,0,0-.48.48.47.47,0,0,0,.34.46v6.48A12.37,12.37,0,0,0,30,.76h5.39a.49.49,0,0,0,.47.34.47.47,0,0,0,.47-.48.48.48,0,0,0-.47-.48.5.5,0,0,0-.47.34H28.15V0H26.9V.48H19.45A.49.49,0,0,0,19,.14a.48.48,0,0,0-.48.48.48.48,0,0,0,.94.14h5.4a12.38,12.38,0,0,0-9.77,11.87h0V25.2H27.63A12.36,12.36,0,0,0,39.7,14.34v6.48a.49.49,0,0,0,.14.95.48.48,0,0,0,.48-.48.49.49,0,0,0-.34-.47V13.56ZM27.18.27h.69V1h-.69ZM26.9.91v.33h1.25V.92a11.87,11.87,0,0,1,4.74,1.3A6.06,6.06,0,0,0,31.41,2a6.29,6.29,0,0,0-6.29,6.29,6.21,6.21,0,0,0,1.72,4.3H15.5A12,12,0,0,1,26.9.91ZM15.48,24.79V16a12.43,12.43,0,0,0,8.78,8.81Zm11.74,0A11.94,11.94,0,0,1,15.5,13.05H27.22Zm.21-12.15a5.8,5.8,0,0,1-1.89-4.3,5.85,5.85,0,1,1,2.09,4.49A1.8,1.8,0,0,1,27.43,12.63Zm11.93.93A12,12,0,0,1,27.63,24.78V13.34a6.21,6.21,0,0,0,3.78,1.27,6.29,6.29,0,0,0,6.28-6.28,6.21,6.21,0,0,0-.42-2.25,11.82,11.82,0,0,1,2.1,6.23h-.15v1.25Zm.13-.28v-.69h.7v.69Z" fill="#231f20"/><path d="M1.26,38.14V42.8H4v1.05H0V38.14Z"/><path d="M4.61,39.83a2.94,2.94,0,0,1,.55-1,2.64,2.64,0,0,1,.89-.64A3,3,0,0,1,7.23,38a2.92,2.92,0,0,1,1.18.23,2.6,2.6,0,0,1,.88.64,3,3,0,0,1,.56,1A3.8,3.8,0,0,1,10,41a3.62,3.62,0,0,1-.19,1.16,2.77,2.77,0,0,1-.56.94,2.45,2.45,0,0,1-.88.63A2.92,2.92,0,0,1,7.23,44a3,3,0,0,1-1.18-.23,2.48,2.48,0,0,1-.89-.63,2.74,2.74,0,0,1-.55-.94A3.36,3.36,0,0,1,4.42,41,3.54,3.54,0,0,1,4.61,39.83Zm1.15,1.89a2,2,0,0,0,.27.61,1.36,1.36,0,0,0,.48.44,1.47,1.47,0,0,0,.72.16A1.47,1.47,0,0,0,8,42.77a1.36,1.36,0,0,0,.48-.44,2,2,0,0,0,.27-.61,3.27,3.27,0,0,0,.08-.7,3.55,3.55,0,0,0-.08-.73,2.22,2.22,0,0,0-.27-.63A1.36,1.36,0,0,0,8,39.22a1.47,1.47,0,0,0-.72-.16,1.47,1.47,0,0,0-.72.16,1.36,1.36,0,0,0-.48.44,2.22,2.22,0,0,0-.27.63,3,3,0,0,0-.08.73A2.74,2.74,0,0,0,5.76,41.72Z"/><path d="M13.9,38.14a1.92,1.92,0,0,1,.69.12,1.72,1.72,0,0,1,.53.34,1.5,1.5,0,0,1,.33.5,1.58,1.58,0,0,1,.12.61,1.76,1.76,0,0,1-.21.88,1.36,1.36,0,0,1-.69.56h0a1.06,1.06,0,0,1,.38.2,1.26,1.26,0,0,1,.25.31,1.57,1.57,0,0,1,.14.4,3.18,3.18,0,0,1,.06.43c0,.09,0,.2,0,.32l0,.38c0,.12,0,.25.07.36a.78.78,0,0,0,.13.29H14.48a2.26,2.26,0,0,1-.13-.65c0-.25,0-.49-.07-.72a1.12,1.12,0,0,0-.27-.65.94.94,0,0,0-.68-.21H12.07v2.23H10.81V38.14Zm-.45,2.58a1,1,0,0,0,.65-.19.82.82,0,0,0,.21-.62.79.79,0,0,0-.21-.61,1,1,0,0,0-.65-.19H12.07v1.61Z"/><path d="M20.79,38.14v1h-3v1.23h2.77v1H17.77v1.4h3.08v1.05H16.51V38.14Z"/><path d="M23.39,38.14l1.34,3.93h0L26,38.14h1.77v5.71H26.6V39.8h0l-1.41,4.05h-1l-1.41-4h0v4H21.62V38.14Z"/><path d="M32.2,38.14v5.71H31V38.14Z"/><path d="M35.81,38.14a2.48,2.48,0,0,1,.91.15,1.7,1.7,0,0,1,.61.42,1.64,1.64,0,0,1,.35.58,2.36,2.36,0,0,1,0,1.36,1.77,1.77,0,0,1-.35.59,1.82,1.82,0,0,1-.61.41,2.48,2.48,0,0,1-.91.15H34.49v2.05H33.23V38.14Zm-.35,2.69a1.87,1.87,0,0,0,.42,0,1,1,0,0,0,.35-.12.78.78,0,0,0,.25-.26,1.12,1.12,0,0,0,0-.88.78.78,0,0,0-.25-.26,1,1,0,0,0-.35-.12,1.87,1.87,0,0,0-.42,0h-1v1.72Z"/><path d="M39.45,42.44a.83.83,0,0,0,.28.33,1.22,1.22,0,0,0,.4.18,1.86,1.86,0,0,0,.48.06L41,43a1.07,1.07,0,0,0,.36-.1.88.88,0,0,0,.28-.22.55.55,0,0,0,.11-.36.52.52,0,0,0-.15-.38,1.24,1.24,0,0,0-.38-.24,3.29,3.29,0,0,0-.55-.16L40,41.36a5.8,5.8,0,0,1-.63-.2,2.35,2.35,0,0,1-.54-.3,1.45,1.45,0,0,1-.39-.46,1.41,1.41,0,0,1-.15-.67,1.43,1.43,0,0,1,.19-.76,1.59,1.59,0,0,1,.49-.54,1.82,1.82,0,0,1,.69-.32,2.92,2.92,0,0,1,.77-.11,3.49,3.49,0,0,1,.86.1,2.21,2.21,0,0,1,.73.33,1.65,1.65,0,0,1,.51.57,1.68,1.68,0,0,1,.19.84H41.53a1,1,0,0,0-.11-.42.78.78,0,0,0-.24-.27,1,1,0,0,0-.35-.13,1.91,1.91,0,0,0-.43,0l-.3,0a.86.86,0,0,0-.28.11.76.76,0,0,0-.2.2.49.49,0,0,0-.08.31.54.54,0,0,0,.06.27.58.58,0,0,0,.25.19,3.39,3.39,0,0,0,.52.18l.87.22.45.12a1.8,1.8,0,0,1,.56.27,1.63,1.63,0,0,1,.49.49,1.44,1.44,0,0,1,.2.79,1.72,1.72,0,0,1-.15.72,1.5,1.5,0,0,1-.45.58,2,2,0,0,1-.75.38,3.25,3.25,0,0,1-1,.14,3.44,3.44,0,0,1-.91-.12,2.11,2.11,0,0,1-.79-.36,1.73,1.73,0,0,1-.54-.63,1.88,1.88,0,0,1-.19-.91h1.22A1,1,0,0,0,39.45,42.44Z"/><path d="M47.81,43.42A2.69,2.69,0,0,1,46,44a2.63,2.63,0,0,1-1.79-.56,2.16,2.16,0,0,1-.64-1.73V38.14h1.26v3.55a2.32,2.32,0,0,0,0,.46.77.77,0,0,0,.17.39.82.82,0,0,0,.35.28,1.33,1.33,0,0,0,.61.11,1.18,1.18,0,0,0,.93-.3,1.43,1.43,0,0,0,.26-.94V38.14h1.26v3.55A2.18,2.18,0,0,1,47.81,43.42Z"/><path d="M51.22,38.14l1.34,3.93h0l1.26-3.93h1.77v5.71H54.43V39.8h0L53,43.85h-1l-1.4-4h0v4H49.46V38.14Z"/><path d="M15.22,45.52v.23h-1v2.62H14V45.75H13v-.23Z"/><path d="M15.69,45.52v1.76a1.75,1.75,0,0,0,.05.43.78.78,0,0,0,.17.28.63.63,0,0,0,.26.16,1.29,1.29,0,0,0,.35.05,1.25,1.25,0,0,0,.36-.05.74.74,0,0,0,.27-.16.76.76,0,0,0,.16-.28,1.35,1.35,0,0,0,.06-.43V45.52h.27v1.82a1.42,1.42,0,0,1-.06.42,1.1,1.1,0,0,1-.2.35.8.8,0,0,1-.35.23,1.29,1.29,0,0,1-.51.09,1.28,1.28,0,0,1-.5-.09.86.86,0,0,1-.35-.23.92.92,0,0,1-.19-.35,1.42,1.42,0,0,1-.06-.42V45.52Z"/><path d="M19.61,45.52l.95,2.5,1-2.5h.4v2.85h-.27V45.9h0l-1,2.47h-.26l-.94-2.47h0v2.47h-.27V45.52Z"/><path d="M23.61,45.52l1.12,2.85h-.3l-.34-.89H22.78l-.34.89h-.29l1.15-2.85ZM24,47.25l-.55-1.46-.57,1.46Z"/><path d="M26.26,45.52a1.24,1.24,0,0,1,.33,0,.9.9,0,0,1,.28.13.63.63,0,0,1,.18.24.67.67,0,0,1,.07.33.75.75,0,0,1-.14.47.62.62,0,0,1-.41.26h0a.52.52,0,0,1,.23.07.5.5,0,0,1,.15.14.41.41,0,0,1,.08.19,2,2,0,0,1,0,.24,1.21,1.21,0,0,0,0,.18,1.48,1.48,0,0,0,0,.21,1.42,1.42,0,0,0,0,.2.37.37,0,0,0,.07.14h-.3a.23.23,0,0,1,0-.1s0-.07,0-.12,0-.08,0-.12a.31.31,0,0,0,0-.1c0-.1,0-.2,0-.3a.77.77,0,0,0-.08-.27.44.44,0,0,0-.17-.19.51.51,0,0,0-.3-.07h-1v1.27H25V45.52Zm0,1.35a.61.61,0,0,0,.24,0,.49.49,0,0,0,.2-.11.45.45,0,0,0,.13-.17.59.59,0,0,0,.05-.23.57.57,0,0,0-.15-.42.65.65,0,0,0-.47-.15h-1v1.12Z"/><path d="M29.55,46.09a.85.85,0,0,0-.2-.22.94.94,0,0,0-.26-.14,1,1,0,0,0-.3,0,1,1,0,0,0-.49.11.83.83,0,0,0-.33.28,1.36,1.36,0,0,0-.2.4,1.82,1.82,0,0,0-.06.46,1.76,1.76,0,0,0,.06.46,1.42,1.42,0,0,0,.2.41.83.83,0,0,0,.33.28,1.07,1.07,0,0,0,.49.11.86.86,0,0,0,.36-.07.8.8,0,0,0,.28-.2,1,1,0,0,0,.18-.29,1.36,1.36,0,0,0,.1-.36H30a1.41,1.41,0,0,1-.13.48,1.13,1.13,0,0,1-.24.36,1.16,1.16,0,0,1-.36.23,1.44,1.44,0,0,1-1.05,0,1.14,1.14,0,0,1-.42-.33,1.35,1.35,0,0,1-.26-.47,2,2,0,0,1,0-1.13,1.27,1.27,0,0,1,.26-.47,1.14,1.14,0,0,1,.42-.33,1.35,1.35,0,0,1,.59-.12,1.39,1.39,0,0,1,.4.06,1.14,1.14,0,0,1,.35.17,1.2,1.2,0,0,1,.26.29,1.06,1.06,0,0,1,.14.4h-.27A1.1,1.1,0,0,0,29.55,46.09Z"/><path d="M31.49,45.52l1.13,2.85h-.3L32,47.48h-1.3l-.34.89H30l1.15-2.85Zm.39,1.73-.55-1.46-.57,1.46Z"/><path d="M35.05,45.52l1.12,2.85h-.29l-.35-.89h-1.3l-.35.89H33.6l1.14-2.85Zm.39,1.73-.56-1.46-.57,1.46Z"/><path d="M38.33,48.22a1.24,1.24,0,0,1-.74.21,1.35,1.35,0,0,1-.59-.12,1.27,1.27,0,0,1-.43-.33,1.51,1.51,0,0,1-.25-.47,2,2,0,0,1,0-1.13,1.41,1.41,0,0,1,.25-.47,1.27,1.27,0,0,1,.43-.33,1.35,1.35,0,0,1,.59-.12,1.31,1.31,0,0,1,.58.12,1.14,1.14,0,0,1,.42.33,1.27,1.27,0,0,1,.26.47,2.1,2.1,0,0,1,.08.56,1.61,1.61,0,0,1-.11.63,1.34,1.34,0,0,1-.32.51l.41.31-.14.16Zm.24-.74a1.61,1.61,0,0,0,.09-.54,1.82,1.82,0,0,0-.06-.46,1.16,1.16,0,0,0-.2-.4.83.83,0,0,0-.33-.28.9.9,0,0,0-.48-.11,1,1,0,0,0-.83.39,1.34,1.34,0,0,0-.19.4,1.82,1.82,0,0,0-.06.46,1.76,1.76,0,0,0,.06.46,1.4,1.4,0,0,0,.19.41.93.93,0,0,0,.34.28,1,1,0,0,0,.49.11,1,1,0,0,0,.52-.14l-.37-.28.14-.18.41.32A1,1,0,0,0,38.57,47.48Z"/><path d="M39.56,45.52v1.76a1.35,1.35,0,0,0,.06.43.64.64,0,0,0,.16.28.63.63,0,0,0,.26.16,1.36,1.36,0,0,0,.36.05,1.23,1.23,0,0,0,.35-.05A.67.67,0,0,0,41,48a.76.76,0,0,0,.16-.28,1.35,1.35,0,0,0,.06-.43V45.52h.27v1.82a1.42,1.42,0,0,1-.06.42.94.94,0,0,1-.2.35.82.82,0,0,1-.34.23,1.49,1.49,0,0,1-1,0,.76.76,0,0,1-.34-.23.94.94,0,0,1-.2-.35,1.42,1.42,0,0,1-.06-.42V45.52Z"/><path d="M42.31,45.52v2.85H42V45.52Z"/></g></g></svg>