<svg xmlns="http://www.w3.org/2000/svg" viewBox="0 0 21.72 25.79"><title>Asset 168012442</title><g id="Layer_2" data-name="Layer 2"><g id="Texto"><g opacity="0.96"><path d="M8.52,18a2.57,2.57,0,0,0,1.66.77l0-4c-.39-.09-.75-.19-1.1-.3A2.83,2.83,0,0,1,8.2,14a2.17,2.17,0,0,1-.62-.78A2.62,2.62,0,0,1,7.36,12a2.65,2.65,0,0,1,.23-1.11,2.45,2.45,0,0,1,.62-.83,2.71,2.71,0,0,1,.92-.53,3.4,3.4,0,0,1,1.11-.18V8.3h.53V9.37a2.8,2.8,0,0,1,1.12.22,2.86,2.86,0,0,1,.93.6,3,3,0,0,1,.62.94,3.22,3.22,0,0,1,.2,1.22h-.86a2.35,2.35,0,0,0-.56-1.64,1.92,1.92,0,0,0-1.46-.62l0,3.93c.39.09.78.19,1.15.31a3.53,3.53,0,0,1,1,.5,2.27,2.27,0,0,1,1,2A2.6,2.6,0,0,1,13.6,18a2.67,2.67,0,0,1-.71.85,3.23,3.23,0,0,1-1,.5,3.85,3.85,0,0,1-1.17.16v1.16h-.54V19.5a3.52,3.52,0,0,1-2.32-1,3.58,3.58,0,0,1-.77-2.36h.86A2.69,2.69,0,0,0,8.52,18Zm1-7.83a1.6,1.6,0,0,0-.65.36,1.62,1.62,0,0,0-.44.63,2.33,2.33,0,0,0-.16.92,1.51,1.51,0,0,0,.16.78,1.41,1.41,0,0,0,.45.49,2.38,2.38,0,0,0,.64.31l.74.21,0-3.81A2.43,2.43,0,0,0,9.47,10.2Zm2.09,8.5a2.14,2.14,0,0,0,.73-.35,1.85,1.85,0,0,0,.52-.62,1.93,1.93,0,0,0,.21-.9,1.49,1.49,0,0,0-.21-.82,2,2,0,0,0-.53-.55,3.37,3.37,0,0,0-.74-.35l-.8-.24,0,3.93A3,3,0,0,0,11.56,18.7Z" fill="#231f20"/></g><path d="M12.26,3.5l-.8-.1V1.21h2.22a.61.61,0,1,0,0-1.21H8A.61.61,0,1,0,8,1.21h2.22V3.36A11.27,11.27,0,0,0,0,10.53a.61.61,0,0,0,.35.78A.6.6,0,0,0,1.17,11a10,10,0,1,1,.33,8,.61.61,0,0,0-.81-.28.61.61,0,0,0-.28.81,11.26,11.26,0,0,0,8.33,6.18,11.94,11.94,0,0,0,1.77.14A11.21,11.21,0,0,0,12.26,3.5Z" fill="#231f20"/></g></g></svg>