<svg xmlns="http://www.w3.org/2000/svg" viewBox="0 0 165.1 177.38"><title>Asset 45vector-magueyro</title><g fill="#231f20" data-name="Layer 2"><path d="M64.29 9c.13.21.36.41.36.62.07 2.45 1.12 4.61 2 6.8 1.91 4.72 4 9.39 5.87 14.11.54 1.33.82 2.78 1.23 4.17a6.39 6.39 0 0 0 .34.74c3.21-6.24 6.79-12.2 8.86-18.89h.43a5.3 5.3 0 0 1 .24 1.45c-.25 2.18-.45 4.37-.88 6.52a35.61 35.61 0 0 0-.21 14.1c0 .19.09.39.2.84.45-2.66.72-5.08 1.27-7.43a104.4 104.4 0 0 0 2-13.74q.51-5.55 1.32-11.06C87.7 5 88.31 2.77 88.8.51A3.14 3.14 0 0 1 89 0c.75 0 .72.49.74 1a58.45 58.45 0 0 0 .44 6.64c.74 4.32 1.78 8.59 2.58 12.9.71 3.8 1.24 7.63 1.89 11.44.72 4.14 1.53 8.26 2.23 12.4.22 1.26.23 2.56.38 3.83.49-2.24.11-4.49 0-6.73-.1-2.46-.58-5 0-7.37 1.06-4.46 2.71-8.78 4.16-13.15.13-.4.59-.69.9-1a4.52 4.52 0 0 1 .2 1.38 17.32 17.32 0 0 0-.27 7.09 59.75 59.75 0 0 0 1.93 6.09c.86 2.45 1.79 4.87 2.69 7.3a8.27 8.27 0 0 0 .4.79c.47-1.1.94-2 1.23-2.93 2.45-8.07 4.85-16.15 7.3-24.22.45-1.47 1-2.91 1.57-4.36.07-.19.31-.32.47-.48a2.65 2.65 0 0 1 .35.57 27.58 27.58 0 0 1 .62 10.4c-.33 3.1-.32 6.24-.41 9.37-.09 3-.12 5.94-.16 8.91a2.2 2.2 0 0 0 .25 1.09q1.41-5.51 2.83-11l.19-.12c.18.36.5.72.5 1.07 0 3.1-.08 6.19-.27 9.27a25.85 25.85 0 0 0 .85 9.19c1.13 3.66 2.35 7.29 3.52 10.94.22.67.41 1.34.67 2.21.3-1.06.55-1.9.78-2.74 1.16-4.3 3.85-7.72 6.44-11.18 1.91-2.55 4.06-4.92 5.87-7.53 1.45-2.09 2.56-4.42 3.83-6.65.29-.5.6-1 .9-1.49l.39.19a15.31 15.31 0 0 0-.77 2.15c-.41 2.08-1.77 3.73-2.47 5.7a45.46 45.46 0 0 0-2 10.44 79 79 0 0 1-3 16.1 64.77 64.77 0 0 1-3.37 7.49c-.91 1.89-2 3.68-2.91 5.57a12.24 12.24 0 0 0-.62 2.59c-.45 2-.89 3.91-1.33 5.87a1.77 1.77 0 0 0 0 1c.62-.82 1.2-1.68 1.85-2.48a61.24 61.24 0 0 1 10.37-9.92c3.72-2.87 6.43-6.57 9.16-10.28.32-.44.47-1 .75-1.49.11-.18.36-.43.51-.4a.67.67 0 0 1 .43.5 12.37 12.37 0 0 1-.07 2A25.61 25.61 0 0 1 147 78.82c-2.47 3.7-3.6 7.85-4.57 12.14-1.05 4.67-1.12 9.53-2.81 14.07a1.58 1.58 0 0 0 0 .35 7.8 7.8 0 0 0 1.11-.09 13.76 13.76 0 0 1 6-.05 1.23 1.23 0 0 0 1.43-.56 34 34 0 0 1 7.84-8.32c1.78-1.37 3.35-3 5-4.52a2.5 2.5 0 0 1 .76-.33c0 .29.05.64-.08.84-1.06 1.57-2.16 3.1-3.23 4.65a25.18 25.18 0 0 0-3.77 7.61 18.4 18.4 0 0 0-.32 2.07c1.63-.28 3-.47 4.39-.78a37.9 37.9 0 0 0 3.63-1.09 3.17 3.17 0 0 0 2-1.69 1.4 1.4 0 0 1 .69-.53c-1.07 3.17-3.32 5.46-5.48 7.82a22.29 22.29 0 0 1-7.93 5.33 2.36 2.36 0 0 0-1.12 1.15c-1.43 3.52-2.76 7.08-4.17 10.6a28.67 28.67 0 0 1-6 8.85 85.6 85.6 0 0 1-7.91 6.84c-2.1 1.75-4.5 2.63-6.89 3.67a46.32 46.32 0 0 1-11.11 3.15 10 10 0 0 1-2.93-.11c-.73-.1-1.07 0-1.37.77a14 14 0 0 1-2.86 5.14l2.53 2.69c-2.68 1.25-4.55 3.41-6.41 5.62a9.46 9.46 0 0 0 1-.81c.47-.53.78-.37 1 .18a4.24 4.24 0 0 1-.25 4.57 20.09 20.09 0 0 0-3.24 5.38 1 1 0 0 1-.43.58c-1.16.43-2.07 1.37-3.49 1.26-1.63-.12-3.28.12-4.92.16a16 16 0 0 1-2.4-.08 2 2 0 0 0-1.84.62 4 4 0 0 1-4.43 1.23c-1.79-.48-3.68-.54-5.52-.84a11.56 11.56 0 0 1-2.86-.73 6.49 6.49 0 0 1-3.12-3.75 4.54 4.54 0 0 0-2.32-2.61 7.77 7.77 0 0 1-3.86-7 3.69 3.69 0 0 1 .25-1c.68-1.7.51-2.66-.78-3.87a8.52 8.52 0 0 1-2.67-5.47l-.09-.83c-.15-1.46-.37-1.69-1.8-2-1.08-.25-2.17-.49-3.23-.83a17.18 17.18 0 0 0-9.69 0c-3.5.9-7 1.82-10.54 2.54a36.54 36.54 0 0 1-5.45.45A55 55 0 0 1 16.35 150a36.72 36.72 0 0 1-13.3-6.56 3.6 3.6 0 0 1-.56-.79 3.08 3.08 0 0 1 1-.16 23.83 23.83 0 0 0 13.85-1.28c2.89-1.17 5.61-2.74 8.45-4a32.3 32.3 0 0 1 11.31-2.7c1.84-.12 3.7.17 5.65.13-.56-.43-1.13-.85-1.68-1.3-2.27-1.9-4.47-3.9-6.82-5.7-2.86-2.2-5.85-4.24-8.8-6.33-2-1.41-4-2.88-6.06-4.13A42.22 42.22 0 0 0 6 111.69c-1.73-.35-3.44-.74-5.15-1.18-.31-.08-.55-.46-.82-.7a6.33 6.33 0 0 1 .89-.39c1.4-.35 2.84-.59 4.22-1a27.38 27.38 0 0 1 11.86-.8 39.17 39.17 0 0 1 9.83 2.53 2.11 2.11 0 0 0 .4 0c-.18-.63-.31-1.22-.52-1.78-1.8-4.73-3.64-9.45-5.41-14.2A43.79 43.79 0 0 0 15.35 83a39.53 39.53 0 0 0-4.57-4.58C9.27 77 7.66 75.71 6.16 74.28a7.14 7.14 0 0 1-1.4-2.1c13.85 3.52 24.69 11.08 31.86 23.64l.22-.23c-.48-1.08-1-2.17-1.45-3.25s-1-2.26-1.55-3.37c-2.13-4.34-4.23-8.7-6.43-13a37.93 37.93 0 0 1-3.53-11.08 111.34 111.34 0 0 1-1.78-15.75 52.08 52.08 0 0 1 .41-6.1c0-.28.45-.52.7-.78a2.61 2.61 0 0 1 .43.78c.21 1.15.34 2.32.54 3.48.54 3 2.53 5.07 4.57 7 2.78 2.69 5.65 5.29 8.63 7.73a27.38 27.38 0 0 1 4.91 4.95c1.92 2.65 3.79 5.34 5.68 8 .19.27.38.56.65 1a2 2 0 0 0 0-.5c-1.62-3.7-3.17-7.36-4.84-11a45.16 45.16 0 0 1-4.08-12.86 24.69 24.69 0 0 1 1-10.36c1.15-3.88 2.06-7.82 3.14-11.72.8-2.89 1.71-5.74 2.58-8.61a1.09 1.09 0 0 1 .22-.5 4.5 4.5 0 0 1 .78-.42 2.34 2.34 0 0 1 .32.78c0 1.76-.12 3.53 0 5.29a93.87 93.87 0 0 0 2.11 13.64 51.84 51.84 0 0 0 9.63 20.86 1.52 1.52 0 0 0 .22.18c0-.06.11-.11.11-.15 0-5.16.21-10.35-.91-15.44a22.76 22.76 0 0 1 .16-9.23c.72-3.81 1.83-7.55 2.72-11.33a59.4 59.4 0 0 0 1.85-12.92 2.3 2.3 0 0 1 0-.46c.12-.45.26-.88.39-1.32zm10.57 163.71c.58 1 .92 2.28 2.47 2.83a11 11 0 0 1-2.67-4.38l.24-.14.58 1.08.85-.25c-.26-.84.34-2-.92-2.62a5.94 5.94 0 0 0-3-1c.68 1 .23 2.35 1.31 3.13l.28-.75.83 2.15-1-.76-.19.1 1.12 2.11.23-.12a8.1 8.1 0 0 1-.38-.92c.05-.17.19-.32.25-.46zm77.48-69.25l.08.08c-.29.54-.6 1.07-.86 1.62a7.46 7.46 0 0 0-.31 1l.29.1 1.51-2.84.27.14-1.16 2.68.34.14.76-1.64.21.1c-.07.5-.14 1-.22 1.51l.33.1c1-5 3.87-9 6.76-13-1.55 1.21-3 2.52-4.5 3.72a25.67 25.67 0 0 0-6.89 7.53 6.51 6.51 0 0 0-.31.72c.3 0 .43-.07.51-.19 1-1.34 2-2.7 2.95-4a3.39 3.39 0 0 1 .76-.64c.24-.16.59-.19.77-.39.56-.61 1.05-1.3 1.59-1.93a11.31 11.31 0 0 1 .88-.8l.22.22a55.27 55.27 0 0 0-6.15 8.23l.26.18zM83.4 161.89a9.12 9.12 0 0 0 2.6 3.76 19.84 19.84 0 0 1-1.52-2.38 2.66 2.66 0 0 0-1-1.42 7.21 7.21 0 0 1-.72-1.68c-.17-1.1-.26-1.21-1.39-1.26a23.16 23.16 0 0 1-2.62-.33c-.85-.13-1.69-.4-2.54-.46s-1 .22-.75 1.06c.57 1.91 2.08 3.1 3.33 4.49.08.08.3.05.64.09l-1.7-2.17.22-.2 2.32 2.52.13-.13-1.3-2 .22-.15 1.27 1.5v-.93l1.3 1.59-.08-1.13 1.5 1.86.09-.07-.74-1.4.2-.12 1.14 1.53.17-.14-2.46-4 .19-.13zm28.24-15.54l1.3-.15v.34l-6.61.87v.29a47.81 47.81 0 0 0 8.41-1v.4l-5.94 1a5.09 5.09 0 0 0 2.47.66 72.67 72.67 0 0 0 9.09-1.19 35.17 35.17 0 0 0 16.18-8.57c2.8-2.57 5.55-5.17 7.23-8.6 2.13-4.36 4-8.83 6-13.25a2.93 2.93 0 0 0 .06-.68l-3.83 6.81-.26-.15 3.23-5.92-.37-.22-1.47 2.35c-.53.84-1 1.69-1.6 2.51s-1.06 1.42-1.59 2.13l-.11-.09 3.85-6.24-.33-.21c-1.78 2.46-3.2 5.2-5.37 7.38l3.66-5.48-.28-.18c-2 3-3.89 6.16-6.61 8.78 2.25-3.18 4.41-6.26 6.58-9.34l-.29-.23-2.78 3.7-.23-.17 1.8-2.72-.36-.25-5 6.64-.22-.16q1.62-2.25 3.22-4.51l-.11-.08-4.48 5.07-.21-.18 4.68-5.64-.25-.26a13.15 13.15 0 0 0-1.14 1c-.84.91-1.63 1.86-2.47 2.77-.45.48-1 .89-1.45 1.33l-.14-.17 2.93-3.22a1.24 1.24 0 0 0-.88.33c-2 1.94-4 3.9-6 5.83-1.74 1.69-3.22 3.76-5.63 4.57-2.07.7-4.22 1.18-6.32 1.79-.59.17-1.16.43-1.73.65l.11.33 6.6-1.76.09.22a2 2 0 0 1-.51.28c-2.21.58-4.43 1.14-6.64 1.71a8.13 8.13 0 0 0-1 .38l.11.31 4.52-1.26.08.28-5.71 1.8.06.24 2.77-.59.06.31a16 16 0 0 1-2.57.69c-1.18.11-1.56 1-2.3 1.95l2.38-.8.1.31-3.42 1.33.17.42 8.08-2.69c-2.65 1.76-5.85 2.09-8.7 3.31l.07.23 6-1.76.09.33-7.53 2.27.08.26 4.38-1.08.07.34-4.71 1.31v.14l2.6-.31v.28l-4.08.84a1.12 1.12 0 0 0 .86.2c1.31-.23 2.61-.53 3.92-.71a32.28 32.28 0 0 0 4.21-.5c3-.87 6-2 9-3 .25-.09.51-.14.77-.22l.08.26a6.23 6.23 0 0 1-.78.38l-9.76 3.28a1.41 1.41 0 0 1-.46 0l-3.27.07v.26l1.29.13v.2l-7.75 1.11.05.37 7.14-.84v.3c-.51.09-1 .17-1.52.29s-1.12.3-1.7.45l-5.87.26a2.33 2.33 0 0 0-.15.34zm-52.57.65a4.83 4.83 0 0 1 1.08.05c1.31.32 2.61.69 3.91 1l.06-.22c-2.25-.68-4.47-1.51-6.76-2s-4.63-.61-7-.89v-.23a2.83 2.83 0 0 1 .58 0c1.57.15 3.14.36 4.71.46 3 .19 5.69 1.61 8.53 2.43 1.79.52 3.55 1.16 5.33 1.75l.08-.23-9.11-3.24.11-.31 4.56 1.55.1-.3-4.84-1.79c.07-.62-.18-.93-.94-1.08-1-.18-1.93-.39-2.89-.6l.05-.24 3.54.53v-.23c-3-1.48-6.31-1.39-9.52-1.82a28.12 28.12 0 0 1 9.3 1.06l.05-.31-8.58-1.75v-.24l5.73.86.06-.42-5.06-1 .06-.3 3.49.5a.72.72 0 0 0-.51-.47c-1.73-.32-3.56-.31-5.06-1.55l.82-.23-1.87-.69.09-.22 4.21 1.44.11-.36a28.06 28.06 0 0 0-3-1 65.08 65.08 0 0 0-6.45-1.28 41.56 41.56 0 0 0-7.93-.56c-5.51.36-10.54 2.45-15.44 4.92a27.74 27.74 0 0 1-6.47 2.68 55.92 55.92 0 0 1-8.11.68 11.5 11.5 0 0 1-1.65-.15c3.67 3.42 8.21 4.21 12.62 5.28l-.12.33-2-.39a.51.51 0 0 0 .39.33 77.88 77.88 0 0 0 9 1.47 61.58 61.58 0 0 0 21.81-2.67 30.2 30.2 0 0 1 6.92-1.11 24 24 0 0 1 4.57.58zm-6.28-12.69l1.88 1 .23-.32-3.75-2.9.15-.18 2.19 1.61.22-.22a11.2 11.2 0 0 0-1.32-1.42c-2.37-1.8-4.77-3.54-7.15-5.31-.39-.29-.76-.61-1.14-.92l.23-.23c2.74 1.91 5.1 4.38 8.07 6l.28-.36-8.12-6.54.18-.22 7.15 5.7c.21-1.37-.88-1.53-1.49-2.05-1.08-.93-2.22-1.8-3.33-2.69l.15-.19 4.1 3.15.28-.31c-.89-1.35-2.65-1.82-3.66-3.35l3 2 .23-.26c-.51-1.21-2-1.56-2.56-2.76l2 1.52.21-.19a5.69 5.69 0 0 0-.53-.73c-2.64-2.61-5.28-5.2-7.92-7.82a3.81 3.81 0 0 1-.47-.73l.2-.12a61.66 61.66 0 0 0 8.37 8.18 1.41 1.41 0 0 0-.17-1c-.16-.22-.56-.25-.76-.45-1.75-1.71-3.47-3.44-5.19-5.17a10.24 10.24 0 0 1-.77-1l.15-.11 6.27 6.29.36-.32a13.6 13.6 0 0 0-1.11-1.48c-.84-.82-1.74-1.58-2.61-2.37a4 4 0 0 1-.4-.5l.14-.12 3.31 2.88.26-.24-2.74-2.84.15-.17 1.94 1.68.25-.24-2.08-2.4.13-.1 1 .68.19-.16-.88-1.66c.53-.42.55-.75 0-1.49-1.05-1.42-2.21-2.76-3.16-4.24-1.38-2.13-2.51-4.41-3.92-6.51-1.93-2.88-4-5.64-6-8.46-1.57-2.18-3-4.43-4.71-6.55a30.57 30.57 0 0 0-7-6 82.74 82.74 0 0 0-8.63-5.44 65.94 65.94 0 0 0-7.79-2.91s-.09.07-.18.13a2.46 2.46 0 0 0 .29.34c1.3 1.08 2.66 2.1 3.91 3.23 1.88 1.7 3.78 3.38 5.48 5.25 2.17 2.39 3.36 5.42 4.58 8.34 2.7 6.43 5.36 12.89 7.71 19.46a43.51 43.51 0 0 0 12.9 18.49 89.73 89.73 0 0 0 14 9.86c.6.34 1.16.74 1.75 1.11-2.82-2.49-6.27-4.08-9-6.64l4.54 3 .15-.19-4.53-3.36.15-.2 7.32 5.25.23-.32c-.34-.32-.68-.66-1-1-.71-.58-1.44-1.13-2.15-1.69zm28.05 6.73v.09l3.32 4.29a.78.78 0 0 1 .09.34c0 .19 0 .49.1.55s.58.17.65.07c.64-.81 1.57-1.47 1.58-2.77l-1.86 2c.34-1 .58-1.8.85-2.63l.37.25c1.27-.51.69-1.81 1.06-2.72l.3.05v2.38h.17l.88-1.61.24.1.12 1.16.59-.75.21.1-.3 1.19.25.14 1.5-2.17.2.12-.23 1.39A5.8 5.8 0 0 0 92.6 138c.68.56.31 1.23.28 1.82a14 14 0 0 1-.36 1.91l.26.07a21 21 0 0 0 .68-2.17c.37-1.78.34-1.78.78-2l-.48 3.28c.6-1.18 1.69-2.19 1.25-3.69a1.56 1.56 0 0 1 0-.37c0-2.41.07-4.82.08-7.23 0-.53-.09-1.06-.14-1.59l.26-.06a2.84 2.84 0 0 1 .25.8v7.7c0 .34 0 .68.06 1h.42c.11-2.65.21-5.3.32-7.94.47 3.55.51 7.05-1.2 10.4h.24l2.21-3.41c0 2.47-1.25 4.34-2.09 6.33l.28.11 1.25-2.52c.1 1.56-2.4 5.46-3.48 5.83l1-1.76-.27-.17-1.2 1.82-.26-.09.47-1.55-.22-.09-.87 1.69c-.27.54-.52 1.08-.78 1.61l-.23-.12 1.05-3.09-.25-.1-1.13 2.64-.34-.15 1.41-4.34-.3-.1L89.6 147c-.93-1.44-.88.37-1.49.27l.18-1.12-.24-.14-1.29 1.79-.14-.06.28-1.27-.15-.07-.9 1.06-.16-.08.24-1.32c-.89.65-.72 1.18-.12 1.8 1.11 1.14 2.44.88 3.82.84 3.42-.11 5.29-2.25 6.65-5a22.88 22.88 0 0 0 2.58-11.39c-.11-2.37-.38-4.74-.67-7.1-.39-3.14-.83-6.29-.23-9.42.54-2.79 1.21-5.55 2-8.29 1.14-4.14 2.73-8.18 3.52-12.38.91-4.84 1.17-9.82 1.71-14.74.09-.89.17-1.78.26-2.68a1.77 1.77 0 0 0-.61.94c-.56 2-1.14 4-1.64 6a19.65 19.65 0 0 1-5.84 10.09 88.25 88.25 0 0 0-9.44 10.57 17.06 17.06 0 0 0-4 7.72c-.46 2.58-1 5.16-1.45 7.74A68.87 68.87 0 0 0 81 135.5a9.64 9.64 0 0 1-.72 3.49c-.37.95-.28 1.57.56 2.09zm-4.14 1.49a3.11 3.11 0 0 1 .71.34c1.17 1 2.29 2 3.48 2.92a6.35 6.35 0 0 0 1.3.66c-1.62-1.87-3.8-3.08-5.17-5.13a1.11 1.11 0 0 1 .59.27c1.18 1 2.33 2.13 3.57 3.11a7 7 0 0 0 1.69.74l.13-.26c-.35-.43-.21-1.39-1.26-1-.09 0-.27-.12-.38-.22-1-.84-2-1.68-3-2.55a13 13 0 0 1-1-1.1l.15-.14q2.06 1.74 4.1 3.49a2.1 2.1 0 0 0-.56-.91 57.47 57.47 0 0 1-4.51-5.28 67.32 67.32 0 0 1-3.43-6.47 14.38 14.38 0 0 1-1.81-6.37 33 33 0 0 0-3-11.9 28.57 28.57 0 0 0-3.07-5.88 45.32 45.32 0 0 0-5.16-5.58 69.87 69.87 0 0 0-5.51-4.8c-1.85-1.44-4.06-2.47-5.74-4.07-2.71-2.58-5.47-5.18-7.24-8.64a15.19 15.19 0 0 0 .66 3.78c1.16 3.09 2.31 6.2 3.76 9.16a22.67 22.67 0 0 1 2.11 8.38c.26 3.23.61 6.47 1.15 9.67.61 3.59 1.43 7.14 2.26 10.69a29.39 29.39 0 0 0 5.61 11.89 35.62 35.62 0 0 0 4.75 4.51c2.67 2.28 5.42 4.49 8.17 6.68a4.71 4.71 0 0 0 1.39.52l.09-.22-6-5.11.2-.28a4.37 4.37 0 0 1 .72.45 38.17 38.17 0 0 0 7.12 5.61 4.53 4.53 0 0 0 .6.26c-1.52-1.31-3.07-2.53-4.6-3.78a6 6 0 0 1-.83-1l.19-.14c1 .85 2 1.73 3.05 2.53a7.36 7.36 0 0 0 3.5 2c-1.32-1.27-3-1.87-3.89-3.39l4.25 3.03.16-.23c-.6-.84-2-1-2.25-2.22l3.54 2.45.16-.21-2.45-2.05.2-.23c1.27.73 2.26 2 4 2.13-.86-.87-2.17-1.07-2.6-2.28 1 .52 1.8 1.48 3.26 1.65l-1.8-1.5.15-.16 2.06 1.12.17-.31c-.42-.26-.84-.5-1.24-.77s-.76-.55-1.14-.82l.18-.26 3.13 1.8.16-.29a25.08 25.08 0 0 1-2.19-1.65c-.9-.82-1.7-1.74-2.55-2.63zm33.54-28.44l-1.79 6.13.38.11 1.12-3.72.26.1-.61 2.9.29.09 1.21-3.36.26.08-.62 2.33.23.09a11.36 11.36 0 0 0 .56-1.1c.21-.54.33-1.13.56-1.66 1-2.21 2-4.4 2.93-6.61a21.25 21.25 0 0 1 5.91-8 15.23 15.23 0 0 0 4.68-6.36c.45-1.21.71-2.49 1.1-3.72a37.22 37.22 0 0 0 2-11.83A64.5 64.5 0 0 0 126 62.15c-1-3.34-2.17-6.64-3.25-9.95a29.48 29.48 0 0 1-1.68-12.5 55.48 55.48 0 0 0 0-5.78c-.63 2-1.39 4-1.8 6-1 4.66-1.69 9.37-2.61 14a59.67 59.67 0 0 0-1.19 11.78c0 3.71-.09 7.43-.32 11.13a28.53 28.53 0 0 1-5.6 14.91c-1.15 1.6-2.71 3-3.59 4.7-2 4-3.84 8.09-5.58 12.21a42.26 42.26 0 0 0-1.52 5.4l.26.08 1.16-3.26.34.12c-.84 2.52-2 5-1.75 7.73.57-1.58 1-3.18 1.53-4.76a11.64 11.64 0 0 1 2.24-4.35 1 1 0 0 1-.11.52A38.4 38.4 0 0 0 99 120.82a5.05 5.05 0 0 0 0 1.1c.73-2.88 2.24-7.31 2.8-7.6l-1.7 5.46c.49-.42.62-1.15 1.67-.87l-2.56 6.76.4.14 2.25-5.67h.12l-.06 1.16c.46-1.11.71-2.25 1.06-3.35a7.11 7.11 0 0 1 1.49-3 17.37 17.37 0 0 0-1.72 6.5l.61-.87.16.09c-.29 1.49-.59 3-.88 4.47l.16.06c.34-1 .69-2.08 1.07-3.23.48.81.49.85 1.23.71.2 0 .4-.39.5-.63a10.5 10.5 0 0 0 .35-1.25c.67-2.6 1.34-5.2 2-7.79a5.45 5.45 0 0 1 .54-1.08l.28.11a37.66 37.66 0 0 0-2.53 10.45A10.55 10.55 0 0 0 107 120a50.67 50.67 0 0 1 6.65-17.49 12.3 12.3 0 0 1 .9-1.15l.23.16c-4.51 6.58-6.79 14-7.78 21.8a11.42 11.42 0 0 0 1-2.32c.52-2 1-4 1.52-5.92.05-.37.48-.64.72-.95zm-5.11 28.32a8.42 8.42 0 0 0 1.65-1c1.54-1.47 3-3 4.53-4.51a3.4 3.4 0 0 1 .59-.4l.13.17-5.5 5.8.06.07 4.9-4.51a18.86 18.86 0 0 1-7 6.25 19.88 19.88 0 0 0 7.11-4.71c-1.87 3.24-5.42 4.2-8.13 6.31l-.17-.2.38-.54-.14-.16-2.64 1.74-.19-.27 1.09-.9-.14-.22-3.25 1.73.08.3a11.81 11.81 0 0 0 2.24-.21c4.39-1.26 8.45-3 11.29-6.93 1.54-2.11 3.64-3.81 5.18-5.92a42.92 42.92 0 0 1 5.66-5.85 60.14 60.14 0 0 0 5.16-5.31 59.34 59.34 0 0 0 4.74-6.53c1.57-2.5 2.93-5.14 4.29-7.77a34.55 34.55 0 0 0 3.7-12.55 57.68 57.68 0 0 1 1.43-7.92 41.12 41.12 0 0 1 5.56-12 22.22 22.22 0 0 0 3.22-8.61 3.84 3.84 0 0 0 0-.48 4.73 4.73 0 0 0-.78 1.16 15.59 15.59 0 0 1-3.32 4.76c-3.85 3.35-7.65 6.76-11.55 10a36.18 36.18 0 0 0-8.23 10.54c-1.56 2.84-3.17 5.66-4.8 8.47a56.84 56.84 0 0 0-3.48 5.89 60.64 60.64 0 0 1-5.8 10.55c-.28.41-.56 1-.93 1.12-.9.19-1.18.93-1.68 1.47s-.85 1.15-1.36 1.64c-2.53 2.45-5.09 4.86-7.64 7.28a4.73 4.73 0 0 0-1.71 2.9l2.29-2.06.25.26c-1 1.06-2.28 1.91-2.77 3.35l.19.17 2.53-2.46.26.24a8.08 8.08 0 0 1-.63.79c-.64.63-1.33 1.21-1.94 1.86a6.93 6.93 0 0 0-.7 1.18l.25.18L104 132l.28.27c-.19.22-.36.44-.56.64L99.61 137a3.39 3.39 0 0 0-1 2.72l2.19-1.72c-.39 1.48-2.31 1.66-2.77 3.34 3.23-1.8 5.54-4.46 8.23-6.63l.27.34-8.46 7.2c2.54-.81 4.29-3.09 6.59-4.47l.2.28-3.9 3c1.49-.72 3.31-.76 4.31-2.41l.31.44a19.48 19.48 0 0 1-1.8 1.49 11.77 11.77 0 0 1-1.85.81l.15.33a8.76 8.76 0 0 0 3.72-1.88c1.56-1.62 3.08-3.27 4.63-4.91.22-.22.49-.41.73-.61.1.27.07.4 0 .48-1.54 1.65-3.07 3.3-4.64 4.92a6 6 0 0 1-3.17 2c-.28.05-.53.34-.79.52l.12.25a10.1 10.1 0 0 0 2.82-1.21c1.86-1.61 3.55-3.43 5.31-5.16.27-.27.58-.5.87-.75l.21.23c-.29.34-.56.71-.88 1a49.91 49.91 0 0 1-5.81 5.45c-.08.06 0 .27-.07.41a2.36 2.36 0 0 0-2.58.9zM75.24 128.1l.38-.12 3.51 10.81.34-.07a3.62 3.62 0 0 0-.06-.88c-.72-2.11-1.47-4.2-2.19-6.3a10.38 10.38 0 0 1-.27-1.23l.31-.07 2.48 7.3.3-.06a10.09 10.09 0 0 0-.22-1.75c-.5-1.56-1.08-3.09-1.62-4.64a7.72 7.72 0 0 1-.19-1l.25-.07 1.67 4.32c.16-1.87-1.4-3.31-1.11-5.47l.87 2.41.26-.07a10.31 10.31 0 0 0-.23-1.37c-.64-2.2-1.32-4.38-2-6.57a18 18 0 0 1-.33-1.78h.19l2.16 7.34.29-.05a12.61 12.61 0 0 0 0-2 17.53 17.53 0 0 0-.63-1.94c-.2-.63-.34-1.28-.51-1.92l.27-.08c.36 1.13.72 2.25 1.09 3.37l.29-.08-.65-2.71.22-.06.45.83a2.06 2.06 0 0 0 .29-1.16c-.06-1-.18-1.91-.24-2.87a37.57 37.57 0 0 0-3.62-14 67.08 67.08 0 0 1-3.3-8.44A44.25 44.25 0 0 1 72.33 91c-.29-1.92-.37-3.87-.51-5.81-.38-5.15-1.09-10.29-.28-15.46.53-3.39.74-6.85 1.47-10.19a53.42 53.42 0 0 0 .84-13.29 27.85 27.85 0 0 0-.38-3.4c-.62-4-2.53-7.45-4.47-10.9-.06-.11-.2-.17-.31-.25l-.31.06v5.46A45 45 0 0 1 66.16 52c-1 2.81-2.11 5.62-2.95 8.49-1.4 4.76-2.67 9.57-3.93 14.38-.81 3.07-1.51 6.18-2.23 9.27-.87 3.78-.28 7.52.41 11.24a23.41 23.41 0 0 0 1 3.1l.21-.06-.57-4 .32-.06c.57 1.83.28 4 1.75 5.49-.41-2.28-1.18-4.48-1-6.83.62 2.78.84 5.65 2.35 8.16a8.22 8.22 0 0 0-.25-1.8L61 97.77l.33-.1c.51 2.56 1 5.11 3.47 6.66l-.6-2.59.31-.1c.64 2.34 1.08 4.78 3.12 6.42-.7-3.35-2.28-6.49-2.47-10 .17 0 .24.09.26.16.92 3.4 1.75 6.82 2.76 10.19 1 3.22 2.14 6.38 3.16 9.58.32 1 .19 2.21.72 3 .65 1 .27 2 .37 3s.26 2.11.41 3.16c0 .08.17.22.22.2.71-.26.59.4.69.69.72 2.07 1.39 4.16 2.11 6.23a10.31 10.31 0 0 0 .74 1.44 12.22 12.22 0 0 0-.7-2.61c-.28-.82-.53-1.65-.76-2.48s-.49-1.73-.7-2.6-.33-1.67-.49-2.51h.18q1.91 6.15 3.8 12.3l.39-.12q-1.56-4.79-3.08-9.59zm15.34-27.48l.22.15a7 7 0 0 0 .82-1.64c.55-2.82 1-5.65 1.52-8.49.07-.39.18-.78.27-1.17l.29.07c-.5 3-1 6-1.49 9l.27.06c1.3-1.89.78-4.28 1.47-6.34l.27.06-.69 5c1.5-1.1.86-2.82 1.68-4L95 95.8l.28.08a11.45 11.45 0 0 0 .95-2.68c.34-3.41.54-6.84.79-10.26 0-.26.07-.53.11-.79.56 4.12-.07 8.16-.52 12.26a1.74 1.74 0 0 0 .77-1c.54-3.09 1.25-6.18 1.48-9.31a85.75 85.75 0 0 0 0-10.39 34 34 0 0 0-2.58-12.64C95 58.39 94 55.56 92.91 52.78c-.49-1.23-1-2.46-1.45-3.7s-.91-2.6-1.34-3.91c-.18-.57-.31-1.17-.46-1.75h-.23v2.13c-.08 2.78-.09 5.57-.28 8.35-.24 3.55-.6 7.09-1 10.62s-.45 7.16-1.34 10.56c-1.24 4.67-3.11 9.17-4.73 13.74-.93 2.64-1.9 5.28-2.83 7.93-.16.45-.06 1-.26 1.43a16.42 16.42 0 0 0-1.29 7 4.64 4.64 0 0 0 .16.81h.18l.37-1.48c.68 1.19-.63 2.52.61 3.77.6-3.09 1.18-6 1.75-9H81a2.69 2.69 0 0 1 0 .63c-.48 2.49-1 5-1.45 7.46-.14.79-.14 1.61-.2 2.41h.33l1.69-7.78.37.07c-.39 3.1-1.4 6.11-1.54 9.25.73-1.79.58-3.8 1.43-5.56a1.42 1.42 0 0 1 .05.73c-.36 2-.75 4-1.09 5.93a8.4 8.4 0 0 0 0 1.42h.28l1.13-5.67.36.07c0 .29 0 .59-.09.87-.33 1.7-.7 3.39-1 5.1a9.49 9.49 0 0 0 0 1.6h.38c.24-1.33.47-2.66.72-4a15.69 15.69 0 0 1 .49-2c.19-.53.64-1 .78-1.5 1-3.55 1.85-7.11 2.78-10.67a4.93 4.93 0 0 1 .29-.72l.3.1-3.37 12.92.28.1a12.72 12.72 0 0 0 .83-1.9c.72-2.84 1.38-5.7 2.07-8.55.15-.6.32-1.19.48-1.79l.37.09-1.87 8.32c1.55-1.43 1.15-3.49 1.74-5.21h.24l-.4 3.25c1.34-1.25 2.48-2.4 2.8-4.11q1.08-5.84 2.17-11.67c0-.2.11-.4.16-.6l.36.08q-1.15 6.35-2.29 12.67zm-49.44 1.54l.27-.11c-.32-.82-.66-1.64-1-2.47s-.59-1.75-.86-2.64-.43-1.61-.65-2.41l.33-.1 2.16 6.79.21-.06L40.45 97l.3-.08c.09.22.19.43.27.64.7 2.11 1.38 4.23 2.1 6.33a8.3 8.3 0 0 0 .75 1.37c.05-1.17-.79-2.11-.47-3.26l.8 2.31.28-.08c-.34-1.3-.63-2.6-1-3.88-.33-1.07-1.47-1.88-1-3.22.08-.2-.17-.51-.27-.77-.29-.72-.6-1.43-.86-2.15a5.37 5.37 0 0 1-.14-1l.29-.07c.5 1.45.96 2.86 1.5 4.32a41.08 41.08 0 0 0 1.8 4.14c.7 1.32.8 3 2.15 3.93-.87-1.43-1.33-3-2.12-4.52a35.41 35.41 0 0 1-1.69-4.87c-.59-1.57-1.27-3.09-1.91-4.64l.23-.12c.88 1 .79 2.73 2.6 2.93a11.46 11.46 0 0 0-.56-1.65 20.59 20.59 0 0 1-2.59-11 3.16 3.16 0 0 1 .34-.84 3.39 3.39 0 0 1 .62.7c.68 1.38 1.29 2.8 2 4.15a9.33 9.33 0 0 0 1.29 1.54 68.55 68.55 0 0 0-6-13.08A13.46 13.46 0 0 1 41.1 77c1.7 3.6 3.32 7.24 5 10.85a12.87 12.87 0 0 0 1.21 1.83l.34-.19-1.31-2.86A.76.76 0 0 1 47 87c.41.93.76 1.89 1.19 2.81a11.33 11.33 0 0 0 .81 1.34l.4-.23-4.35-10.81c2.31 3.72 3.5 7.92 5.2 11.9l.4-.17q-2.05-5.22-4.1-10.43l.25-.12a5.12 5.12 0 0 1 .39.73c1.24 3.29 2.46 6.59 3.71 9.88a7 7 0 0 0 .67 1.1l.36-.21-3.27-8.54.24-.11a13 13 0 0 1 .59 1.18c.94 2.49 1.84 5 2.79 7.46a14.76 14.76 0 0 0 .79 1.46l.36-.18-2.73-6.76.4-.15 3 7.47a12.1 12.1 0 0 0-.31-1.68 80.21 80.21 0 0 0-6.41-17 43.35 43.35 0 0 0-2.73-4c-.1-.15-.27-.32-.27-.48.06-1.39-1-2.34-1.67-3.23a72.19 72.19 0 0 0-6.27-6.94c-2.76-2.7-5.73-5.18-8.52-7.85-1.5-1.44-3.11-2.88-3.71-5-.34-1.2-.58-2.42-.87-3.63a3.11 3.11 0 0 0-.34 1.41c.06 2.84.1 5.69.24 8.54.23 5 .7 9.9 2.57 14.55 1.27 3.15 2.73 6.22 4.17 9.3 2.54 5.39 5.14 10.71 7.64 16.09.66 1.41 1.11 2.91 1.66 4.37h.07l-.1-.89.22-.09zm38.1-9.39l.44.06a5.52 5.52 0 0 0 .12-.8c0-.7-.1-1.4-.08-2.1 0-1 .12-1.91.19-2.87 0-.24 0-.64.11-.69.69-.32.44-.88.39-1.36-.21-2.25-.47-4.49-.7-6.74a5.49 5.49 0 0 1 .05-.9h.31l1 10.94h.23a12.78 12.78 0 0 0 .37-2.42c-.1-2.59-.31-5.18-.47-7.78v-1h.32q.31 3.75.64 7.5h.26c.74-2.33 0-4.72 0-7.08h.33l.48 4.53c1.27-2-.18-4.06.51-6.06l.48 3.28h.39v-3.4h.26l.26 1.32h.28a9.53 9.53 0 0 0 .41-2.49c-.24-2.58-.64-5.14-1-7.72a5 5 0 0 1 .06-.86h.25l.81 7h.31c-.12-2.15-.15-4.31-.37-6.45-.48-4.74-1-9.47-1.61-14.19-.77-5.79-2.44-11.43-2.75-17.3a38.51 38.51 0 0 1 .75-11.33c.35-1.41.48-2.87.71-4.31l-.27-.06-.22.45c-.78 1.75-1.5 3.52-2.35 5.24-1.36 2.74-2.8 5.44-4.2 8.16a11.73 11.73 0 0 0-1.59 6.38c.14 1.75.39 3.49.59 5.24 0 .23.07.46.11.75l.85-.77c-.21 1.46-1.16 2.59-.5 4.15l1-3.76.35.1L75 52l.22.07 1.33-3 .23.09c-.18.49-.36 1-.53 1.45a39.29 39.29 0 0 0-1.44 4.29 59.52 59.52 0 0 0-1.11 6.76c-.51 5-1 10.09-1.3 15.15-.16 2.46 0 4.94.07 7.41 0 .45.09.9.13 1.35a7.19 7.19 0 0 0 .4-1.76c.08-.52.17-1 .26-1.55h.33c-.35 3.42-1 6.85.08 10.24.09-1.88.06-3.76.1-5.63 0-2.3.64-5.12 1.22-5.51-.23 1.46-.51 2.78-.65 4.13s-.19 2.77-.2 4.17.09 2.72.15 4.07a10.75 10.75 0 0 0 .62 4v-8a4.47 4.47 0 0 1 .15-1.09 8.14 8.14 0 0 0 .45-1.4c.2-3.3.34-6.61.52-9.92a2.77 2.77 0 0 1 .27-.76l.25.07a4.16 4.16 0 0 1 0 .61c-.17 2.07-.33 4.13-.55 6.19s.08 4-.53 6.09a13.83 13.83 0 0 0-.17 4.6c.07 1.38.38 2.76.58 4.14l.42-.08-.92-4.81.61.43.24-4h.36v2.58h.24l.37-1.88h.21l.09 1.52h.28l.22-3.37h.43v2.6h.38v-3.11h.44zM102 78l.36.09c-.31 1.11-.62 2.23-.92 3.34a5.55 5.55 0 0 0-.13.71c.87.11.3.69.22 1-.62 2.17-1.31 4.31-2 6.47a6.37 6.37 0 0 0-.17.87l.38.1 1.84-4.89h.16l-.13 1 .24.07c1.06-5.14 2.14-10.27 5.22-14.69a11.65 11.65 0 0 1-.59 4 40.49 40.49 0 0 0-.75 4.1c-.19 1.41-.32 2.83-.39 4.25s0 2.71 0 4.06h.14l1.2-4.69.37.09c-.35 1.54-.7 3.08-1.1 4.86l.72-.76.18.09-2 6.44-.3-.08c0-.23.07-.45.13-.67.31-1.07.64-2.13.92-3.21 0-.19-.13-.44-.2-.67l-.29.07-1.29 7.05.24.07c.74-1.73 1.48-3.45 2.23-5.18h.15l-.67 2.9.22.09a6.28 6.28 0 0 0 .66-1.42c.46-2.26.68-4.59 1.28-6.81a67.37 67.37 0 0 0 2.87-15.27c.22-5.7.41-11.39-1-17-.93-3.65-1.71-7.35-2.87-10.92-1.28-3.94-3-7.73-4.37-11.63a14.29 14.29 0 0 1-1-7.18c.13-.8.18-1.62.26-2.43a17.55 17.55 0 0 0-1.38 3.11C99 29.47 97.68 33.53 98 38.07a105.47 105.47 0 0 1-.44 18.46 21.2 21.2 0 0 0 .32 7c.6 2.52 1 5.08 1.52 7.63 0 .18.11.36.16.54a2.62 2.62 0 0 0 .39-1.09c.45-3.09.89-6.18 1.36-9.27.08-.53.24-1.05.37-1.58l.31.08c-.4 3-.77 6-1.21 9a60.71 60.71 0 0 0-1 6.2c-.09 2.06.5 4.14.06 6.22 0 0 .06.08.19.26l1.68-6.64.39.11q-1.42 5.61-2.84 11.23l.33.08zm-48.15-2.83h.22l2.55 5.66.44-.16c-.14-1.81-1.47-3.28-1.81-5l.25-.11L57.07 79c1.21-1.68-.24-2.9-.17-4.34l.81 1.51A1.37 1.37 0 0 0 58 74.5q-2.3-4.92-4.55-9.84a2.1 2.1 0 0 1-.09-.5l.31-.14 4.58 9.92.35-.11a8.64 8.64 0 0 0-.35-1.62c-1.06-2.44-2.17-4.85-3.26-7.27a3.92 3.92 0 0 1-.15-.59l.31-.11c1.18 2.66 2.35 5.32 3.53 8l.39-.12a5.32 5.32 0 0 0-.27-1.52c-.71-1.47-1.53-2.9-2.28-4.35a8.06 8.06 0 0 1-.38-1.11l.22-.07 2.71 5.18.35-.13a3.48 3.48 0 0 0-.18-1c-.4-.84-.87-1.64-1.3-2.46-.13-.27-.22-.55-.33-.83l.31-.13 1.59 3 .31-.09c-.34-1.08-.68-2.15-1-3.22l.24-.09.9 2c.62-1.08.84-3 .45-3.57-1.17-1.82-2.37-3.61-3.52-5.44-2.11-3.35-4.31-6.64-5.44-10.5-.31-1.07-.78-2.08-1.16-3.13a39.1 39.1 0 0 1-2.68-13.1c0-2.85-.4-5.69-.63-8.73-.16.36-.26.54-.32.73-1.12 3.79-2.31 7.56-3.32 11.38-.9 3.39-2.48 6.61-2.48 10.23 0 3.22-.28 6.49.64 9.59a75.9 75.9 0 0 0 3.32 8.72A135.11 135.11 0 0 1 51.91 83c.26 1 .63 2 1 3l.21-.06-.57-3 .29-.05.79 1.75a32.8 32.8 0 0 0-1-3.75c-.39-1.17-.83-2.31-1.25-3.47l.45-.15 3.51 9.46a5.39 5.39 0 0 0-.34-2.28c-1.25-3.26-2.56-6.49-3.83-9.74a12.49 12.49 0 0 1-.35-1.37h.23L55.7 84.5l.31-.08a28.82 28.82 0 0 0-.81-2.83c-.85-2.16-1.79-4.28-2.68-6.42a1.74 1.74 0 0 1 0-.56c1.4 2.54 2 5.39 3.91 7.64a3.62 3.62 0 0 0-.26-1.44c-.66-1.53-1.37-3-2-4.57a6 6 0 0 1-.32-1.07zM86.41 46h.25c.3 3.53.59 7.06.89 10.6h.31v-7.18h.3l.22 1a15.76 15.76 0 0 0 .43-3.26v-5.85a5.83 5.83 0 0 1 .24-1.16h.27l1.17 3.18a4.77 4.77 0 0 0 .09-1.71c0-.56-.09-1.12-.15-1.67h.36c.08.76.17 1.53.26 2.29.17 1.32-.44 2.74.49 4a7.56 7.56 0 0 0 .62.64l1 3.87.35-.07L90 27l.32-.06c.07.28.16.56.21.84.54 3.39 1.08 6.78 1.6 10.17.7 4.55 1.4 9.09 2 13.65a8 8 0 0 0 1.16 3.63c0-.34 0-.49-.05-.63-.41-3.07-.83-6.13-1.24-9.19a6.27 6.27 0 0 1 .07-1c.21.2.28.24.29.29.46 3.95.91 7.92 1.39 11.87a10.53 10.53 0 0 0 .39 1.54l.42-.09-1.23-9.88h.32l.92 5.64a2.2 2.2 0 0 0 .33-1.36c-.34-3.26-.62-6.53-1.12-9.77C94.94 37.19 94 31.73 93 26.29c-1.3-7.19-2.67-14.37-4-21.55a1.27 1.27 0 0 0-.15.35c-.32 1.92-.72 3.83-.92 5.77-.68 6.73-1.28 13.47-3 20.07a44.15 44.15 0 0 0-1.22 11.68c0 .25 0 .66.08.71 1 .42.46 1.25.51 1.88.12 1.6.15 3.21.23 4.82a10 10 0 0 0 .16 1.1c0 .35.13.7.2 1.05.23-2.3-.23-4.56.08-6.81h.35L85.7 55h.07c.23-3 .43-6 .64-9zM113 73.39l-.35-.07.18-1c.56-2.71 1.25-5.41 1.65-8.15.67-4.49 1.15-9 1.72-13.52a18.92 18.92 0 0 1 .58-3.94 15.65 15.65 0 0 0 .91-6.15c-.15-2.86.07-5.75.17-8.63.13-3.64.28-7.29.47-10.94.15-2.76.41-5.53-.41-8.36a2.6 2.6 0 0 0-.26.46c-.9 2.66-1.85 5.3-2.65 8-1.13 3.75-2.2 7.52-3.17 11.32s-1.75 7.34-3.69 10.64a3.79 3.79 0 0 0-.23 1.15h.19l.54-1c.16.42.23.91 0 1.07-.64.53-.23 1-.09 1.53.46 1.66.91 3.33 1.37 5 .06.21.14.42.21.63h.23v-1.75h.4c.41 1.62-.49 3.38.25 5a5.14 5.14 0 0 0 .28-1.37c.19-2.37.36-4.75.57-7.12a3.36 3.36 0 0 1 .29-.82c.28.19.35.28.34.36-.37 3.31-.76 6.63-1.11 10a9.33 9.33 0 0 0 .06 1.49h.33l1-8.28h.4c-.29 3.69-1.13 7.33-1.25 11 .92-2.75.81-5.69 1.65-8.44.17.1.24.19.22.27-.51 3.23-1 6.46-1.54 9.7-.2 1.26-.3 2.54-.45 3.81h.37l.31-1.74.32.06q-.63 3.93-1.24 7.86l.33.06c.63-2.72 1.27-5.44 1.9-8.15l.39.1L111 77h.2c.29-1.07.59-2.14.88-3.21l.33.07a5.46 5.46 0 0 1-.18 1c-.74 1.93-.55 4.12-1.89 5.92-.5.68-.4 1.82-.58 2.75l.2.06c.52-1.43 1-2.86 1.57-4.28l.38.14q-1.35 3.88-2.72 7.77l.22.08q1.17-3.12 2.36-6.22l.37.14-2.79 7.51.38.13a82.22 82.22 0 0 0 3.58-9.81c.87-3.38 1.57-6.8.81-10.34-.35 1.62-.75 3.15-1.12 4.68zM73.6 37.76a1.6 1.6 0 0 0 .07-1.89 10.06 10.06 0 0 1-.71-1.8c-.64-2-1.12-4.05-1.9-6-2.06-5.14-4.26-10.25-6.4-15.38-.06-.13-.15-.24-.31-.51-.09.52-.17.88-.21 1.23a93.63 93.63 0 0 1-2.75 15 38.76 38.76 0 0 0-1 18.71 35.11 35.11 0 0 1 .7 5.69c.09 2.84 0 5.69-.07 8.53a2.17 2.17 0 0 0 .27.73h.31a11.32 11.32 0 0 0 .3-2c-.07-2.17-.21-4.33-.32-6.49v-1H62c.24 2.28.24 4.58.41 6.86v-8.3c.73 2.24.47 4.58.75 6.89a2.83 2.83 0 0 0 .35-1.24c0-1.55-.09-3.09-.13-4.64a2.52 2.52 0 0 1 .08-.54h.24l.3 3.59h.27a6.18 6.18 0 0 0 .27-1.66c-.4-3.78-.86-7.55-1.3-11.33-.09-.69-.17-1.39-.25-2.09h.32a102 102 0 0 1 1.77 12.52 16 16 0 0 0 1-4.44c0-1.93-.24-3.88-.37-5.82 0 0 .12-.11.34-.3.11 1.88.21 3.63.32 5.37h.25a25 25 0 0 0-.17-6.28h.31c.13 1.1.27 2.21.41 3.31h.28a110 110 0 0 0 .27-14.64l-.17 1.41-.09-.05c-.56-3-1.11-6.07-1.67-9.1l.38-.08 1.45 7.22.25.06a3.7 3.7 0 0 0 .31-1.3c-.14-1.1-.4-2.19-.62-3.28-.14-.72-.3-1.44-.46-2.16l.31-.08c.13.45.3.89.4 1.34.39 1.72.72 3.45 1.15 5.16a11.86 11.86 0 0 0 .79 1.84l.27-.11-1.23-5.08.27-.09a4.69 4.69 0 0 1 .38.86c.41 1.74.72 3.51 1.2 5.23a19 19 0 0 0 1.18 2.61l.3-.13c-.46-1.67-.93-3.33-1.39-5L71 29c.06.07.15.12.18.19q.74 2.44 1.45 4.89a1.33 1.33 0 0 1 0 .44 2.48 2.48 0 0 0 0 .86c.24.8.59 1.52.97 2.38zm66.93 70.76v.26c-1.09.73-2.85.28-3.58 2.15.65-.23 1.08-.39 1.51-.51s.8-.17 1.2-.25a1.17 1.17 0 0 1-.71.51 4.12 4.12 0 0 0-3.21 2.62 23.24 23.24 0 0 1-1.38 2.71c3.08-1.52 5.93-2.79 9.08-3.11-1.69.63-3.43 1.11-5.12 1.73-2.45.9-4.48 2.1-4.59 2.51 2.35-1 4.56-2.4 7.16-2.83-2.77 1.29-5.7 2.23-8.14 4.15a28.7 28.7 0 0 1 6.36-2.62c-2.45 1.18-5 2.14-7.1 3.93 2-.79 3.77-2 5.87-2.37a34.7 34.7 0 0 0-6.84 3.82 13 13 0 0 0 1.89-.89c.63-.32 1.27-.63 1.93-.91s1.24-.46 1.86-.69a36.46 36.46 0 0 0-11.72 8.83 41.22 41.22 0 0 1 11.8-6.87c3.29-1.32 6.67-2.4 10-3.6a39.55 39.55 0 0 0 9.18-4.57 26.34 26.34 0 0 0 6.93-7.21c-.71.21-1.26.36-1.81.54a19.87 19.87 0 0 1-13 .27 14 14 0 0 0-8.06-.18 4.39 4.39 0 0 0-1.05.59l.14.29c.76-.2 1.52-.44 2.28-.61s1.53-.27 2.3-.4v.3c-.93.19-1.87.35-2.79.56a3.39 3.39 0 0 0-2.46 1.34l3.71-1.1.11.33c-1.47.5-3.07.68-4.25 1.86zm-112 4.89l.15-.11a4 4 0 0 0-1-.82c-1.77-.68-3.58-1.3-5.37-2l-.92-.34.15-.4 6.4 2.13c-.65-1.1-1.79-1.32-2.72-1.66-7.9-2.9-15.81-3.17-22.61-.41.63.13 1.13.23 1.64.35a64.6 64.6 0 0 1 6.9 1.77c8.22 3 15.31 8 22 13.56 2.11 1.78 3.71 4.23 6.77 5 1.82.44 3.38 1.94 5.07 3l-.1.18-5.34-2.93-.13.26c3.34 2 6.62 4.19 10.57 5-2.27-1.5-4.58-2.9-6.91-4.29s-4.68-2.77-7-4.15l.08-.2 3 1.44c-1.48-1.94-3.86-2.45-5.77-3.8l.22-.43-3.93-2.11.12-.24 5.59 2.77.11-.21-6.39-3.3.16-.31 5.92 3 .18-.34-5-2.62.11-.23 3.7 1.75.15-.32-3.33-1.66.11-.3 2.36.94.34-.42a10.27 10.27 0 0 0-1.38-.91c-1.81-.84-3.65-1.63-5.47-2.44l-.79-.31.13-.37c1 .35 2 .64 2.95 1s1.92.92 2.87 1.38l.15-.23a9.09 9.09 0 0 0-1.4-1c-1.64-.71-3.31-1.36-5-2-.35-.15-.68-.34-1-.51l.14-.33 6 2.45.13-.28-2.45-1.33.09-.19 1.39.41.12-.23-3.28-1.84.14-.26 2.17 1.13.16-.21a2.5 2.5 0 0 0-.56-.64 14.61 14.61 0 0 0-2.07-1c-2.69-1-5.39-2-8.09-2.93-.32-.12-.61-.29-.92-.44l.17-.37zm101.58-55.15l.36.13c-.1.3-.19.61-.29.91-.73 2.19-1.5 4.38-2.19 6.58a4.94 4.94 0 0 0 0 1.44h.15l1.64-5.08.34.11c-.28.9-.6 1.79-.82 2.7s-.33 1.82-.49 2.72h.3l.82-2.12h.08l-.33 4.3h.26c.58-1.65 1.14-3.31 1.77-4.94s.8-3.33 1.63-4.82l.39.14q-1.59 4.6-3.17 9.21l.37.14a37.12 37.12 0 0 0 2-4.93l.33.13-3 8.49.25.09 1.93-5.18.24.09-1.22 4 .22.07 1.14-2.62.24.12-2.87 8.06.24.11c.25-.41.73-.82.73-1.23 0-1.94 1.27-3.36 1.66-5.12l.34.12-1.24 3.38a24.55 24.55 0 0 0 1.73-3.07 58.26 58.26 0 0 0 4.6-15.59c.54-3.2.83-6.44 1.33-9.65.33-2.08.84-4.13 1.25-6.12a4 4 0 0 0-.35.39c-3 3.93-6.1 7.85-9.11 11.81a20.74 20.74 0 0 0-3.6 9.26l1.81-4.74.42.15c-.76 2.42-2.16 4.65-2.46 7.19l.23.07zm7.48 63.26l-.21-.22c-3.5.51-16.18 9.31-17.45 12.23.95-.24 1.82-.43 2.66-.68 2.4-.72 4.86-1.29 6.67-3.22 1-1.06 2-2.12 3-3.15 1.43-1.44 2.89-2.87 4.35-4.28a7.33 7.33 0 0 1 .98-.68zm-47.35 30.89l-.25-.16c.31-.95.63-1.91 1-2.86l-.22-.08-1.09 2.32-.26-.12.62-1.87-.24-.09-.71 1.45-.24-.09a4.66 4.66 0 0 0 .12-.65c0-.2 0-.57-.06-.58a5.54 5.54 0 0 0-1.62-.09c-.19 0-.39.47-.47.76a5.32 5.32 0 0 0-.11 1.07c-.78-1.95-.94-2.2-1.35-1.85v.63l.48-.65.14 2.23c-1.31-.48-1.35-1.47-1.23-2.54h-.31l-.19 1.74h-.33l-.17-2c-1.65.38-2 .92-1.68 2.46a20.36 20.36 0 0 0 .72 3.06 6.21 6.21 0 0 0 1.38 1.9 1.36 1.36 0 0 0 1.16.29c.21-.07.25-.69.36-1.06s.13-.58.19-.88l.38.08-.21 2.17.16.06 1.26-2.77.31.14-1.13 2.9.32.15L88.6 154l.3.13-1.39 3.41.72.15c.52-1.64 1-3.21 1.53-4.77 0-.09.23-.13.35-.19 0 .15.17.32.14.45-.18.67-.39 1.32-.59 2 2.07-1.5 2.78-3.67 3.21-6l-.21-.11-1.42 3.69-.29-.11c.37-1.18.75-2.36 1.13-3.53l-.36-.15zm2.32 12.13h.24c.09-.19.19-.37.27-.56a5.77 5.77 0 0 0-.43-5 6.69 6.69 0 0 1-.31-1l.31-.09a13.7 13.7 0 0 1 1.19 3.12 14.46 14.46 0 0 1-.32 3.41c.14 0 .27-.06.29-.12.82-2.1 1.21-4.22 0-6.34-.1-.18-.29-.44-.43-.44a14.36 14.36 0 0 0-2.63.18c-1.76.38-3.44 1.39-5.31.41a2.24 2.24 0 0 0-1-.16c-.68 0-1.34 1.05-.92 1.44 1.1 1 2.28 2 3.43 3l.21-.22-.93-1c.84-.17 1 .33 1.24.75s.59 1 .89 1.53l.25-.15-.6-2.3.28-.09c.52 1 .66 2.25 1.56 3.08l-.5-1.92.31-.07a10.49 10.49 0 0 0 .86 2c.25.38.82.54 1.25.81a5.33 5.33 0 0 0 .54-1 16 16 0 0 0 .35-1.7l.31.06zm3.1 2.76h.26v2.7h.22l.46-3.57h.32l-.34 3.58h.17l.58-3.37.28.05c-.09 1-.17 2-.26 2.95h.2c.24-.85.47-1.69.7-2.54l.24.06-.12 1.58h.12l.9-2.12.21.07-.18 1.72h.19l1.19-3h-7.7a1.61 1.61 0 0 0-.87.42c-.58.46-1.09 1-1.67 1.44a2.19 2.19 0 0 0-.67 2.88c.28.55.5 1.14.75 1.73l.51-.65.23.12-.89 1.83.25.16 1.67-2.13.23.16-1.64 2.82.32.22 2.37-3 .26.2-2.3 3.1a.71.71 0 0 0 .69-.15c.63-.8 1.22-1.63 1.83-2.44.18-.24.38-.47.54-.73a3.49 3.49 0 0 0 .63-1.12c.17-.96.22-1.97.32-2.97zm-12.74 6.44a11 11 0 0 0 .58-2.33 2.68 2.68 0 0 0-.69-2.27l-.13 2.37h-.38V169h-.24l-.15 1.39-.31.14c.32-2.21-1.35-2.67-2.66-3.49a13.31 13.31 0 0 1-1.45-1.37 5.34 5.34 0 0 0-.68-.48v6.41c0 .3.31.6.48.9a14.35 14.35 0 0 1 .08-5.35 13 13 0 0 0 1.11 6.23 14.58 14.58 0 0 0-.13-2.3c-.07-.76-.12-1.53-.18-2.29h.28c.37 1.06 0 2.33.77 3.47l.11-1.67h.26a7.48 7.48 0 0 0 .61 2.82l.26-.08c0-.3-.13-.59-.15-.89a7.63 7.63 0 0 1 0-.82h.24c.12.58.23 1.17.37 1.76.21.92.31 1 1 1.24a2.61 2.61 0 0 1-.12-2.71c.17.7.33 1.39.5 2.08zm-6.33-18.67l.36-.16.92 1.75.29-.12-.27-.95c-.19-.63-.87-1.1-.43-1.94.2-.38-.95-1.6-1.58-1.73l.67 1.41-.22.13-1.17-1.3.3 1.11a3.33 3.33 0 0 1-.89-.72 2.65 2.65 0 0 0-1-.54c-1.14-.23-2.31-.32-3.44-.56-.95-.2-1.87-.52-2.95-.84l.5 1.44.46-.4 1.46 3.22.2-.09-.75-1.93.32-.13c.21.46.39.93.62 1.37s.53.85.79 1.27l.26-.16-.75-1.65.3-.16 1.23 2.09.18-.1-.48-1.44.22-.09 1.1 2 .11-.06-.71-2 .28-.1 1.55 3 .25-.14-1-2.44.25-.11c.77.91.82 2.31 2 3l-1.19-2.79.33-.13 1.61 3.21.21-.12-.83-2.07.3-.1 1.36 2.52.22-.14zm-7.4 3.81l.3-.23.68.84.12-.21a4 4 0 0 1 .65.47c.73.82 1.43 1.66 2.14 2.5l.14-.13-1-1.38.21-.18c1.41 1.33 2.62 2.92 4.53 3.6-1.22-1-2.66-1.69-3.28-3.26l.79.46-.35-1-.35-.95.67.12c.15-.95-.26-2.1-.84-2.33-1.23-.48-2.48-.9-3.7-1.41a16.75 16.75 0 0 1-1.58-.93c-.34-.19-.69-.33-1.23-.58a5.35 5.35 0 0 0 .12.74c.8 1.8 1.58 3.61 2.42 5.39a4.11 4.11 0 0 0 2.23 2.24zm31.33-7.57l-.32-.11.58-2.63h-.16l-1.08 1.89-.24-.16.72-1.92c-1.45.15-1 1.72-2.11 2.21l.68-2c-.79-.21-.85-.18-1 .45-.24.83-.51 1.65-.71 2.49a8.84 8.84 0 0 0-.1 1.37h.19l-2 2.55.23.2 2.25-2.6.19.15-.64 1.28.17.11 1.1-.89-.39 1.68 1-.7.16.18-.6 1.14c2.73-1.87 3.71-4.85 4.76-7.51l1-.07c-.77-.7-1.5-.46-1.82.35-.49 1.26-1 2.53-1.5 3.78a6.57 6.57 0 0 1-.79 1.13l-.2-.13a15.35 15.35 0 0 0 2-5.39l-.32-.12zM68 164l.25-.18c.17.24.37.47.53.72.71 1.12 1.39 2.25 2.12 3.36a3.09 3.09 0 0 0 .68.55l.16-.16-2.34-3.4.22-.15 2.14 2.82.17-.15-1.2-2.07.2-.12 1.53 2 .12-.09-.65-1.39.19-.11.73.91a2.49 2.49 0 0 1 1.88-1.58 2.3 2.3 0 0 0-.9-.47 6.72 6.72 0 0 1-5.32-4c-.07-.15-.24-.25-.37-.4-1.13 3.09-1 4.09 1.12 6.07zm12.45 2.79l.25-.29c.5.4 1.34.72 1.44 1.2.21 1.07 1 .76 1.59.92l-.89-.75.12-.27a7.1 7.1 0 0 1 2.12.08 12.27 12.27 0 0 1 2.24 1.39l-.28-.66.16-.18 1.58 1.14c0-.18 0-.42-.05-.49a19 19 0 0 0-2.37-1.88 10.86 10.86 0 0 0-2.61-1.15c-1.86-.57-3.65-1.6-5.7-.94.06 1 2.29 2.73 3.67 2.89zm23-8.16l-.16-.28-2.44 2a.17.17 0 0 0 0 .16c.53.85-.29 1-.69 1.42s-.62.5-.93.74l.2.29 2.91-1.88.1.15-.44.55.07.06 1.55-1.06.19.27-3.52 2.79.17.24 4.14-3 .21.31-3.84 2.79c3-.47 4.09-3.59 6.51-4.87-1-.12-1.84-.25-2.71-.32a1.87 1.87 0 0 0-1 .14c-.57.32-1 .76-1.59 1.13a4.3 4.3 0 0 1-.65.3l-.11-.19zm1.25-4.5l.07.2a19.68 19.68 0 0 0 2.37-1 7.78 7.78 0 0 0 1.76-1.48 10.24 10.24 0 0 0 1-1.66l-.92.08.38-.82-.14-.08-1.06 1.25-.22-.13.43-1.12c-.43.3-.83.79-1.15.75-1.22-.17-1.59.79-2.2 1.45l1.28-.9.12.15-1.54 1.47.87-.06.06.17-2.4 1.69.07.13 1.78-.81.09.22zm-4.14 14.29l.26.17 1.8-2.1.24.17-1.25 1.81.19.17 1.93-2.36v1.16l.81-1.38.2.08v.86a2.08 2.08 0 0 0 0-3 5.8 5.8 0 0 1-1.46.79c-2.09.37-2.28 2.09-2.74 3.63zm7.18-11.19c-.69-1-2.73-1.27-4-.52-.24.15-.54.44-.54.66s.31.48.55.63c1.51 1 3.1.75 4.7.26v-.29l-1.66-.26v-.14zm-11.66-6.32l.25.11a16.62 16.62 0 0 0 .6-2.25c0-.26-.52-.87-.59-.84a4.93 4.93 0 0 0-1.88 1.13 7.71 7.71 0 0 0-.8 2.13c-.16.42-.37.82-.5 1.1.37-.27 1.24-.76 1.19-.89-.56-1.42 1-1.75 1.25-2.76.11 1.82-1.19 3.18-1.6 4.82l.32.14c.71-1.6 1.43-3.2 2.14-4.81l.25.1zm-.8 6.88l.93 2.91h.12v-2.66h.27l.49 1.93h.2l.26-2.09.19-.05.48 1.2h.15v-1.24l.9-.32-.1-.32zm-18-6.1l-.21.17c.16.28.34.54.48.83s.48.71.41 1c-.27 1.15.62 1.79.91 2.68l.24-.09-.81-1.8.28-.15 1.31 2.11.22-.09a7.62 7.62 0 0 0-.54-1.61c-.58-.95-1.27-1.82-1.92-2.71a2.91 2.91 0 0 0-.42-.34zM84 169.45c-.19 1.27-.41 2.44-.5 3.62 0 .28.42.6.65.89.14-.13.42-.27.42-.4 0-1.22-.12-2.44-.22-3.65-.03-.18-.27-.34-.35-.46zM86.68 51c-.51 2.75-.35 6.27.37 6.74zM43 94.49l2 5.56c.35-1.16-.79-4.26-2-5.56zm51.18 63c.53 2.06 1.54 3.82.41 5.75 1.4-1.78.65-3.62.27-5.44.01-.14-.29-.18-.65-.34zm7.62 14.47l-2.59 1.51v.07l1.35-.4.09.22-2.1 1.15a3.71 3.71 0 0 0 3.28-2.58zm-18.62-11.67a5.52 5.52 0 0 0 .23.53c.5.85 1 1.71 1.5 2.55.07.12.22.18.33.27.45-.69.6.33 1.22.1zm20.32-11c-.78 1.62-1.53 3.15-2.28 4.67.78-.41 2.2-3.22 2.28-4.71zm10-67.75l-.3-.1c-.64 1.66-1.29 3.33-1.94 5l.32.12zm39.07 20.15l-.21-.16-2.91 4 .31.22zm-38 9.76l.23.22 2.84-3.31-.2-.17zM101 83.92h-.22l-1.42 4.27.32.1zm-11.93 61.6l.22.12 1.26-2.15-.32-.18c-.95.44-.88 1.42-1.17 2.21zM118.82 106l-.24-.22-2.24 2.62.23.2zM76.9 94.43h-.32l.15 2.85h.35zm21.27 69.74l.17.31 3.33-2.26-.13-.19zm6.41-40.69l-.37-.16-1 2.34.36.15zM80.21 151l1.47 2.56c-.12-1.38-.8-2.56-1.47-2.56zm6.35-5.65l.37.2 1.13-2.09-.34-.18zm6.19 29.42c.62 0 1.9-1.68 2.14-2.8zM64.48 152l-.24.19 1.89 2.34.28-.22zm29.88-10.37l-.31-.18-1.22 2.12.31.18zm-21.5 8.16l-.19.44 1.8.72.14-.33zm3.88-46.9H77v-3h-.23zm22.79 19.79l.36.19.93-2.47-.29-.11zm-7.78 33.58c1.52-.45 1.84-.79 1.61-1.7zm-26.17-5.4c.32-.67 0-.89-1.46-.92l-.11.24zm27.32 0l.37.14.77-1.91-.37-.16zm36.64-78.06l.38.11.58-2.52-.26-.07zM79 151.3c.24.72.34 1.37 1.32 1.13-.45-.35-.21-1.32-1.32-1.13zm10.16-7.78l-.35-.14-1.06 2.05.31.15zm13.77 26.22l.24.14 1.41-2.26-.3-.18zm-57.11-63.61l.35-.2-1-1.83-.26.14zm49.5 35.59l-.3-.13-1 1.91.26.13zM86.68 51l.37 6.74"/><path d="M57.78 147.06l-4.07-1a5.29 5.29 0 0 1 1-.09c1.3.21 2.6.45 3.9.71.16 0 .29.26.43.4zm43.44 6.86c.75-1.52 1.5-3 2.28-4.67m-11.75 7.02l1.61-1.7M69 83.23c-.5 4.86.78 9.54 1.28 14.3-1-4.71-2.1-9.41-1.73-14.27zm2.12-38.59a65.36 65.36 0 0 1-1 14.91zM72 115.1c.59 3.19 1.18 6.39 1.78 9.58h-.26a57.74 57.74 0 0 1-1.82-9.59zm1.4 1.26l2 9.59a34.69 34.69 0 0 1-2.33-9.54zm-1.71-68.71c0 4 .27 8.1-.79 12.05q.41-6.03.79-12.05zm-2.85 58.62c.8 2.84 1.58 5.6 2.36 8.33-.74-.42-2.69-7.07-2.36-8.33zm9.34 7.73a32.55 32.55 0 0 1 2 8.61c-.76-2.84-1.53-5.69-2.29-8.54zM71 95.6a39.17 39.17 0 0 1-.89-9.72l1.14 9.68zm-11.61-13a39.14 39.14 0 0 1 1.22-6.79l.33.07c-.4 2.26-.81 4.53-1.21 6.79zm13.02-25.85l.41-8.48h.33c-.12 2.83-.25 5.65-.37 8.48zM58 88.75a19.87 19.87 0 0 1 .46-5.44h.26c-.12 1.82-.25 3.63-.38 5.45zm13.91 25.47l-1.64-5.47.38-.11 1.59 5.47zm1.57.78l-1.39-4.62.32-.1L73.8 115zm-1.04-72.66c.07 1.12.13 2.25.2 3.47-.53-.4-.73-2.29-.46-3.45zm3.09 80.07c-.24-1.07-.49-2.14-.74-3.2l.36-.09.75 3.21zm3.18-9.11l.93 2.86-.37.12-.86-2.89zm-4.11.03l-.79-2.79.35-.1.84 2.79zm-3.36-73.8c-.2-.54-.41-1.07-.57-1.62 0-.12.1-.3.16-.45.16.11.43.2.46.33.11.55.15 1.12.22 1.68zM69.8 51.16l-.17 2.5h-.17v-2.51zm7.37 65.71l.86 2.27-.37.13-.83-2.27zm-7.31-35.11v-2.44h.2l.12 2.43zM69 76.13l.28-2h.31l-.19 2zm78.5-1.27c-2.89 3.15-4.62 7-6.71 10.69l-.25-.09a4.6 4.6 0 0 1 .33-1.25c1.2-2 2.44-4.07 3.67-6.1.2-.33.42-.65.63-1l-.23-.16-3.43 5h-.13a9.29 9.29 0 0 1 .65-1.39c.79-1.19 1.58-2.37 2.45-3.49.27-.35.79-.51 1.18-.79a5.56 5.56 0 0 0 .66-.63l1-.92zm-29.1 55.5L128.56 118a98.43 98.43 0 0 1-10 12.56zm15.84-36.45c-.07-2 4.93-11.41 6.62-12.36-2.93 3.74-4.8 8.03-6.62 12.36zm-3.8 12.49a64.44 64.44 0 0 1-7.13 13.23zm-19.26 27.2l8-8.44.27.26-8 8.41zM135 104.81l2.35-9.62a28.07 28.07 0 0 1-2.35 9.62zm-15.54 21.86l-7.62 8c.09-.82 6.07-7.36 7.62-8zm14.8-22.33l2.31-9.47.35.08a53.25 53.25 0 0 1-2.66 9.39zm4.37-9.14c-.61 3.17-.83 6.44-2.41 9.44l2.15-9.49z"/><path d="M139.33 84.78l-3.62 8.3c-.31-.93 2.56-7.62 3.62-8.3zm-17.19 42.58l5.48-6.46a19.71 19.71 0 0 1-5.48 6.46zm3.74-9.86l4.37-8.35c.04 1.06-3.25 7.54-4.37 8.35zm-3.2 6.29l4.54-6.41.31.22-4.6 6.38zm-23.21 14.15l5-4.78.21.21a32.71 32.71 0 0 1-5 4.72zm37.16-44.62a50.35 50.35 0 0 1 2.44-6.79l.29.1-2.46 6.78zm-7.49-.51c.62-2.24 2.15-4 3.42-5.83l.28.17zm-12.07 37.57l-4.41 5.07-.19-.17a35.48 35.48 0 0 1 4.41-5.07zM139.71 88c-.59 2-1.17 3.92-1.76 5.87l-.31-.09a35.48 35.48 0 0 1 1.82-5.78zM113 136.18l3.63-4.28.28.22-3.56 4.33zm17.54-24.88l-2.78 5.41-.27-.15 2.75-5.45zm-1.66 5.59c.74-1.66 1.48-3.31 2.23-5l.32.15-2.24 5zm-23 20.17l3-3.12.21.19a17.43 17.43 0 0 1-3 3.18zm-2.05-8.47l2.92-2.78.1.11-2.76 2.93zm35.02-32.09l.67-3.8.35.06-.63 3.82zm-.18 4.87l-1.08 3.42-.34-.11 1-3.43zm-15.22.96l-1.91 3.37-.28-.14 1.81-3.43zM118 123.91l1.74-2.47.3.22-1.76 2.45zm14.1-34.26l-1.62 2.81-.23-.12a4.3 4.3 0 0 1 1.85-2.69zm3.12-1.28l1.25-2.91.37.16-1.31 2.91zm-10.13 26.56l-1.66 2.7-.26-.15 1.59-2.72zm-9.27 8.52l-1.91 2.38c-.09-.64.71-1.7 1.91-2.38zm20.05-28.64l-.79 2.64-.33-.09.73-2.66zm-7.38 25.25l1.63-2 .25.2-1.58 2zm-25.66 10.55l1.18-1.47.27.2-1.06 1.57zM133.86 107l-1.15 2-.28-.16 1.1-2zm-1.92 6.81c-.26.61-.52 1.22-.79 1.82a1.06 1.06 0 0 1-.6.57l1.18-2.5zm1-7.93l-.86 1.71-.29-.14.8-1.74zm-10.71-44.61c-1.45-4.84-1.85-9.82-2.47-14.77h.36q1.05 7.36 2.11 14.77zm-.33 7.15c1.28 4.67.85 9.44.78 14.19-.32-4.72.02-9.49-.78-14.19zm1.46 1.67a36.94 36.94 0 0 1 .14 11.64l-.36-11.62zM116 103.73l5.1-11 .28.13c-1.38 3.81-3.37 7.35-5.1 11zm7.67-10.22c.5-4 1-7.93 1.47-11.9.08.21.28.46.25.68-.48 3.6-1 7.2-1.5 10.8a2.16 2.16 0 0 1-.22.42zm-.93-.09a62.41 62.41 0 0 1-5.64 10.77l5.38-10.9zm-12.5 20.71a9.6 9.6 0 0 1 .4-2c1.19-2.67 2.44-5.32 3.69-8a2.51 2.51 0 0 1 .45-.58 7.09 7.09 0 0 1 .52-.49c0 .25 0 .36-.08.43a34.25 34.25 0 0 0-4.6 10 2.62 2.62 0 0 1-.4.58zm-2.33-11.69a79.56 79.56 0 0 0-5.32 11.61c1.34-4.05 2.65-8.15 5.32-11.61zm5.09-.38l-5 9.25c-.17-.99 4-8.78 5-9.25zM121.36 50c.91 2.71 1 5.59 1.81 8.32l-.43.09c-.58-2.77-1.16-5.55-1.73-8.32zm4.97 33.11a32.24 32.24 0 0 1-1.41 10.14zm-19.9 17.12l-4.79 9.21c-.13-1.06 3.82-8.52 4.79-9.21zm8.47 5.09c-1.22 3.05-2.41 6-3.6 9a23.4 23.4 0 0 1 3.6-9zm-11.9 3.76c1-2.6 1.85-5.33 3.74-7.53l-3.53 7.61zm21.81-35.6a55.41 55.41 0 0 1 .39 7.28h-.29l-.51-7.28zm1.61-7.2a19.83 19.83 0 0 1 .88 7.19q-.58-3.59-1.18-7.15zm-16.05 38.16l-3.15 6.45c-.14-1.25 2.47-6.33 3.15-6.45zm9.91-3.71l2.52-5.07c.27.53-1.56 4.47-2.52 5.07zm5.87-25.43a20.9 20.9 0 0 1 .27 4.61h-.28l-.32-4.6zm-6.78 16.61l1.15-4 .39.11-1.18 4zm-18.03 15.5a8.5 8.5 0 0 1 2.36-4.53zM111.75 99l-1.53 3.51c-.29-.67.51-2.65 1.53-3.51zm.1 2.08l1.53-3.77.34.14-1.5 3.73zm15.54-19.19v-3.66h.15v3.65zm-8.06-30.97a11.41 11.41 0 0 1 .39 3.14h-.28L119 51zm5.12 44.6l-1.23 2.75-.3-.13 1.15-2.78zm.55-33.3a4.75 4.75 0 0 1 .78 2.65l-.23.08-.84-2.6zm-2 27.97l.53-2.92.38.08-.63 2.9zm1.34-26.91c.22.94.43 1.87.65 2.81l-.34.08-.59-2.83zM104.64 100l1.36-2.32.3.17-1.35 2.31zm-2.2 15.32l-.93 2.7-.26-.09.9-2.7zm12.23-7.93l1.22-2.39.3.15-1.19 2.37zm6.08-29.2l-.24-2.13.42-.06.26 2.15zm-3.21 19.66l-1.19 2.39-.24-.11 1.13-2.4zm-.76-2.76l1-1.8.3.15-.9 1.84zm8.44-23.91l-.24-2 .35-.05.27 2.05zM53.79 99c1.83.58 9.17 11.34 9.54 13.9A66.11 66.11 0 0 0 53.79 99zm3.84 34.35c-1.61-4.26-3.6-8.39-4-13zM69 129.38l-4.1-11.47.36-.13q2 5.75 4.06 11.47zM56.8 114.8l-4.16-9.8a31.07 31.07 0 0 1 4.16 9.8zm6.8-3.45l-5.73-9a35.76 35.76 0 0 1 5.73 9zM76.11 144l-5.47-6.76.33-.27 5.4 6.79zm.62-1.46a8.81 8.81 0 0 1-1.2-1.08 456.55 456.55 0 0 1-4.32-5.53 2.69 2.69 0 0 1-.26-.54l.33-.31a4 4 0 0 0 .34.69c1.64 2.11 3.3 4.21 4.94 6.32a1.27 1.27 0 0 1 .14.48zm-9.59-22.82l3 8.7a25.72 25.72 0 0 1-3-8.7zm-5.02 21.89a34.85 34.85 0 0 1-5.45-7.32l.24-.18c.83 1.25 1.63 2.53 2.52 3.74s1.9 2.41 2.86 3.6zm9.71-7.22l4.5 5.85-.19.15a37.19 37.19 0 0 1-4.55-5.82zm.09 7.66l-5.21-6.69.32-.25 5.14 6.76zm-.16 1.62a65 65 0 0 1-5.34-6.15l.2-.17 5.38 6.13zm-1.6-8.48c-1.35-1-3.74-5.15-3.79-6.31 1.32 2.2 2.56 4.25 3.79 6.31zm-.37 1.62a15.69 15.69 0 0 1-3.74-6.26q1.86 3.13 3.74 6.26zm-11.49-6.1c-.77-.36-2.67-5.31-2.45-6.69.85 2.3 1.65 4.5 2.45 6.69zm2.25-26.23a20.13 20.13 0 0 1 4.23 6.57zM70 125.66l-2.17-6.12.35-.13 2.22 6.13zm3 16.45l3.65 3.41-.16.17a17.1 17.1 0 0 1-3.71-3.39zm-19.31-17.66L55 130l-.29.07c-.3-1.88-1.18-3.62-1.34-5.53zm22.61 14.88l-3-3.91.27-.21 3.07 3.87zm-12.07-32.18l2.45 4-.27.16c-.84-1.32-1.67-2.65-2.51-4zm8.62 36.3l2.49 2.07-.24.28-2.53-2.05zm-12.26-6.52l2 2.61-.25.19-2.08-2.56zm5.19-13.04l1.28 2.8-.33.17-1.33-2.77zm-13.31-13.84l1.35 3.17-.34.14-1.35-3.17zm17.46 23.68l-1.6-2.8c.58.15 1.58 1.68 1.8 2.67zm-12.71-9.5l1.31 3.34c-.71-.32-1.45-2.11-1.31-3.34zm4.27-9.97l1.19 2.74-.29.14-1.25-2.67zm-7.6-2.34l-1-2.71.33-.14 1.05 2.67zm15.73 9.4c-.26-.88-.53-1.76-.79-2.65l.31-.09.83 2.63zm-3.48-5.47L65 113.72l.32-.17c.7.53.72 1.44 1 2.2zm-15.96-20.2l-1.93-2.31.25-.21 1.92 2.35zm18.41 45.96l1.72 1.85-.26.24-1.72-1.83zM54.3 101.18l1.7 2.41-.23.16-1.68-2.4zm14.06 14.39l-1-2 .36-.18 1 2zM52.11 96.56l-1.66-2 .29-.24 1.67 2zm19.23 35.79l-1.2-2 .29-.17c.4.67.8 1.34 1.19 2zm20.02-1.84c.61 1.49-.33 9.26-1.25 10.73.41-3.54.83-7.11 1.25-10.73zm3.69-14.75a28.64 28.64 0 0 1 3.25-12 50.17 50.17 0 0 0-3.25 12zm-.77.96l-.4 10.91a35.68 35.68 0 0 1 .4-10.91zm-1.7 11.03c-.2-3.13-.43-6.25.42-9.34zm6.68-25.83c.83-2.74 1.65-5.49 2.48-8.24l.36.11-2.5 8.21zm-4.03 16.66V127H95a38.51 38.51 0 0 1 0-8.45zm2.53-10.65L96 116.17a20.87 20.87 0 0 1 1.76-8.24zm-15.95 33.6l.9-7.26c.51 2.48-.34 4.86-.55 7.29zM94 136.51v-7.15h.27a37.24 37.24 0 0 1 0 7.16zm-7.77-4.92l-.54 5.92h-.36c.16-2 .33-3.93.49-5.89zM85 113.84a8.4 8.4 0 0 1 2.22-5.22zm.21 16.05v6h-.15v-6zm12.45 1.7v4.16h-.23v-4.22zM87.26 133l-.33 3.66h-.38l.3-3.68zm2.38 4.55l-.41 3.2-.36-.05.36-3.2zm-5.97 5.62l.25-2.7h.41l-.22 2.69zm.07-4.59c-.21 1.15-.43 2.3-.64 3.45l-.32-.05.57-3.46zm15.2-39.4l1-3.27.34.11-1 3.27zm-12.86 13.47l1.14-3.32.31.11-1.16 3.27zm-5.24 28.43l.38-2.83c.55.91.21 2.49-.41 2.8zm3.38-10.94l-.22 2.48h-.4l.22-2.49zm3.78 7.61l-.33 2.51h-.37l.24-2.53zm.8-1.84l.32-2.26h.35l-.21 2.25zm-.45-2.23l-.26 2.57a2 2 0 0 1 .26-2.57zm7.89-12.15v3.07h-.18v-3.07zm-1.14-11.6l-.78 2.63h-.24l.63-2.7zM83 126.87l.53-2.55.3.06-.53 2.55zm19.52-30.18l-1 2.83-.24-.08.94-2.84zM21.7 87l-1.35-1.7-.14.08 2.12 3.75-.26.18c-.16-.2-.33-.4-.47-.61-1.47-2.24-2.9-4.5-4.43-6.7a9.81 9.81 0 0 0-1.8-1.72c-.2-.17-.51-.21-.62-.45 1.5-.11 6.69 5.35 6.95 7.17zm20.64 40.38a58.35 58.35 0 0 1-9.06-11.7zm-2.24-1.05c-1.63-1-7.54-9.06-7.72-10.45zm-6.56-28.49l7.59 10.57-.21.14c-2.49-3.55-5.41-6.79-7.38-10.71zm9.71 28.91a31.84 31.84 0 0 1-6.61-8.13zm-15.12-21.16q-1.89-4.22-3.77-8.44l.35-.16 3.79 8.46zm3.4 8.32a77.6 77.6 0 0 1-3.5-7.44l.28-.13 3.53 7.43zm-.65-7.29l3.21 6.9-.25.12-3.3-6.85zM22.8 88.28c.89 1.55 1.77 3.11 2.69 4.72-.74-.25-2.55-3.2-2.89-4.6zm18.63 29.99l3.65 4.57a16.88 16.88 0 0 1-3.84-4.42zM22.42 90.6a11.78 11.78 0 0 1 2 4.42l-2.26-4.26zm.01-4.39L19.76 83c.79 0 2.31 1.64 2.67 3.21zm5.93 16.63l-1.94-4.08.31-.14 1.93 4.09zm-5.12-16.09L25 89.37l-.36.24L22.89 87zm7.46 22.06l1.46 3.09-.29.14-1.54-3.04zm-9.24-26.1l1.94 2.07-.3.3L21.19 83zm19.07 38.59l1.65 2.08-.27.22c-.55-.7-1.36-1.2-1.64-2.1zm12.28 13.03l-3.12-2 .28-.37 2.82 2.41zM37.2 115.07l1.35 2.15-.29.18-1.42-2.11zM24.26 86.29l1.47 2.2-.27.2-1.55-2.13zm-5.02-4.46l-1.48-1.67.27-.25 1.44 1.72zm77.27-.16c.28-6 .82-12-1-18.07 1.76 1.62 2.41 14.6 1 18.07zm1.69-3.85q-.24-3.43-.49-6.88h.32a21.26 21.26 0 0 1 .17 6.88zM83.44 106.7c-.19-1.32.55-3.85 1.19-4.22-.4 1.41-.8 2.82-1.19 4.22zM95 87.22v-5a8.52 8.52 0 0 1 0 5zm-5-17.03l-.26-3.51c.69.59.81 2.46.26 3.51zm-1.56 5.92l.22-2h.43l-.2 2zm4.19-15.89l-.29-1.69.41-.08.35 1.67zM32 80.76c-1.62-3.5-3.88-6.67-5-10.41l.2-.1 5.14 10.32zm.88-.51l-4.19-9.1.39-.18 4.18 9.11zM24.47 58l3.9 10.66c-.65-.3-4.11-9.24-3.9-10.66zm1.3-6.07c1.88 3 3.69 5.89 5.61 9-1.02-.62-5.77-8.2-5.61-9zm18.02 21.22l-5.62-8c1.1.35 5.61 6.85 5.62 8zm-8.86 7.66l4.26 9.3C37.27 87.25 36.08 84 34.5 81zm-1.64.05c1.19 2.58 2.39 5.15 3.58 7.73-1.84-2.25-2.51-5.09-4-7.51zm-3.83-24.63l3.63 5.05-.3.22-3.67-5zm1.99 17.67c1 1.88 2 3.76 3 5.63l-.24.13a32.52 32.52 0 0 1-3-5.61zm12.92 7.94l-2.58-5.36.31-.15 2.67 5.34zM27.18 62.27l2.27 6.43c-.92-.9-2.35-4.82-2.27-6.43zm-.52 6.54l-1.92-5.44.39-.14L27 68.71zm13.66 21.01q-1.32-2.55-2.57-5.08l.33-.17q1.28 2.55 2.54 5.1zm.4-23.11a13.61 13.61 0 0 1 2.89 4.75l-3.1-4.62zm-3.6 16.06L35 78.89l.37-.2 2.1 3.88zm-3.28-21.28l-2.29-3 .35-.26 2.24 3zm3.76 30.77L35.81 89l.35-.19 1.71 3.35zm9.86-13.57l1.21 3.12-.33.13-1.26-3.12zM25.22 52.86l1.29 2.45-.33.18-1.32-2.42zm7.98 21.41l-1-2 .38-.18 1 1.94zm5.21 15.82l1.06 2.26-.26.13-1.11-2.23zm5.8-11.65l-1-1.57.37-.23 1 1.55zm40.13-2.95L82.83 61c.69.73 1.93 12.9 1.51 14.49zM81.7 62.35c.39 4.4 1.23 8.76 1 13.22l-1.32-13.2zm.82-12.84a62.41 62.41 0 0 1 1.57 9.11h-.24c-.56-3-1.13-6-1.69-9.08zM80 38.13v8c-.64-.61-.77-6.87 0-8zm-6.34 32.38L73.22 78c-.51-.86-.22-6.92.44-7.49zm2.57-18.07c-.24 2-.47 3.91-.71 5.87h-.25c-.27-2 .46-3.92.52-5.89zm-.75 17.8c-.22 2.05-.44 4.09-.65 6.14-.48-2.1.07-4.12.26-6.17zm1.62 11.03v6.66h-.22v-6.65zM77 54.45c-.25-1.79.56-3.44.61-5.2H78l-.74 5.18zm-3.32 13.77c-.72-1.65-.13-3.22.15-4.81h.31zm6.16-38.72c-.2 1.27-.39 2.45-.6 3.71-.49-1.1-.18-3.1.6-3.71zm.77 15.85v-3.74h.24v3.71zM76 39.61L75.62 43a5.39 5.39 0 0 1 0-3.46zm3.52 32.29c.57.52.62.94.51 3h-.27zm-.61 12.51v-3.2h.22v3.19zM78 87.22v-2.57h.29a2.92 2.92 0 0 1-.29 2.57zm-4.44-8.61c-.11.94-.21 1.74-.3 2.54-.57-.57-.48-1.51.3-2.54zm8.62-20.04l-.29-2.13.41-.06.27 2.15zm2.25 5.89l-.22-1.86h.33l.24 1.88zm17.82-26.05c.16.16.39.29.48.48a19.89 19.89 0 0 1 .76 2 61.43 61.43 0 0 1 2.18 13.33.68.68 0 0 1-.29.51c-.54-5.54-1.07-11.03-3.13-16.32zm6.01 39.24c-.12-1-.24-1.69.35-2.37a2.47 2.47 0 0 0 .46-1.44c.16-3.52.27-7 .4-10.55v-1.1c1.05 1.39.13 13.13-1.21 15.46zm-.41-18.52c1.05 1.24 1 11.35.06 12.86-.02-4.23.69-8.54-.06-12.86zm-3.06-14.88c.8.68 2.4 8.65 2 10.35-.69-3.6-1.35-6.96-2-10.35zm-4.33 29.82q.74-4.26 1.46-8.52l.41.08c-.48 2.83-1 5.67-1.46 8.5zm.22-43.7l.32 6.83h-.36q-.24-3.42-.46-6.83zm6.25 16.85a19.21 19.21 0 0 1 1.16 5.56l-.31.07c-.37-1.86-.75-3.72-1.12-5.58zM101.6 32.2c.26 1.82.53 3.63.79 5.44h-.24a17.33 17.33 0 0 1-.85-5.44zm1.6 14.38c-.42-1.66-.83-3.25-1.3-5.08.83.66 1.66 4.26 1.3 5.08zm3.52 35.08l.72-3.61.39.08-.74 3.6zm-3.93-12.95c-.22 1.06-.44 2.11-.65 3.17l-.37-.07.61-3.19zm-2.9-4.82l-.27 3h-.42c.08-1 .17-2 .25-3zm6.72 6.11c0-.88.09-1.75.13-2.67.56.42.57.81.14 2.65zm-3.25-33.77l.42 2-.38.09-.44-2zM105 74.19l.42-1.91.36.07-.36 1.93zm-47.51-9.08c-1.35-.8-7.72-13-7.55-14.6 2.45 5.06 4.49 10.09 7.55 14.6zm-8.87-15.36c-1.26-2-3.23-13.94-2.5-15 .23 5.13 1.54 10.04 2.5 15zm-2.11 10.86l4 12.17c-2-3.84-3-8-4.23-12.09zm5.77-6.35l6.41 10.56-.14.13a2 2 0 0 1-.42-.41c-1.79-2.89-3.58-5.77-5.34-8.68a10 10 0 0 1-.62-1.6zm-5.16-16.15c.77 3.3 1.53 6.58 2.32 10-.79-.61-2.7-9.35-2.32-10zm4.76 35.24l-3.66-9.72.38-.14 3.66 9.72zM60 64.81a45.46 45.46 0 0 1-4.83-7l.21-.14 4.87 7zm-10.69 8.1L46.5 65l.41-.15q1.37 4 2.71 7.93zm-5.25-13.6c-.21-.68-.43-1.35-.62-2-.39-1.33-.78-2.67-1.13-4 0-.14.11-.33.17-.5.11.12.28.22.32.36.5 1.81 1 3.62 1.46 5.44.06.21.08.43.12.65zm9.6 15.08a22.16 22.16 0 0 1-2.43-5.76l.21-.09c.83 1.91 1.67 3.82 2.5 5.72zM42.24 48.71v-6.38h.24v6.37zm3.36-8.34l.72 3.52a3.59 3.59 0 0 1-.72-3.52zm5.61 37.7l.92 3c-.49.04-1.13-1.47-.92-3zm-1.38-32.84l.79 2.37-.33.11a4.59 4.59 0 0 1-.68-2.41zm-3.48-17.68l-.47 2.92-.33-.06.45-2.91zm9.2 45.04l-1-2.22.29-.14 1.07 2.17zm-8.82 74.24c-9.19 2.85-18.58 3.19-28 2.43v-.3a3.07 3.07 0 0 1 .52-.06 77 77 0 0 0 22.16-1c1.52-.29 3-.67 4.53-1a5 5 0 0 1 .79-.07zM7 143.84l11.87 1.57v.32c-.9-.09-1.81-.17-2.71-.28s-1.87-.26-2.81-.4v.23l6.54 1.14-.06.29a121.72 121.72 0 0 1-12.85-2.43zm8 3.06c.25-.2.4-.42.53-.41 2 .28 4.08.59 6.12.9a2.18 2.18 0 0 1 .48.19l-.05.24-5.52-.59v.16l6.37.94v.26a54 54 0 0 1-14.26-3.14l.08-.33c1 .31 2.08.65 3.13.95s2.12.58 3.12.83zm32.8-8.9l-12.72.47A43.1 43.1 0 0 1 47.8 138zm2.71 6.14l-11.64.75v-.41l11.65-.71zM37 137.1a27.73 27.73 0 0 1 9-.29v.29zm6 6.37l8.33-.37v.37l-8.35.36zm16.77 2.08l-8.38-1.28c.83-.38 6.88.48 8.38 1.28zm-21.3-6.29c2.48-.18 5-.69 7.47-.31v.31zm-8.74-2.77l3.15.28v.23l-3.63.76-.09-.22 1.09-.54-.55-.31zm-11.66 8.35l-5.92-.48v-.34l5.92.47zm36.44-1.36l5.65 1.05-.06.33-5.66-1z"/><path d="M34.09 148.28l5.34-.68v.38l-5.38.62zm-8.7-3.34l-4 .72-.07-.35 3.95-.73zm16.33-8.83h-3.43a7.25 7.25 0 0 1 3.42-.3zm5.09 9.03l-3.76.32c.63-.65 2.37-.8 3.76-.32zm-27.55-1.92l3.59-1.07a4.24 4.24 0 0 1-3.59 1.07zM46.54 142h3.09v.23h-3.07zm-26.43 2.23l3.59-.81.07.32-3.57.84zm9.96 4.01l-3.71.17v-.34l3.73-.21zm3.56-1H30.4v-.18h3.25zm2.62-1.14l3-.52.07.32-3 .63zm-10.85.9l-3.2-.16v-.27h3.2zm24.16-5.85h-2.8v-.21h2.8zm-31.79 2.4l-2.93.16v-.33l2.92-.19zm33.72 2.21L49 146v-.31l2.55-.3zm-32.12-3.68l2-.75.12.29-2 .81zm23.78 4.59l-2.18.57-.11-.37 2.14-.57zm92-8.45a49.35 49.35 0 0 1-11.58 7.28 1.6 1.6 0 0 1 .3-.33 54.45 54.45 0 0 0 8.88-5.69A19.3 19.3 0 0 1 135 138zm-5.07 2.49c-1.15.63-2.24 1.59-3.47 1.83-3.68.7-7.17 2.16-10.88 2.75a2 2 0 0 1-.42-.09l1.86-.6a81.09 81.09 0 0 1 8.25-2.33 13.5 13.5 0 0 0 3.82-1.58 3.51 3.51 0 0 1 .74-.21zm6.75-8.34a84.89 84.89 0 0 1-9.67 7.42l-.14-.19 9.66-7.4zM115.14 146l8.55-2.2.06.23a56 56 0 0 1-8.55 2.23zm13.72-6.65l7.1-5.44c-.57 1.17-5.86 5.2-7.1 5.44zm5.93-12.95a21.93 21.93 0 0 1-5.62 5l5.43-5.2zm7.8 3.05q1.6-2.83 3.2-5.67a10.76 10.76 0 0 1-3.2 5.67zm-21.09 16.14l-6.12 1.64-.09-.35 6.13-1.62zm16.9-13.82l3.42-4.32.24.2a16.7 16.7 0 0 1-3.66 4.12zm-2.18 5.79l2.73-3.15.19.2-2.8 3.06zm-17.05 9.58l-3.58.78-.08-.33 3.57-.76zm15.55-10.44l-3 2.2-.19-.26 3-2.28zm-3.26-1.19l-2.65 2.09-.21-.25 2.61-2.15zm-10.11 5.96l4-1.39.09.27-4 1.34zm20-14.27l-2.09 2.56-.24-.19 2-2.62zm-4.91 8.22l1.82-1.73.29.32-1.87 1.68zm-2.11-7.25l1.56-2c.11.83-.48 1.56-1.56 2zm-23.52 19.93l2.9-.48.06.27-2.89.54zm31.5-20.37l1.23-2 .35.21-1.28 2zm-2.83 4.94l1.69-2.16.3.24-1.74 2.15zM89.46 10c.74 4.75 1.44 9.3 2.17 14-.8-.64-2.7-12.81-2.17-14zm2.12 21.49c.8.79 2.37 11.5 2 12.61-.7-4.34-1.35-8.48-2-12.61zM95 44.6l-1.54-8.52h.24a32.27 32.27 0 0 1 1.58 8.54zm-10.53-2.46c-.55-1.76 0-7.47.66-8zm1.07.39a21.14 21.14 0 0 1 .4-8.46c-.13 2.82-.27 5.64-.4 8.46zm2.28 3.39l-.49-5.7h.43c.17 1.89.35 3.79.52 5.68zm2.71-21l-.65-3.49.38-.07.75 3.5zM89.66 34l.63 3.52a3.45 3.45 0 0 1-.63-3.52zm2.28-3.42L91.69 28l.4-.05.28 2.61zm1.43.51l.35 2.58a2 2 0 0 1-.35-2.58zm-7.92.52l.29-2.51h.35l-.31 2.51zM87 44.38v-2h.24v1.95zm.34 4.2v-2.33h.21v2.31zm27.97-2.81l.42-5h-.26l-1.29 6.74-.33-.07 2.38-14.24h.22v1c-.1 1-.53 2-.29 2.84.47 1.64-.09 3.19 0 4.78a21.78 21.78 0 0 1-.35 3.41 2.75 2.75 0 0 1-.24.62zm-.54 7.23l-1.46 9.78h-.36l1.41-9.78zm-.58 18.65a28.7 28.7 0 0 1-1.91 8.46c.55-2.83 1.09-5.67 1.64-8.5zm.89-34.65l-1 6.21h-.32c0-2.11.65-4.14.83-6.23zm2.18-12.31c.61.89.37 3.92-.55 6.06.18-2 .36-4 .55-6.06zm-.03 16.1l-.37 3.92h-.4l.3-4zm-7.95 1.06a10.11 10.11 0 0 1 1.72-3.54l.27.13-1.72 3.56zm5.63 8.15l.59-3.64h.25a7.86 7.86 0 0 1-.58 3.67zm-5.1-5.72l-.2 2.81h-.25v-2.82zm4.96 8.12l.36-1.67.39.08-.3 1.68zM67.36 36.51l-2.23-13 .42-.06c.56 4.29 2.08 8.46 1.81 13.06zm-2.81 5.63c.68.63 1.22 7 .73 8.58-.28-2.96-.48-5.72-.73-8.58zm-2.03 5.98c-.26-2.47-.5-4.68-.76-7 .64.55 1.24 5.71.76 7zM66 31.41c.3 1.34.29 2.73.47 4.09h-.35l-.52-4.08zm-4 14.52l.23 3h-.37l-.36-3zm3.72-28.15l.92 2.42a1.87 1.87 0 0 1-.92-2.42zm88.38 93.7l-3.54 1a1.24 1.24 0 0 1-.76 0 31 31 0 0 0 11.08-5.6l.26.48c-1 .63-1.93 1.26-2.87 1.91a7.66 7.66 0 0 0-.8.71z"/><path d="M154.1 111.48l3.37-1.5.72-.24c-.39.87-7.32 3.91-8.84 3.92zm.77 1.08a16 16 0 0 1-6 2.22l5.87-2.48zm-5.09-2.1l5.83-1.91a11.61 11.61 0 0 1-5.83 1.91zm-6.2 5.65l4.62-1.49.12.36-4.67 1.49zm-.99 1.19l-4.17 1.58a6.14 6.14 0 0 1 4.17-1.58zm.62-2.3l4.14-1.17.09.31-4.14 1.2zm-4.39 2.28l3.08-1.16.12.3-3.02 1.17zm-.27-3.89l-2.64 1.1-.14-.32 2.65-1.14zm9.58-.16l-2.68.74-.08-.32 2.7-.77zm-128.35-2.09l5.67 2.15-.11.31-5.68-2.07zM8.26 109.5l2 .67-.06.17-3.8-.63v-.31l1.9.12z"/><path d="M8.28 109.52l-.39-.45.09-.24 3.47.71v.21l-3.16-.25zm20.29 6.62l-2.28-1 .12-.29 2.28.95zm105.86-52.41a46.83 46.83 0 0 0 3.18-10.86 22.84 22.84 0 0 1-3.18 10.86zm4.48-18.49l-2.22 6.46-.34-.12c.73-2.17 1.45-4.35 2.18-6.52zm-1.84 14.26l-1.21 3.73-.39-.12c.42-1.24.83-2.49 1.24-3.73zm-1.96-.5l.9-3 .33.09-.85 3zm2.52-8.37l1.1-3.08.3.1-1.1 3.09zm-2.55 15.92l-1.17 2.9-.37-.14 1.25-2.88zm-2.33-7.35l-1 2.61-.29-.09.86-2.68zm2.1 5.38l-1.11 2.85-.32-.12 1.12-2.84zm-50.43 91.73l-1.08-2.63.43-.18c.34.88.68 1.77 1 2.65zm-1.2-6.45v2.29a1.59 1.59 0 0 1 0-2.29zm4.95.05l-.17 2.36h-.45l.19-2.35zm3.12 14.51l-.35-2.24c1 .62.63 1.44.64 2.2zm3.77 3.31c-.19 1-.39 1.91-.58 2.87l-.31-.06.55-2.85zm-17.23-6.91l-1.26-1.37.31-.3 1.26 1.36zM69 156.64a3.29 3.29 0 0 1 1.76 1.74zm30.94-5.26l-.94 1.77-.34-.17.83-1.77zm52.4-47.92a17.67 17.67 0 0 1 2.27-3.27l.36.28-2.55 3.07zm-47.82 55.91l-1.76 1.34c-.25-.71.44-1.26 1.76-1.34zm-.75-1.53c1-1.11 1.46-1.15 2.29-.19z"/></g></svg>