<svg xmlns="http://www.w3.org/2000/svg" viewBox="0 0 258.37 162.02"><title>Asset 94vectores-beer store</title><path d="M101.91 13.18V.68h-4.63V0h10v.68h-4.63v12.5zm31.47 0V6.7h-8v6.48h-.74V0h.74v6h8V0h.73v13.18zm19.34 0V0h8.13v.68h-7.4V6h7v.69h-7v5.77h7.64l-.2.69zM32.19 155.76v-1.88H33v1.88zm14.5-.57a5.51 5.51 0 0 1-2.87-1.19 3 3 0 0 1-.91-2.3 3.13 3.13 0 0 1 1.17-2.62 5.28 5.28 0 0 1 3.35-.93 5.15 5.15 0 0 1 3 .75 4.08 4.08 0 0 1 1.53 2.37l-.69.19a3.57 3.57 0 0 0-1.3-2.05 4.43 4.43 0 0 0-2.55-.61 4.57 4.57 0 0 0-2.8.72 2.52 2.52 0 0 0-1 2.14 2.37 2.37 0 0 0 .73 1.86 4.27 4.27 0 0 0 2.29.91l1.67.26a5.15 5.15 0 0 1 2.84 1.17 3.18 3.18 0 0 1 .92 2.41 3.36 3.36 0 0 1-1.17 2.75 5.16 5.16 0 0 1-3.35 1 6 6 0 0 1-3.5-.92 3.56 3.56 0 0 1-1.5-2.63h.7q.55 2.88 4.28 2.88a4.4 4.4 0 0 0 2.82-.75 2.71 2.71 0 0 0 .93-2.26 2.56 2.56 0 0 0-.74-2 4.32 4.32 0 0 0-2.35-1zm15.51 6.51v-13.17h4.39q4.39 0 4.39 3.78a3.68 3.68 0 0 1-1.12 2.92 4.87 4.87 0 0 1-3.33 1h-3.61v5.48zm4.33-6.14a4.14 4.14 0 0 0 2.81-.79 3.1 3.1 0 0 0 .88-2.44 3 3 0 0 0-.87-2.41 4.34 4.34 0 0 0-2.83-.75h-3.6v6.39zM86 162a5.23 5.23 0 0 1-4.23-1.86 7.61 7.61 0 0 1-1.56-5 8.89 8.89 0 0 1 .69-3.62 5.31 5.31 0 0 1 5.12-3.3 5.24 5.24 0 0 1 4.24 1.86 7.59 7.59 0 0 1 1.56 5 8.89 8.89 0 0 1-.7 3.62A5.31 5.31 0 0 1 86 162zm0-.67a4.82 4.82 0 0 0 2.67-.73 4.63 4.63 0 0 0 1.75-2.14 8.26 8.26 0 0 0 .58-3.36 7.06 7.06 0 0 0-1.34-4.58 4.46 4.46 0 0 0-3.66-1.66 4.76 4.76 0 0 0-2.66.73 4.65 4.65 0 0 0-1.76 2.14 8.43 8.43 0 0 0-.62 3.38 7.12 7.12 0 0 0 1.34 4.58 4.46 4.46 0 0 0 3.7 1.66zm24.14.37l-2.75-6a6.47 6.47 0 0 1-1.09.07h-3.67v5.94h-.72v-13.18h4.34c2.86 0 4.3 1.18 4.3 3.54a3.76 3.76 0 0 1-.62 2.22 3.21 3.21 0 0 1-1.82 1.23l2.89 6.18zm-3.87-6.6a4.07 4.07 0 0 0 2.67-.73 2.84 2.84 0 0 0 .85-2.28 2.68 2.68 0 0 0-.86-2.21 4.45 4.45 0 0 0-2.78-.69h-3.52v5.91zm17.42 6.6v-12.49h-4.64v-.68h10v.68h-4.63v12.49zm17.88-6.51a5.47 5.47 0 0 1-2.87-1.19 2.94 2.94 0 0 1-.91-2.3 3.13 3.13 0 0 1 1.17-2.62 5.28 5.28 0 0 1 3.35-.93 5.15 5.15 0 0 1 3 .75 4 4 0 0 1 1.52 2.37l-.68.19a3.67 3.67 0 0 0-1.3-2.05 4.46 4.46 0 0 0-2.56-.61 4.61 4.61 0 0 0-2.8.72 2.52 2.52 0 0 0-.95 2.14 2.4 2.4 0 0 0 .73 1.86 4.31 4.31 0 0 0 2.3.91l1.66.26a5.09 5.09 0 0 1 2.84 1.17 3.15 3.15 0 0 1 .93 2.41 3.34 3.34 0 0 1-1.18 2.75 5.13 5.13 0 0 1-3.34 1 6 6 0 0 1-3.5-.92 3.57 3.57 0 0 1-1.51-2.63h.71q.54 2.88 4.28 2.88a4.44 4.44 0 0 0 2.82-.75 2.71 2.71 0 0 0 .92-2.26 2.53 2.53 0 0 0-.74-2 4.31 4.31 0 0 0-2.34-1zm27.13 6.51v-13.17h4.41a4.89 4.89 0 0 1 3.07.82 2.85 2.85 0 0 1 1 2.38 3.12 3.12 0 0 1-.58 2 3 3 0 0 1-1.69 1.06 3.51 3.51 0 0 1 2 1.16 3.39 3.39 0 0 1 .69 2.2 3.3 3.3 0 0 1-1.12 2.68 5 5 0 0 1-3.22.92zm4.61-7.25a3.61 3.61 0 0 0 2.36-.68 2.47 2.47 0 0 0 .81-2 2.33 2.33 0 0 0-.83-2 4.24 4.24 0 0 0-2.58-.65h-3.65v5.28zm0 6.59a4.42 4.42 0 0 0 2.73-.7 2.57 2.57 0 0 0 .89-2.16 2.81 2.81 0 0 0-.89-2.27 3.79 3.79 0 0 0-2.58-.78h-4V161zm23.33.66l-1.64-4.21h-6.39L187 161.7h-.78l5.21-13.17h.84l5.21 13.17zm-4.86-12.38l-2.91 7.49h5.85zm23.29 12.38l-2.75-6a6.47 6.47 0 0 1-1.09.07h-3.67v5.94h-.72v-13.18h4.34c2.86 0 4.3 1.18 4.3 3.54a3.76 3.76 0 0 1-.62 2.22 3.21 3.21 0 0 1-1.82 1.23l2.86 6.18zm-3.87-6.6a4.06 4.06 0 0 0 2.67-.73 2.84 2.84 0 0 0 .85-2.28 2.65 2.65 0 0 0-.86-2.21 4.42 4.42 0 0 0-2.77-.69h-3.53v5.91zm14.21.66v-1.88h.77v1.88zM24.76 36.2a43.29 43.29 0 0 1 5.84.39 14.79 14.79 0 0 1 5.08 1.61 9.62 9.62 0 0 1 3.59 3.44 11 11 0 0 1 1.37 5.88 7.84 7.84 0 0 1-.72 3.32 10.86 10.86 0 0 1-1.92 2.8 11.68 11.68 0 0 1-2.76 2.13A15.53 15.53 0 0 1 32 57.14a14.81 14.81 0 0 1 8.6 3.31A9.59 9.59 0 0 1 43.69 68a14.08 14.08 0 0 1-1.28 6.33 10.88 10.88 0 0 1-3.57 4.14 15 15 0 0 1-5.49 2.28 32.74 32.74 0 0 1-7 .7H.28v-2.16c3.62 0 5.42-.93 5.42-2.8V41.12c0-1.86-1.8-2.8-5.42-2.8V36.2zM12 39.85v16.31h13.49a10 10 0 0 0 6.21-1.86q2.43-1.84 2.43-6.11t-2.31-6.3a9.26 9.26 0 0 0-6.33-2zm0 19.36v18.56h15.1q5.35 0 7.58-2.74a11.44 11.44 0 0 0 2.22-7.42 9.37 9.37 0 0 0-.73-4 6.94 6.94 0 0 0-2-2.59 7.92 7.92 0 0 0-3.07-1.43 17.58 17.58 0 0 0-4-.42zM113.08 50l-2.43.19q-1.09-10.61-8.83-10.6H86v16.57h9.26q4.5 0 5-7.85h2.31l-.91 19h-2.15q-.62-8.1-4.69-8.09H86v18.86h13.63q10.89 0 12.36-14.43l2.56.43-1.47 17.34H74.31v-2.13q5.41 0 5.42-2.8V41.12c0-1.86-1.81-2.8-5.42-2.8V36.2h38.77zM183 50l-2.44.19q-1.09-10.61-8.82-10.6h-15.8v16.57h9.25q4.51 0 5.06-7.85h2.31l-.91 19h-2.2c-.4-5.4-2-8.09-4.68-8.09h-8.83v18.86h13.64q10.89 0 12.35-14.43l2.56.43L183 81.42h-38.75v-2.13q5.42 0 5.42-2.8V41.12c0-1.86-1.81-2.8-5.42-2.8V36.2H183zm75.09 26.07a6.54 6.54 0 0 1-1.28 4.17c-.85 1.07-2.46 1.61-4.81 1.61a9.4 9.4 0 0 1-3.17-.46 5.23 5.23 0 0 1-2.06-1.27 5 5 0 0 1-1.16-1.92 7.76 7.76 0 0 1-.37-2.44v-5.23c0-3.69-.58-6.51-1.73-8.43s-3.2-2.89-6.12-2.89h-11.51v17.28c0 1.87 2.26 2.8 6.76 2.8v2.13H214.2v-2.07q5.42 0 5.41-2.8V41.13q0-2.81-5.41-2.81V36.2h23.19a43.07 43.07 0 0 1 5.84.39 14.91 14.91 0 0 1 5.09 1.61 9.4 9.4 0 0 1 3.56 3.44 11.33 11.33 0 0 1 1.34 5.88 11.17 11.17 0 0 1-.73 4.17 9.83 9.83 0 0 1-4.63 5.14 12.72 12.72 0 0 1-3.17 1.17 12.82 12.82 0 0 1 2.8 1.53 7.75 7.75 0 0 1 2.17 2.37 12.7 12.7 0 0 1 1.34 3.54 22.15 22.15 0 0 1 .48 4.94v6.29a3 3 0 0 0 .55 2 1.75 1.75 0 0 0 1.4.64 1.83 1.83 0 0 0 1.46-.63 3 3 0 0 0 .55-2v-2.93h2.62zm-32.21-36.22v16.31h12.24a9.82 9.82 0 0 0 6.18-1.86q2.4-1.84 2.4-6.11t-2.28-6.3a9.11 9.11 0 0 0-6.3-2zM20 109.71l-1.5.29a9.66 9.66 0 0 0-.93-3.57 7.79 7.79 0 0 0-2-2.56 8.24 8.24 0 0 0-2.77-1.53 10.77 10.77 0 0 0-3.28-.5 12.69 12.69 0 0 0-3.12.33 5.7 5.7 0 0 0-2.06.92 3.41 3.41 0 0 0-1.12 1.42 4.7 4.7 0 0 0-.35 1.83 2.92 2.92 0 0 0 .78 2.14 5.61 5.61 0 0 0 2.06 1.28 14.76 14.76 0 0 0 2.92.76c1.1.19 2.21.38 3.34.59s2.24.46 3.34.76a10.47 10.47 0 0 1 2.92 1.28 6.55 6.55 0 0 1 2.06 2.16 6.63 6.63 0 0 1 .78 3.38 8.56 8.56 0 0 1-.69 3.58 6.41 6.41 0 0 1-2 2.47 8.71 8.71 0 0 1-3.17 1.42 17.85 17.85 0 0 1-4.18.45 12.24 12.24 0 0 1-3.76-.54 11.87 11.87 0 0 1-3.23-1.64 1.85 1.85 0 0 0-1-.38 1 1 0 0 0-.72.27 2.38 2.38 0 0 0-.49.77l-.41 1H0v-9.82l1.49-.27a9.54 9.54 0 0 0 .93 3.36 9 9 0 0 0 2 2.7 9.28 9.28 0 0 0 3 1.79 10.76 10.76 0 0 0 3.87.66q7.12 0 7.13-5.13a3.12 3.12 0 0 0-.78-2.24 5.36 5.36 0 0 0-2.06-1.28 15.45 15.45 0 0 0-2.91-.73c-1.08-.17-2.19-.36-3.33-.56s-2.26-.43-3.34-.72a9.75 9.75 0 0 1-2.91-1.3 6.56 6.56 0 0 1-2.06-2.28 7.43 7.43 0 0 1-.77-3.59 8 8 0 0 1 .41-2.49A5.45 5.45 0 0 1 2.14 102a7.78 7.78 0 0 1 2.77-1.6 13.59 13.59 0 0 1 4.39-.6 13.3 13.3 0 0 1 3.67.45 14 14 0 0 1 3 1.3 2.37 2.37 0 0 0 1.28.42 1.26 1.26 0 0 0 1.11-.65l.58-.94h1zM81.11 111l-1.39.1a26.83 26.83 0 0 0-.57-4.41 7.36 7.36 0 0 0-1.09-2.69 3.6 3.6 0 0 0-1.67-1.33 6.85 6.85 0 0 0-2.34-.36h-3.87v21c0 1.06 1 1.59 3.11 1.59v1.21h-9.75v-1.21c2.05 0 3.08-.53 3.08-1.59v-21h-3.91a6.85 6.85 0 0 0-2.34.36 3.53 3.53 0 0 0-1.66 1.33 7.74 7.74 0 0 0-1.07 2.68 29.84 29.84 0 0 0-.61 4.41l-1.38-.1v-10.62h25.46zM129 99.79a18.17 18.17 0 0 1 5.1.69 9.9 9.9 0 0 1 4.08 2.29 11 11 0 0 1 2.7 4.13 17.49 17.49 0 0 1 1 6.29 17 17 0 0 1-.83 5.49 10.91 10.91 0 0 1-6.69 7 16.35 16.35 0 0 1-5.86 1 18.12 18.12 0 0 1-5-.68 10.05 10.05 0 0 1-6.81-6.18 16 16 0 0 1-1-6 19.75 19.75 0 0 1 .78-5.73 11.23 11.23 0 0 1 2.42-4.4 10.92 10.92 0 0 1 4.15-2.82 16.1 16.1 0 0 1 5.96-1.08zm.17 2.07a11.57 11.57 0 0 0-4.51.78 7.81 7.81 0 0 0-3 2.17 8.66 8.66 0 0 0-1.71 3.27 14.89 14.89 0 0 0-.54 4.1 24.72 24.72 0 0 0 .61 6 9.23 9.23 0 0 0 1.78 3.79 6.27 6.27 0 0 0 2.87 2 12 12 0 0 0 3.84.57 11.29 11.29 0 0 0 4.7-.85 7.49 7.49 0 0 0 3-2.32 9.27 9.27 0 0 0 1.57-3.5 19.69 19.69 0 0 0 .47-4.41 21.29 21.29 0 0 0-.64-5.67 9.09 9.09 0 0 0-1.82-3.57 6.23 6.23 0 0 0-2.85-1.85 12.76 12.76 0 0 0-3.79-.51zM201.34 123a3.72 3.72 0 0 1-.73 2.37 3.35 3.35 0 0 1-2.73.91 5.46 5.46 0 0 1-1.8-.25 3.08 3.08 0 0 1-1.18-.73 2.9 2.9 0 0 1-.66-1.09 4.6 4.6 0 0 1-.2-1.38v-3a9.4 9.4 0 0 0-1-4.79 3.72 3.72 0 0 0-3.47-1.64H183v9.82q0 1.59 3.84 1.59v1.21H176.4v-1.12c2 0 3.07-.53 3.07-1.6v-20.12c0-1.06-1-1.6-3.07-1.6v-1.21h13.18a24.36 24.36 0 0 1 3.32.23 8.13 8.13 0 0 1 2.88.92 5.28 5.28 0 0 1 2 2 6.48 6.48 0 0 1 .76 3.34 6.19 6.19 0 0 1-.42 2.37 5.62 5.62 0 0 1-2.63 2.92 7.28 7.28 0 0 1-1.79.66 8.1 8.1 0 0 1 1.59.86 4.46 4.46 0 0 1 1.22 1.36 6.59 6.59 0 0 1 .78 2 12.12 12.12 0 0 1 .28 2.81v3.57a1.7 1.7 0 0 0 .31 1.13 1 1 0 0 0 .8.36 1.05 1.05 0 0 0 .83-.36 1.74 1.74 0 0 0 .31-1.12v-1.66h1.49zM183 102.45v9.27h7a5.54 5.54 0 0 0 3.51-1.06 4.11 4.11 0 0 0 1.37-3.47 4.57 4.57 0 0 0-1.3-3.58 5.19 5.19 0 0 0-3.58-1.16zm74.54 5.74l-1.38.1q-.63-6-5-6h-9v9.44h5.26q2.55 0 2.87-4.46h1.31l-.52 10.79h-1.24q-.35-4.6-2.66-4.6h-5v10.72h7.75c4.12 0 6.47-2.73 7-8.2l1.45.25-.83 9.85h-22v-1.21c2.05 0 3.08-.53 3.08-1.59v-20.1c0-1.06-1-1.6-3.08-1.6v-1.21h22z" fill="#231f20" data-name="Layer 2"/></svg>