<svg xmlns="http://www.w3.org/2000/svg" viewBox="0 0 33.94 40.3"><title>Asset 3601</title><g id="Layer_2" data-name="Layer 2"><g id="Diseño"><g opacity="0.96"><path d="M13.32,28.17a4,4,0,0,0,2.58,1.21l0-6.32a17.26,17.26,0,0,1-1.72-.47,4.48,4.48,0,0,1-1.42-.76,3.43,3.43,0,0,1-1-1.22,4.36,4.36,0,0,1-.35-1.85A4.18,4.18,0,0,1,11.86,17a3.92,3.92,0,0,1,1-1.3,4.14,4.14,0,0,1,1.43-.82A5.31,5.31,0,0,1,16,14.63V13h.83v1.67A4.71,4.71,0,0,1,18.6,15a4.46,4.46,0,0,1,1.44.95,4.24,4.24,0,0,1,1,1.47,4.66,4.66,0,0,1,.32,1.9H20a3.71,3.71,0,0,0-.87-2.56,3,3,0,0,0-2.28-1l0,6.14c.61.14,1.21.3,1.8.49a5.47,5.47,0,0,1,1.57.77,4,4,0,0,1,1.11,1.24,3.65,3.65,0,0,1,.41,1.87,3.76,3.76,0,0,1-.43,1.84,4,4,0,0,1-1.11,1.33,5.15,5.15,0,0,1-1.59.79,6.57,6.57,0,0,1-1.83.25V32.3h-.83V30.46A5.51,5.51,0,0,1,12.26,29a5.62,5.62,0,0,1-1.2-3.68h1.35A4.13,4.13,0,0,0,13.32,28.17Zm1.47-12.24a2.94,2.94,0,0,0-1,.56,2.75,2.75,0,0,0-.69,1,3.87,3.87,0,0,0-.25,1.44,2.35,2.35,0,0,0,.26,1.22,2.15,2.15,0,0,0,.7.77,3.79,3.79,0,0,0,1,.48l1.17.32,0-6A4.31,4.31,0,0,0,14.79,15.93Zm3.27,13.29a3.1,3.1,0,0,0,1.14-.55,2.83,2.83,0,0,0,.82-1,3,3,0,0,0,.32-1.42A2.32,2.32,0,0,0,20,25a2.84,2.84,0,0,0-.84-.85A4.9,4.9,0,0,0,18,23.61a12.56,12.56,0,0,0-1.25-.37l-.05,6.14A5.32,5.32,0,0,0,18.06,29.22Z" fill="#fff"/></g><path d="M19.16,5.47c-.42-.07-.83-.12-1.25-.15V1.89h3.47a.95.95,0,0,0,0-1.89H12.56a1,1,0,0,0-1,.94,1,1,0,0,0,1,1H16V5.26a17.63,17.63,0,0,0-16,11.19A1,1,0,0,0,.6,17.67a.93.93,0,0,0,1.22-.54,15.64,15.64,0,1,1,.52,12.46.95.95,0,0,0-1.7.83,17.57,17.57,0,0,0,13,9.66,18.55,18.55,0,0,0,2.76.22A17.52,17.52,0,0,0,19.16,5.47Z" fill="#fff"/></g></g></svg>