<svg xmlns="http://www.w3.org/2000/svg" viewBox="0 0 45.83 44.99"><title>Asset 3501</title><g id="Layer_2" data-name="Layer 2"><g id="Diseño"><path d="M18.64,40.36H12.45a.94.94,0,0,0,0,1.87h6.19a.94.94,0,1,0,0-1.87Z" fill="#fff"/><path d="M34.29,2.76a8.77,8.77,0,0,0-5.54,2,8.77,8.77,0,0,0,0,13.61,9,9,0,0,0,1.87,1.16,8.68,8.68,0,0,0,3.67.81,8.78,8.78,0,1,0,0-17.56Zm0,16.31a7.59,7.59,0,0,1-3.67-.95,7.68,7.68,0,0,1-1.87-1.48,7.53,7.53,0,0,1,0-10.2A7.93,7.93,0,0,1,30.62,5a7.53,7.53,0,1,1,3.67,14.11Z" fill="#fff"/><path d="M34.29,0a11.4,11.4,0,0,0-4.78,1A2.84,2.84,0,0,0,27.82.47H2.8A2.81,2.81,0,0,0,0,3.28V42.19A2.8,2.8,0,0,0,2.8,45h25a2.8,2.8,0,0,0,2.8-2.8V22.49a11.71,11.71,0,0,0,3.67.59A11.54,11.54,0,0,0,34.29,0ZM27.82,43.12H2.8a.93.93,0,0,1-.93-.93V38.71H28.75v3.48A.93.93,0,0,1,27.82,43.12Zm.93-6.28H1.87V3.28a.94.94,0,0,1,.93-.94H27.33a11.53,11.53,0,0,0,1.42,19.32Zm5.54-15a10.18,10.18,0,0,1-3.67-.68,10.56,10.56,0,0,1-1.87-.94,10.29,10.29,0,0,1-.07-17.3A10,10,0,0,1,30.33,2a10.3,10.3,0,1,1,4,19.8Z" fill="#fff"/><g opacity="0.96"><path d="M32.63,14.1a2.13,2.13,0,0,0,1.37.63l0-3.35a8.06,8.06,0,0,1-.91-.25,2.4,2.4,0,0,1-.76-.4,1.94,1.94,0,0,1-.51-.65,2.2,2.2,0,0,1-.18-1,2.06,2.06,0,0,1,.19-.91,2.15,2.15,0,0,1,.51-.7,2.23,2.23,0,0,1,.77-.43,2.82,2.82,0,0,1,.92-.15V6h.44v.88a2.62,2.62,0,0,1,.93.19,2.18,2.18,0,0,1,.77.5,2.48,2.48,0,0,1,.52.78,2.52,2.52,0,0,1,.16,1h-.71A2,2,0,0,0,35.71,8a1.6,1.6,0,0,0-1.21-.52l0,3.26a9.65,9.65,0,0,1,1,.26,3.06,3.06,0,0,1,.83.41,2.07,2.07,0,0,1,.59.66,1.86,1.86,0,0,1,.22,1,2.18,2.18,0,0,1-.22,1,2,2,0,0,1-.6.7,2.55,2.55,0,0,1-.84.42,3.5,3.5,0,0,1-1,.14v1H34v-1a3,3,0,0,1-1.93-.79,2.93,2.93,0,0,1-.63-2h.71A2.23,2.23,0,0,0,32.63,14.1Zm.79-6.5a1.37,1.37,0,0,0-.54.3,1.44,1.44,0,0,0-.37.52,2.21,2.21,0,0,0-.13.77,1.22,1.22,0,0,0,.14.64,1,1,0,0,0,.37.41,2,2,0,0,0,.53.26l.61.17,0-3.16A2.2,2.2,0,0,0,33.42,7.6Zm1.73,7.05a1.64,1.64,0,0,0,.61-.29,1.54,1.54,0,0,0,.43-.51,1.6,1.6,0,0,0,.17-.75,1.29,1.29,0,0,0-.17-.68,1.57,1.57,0,0,0-.44-.45,3.14,3.14,0,0,0-.61-.3c-.23-.07-.45-.14-.67-.19l0,3.26A2.74,2.74,0,0,0,35.15,14.65Z" fill="#fff"/></g></g></g></svg>