<svg xmlns="http://www.w3.org/2000/svg" viewBox="0 0 68 83"><title>OpenAsset 157ekastudio_logo_01</title><g data-name="Layer 2"><path d="M0 0h68v83H0z"/><path d="M26 61.65a5 5 0 0 1-3.52 1.28 5.53 5.53 0 0 1-2.59-.58A5.41 5.41 0 0 1 18 60.73a7.48 7.48 0 0 1-1.12-2.49 14.7 14.7 0 0 1-.43-3.16 10.66 10.66 0 0 1 .44-3.08 8 8 0 0 1 1.22-2.46A5.62 5.62 0 0 1 20 47.87a4.81 4.81 0 0 1 2.35-.58 4.51 4.51 0 0 1 2.77.82 6.22 6.22 0 0 1 1.76 2.1 9.46 9.46 0 0 1 .88 2.79 14.39 14.39 0 0 1 .24 2.86h-9.37a7.11 7.11 0 0 0 .19 1.87 4.62 4.62 0 0 0 .7 1.56 3.49 3.49 0 0 0 1.23 1.09 3.66 3.66 0 0 0 1.76.4 3.15 3.15 0 0 0 2.14-.72 3.69 3.69 0 0 0 1.1-2.2h2A6.31 6.31 0 0 1 26 61.65zM25.47 52a4.63 4.63 0 0 0-.75-1.35 3.73 3.73 0 0 0-1.11-.9 3 3 0 0 0-1.41-.33 3.12 3.12 0 0 0-1.44.33 3.58 3.58 0 0 0-1.1.92 4.64 4.64 0 0 0-.72 1.34 5.89 5.89 0 0 0-.31 1.64h7.17a6.36 6.36 0 0 0-.33-1.65zm9.99 3l4.26 7.65h-2.6l-3.24-5.92L35.46 55m-4.2 2v5.59h-2.04V42.15h2.05v12L37 47.64h2.75zm20.26 5.55a2.55 2.55 0 0 1-1.48.38 1.58 1.58 0 0 1-1.26-.54 2.6 2.6 0 0 1-.47-1.75 5.15 5.15 0 0 1-2 1.75 5.54 5.54 0 0 1-2.43.54 5.63 5.63 0 0 1-1.6-.23A3.54 3.54 0 0 1 41 62a3.39 3.39 0 0 1-.88-1.29 5 5 0 0 1-.32-1.92 5.19 5.19 0 0 1 .36-2.09 3.74 3.74 0 0 1 1-1.32 4.28 4.28 0 0 1 1.35-.76 13.87 13.87 0 0 1 1.49-.47c.56-.13 1.1-.23 1.61-.3a8.68 8.68 0 0 0 1.39-.29 2.16 2.16 0 0 0 .91-.55 1.49 1.49 0 0 0 .3-1.01 2.84 2.84 0 0 0-.25-1.3 2 2 0 0 0-.65-.76 2.51 2.51 0 0 0-.9-.34 5.41 5.41 0 0 0-1-.09 3.8 3.8 0 0 0-2.17.59 2.71 2.71 0 0 0-.94 2.25h-2a6.16 6.16 0 0 1 .45-2.35 4.36 4.36 0 0 1 1.16-1.55 4.55 4.55 0 0 1 1.65-.85 7.53 7.53 0 0 1 2-.26 10.39 10.39 0 0 1 1.68.14 3.93 3.93 0 0 1 1.51.6 3.11 3.11 0 0 1 1.09 1.25 4.72 4.72 0 0 1 .41 2.11v7.69a7.54 7.54 0 0 0 .08 1.27.5.5 0 0 0 .57.4 2 2 0 0 0 .63-.11zm-3.33-7.67a2.33 2.33 0 0 1-1 .5 12.65 12.65 0 0 1-1.31.26c-.46.07-.92.14-1.39.23a4.67 4.67 0 0 0-1.26.42 2.29 2.29 0 0 0-.9.82 2.65 2.65 0 0 0-.33 1.46 2.41 2.41 0 0 0 .2 1 2 2 0 0 0 .54.68 1.93 1.93 0 0 0 .76.37 3.39 3.39 0 0 0 .91.11 4 4 0 0 0 1.74-.33 3.41 3.41 0 0 0 2.08-3z" fill="#fff"/></g></svg>