<svg xmlns="http://www.w3.org/2000/svg" viewBox="0 0 4.4 108.23"><title>OpenAsset 150vector-eka</title><path d="M3.45 2.07a.71.71 0 0 0-.34-.64 1.56 1.56 0 0 0-.93-.24c-.82 0-1.23.32-1.23.94a2.1 2.1 0 0 0 .07.57c.06.17.12.35.2.53h-1A2.94 2.94 0 0 1 0 2.01 2 2 0 0 1 .56.52 2.36 2.36 0 0 1 2.19 0a2.58 2.58 0 0 1 1.17.26 1.73 1.73 0 0 1 .77.72 2.16 2.16 0 0 1 .27 1.1 3.08 3.08 0 0 1-.3 1.33l-.91-.36a3.85 3.85 0 0 0 .19-.47 1.7 1.7 0 0 0 .07-.51zM2.3 13.7a2.18 2.18 0 0 1-1.65-.59 2.24 2.24 0 0 1-.58-1.66v-1.39H4.3v1.48a2.18 2.18 0 0 1-.53 1.59 2 2 0 0 1-1.47.57zm0-1.2a1.39 1.39 0 0 0 .87-.23.87.87 0 0 0 .29-.71v-.34H1.01v.26a.93.93 0 0 0 .3.77 1.47 1.47 0 0 0 .99.24zM.06 22.33l3.08-.88c-.52 0-.93.07-1.22.07H.06v-1H4.3V22l-3 .89 3 .87v1.55H.06v-1.04h3.12L.1 23.41zm0 13.79v-1.34l1.34-.83-1.34-.83v-1.31l2.24 1.42 2-1.34v1.29l-1.32.77 1.32.75v1.32L2.16 34.7zM4.4 52.33L0 50.7v-1l4.4 1.6zm0 8.66L0 59.39v-1l4.4 1.59zm-.1 16.43v1.28L.02 77.3v-1.35l4.28-1.39v1.3l-2.17.58a6.52 6.52 0 0 1-1 .2 4.8 4.8 0 0 1 .52.08l.48.11zM.06 88.24V84.9h.71l2.64 1.85v-1.81h.89v3.25h-.67L.99 86.33v1.91zm0 6.61H4.3V96H.99v1.7H.06zm0 12.12l.8-.21v-1.39l-.8-.22v-1.27l4.3 1.39v1.55l-4.3 1.41zm1.75-.45l.7-.19.61-.15.53-.13c-.1 0-.26 0-.49-.1l-1.35-.34z" fill="#00babc" data-name="Layer 2"/></svg>