<svg xmlns="http://www.w3.org/2000/svg" viewBox="0 0 5.87 83.2"><title>Asset 30vector-home</title><path d="M.08 2.06v-.63h5.07a1.49 1.49 0 0 1-.24-.16c-.06-.07-.32-.38-.76-.93L4.62 0l1.17 1.52v.54zm4.37 13.71a1.32 1.32 0 0 1-.9-.3 1.53 1.53 0 0 1-.46-.87 1.61 1.61 0 0 1-.43 1 1.3 1.3 0 0 1-.92.33 1.49 1.49 0 0 1-1.26-.57 2.57 2.57 0 0 1-.44-1.61 4.35 4.35 0 0 1 .07-.83 2.5 2.5 0 0 1 .24-.73h.56a3.1 3.1 0 0 0-.28.79 3.3 3.3 0 0 0-.1.8c.02 1 .38 1.49 1.18 1.49s1-.55 1-1.63v-.57h.6v.57a1.76 1.76 0 0 0 .29 1.06 1 1 0 0 0 .82.39.79.79 0 0 0 .66-.29 1.16 1.16 0 0 0 .24-.77 2.35 2.35 0 0 0-.11-.71 2.91 2.91 0 0 0-.37-.76l.44-.29a2.94 2.94 0 0 1 .63 1.75 2 2 0 0 1-.42 1.25 1.26 1.26 0 0 1-1.04.5zm1.34 21.58L.08 35.27v-.7l5.71 2.13zm0 10.92L.08 46.16v-.65l5.71 2.13zM.08 70.59v-3.75h.56l1.51 1.5a11 11 0 0 0 1 .91 2.3 2.3 0 0 0 .58.33 1.73 1.73 0 0 0 .6.11 1 1 0 0 0 .73-.28 1 1 0 0 0 .27-.77 1.85 1.85 0 0 0-.12-.67 2.53 2.53 0 0 0-.44-.7l.44-.35a2.63 2.63 0 0 1 .7 1.71 1.82 1.82 0 0 1-.41 1.26 1.41 1.41 0 0 1-1.11.46 2.14 2.14 0 0 1-1.07-.3 7.43 7.43 0 0 1-1.41-1.14l-1.2-1.25v2.93zm2.44 8.89a4 4 0 0 1 2.52.66 2.31 2.31 0 0 1 .87 1.93 2.6 2.6 0 0 1-.07.7h-.6a2.39 2.39 0 0 0 .1-.69 1.71 1.71 0 0 0-.58-1.4 2.88 2.88 0 0 0-1.8-.53 1.5 1.5 0 0 1 .68 1.36 1.59 1.59 0 0 1-.47 1.21 1.74 1.74 0 0 1-1.26.49 1.93 1.93 0 0 1-1.4-.49A1.72 1.72 0 0 1 0 81.41 1.69 1.69 0 0 1 .67 80a2.91 2.91 0 0 1 1.85-.52zm-2 1.92a1.09 1.09 0 0 0 .39.87 1.51 1.51 0 0 0 1 .31 1.31 1.31 0 0 0 .89-.31 1.05 1.05 0 0 0 .32-.85 1.37 1.37 0 0 0-.14-.64 1.16 1.16 0 0 0-.4-.47.88.88 0 0 0-.53-.17 1.93 1.93 0 0 0-.75.15 1.41 1.41 0 0 0-.55.44 1.17 1.17 0 0 0-.2.67z" data-name="Layer 2"/></svg>