<svg xmlns="http://www.w3.org/2000/svg" viewBox="0 0 161.78 143.63"><title>Asset 228012442</title><g id="Layer_2" data-name="Layer 2"><g id="Imagenes"><circle cx="80.89" cy="50.36" r="50.36" fill="#f15d2a"/><path d="M86.25,55.61h-.2a12.26,12.26,0,0,1-5.11,6.54,14.42,14.42,0,0,1-3.86,1.71,15.59,15.59,0,0,1-4.23.59,15.86,15.86,0,0,1-7-1.46,14.18,14.18,0,0,1-5-4,16.75,16.75,0,0,1-3-6,28.51,28.51,0,0,1-.07-14.48,18,18,0,0,1,2.79-6,13.7,13.7,0,0,1,4.81-4.11,14.83,14.83,0,0,1,7-1.53,14.93,14.93,0,0,1,8.15,2.12,16.19,16.19,0,0,1,5.57,6.38h.14V27.81h2.58V76.43H86.25ZM72.88,62.15a12.17,12.17,0,0,0,6-1.39A11.83,11.83,0,0,0,83,57a17,17,0,0,0,2.4-5.29,23,23,0,0,0,.8-6.1,22.68,22.68,0,0,0-.8-6,16.29,16.29,0,0,0-2.44-5.26,12.55,12.55,0,0,0-4.11-3.69A11.76,11.76,0,0,0,73,29.28a12.47,12.47,0,0,0-6,1.35,12.06,12.06,0,0,0-4.14,3.66,16.08,16.08,0,0,0-2.44,5.26,23,23,0,0,0-.81,6.09,25.77,25.77,0,0,0,.74,6.24,15.19,15.19,0,0,0,2.37,5.26,12.06,12.06,0,0,0,4.14,3.66A12.62,12.62,0,0,0,72.88,62.15Z" fill="#fff"/><path d="M101.3,56.44h3.55v7.18H101.3Z" fill="#fff"/><path d="M2.27,128H0v-3.82H2.27v-3.73h4.9v3.73h3.08V128H7.17v5.08a1.58,1.58,0,0,0,.43,1.31,1.87,1.87,0,0,0,1.19.34,6,6,0,0,0,1.35-.16l.63,3.55a11.32,11.32,0,0,1-3.36.51,5.15,5.15,0,0,1-4-1.3,5.9,5.9,0,0,1-1.18-4.06Z" fill="#404041"/><path d="M16.34,124.18H21.1v1.73a4.78,4.78,0,0,1,1.73-1.5,5.16,5.16,0,0,1,2.24-.47,6.22,6.22,0,0,1,1.38.13l-.54,4.2a3.28,3.28,0,0,0-.7-.12,7.34,7.34,0,0,0-.81-.05,5.84,5.84,0,0,0-1.18.13,2.84,2.84,0,0,0-1,.44,2.34,2.34,0,0,0-.72,1,4.09,4.09,0,0,0-.23,1.49v7.27H16.34Z" fill="#404041"/><path d="M40.74,138.38v-1.67a5.08,5.08,0,0,1-1.91,1.62,5.63,5.63,0,0,1-2.34.49,4.24,4.24,0,0,1-3.34-1.32A5.51,5.51,0,0,1,32,133.68v-9.5h4.9v8.71a2.09,2.09,0,0,0,.4,1.5,1.54,1.54,0,0,0,1.14.4,2.17,2.17,0,0,0,1.57-.63,2.36,2.36,0,0,0,.44-.67,2.62,2.62,0,0,0,.18-1.09v-8.22h4.9v14.2Z" fill="#404041"/><path d="M65.84,132.43H56.48a4.05,4.05,0,0,0,.69,2.21,2.15,2.15,0,0,0,1.74.66,2,2,0,0,0,2.25-1.49h4.57a5.57,5.57,0,0,1-2.16,3.76,7.73,7.73,0,0,1-4.6,1.25,7.15,7.15,0,0,1-5.39-1.9,7.54,7.54,0,0,1-1.81-5.41,9.66,9.66,0,0,1,.52-3.31,6.78,6.78,0,0,1,1.44-2.44,6.34,6.34,0,0,1,2.27-1.5,8.47,8.47,0,0,1,3-.51,8.1,8.1,0,0,1,2.95.5,5.72,5.72,0,0,1,2.14,1.43,6.07,6.07,0,0,1,1.29,2.26,9.46,9.46,0,0,1,.44,2.95ZM59,127.21a2.39,2.39,0,0,0-1.84.65,3,3,0,0,0-.7,1.79h4.84a2.81,2.81,0,0,0-.61-1.87A2.26,2.26,0,0,0,59,127.21Z" fill="#404041"/><path d="M82.66,136.41a6.43,6.43,0,0,1-2,1.77,5.38,5.38,0,0,1-2.65.64,5.77,5.77,0,0,1-2.66-.57,5.22,5.22,0,0,1-1.86-1.56,6.81,6.81,0,0,1-1.08-2.34,11.62,11.62,0,0,1-.35-2.89,10.48,10.48,0,0,1,.43-3.13A7,7,0,0,1,73.72,126a5.19,5.19,0,0,1,2-1.49,6.4,6.4,0,0,1,2.61-.51,6.08,6.08,0,0,1,2.29.46,5.09,5.09,0,0,1,2.12,1.75V124.4H85v19.23H82.66Zm0-5.44a7.49,7.49,0,0,0-.36-2.61,3.73,3.73,0,0,0-1.18-1.58,4,4,0,0,0-1.23-.68,4.66,4.66,0,0,0-1.34-.19,4.31,4.31,0,0,0-1.61.3,3.31,3.31,0,0,0-1.29,1,4.74,4.74,0,0,0-.87,1.71,8.76,8.76,0,0,0-.31,2.52,8.45,8.45,0,0,0,.34,2.6,4.6,4.6,0,0,0,.89,1.68,3.27,3.27,0,0,0,1.26.89,4,4,0,0,0,1.43.27,4.65,4.65,0,0,0,1.4-.19,4.08,4.08,0,0,0,1.23-.65,4.27,4.27,0,0,0,1.21-1.62,6.06,6.06,0,0,0,.43-2.46Z" fill="#404041"/><path d="M92.37,124.4h2.36v8.82a4.64,4.64,0,0,0,.63,2.76,2.48,2.48,0,0,0,2.07.81,4.15,4.15,0,0,0,2.84-1.14,4.57,4.57,0,0,0,1-1.26,3.68,3.68,0,0,0,.35-1.71V124.4H104v14h-2.32v-2.16a6.84,6.84,0,0,1-2.22,2,5.43,5.43,0,0,1-2.57.63,4.23,4.23,0,0,1-3.45-1.29,5.93,5.93,0,0,1-1.07-3.85Z" fill="#404041"/><path d="M123.5,134.46a5,5,0,0,1-1.79,3.19,6.48,6.48,0,0,1-4.16,1.17,6.18,6.18,0,0,1-4.89-1.94,7.87,7.87,0,0,1-1.71-5.39,9.9,9.9,0,0,1,.49-3.22,6.59,6.59,0,0,1,1.37-2.36,5.76,5.76,0,0,1,2.09-1.44,7.57,7.57,0,0,1,5.44,0,5.09,5.09,0,0,1,1.91,1.42,6.18,6.18,0,0,1,1.11,2.15,9.8,9.8,0,0,1,.36,2.73V132H113.33a6.45,6.45,0,0,0,.29,2,4.76,4.76,0,0,0,.81,1.57,3.71,3.71,0,0,0,1.31,1,5,5,0,0,0,4.38-.28,3.34,3.34,0,0,0,1.11-1.8Zm-2.13-4.25a6.8,6.8,0,0,0-.22-1.81,3.83,3.83,0,0,0-.67-1.39,3.14,3.14,0,0,0-1.2-.91,4.38,4.38,0,0,0-1.75-.32,3.76,3.76,0,0,0-2.91,1.13,5.46,5.46,0,0,0-1.23,3.3Z" fill="#404041"/><path d="M130.81,124.56h.56v2.49a6,6,0,0,1,2-2,5.36,5.36,0,0,1,2.77-.7,6.28,6.28,0,0,1,1,.08l-.08.56-.48-.06-.47,0a5.13,5.13,0,0,0-2.41.54,5.62,5.62,0,0,0-1.84,1.63,2.45,2.45,0,0,0-.29.48,2.24,2.24,0,0,0-.18.57,3.83,3.83,0,0,0-.08.69c0,.25,0,.56,0,.94v8.62h-.56Z" fill="#404041"/><path d="M144,122.53h-.65l3.06-3.46h.73Zm-.46,2h.57v13.82h-.57Z" fill="#f15d2a"/><path d="M161.21,138.38v-2.59a5.52,5.52,0,0,1-2.14,2.17,6.14,6.14,0,0,1-3.08.75,5.39,5.39,0,0,1-3.61-1.1,3.87,3.87,0,0,1-1.29-3.12,4,4,0,0,1,.57-2.25,3.87,3.87,0,0,1,1.52-1.34,7.57,7.57,0,0,1,2.17-.66,23,23,0,0,1,2.59-.24l3.27-.14v-.67a8.86,8.86,0,0,0-.19-2,3.21,3.21,0,0,0-.68-1.41A3,3,0,0,0,159,125a7,7,0,0,0-2.16-.28,5.67,5.67,0,0,0-3.12.72,3.42,3.42,0,0,0-1.45,2.15l-.51-.11a3.69,3.69,0,0,1,1.61-2.45,6.29,6.29,0,0,1,3.53-.85,7.27,7.27,0,0,1,2.31.32,3.6,3.6,0,0,1,1.5,1,3.89,3.89,0,0,1,.82,1.56,8.44,8.44,0,0,1,.24,2.13v9.28Zm0-8-3.19.13c-.87,0-1.68.12-2.45.23a7.51,7.51,0,0,0-2,.58,3.26,3.26,0,0,0-1.36,1.18,3.62,3.62,0,0,0-.5,2,3.35,3.35,0,0,0,1.13,2.74,4.83,4.83,0,0,0,3.17.94,6.09,6.09,0,0,0,2.38-.44,5,5,0,0,0,1.81-1.27,4,4,0,0,0,.79-1.17,4.33,4.33,0,0,0,.24-1.56Z" fill="#404041"/></g></g></svg>