<svg xmlns="http://www.w3.org/2000/svg" viewBox="0 0 254.36 112.07"><title>Asset 213012442</title><g id="Layer_2" data-name="Layer 2"><g id="Texto"><path d="M167.6.33,125.69,24a41.16,41.16,0,0,0-33.42,16.8l-.14-.33H90L84.7,52.4,84.92,0Z" fill="#ef509c"/><path d="M161.48,44.35l-.38.44L161,60h-2.29l.07-15.38a39.52,39.52,0,0,0-7.14-7.19l-5.82,25.36-38,44.83a42.71,42.71,0,0,0,53.64-63.26Z" fill="#ef509c"/><path d="M161.1,44.79l0-4h-2.29v3.84c.38.5.78,1,1.14,1.52Z" fill="#231f20"/><path d="M14.59,44.15a5.36,5.36,0,0,0-2.14-1.76A6.25,6.25,0,0,0,9.8,41.8a6.6,6.6,0,0,0-3,.64,7.41,7.41,0,0,0-2.33,1.74A8.24,8.24,0,0,0,3,46.72a8.65,8.65,0,0,0-.55,3A8.74,8.74,0,0,0,3,52.89a8,8,0,0,0,1.49,2.53,7.15,7.15,0,0,0,2.31,1.7,7,7,0,0,0,3,.64,7.08,7.08,0,0,0,3.15-.68,7.09,7.09,0,0,0,2.43-2L17,56.54a8.06,8.06,0,0,1-3.15,2.54,10,10,0,0,1-4.14.79,9.92,9.92,0,0,1-3.86-.77A9.42,9.42,0,0,1,.73,53.78a10.45,10.45,0,0,1-.73-4,11,11,0,0,1,.73-4,9.54,9.54,0,0,1,9.08-6.1,10.42,10.42,0,0,1,3.75.72,6.93,6.93,0,0,1,3,2.32Z" fill="#231f20"/><path d="M27.72,59.46l8.55-19.18h2.14L46.5,59.53H43.85L37.28,43.21h-.05L30.3,59.47" fill="#231f20"/><path d="M68,43.8a3.36,3.36,0,0,0-1.52-1.35,4.83,4.83,0,0,0-2-.43A6.26,6.26,0,0,0,63,42.2a4.35,4.35,0,0,0-1.32.56,2.87,2.87,0,0,0-1.3,2.47,3,3,0,0,0,.2,1.16,2.43,2.43,0,0,0,.66.91,5.2,5.2,0,0,0,1.24.76,15.8,15.8,0,0,0,1.93.71c.74.24,1.46.5,2.16.77a7.21,7.21,0,0,1,1.83,1,4.57,4.57,0,0,1,1.28,1.57,5.29,5.29,0,0,1,.46,2.35,5.09,5.09,0,0,1-2.09,4.24,6.73,6.73,0,0,1-2.16,1,9.7,9.7,0,0,1-2.53.33,10.61,10.61,0,0,1-1.68-.16,7.28,7.28,0,0,1-1.61-.47,6,6,0,0,1-1.45-.82,4.44,4.44,0,0,1-1.16-1.24l2-1.59a4,4,0,0,0,1.73,1.61,5.17,5.17,0,0,0,2.35.55A5.4,5.4,0,0,0,65,57.76a4.4,4.4,0,0,0,1.35-.63,3.47,3.47,0,0,0,1-1,2.68,2.68,0,0,0,.39-1.44,3.17,3.17,0,0,0-.29-1.45,2.81,2.81,0,0,0-.92-1,7.44,7.44,0,0,0-1.57-.74l-2.23-.77a13.67,13.67,0,0,1-1.9-.75,6.26,6.26,0,0,1-1.5-1,4.5,4.5,0,0,1-1-1.47A5.27,5.27,0,0,1,58,45.41,5,5,0,0,1,58.51,43,5.09,5.09,0,0,1,60,41.28a6.88,6.88,0,0,1,2.1-1,8.51,8.51,0,0,1,2.44-.34,8.09,8.09,0,0,1,3,.52,5.76,5.76,0,0,1,2.39,1.75Z" fill="#231f20"/><polygon points="100.25 59.74 97.59 59.73 91.01 43.42 90.98 43.42 84.9 57.67 84.68 58.18 84.05 59.67 81.47 59.66 84.7 52.4 90.02 40.48 92.13 40.49 92.27 40.82 100.25 59.74" fill="#231f20"/><path d="M143.4,44.67a5.36,5.36,0,0,0-2.14-1.76,6.25,6.25,0,0,0-2.65-.59,6.47,6.47,0,0,0-3,.64,7.12,7.12,0,0,0-2.33,1.74,8.24,8.24,0,0,0-1.53,2.54,9,9,0,0,0,0,6.16,7.77,7.77,0,0,0,1.49,2.53,7,7,0,0,0,2.31,1.71,6.86,6.86,0,0,0,3,.63,6.94,6.94,0,0,0,3.15-.67,7.09,7.09,0,0,0,2.43-2l1.7,1.45a8,8,0,0,1-3.14,2.54,10.36,10.36,0,0,1-4.14.79,9.92,9.92,0,0,1-3.86-.77,9.42,9.42,0,0,1-5.14-5.32,10.45,10.45,0,0,1-.73-4,11,11,0,0,1,.73-4,9.55,9.55,0,0,1,2-3.2,9.62,9.62,0,0,1,7.05-2.9,10.21,10.21,0,0,1,3.75.72,6.93,6.93,0,0,1,3,2.32Z" fill="#231f20"/><path d="M175.65,40.84h2.89l11.06,16h.05l.06-16H192l-.07,19.22H189L178,44.1h0l-.07,16h-2.28Z" fill="#231f20"/><path d="M220,45a5.42,5.42,0,0,0-2.14-1.76,6.32,6.32,0,0,0-2.66-.59,6.52,6.52,0,0,0-2.94.63A7.34,7.34,0,0,0,209.91,45a8.27,8.27,0,0,0-1.52,2.55,8.6,8.6,0,0,0-.56,3,9,9,0,0,0,.53,3.14,7.9,7.9,0,0,0,1.5,2.53,7,7,0,0,0,2.3,1.71,6.87,6.87,0,0,0,3,.63,7,7,0,0,0,3.15-.67,7.07,7.07,0,0,0,2.42-2l1.71,1.46a7.87,7.87,0,0,1-3.15,2.53,10.55,10.55,0,0,1-8,0,9.6,9.6,0,0,1-3.1-2.12,9.76,9.76,0,0,1-2-3.2,11.32,11.32,0,0,1,0-8,9.73,9.73,0,0,1,2-3.2,9.57,9.57,0,0,1,7-2.9,10.13,10.13,0,0,1,3.75.72,6.93,6.93,0,0,1,3,2.32Z" fill="#231f20"/><path d="M244.27,60.81a10.32,10.32,0,0,1-4-.77A9.46,9.46,0,0,1,235,54.71a11.39,11.39,0,0,1,0-8.05,9.54,9.54,0,0,1,2.11-3.2,9.71,9.71,0,0,1,3.18-2.09,10.37,10.37,0,0,1,4-.75,10.53,10.53,0,0,1,4,.78,9.75,9.75,0,0,1,3.17,2.12,9.52,9.52,0,0,1,2.08,3.21,10.85,10.85,0,0,1,.73,4,10.67,10.67,0,0,1-.77,4,9.43,9.43,0,0,1-2.1,3.19,9.56,9.56,0,0,1-3.18,2.09A10.41,10.41,0,0,1,244.27,60.81Zm0-2.11a7.64,7.64,0,0,0,3.09-.61,7.23,7.23,0,0,0,2.4-1.7,8,8,0,0,0,1.58-2.53,8.67,8.67,0,0,0,.56-3.11,8.45,8.45,0,0,0-.54-3.11,7.88,7.88,0,0,0-1.55-2.54,7.18,7.18,0,0,0-2.4-1.72,7.53,7.53,0,0,0-3.07-.64,7.64,7.64,0,0,0-3.09.61,7.37,7.37,0,0,0-2.4,1.7,7.78,7.78,0,0,0-1.58,2.54,8.76,8.76,0,0,0-.57,3.1,8.66,8.66,0,0,0,.55,3.11,8,8,0,0,0,1.55,2.55,7.36,7.36,0,0,0,2.39,1.71A7.45,7.45,0,0,0,244.28,58.7Z" fill="#231f20"/><path d="M10.22,81.79c0,.09-.09.13-.26.13H7c-.18,0-.27,0-.27-.11s.22-.12.64-.14c.22,0,.35-.06.38-.11a1.77,1.77,0,0,0,.06-.63l0-4-4.09,0v3.85a1.52,1.52,0,0,0,.09.71c.06.08.28.13.63.16s.36.06.36.12-.09.13-.27.12H1.6c-.18,0-.27,0-.27-.11s.09-.11.27-.13l.37,0c.2,0,.33-.06.38-.14a2.92,2.92,0,0,0,0-.75l0-7.16a2.81,2.81,0,0,0,0-.71c0-.08-.19-.12-.43-.13l-.49,0a.1.1,0,0,1-.08-.11q0-.12.18-.12h.23c.22,0,.75,0,1.59,0,.47,0,.79,0,1,0a.9.9,0,0,1,.25,0c.16,0,.24.05.24.14s-.15.12-.44.12-.47,0-.53.1a1.27,1.27,0,0,0-.09.64V76.6H7.84V73.68a1.86,1.86,0,0,0-.1-.84c-.08-.09-.33-.13-.77-.13-.13,0-.2,0-.2-.12s.08-.12.23-.12h3c.19,0,.29,0,.29.13s-.2.12-.6.13l-.26,0a.26.26,0,0,0-.17.15,4.61,4.61,0,0,0,0,.64l0,7.22a2,2,0,0,0,.06.76c.09.1.35.15.77.15C10.15,81.67,10.22,81.71,10.22,81.79Z" fill="#231f20"/><path d="M30.69,77.34a5,5,0,0,1-1.23,3.42,3.77,3.77,0,0,1-3,1.38,4,4,0,0,1-3.14-1.43,5.45,5.45,0,0,1,0-7,4.13,4.13,0,0,1,3.16-1.34,3.83,3.83,0,0,1,3,1.43A5.13,5.13,0,0,1,30.69,77.34Zm-1.52.07a6.47,6.47,0,0,0-1-3.89,2.09,2.09,0,0,0-1.78-.87,2.12,2.12,0,0,0-1.68.65,5.91,5.91,0,0,0-1.12,4,6.43,6.43,0,0,0,.76,3.41,2.41,2.41,0,0,0,2.14,1.22,2.12,2.12,0,0,0,2-1.14A6.9,6.9,0,0,0,29.17,77.41Z" fill="#231f20"/><path d="M49.87,75.07c0,.12-.06.18-.16.18s-.19-.12-.23-.36l-.06-.48a2.32,2.32,0,0,0-.3-.83,1.34,1.34,0,0,0-.94-.57,2.32,2.32,0,0,0-.68-.08l-.77,0,0,8.19c0,.33.09.53.26.62a2.73,2.73,0,0,0,.76.08c.11,0,.16.05.16.11s-.07.12-.21.12h-.19c-.55,0-.93,0-1.16,0s-.57,0-.84,0l-1,0c-.2,0-.31,0-.31-.12s.2-.12.59-.13.46,0,.54-.17a1.4,1.4,0,0,0,.08-.56l0-8.14a6.9,6.9,0,0,0-1.67.13c-.57.2-.91.76-1,1.67,0,.27-.09.4-.19.4s-.16-.09-.16-.29a1.37,1.37,0,0,1,0-.29l0-.32c0-.41.07-1,.13-1.64h.62l2.76.06h1.52l2.26,0c0,.51.06,1.26.16,2.25,0,0,0,.07,0,.11A.17.17,0,0,1,49.87,75.07Z" fill="#231f20"/><path d="M68.54,80s0,.25,0,.66,0,.8,0,1.17v.44c-.89,0-2.65-.09-5.27-.1h-1.7c-.17,0-.26,0-.26-.12s0-.07.09-.08l.51,0c.24,0,.38-.07.43-.15a1.57,1.57,0,0,0,.08-.64l0-7.65c0-.26,0-.42-.11-.47a2,2,0,0,0-.74-.08c-.15,0-.22,0-.22-.11s.1-.12.3-.12h5.75a4.35,4.35,0,0,0,.75,0c0,.39,0,.93.12,1.62l.05.58s0,.11,0,.18,0,.13-.12.13-.17-.11-.22-.34a2.21,2.21,0,0,0-.83-1.56A6.35,6.35,0,0,0,64.85,73H63.74l0,4H64a4.27,4.27,0,0,0,1.86-.22c.22-.15.37-.6.46-1.34,0-.19.06-.29.15-.29s.15.08.14.25,0,.4,0,.71a7.3,7.3,0,0,0,0,.73c0,1,0,1.63,0,2a2,2,0,0,1,0,.23c0,.12,0,.17-.15.17s-.1,0-.13-.11-.06-.32-.11-.75a1.07,1.07,0,0,0-.66-1,5,5,0,0,0-1.26-.09h-.61l0,4.54a23.71,23.71,0,0,0,3.5-.11c.6-.13.94-.7,1-1.7,0-.23.07-.34.17-.34S68.54,79.77,68.54,80Z" fill="#231f20"/><path d="M87.18,81.15c0,.24,0,.63-.05,1.17H87l-.39,0c-.21,0-.44,0-.71,0l-5.63-.06c-.15,0-.23,0-.23-.13s.13-.1.37-.12a1.26,1.26,0,0,0,.62-.11.83.83,0,0,0,.1-.51l0-7.62c0-.34,0-.53-.1-.59a1.61,1.61,0,0,0-.73-.08c-.17,0-.25-.05-.25-.15s0-.13.16-.13h.12c.3,0,.9,0,1.78.06l.47,0,.59,0h.15c.16,0,.25,0,.24.14a.08.08,0,0,1-.08.09,2.15,2.15,0,0,1-.46,0c-.26,0-.42,0-.47.13a2,2,0,0,0-.08.71l0,8h1a10,10,0,0,0,2.24-.15,1.31,1.31,0,0,0,.89-.61,3.13,3.13,0,0,0,.27-1.2c0-.12.06-.18.16-.18s.16.06.15.2v1.18Z" fill="#231f20"/><path d="M118.68,79.88a2.19,2.19,0,0,1-1.27,2,4.37,4.37,0,0,1-1.75.41c-.21,0-.83,0-1.85,0h-1.65q-.24,0-.24-.12c0-.08.14-.12.43-.11a1,1,0,0,0,.58-.1,1.27,1.27,0,0,0,.08-.62L113,74a2.12,2.12,0,0,0-.05-.68c-.06-.11-.29-.17-.69-.19-.24,0-.37,0-.37-.14s.12-.13.34-.13h.17a1,1,0,0,0,.27,0h2.64a4.08,4.08,0,0,1,2.19.49,1.8,1.8,0,0,1,.83,1.62,1.88,1.88,0,0,1-.69,1.51,3.61,3.61,0,0,1-2,.74v.08a4.11,4.11,0,0,1,1.93.52A2.2,2.2,0,0,1,118.68,79.88Zm-1.8-4.69a2,2,0,0,0-.59-1.74,2.23,2.23,0,0,0-1.18-.24c-.16,0-.39,0-.72.05v3.93h.11l.75,0a1.55,1.55,0,0,0,1.21-.53A2.25,2.25,0,0,0,116.88,75.19Zm.37,4.53a1.93,1.93,0,0,0-1.37-2.12,6.22,6.22,0,0,0-1.51-.12v4c0,.26,0,.41.08.45a1.75,1.75,0,0,0,.76.1,2,2,0,0,0,1.49-.59A2.5,2.5,0,0,0,117.25,79.72Z" fill="#231f20"/><path d="M139.37,77.78a5,5,0,0,1-1.23,3.41,3.81,3.81,0,0,1-3,1.39A4.06,4.06,0,0,1,132,81.15a5,5,0,0,1-1.27-3.5A5,5,0,0,1,132,74.19a4.1,4.1,0,0,1,3.16-1.34,3.85,3.85,0,0,1,3,1.42A5.17,5.17,0,0,1,139.37,77.78Zm-1.52.07a6.47,6.47,0,0,0-1-3.89,2.12,2.12,0,0,0-1.78-.88,2.16,2.16,0,0,0-1.68.66,5.89,5.89,0,0,0-1.12,4,6.29,6.29,0,0,0,.76,3.41,2.39,2.39,0,0,0,2.14,1.22,2.09,2.09,0,0,0,2-1.14A6.83,6.83,0,0,0,137.85,77.85Z" fill="#231f20"/><path d="M159.73,73.22c0,.07-.08.11-.24.11H159c-.22,0-.36,0-.4.17a1.14,1.14,0,0,0,0,.31l0,5.09a4.52,4.52,0,0,1-.75,2.87,2.93,2.93,0,0,1-2.39.89,3.2,3.2,0,0,1-2.76-1.12,4.33,4.33,0,0,1-.52-2.46l0-5.44a.36.36,0,0,0-.33-.3,3.93,3.93,0,0,0-.51,0c-.15,0-.23-.06-.23-.13s.07-.13.19-.13h3.05c.16,0,.23.06.23.16s0,.1-.08.1a3.61,3.61,0,0,1-.54,0,1.34,1.34,0,0,0-.26,0,.23.23,0,0,0-.15.19s0,.3,0,.78l0,4.85a3.78,3.78,0,0,0,.56,2.44,2.16,2.16,0,0,0,1.69.66c1.37,0,2.16-.78,2.34-2.33,0-.24.05-1.23.06-3V73.76a.34.34,0,0,0-.28-.37,2.75,2.75,0,0,0-.55,0q-.27,0-.27-.15c0-.08.07-.12.19-.12h2.16C159.63,73.1,159.73,73.14,159.73,73.22Z" fill="#231f20"/><path d="M178.44,75.59c0,.12-.05.18-.16.18s-.18-.12-.23-.36,0-.33-.05-.48a2.09,2.09,0,0,0-.31-.83,1.33,1.33,0,0,0-.93-.58,2.64,2.64,0,0,0-.68-.07l-.78,0,0,8.19c0,.33.09.53.26.61a2.25,2.25,0,0,0,.76.09c.11,0,.16,0,.16.11s-.07.12-.21.12l-.2,0-1.15,0-.84,0-1,0c-.2,0-.31,0-.31-.12s.2-.12.58-.13.47-.06.55-.18a1.37,1.37,0,0,0,.07-.55l0-8.14a6.34,6.34,0,0,0-1.67.13c-.57.2-.92.76-1,1.66,0,.27-.09.41-.19.41s-.16-.1-.16-.29,0-.2,0-.3l0-.31c0-.42.07-1,.13-1.64h.61l2.77.06c.32,0,.83,0,1.52,0l2.25,0c0,.51.07,1.26.17,2.25a.45.45,0,0,0,0,.11A.26.26,0,0,1,178.44,75.59Z" fill="#231f20"/><path d="M193.39,82.53c0,.08,0,.12-.17.12h-.13c-.05,0-.67,0-1.85,0a5,5,0,0,0-.67,0H190c-.12,0-.17,0-.17-.13s.12-.11.35-.11a1.13,1.13,0,0,0,.64-.13,2,2,0,0,0,.1-.79l0-7.15a1.86,1.86,0,0,0-.07-.75c-.06-.09-.31-.15-.75-.17q-.27,0-.27-.09c0-.08.06-.12.17-.12h1.85l.79,0h.52c.14,0,.22,0,.22.12s-.21.11-.61.12c-.23,0-.37.05-.42.13a1.33,1.33,0,0,0-.08.56l0,7.25a2.16,2.16,0,0,0,.06.84,1.59,1.59,0,0,0,.88.18C193.34,82.42,193.39,82.46,193.39,82.53Z" fill="#231f20"/><path d="M213.83,78.1a5.06,5.06,0,0,1-1,3.16,4.08,4.08,0,0,1-2.65,1.59v.42a2.14,2.14,0,0,0,.39,1.48,2.06,2.06,0,0,0,1.46.4,2.64,2.64,0,0,0,.36,0l.36,0c.15,0,.22.06.22.16s-.14.13-.41.18a7.61,7.61,0,0,1-1.52.13,2.27,2.27,0,0,1-1.92-.78,2.52,2.52,0,0,1-.34-1.52v-.49a4.55,4.55,0,0,1-2-1A4.83,4.83,0,0,1,205.2,78a5.46,5.46,0,0,1,.55-2.44,4.44,4.44,0,0,1,1.48-1.76,3.92,3.92,0,0,1,2.25-.63,3.84,3.84,0,0,1,2.61.91,4.87,4.87,0,0,1,1.29,1.78A5.73,5.73,0,0,1,213.83,78.1Zm-1.52.08a6.8,6.8,0,0,0-.94-3.86,2.08,2.08,0,0,0-1.8-.94,2.35,2.35,0,0,0-2.11,1.19,6.77,6.77,0,0,0-.75,3.45,6.44,6.44,0,0,0,.75,3.44,2.43,2.43,0,0,0,2.16,1.21,2.28,2.28,0,0,0,2.2-1.57A7.68,7.68,0,0,0,212.31,78.18Z" fill="#231f20"/><path d="M234.2,73.52c0,.07-.08.11-.24.11h-.47c-.22,0-.36.06-.4.18a1.14,1.14,0,0,0,0,.31l0,5.09a4.52,4.52,0,0,1-.75,2.87,2.93,2.93,0,0,1-2.39.89,3.2,3.2,0,0,1-2.76-1.12,4.33,4.33,0,0,1-.52-2.46l0-5.45c0-.15-.14-.25-.33-.29a3.93,3.93,0,0,0-.51,0c-.15,0-.23-.06-.23-.13s.07-.13.19-.13h3.05c.16,0,.23.06.23.16s0,.1-.08.1a3.61,3.61,0,0,1-.54,0,1.34,1.34,0,0,0-.26,0,.23.23,0,0,0-.15.19s0,.3,0,.78l0,4.85a3.78,3.78,0,0,0,.56,2.44,2.16,2.16,0,0,0,1.69.66c1.37,0,2.16-.78,2.34-2.33,0-.24.05-1.23.05-3V74.06a.34.34,0,0,0-.28-.37,2.82,2.82,0,0,0-.55,0q-.27,0-.27-.15c0-.08.07-.13.19-.12h2.16C234.1,73.39,234.2,73.44,234.2,73.52Z" fill="#231f20"/><path d="M252.78,80.71s0,.25,0,.66,0,.8,0,1.17V83c-.89,0-2.64-.09-5.27-.1h-1.69c-.18,0-.26,0-.26-.12s0-.07.08-.08l.51,0c.24,0,.38-.07.44-.15a1.87,1.87,0,0,0,.07-.64l0-7.65c0-.26,0-.42-.11-.47a1.92,1.92,0,0,0-.74-.08c-.15,0-.22,0-.22-.11s.1-.12.3-.12h5.76a4.31,4.31,0,0,0,.74,0q0,.59.12,1.62l.05.58a1,1,0,0,1,0,.18c0,.09,0,.13-.12.13s-.17-.11-.21-.34a2.21,2.21,0,0,0-.84-1.56,6.31,6.31,0,0,0-2.28-.26H248l0,4h.33a4.31,4.31,0,0,0,1.85-.23c.22-.15.38-.6.46-1.34,0-.19.07-.29.15-.29s.15.08.15.25,0,.4,0,.71,0,.56,0,.73c0,1,0,1.63,0,2v.23c0,.12,0,.18-.14.18s-.11,0-.14-.12,0-.32-.11-.75a1.06,1.06,0,0,0-.65-1,5.1,5.1,0,0,0-1.27-.09H248l0,4.54a23.62,23.62,0,0,0,3.5-.11c.6-.13.95-.7,1-1.7,0-.23.07-.34.17-.34S252.78,80.51,252.78,80.71Z" fill="#231f20"/></g></g></svg>