<svg xmlns="http://www.w3.org/2000/svg" viewBox="0 0 233.11 41.28"><title>Asset 214012442</title><g id="Layer_2" data-name="Layer 2"><g id="Texto"><path d="M13.56,4.08a4.91,4.91,0,0,0-2-1.6,5.74,5.74,0,0,0-2.43-.54,6.08,6.08,0,0,0-2.7.6,6.68,6.68,0,0,0-2.13,1.6A7.45,7.45,0,0,0,3,6.47a7.69,7.69,0,0,0-.5,2.78A8,8,0,0,0,3,12.12a7.22,7.22,0,0,0,1.37,2.31A6.57,6.57,0,0,0,6.44,16a6.37,6.37,0,0,0,2.72.57A6.35,6.35,0,0,0,12,15.92a6.63,6.63,0,0,0,2.21-1.83l1.57,1.32A7.3,7.3,0,0,1,13,17.75a9.35,9.35,0,0,1-3.79.74,8.86,8.86,0,0,1-3.53-.7,8.61,8.61,0,0,1-2.85-1.93A8.82,8.82,0,0,1,.89,13a9.9,9.9,0,0,1-.67-3.7A9.84,9.84,0,0,1,.87,5.62,8.9,8.9,0,0,1,2.72,2.68,8.77,8.77,0,0,1,9.16,0,9.38,9.38,0,0,1,12.6.65a6.34,6.34,0,0,1,2.77,2.11Z" fill="#231f20"/><path d="M28,18H25.64L33.39.45h2L42.83,18H40.4m0,0L34.33,3.13h0L28,18" fill="#231f20"/><path d="M62.46,3.56a3.08,3.08,0,0,0-1.39-1.24,4.57,4.57,0,0,0-1.82-.38,5.69,5.69,0,0,0-1.36.17,4.26,4.26,0,0,0-1.21.52,2.75,2.75,0,0,0-.86.93A2.71,2.71,0,0,0,55.5,4.9a2.62,2.62,0,0,0,.19,1,2.08,2.08,0,0,0,.61.83,4.57,4.57,0,0,0,1.14.7,16.2,16.2,0,0,0,1.76.64c.68.22,1.34.45,2,.7a6.74,6.74,0,0,1,1.69.95A4.15,4.15,0,0,1,64,11.19a4.81,4.81,0,0,1,.43,2.16A4.71,4.71,0,0,1,64,15.63a4.89,4.89,0,0,1-1.38,1.61,6.3,6.3,0,0,1-2,.94,8.93,8.93,0,0,1-2.31.31,8.82,8.82,0,0,1-1.54-.14,7.2,7.2,0,0,1-1.48-.42,5.62,5.62,0,0,1-1.33-.75,4.28,4.28,0,0,1-1.07-1.13l1.79-1.47a3.65,3.65,0,0,0,1.59,1.47,4.73,4.73,0,0,0,2.16.5,4.85,4.85,0,0,0,1.35-.2A4.1,4.1,0,0,0,61,15.77a3.3,3.3,0,0,0,.9-1,2.5,2.5,0,0,0,.35-1.32A2.73,2.73,0,0,0,62,12.16a2.42,2.42,0,0,0-.84-.88,7,7,0,0,0-1.44-.67l-2-.7a11.46,11.46,0,0,1-1.74-.68,5.5,5.5,0,0,1-1.38-.94A4,4,0,0,1,53.6,7a4.86,4.86,0,0,1-.34-1.88,4.68,4.68,0,0,1,.5-2.21A4.77,4.77,0,0,1,55.1,1.28,6.29,6.29,0,0,1,57,.32,7.86,7.86,0,0,1,59.25,0,7.67,7.67,0,0,1,62,.46a5.22,5.22,0,0,1,2.19,1.6Z" fill="#231f20"/><path d="M77.2,18H74.84L82.59.45h2L92,18H89.6m0,0L83.53,3.13h0L77.2,18" fill="#231f20"/><path d="M131.5,4.08a4.91,4.91,0,0,0-2-1.6,5.74,5.74,0,0,0-2.43-.54,6.08,6.08,0,0,0-2.7.6,6.68,6.68,0,0,0-2.13,1.6,7.45,7.45,0,0,0-1.38,2.33,7.69,7.69,0,0,0-.5,2.78,8,8,0,0,0,.5,2.87,7.22,7.22,0,0,0,1.37,2.31A6.46,6.46,0,0,0,124.38,16a6.84,6.84,0,0,0,5.6-.06,6.63,6.63,0,0,0,2.21-1.83l1.57,1.32a7.3,7.3,0,0,1-2.87,2.34,9.35,9.35,0,0,1-3.79.74,8.83,8.83,0,0,1-3.53-.7,8.51,8.51,0,0,1-2.85-1.93A8.82,8.82,0,0,1,118.83,13a9.9,9.9,0,0,1-.67-3.7,9.84,9.84,0,0,1,.65-3.63,8.9,8.9,0,0,1,1.85-2.94A8.77,8.77,0,0,1,127.1,0a9.38,9.38,0,0,1,3.44.65,6.34,6.34,0,0,1,2.77,2.11Z" fill="#231f20"/><path d="M145.61.45h2.09V18h-2.09Z" fill="#231f20"/><path d="M161,.45h2.64l10.19,14.61h0V.45H176V18h-2.63L163.15,3.43h-.05V18H161Z" fill="#231f20"/><path d="M201.62,4.08a4.91,4.91,0,0,0-2-1.6,5.74,5.74,0,0,0-2.43-.54,6.08,6.08,0,0,0-2.7.6,6.53,6.53,0,0,0-2.12,1.6A7.29,7.29,0,0,0,191,6.47a7.69,7.69,0,0,0-.5,2.78,8,8,0,0,0,.5,2.87,7.22,7.22,0,0,0,1.37,2.31A6.57,6.57,0,0,0,194.5,16a6.84,6.84,0,0,0,5.6-.06,6.63,6.63,0,0,0,2.21-1.83l1.57,1.32A7.23,7.23,0,0,1,201,17.75a9.35,9.35,0,0,1-3.79.74,8.86,8.86,0,0,1-3.53-.7A8.65,8.65,0,0,1,189,13a9.71,9.71,0,0,1-.68-3.7,9.84,9.84,0,0,1,.65-3.63,8.9,8.9,0,0,1,1.85-2.94A8.77,8.77,0,0,1,197.22,0a9.38,9.38,0,0,1,3.44.65,6.34,6.34,0,0,1,2.77,2.11Z" fill="#231f20"/><path d="M223.91,18.49a9.44,9.44,0,0,1-3.69-.7,8.62,8.62,0,0,1-2.9-1.93,8.43,8.43,0,0,1-1.92-2.93,9.87,9.87,0,0,1-.68-3.68,9.89,9.89,0,0,1,.68-3.69,8.57,8.57,0,0,1,1.92-2.94A8.74,8.74,0,0,1,220.22.7a10.08,10.08,0,0,1,7.38,0,8.79,8.79,0,0,1,2.91,1.92,8.54,8.54,0,0,1,1.91,2.94,9.69,9.69,0,0,1,.69,3.69,9.68,9.68,0,0,1-.69,3.68,8.41,8.41,0,0,1-1.91,2.93,8.66,8.66,0,0,1-2.91,1.93A9.41,9.41,0,0,1,223.91,18.49Zm0-1.94a6.83,6.83,0,0,0,2.82-.57,6.46,6.46,0,0,0,2.2-1.57,7.13,7.13,0,0,0,1.43-2.32,7.86,7.86,0,0,0,.51-2.84,7.88,7.88,0,0,0-.51-2.85,7.13,7.13,0,0,0-1.43-2.32,6.59,6.59,0,0,0-2.2-1.57,7.26,7.26,0,0,0-5.64,0,6.66,6.66,0,0,0-2.19,1.57,7,7,0,0,0-1.44,2.32A7.88,7.88,0,0,0,217,9.25a7.86,7.86,0,0,0,.51,2.84,7,7,0,0,0,1.44,2.32A6.52,6.52,0,0,0,221.09,16,6.9,6.9,0,0,0,223.91,16.55Z" fill="#231f20"/><path d="M8.14,38.55c0,.08-.08.12-.23.12H5.21c-.17,0-.25,0-.25-.1s.19-.11.58-.14c.2,0,.32,0,.35-.1a1.56,1.56,0,0,0,.05-.58V34.13H2.2v3.52a1.35,1.35,0,0,0,.09.66,1.17,1.17,0,0,0,.58.14c.22,0,.33,0,.33.1s-.09.12-.25.12H.25c-.17,0-.25,0-.25-.1s.08-.11.25-.12l.34,0c.18,0,.3-.06.34-.13a2.51,2.51,0,0,0,0-.69V31.05a2.48,2.48,0,0,0,0-.66c0-.06-.17-.1-.4-.11l-.45,0s-.07,0-.07-.1S.05,30,.16,30H.38c.2,0,.69,0,1.46,0,.42,0,.72,0,.88,0L3,30c.14,0,.22,0,.22.13s-.14.11-.4.11a.8.8,0,0,0-.49.09A1.31,1.31,0,0,0,2.2,31v2.87H5.94V31.14a1.62,1.62,0,0,0-.1-.78c-.06-.07-.29-.11-.7-.1-.12,0-.18,0-.18-.11S5,30,5.17,30H7.88c.17,0,.26,0,.26.12s-.18.11-.54.12l-.24,0a.23.23,0,0,0-.16.14,3.07,3.07,0,0,0,0,.58v6.62a2.11,2.11,0,0,0,.06.69,1.13,1.13,0,0,0,.71.14C8.07,38.44,8.14,38.48,8.14,38.55Z" fill="#1e242b"/><path d="M26.87,34.41a4.62,4.62,0,0,1-1.12,3.13A3.48,3.48,0,0,1,23,38.82a3.68,3.68,0,0,1-2.88-1.3A4.59,4.59,0,0,1,19,34.32a4.52,4.52,0,0,1,1.12-3.17A3.7,3.7,0,0,1,23,29.91a3.53,3.53,0,0,1,2.77,1.29A4.75,4.75,0,0,1,26.87,34.41Zm-1.4.06a5.92,5.92,0,0,0-.92-3.55,1.94,1.94,0,0,0-1.64-.8,2,2,0,0,0-1.54.61,5.45,5.45,0,0,0-1,3.65,5.82,5.82,0,0,0,.7,3.12,2.21,2.21,0,0,0,2,1.11,1.94,1.94,0,0,0,1.78-1A6.22,6.22,0,0,0,25.47,34.47Z" fill="#1e242b"/><path d="M44.42,32.26c0,.11-.05.16-.15.16s-.17-.11-.21-.33,0-.29-.05-.44a2.08,2.08,0,0,0-.29-.76,1.21,1.21,0,0,0-.86-.52,3.24,3.24,0,0,0-.62-.07l-.71,0v7.5c0,.31.08.49.24.57a2.56,2.56,0,0,0,.7.07c.1,0,.14,0,.14.1s-.06.11-.19.11h-.18c-.49,0-.85,0-1.05,0h-.77c-.25,0-.55,0-.92,0-.19,0-.29,0-.29-.1s.18-.12.53-.12.43-.06.5-.17a1.16,1.16,0,0,0,.07-.51V30.33a5.77,5.77,0,0,0-1.53.13c-.52.18-.83.69-.92,1.52,0,.25-.09.37-.18.37s-.14-.08-.14-.26a2.44,2.44,0,0,1,0-.27l0-.28c0-.39.06-.88.11-1.51h.57l2.53,0h1.39l2.06,0c0,.47.07,1.15.16,2.06,0,0,0,.06,0,.1A.14.14,0,0,1,44.42,32.26Z" fill="#1e242b"/><path d="M61.53,36.67s0,.23,0,.6,0,.74,0,1.08v.41c-.81,0-2.42-.08-4.82-.08H55.11c-.16,0-.24,0-.24-.1s0-.07.08-.08l.46,0c.22,0,.35-.06.4-.14a1.53,1.53,0,0,0,.07-.58v-7c0-.24,0-.38-.11-.42a1.61,1.61,0,0,0-.68-.08c-.13,0-.2,0-.2-.1S55,30,55.17,30h5.27a3.62,3.62,0,0,0,.68-.05c0,.36.05.85.11,1.48l.05.54a.71.71,0,0,1,0,.16c0,.08,0,.12-.11.12S61,32.18,61,32a2,2,0,0,0-.77-1.42,5.3,5.3,0,0,0-2.08-.23h-1V34h.29a3.92,3.92,0,0,0,1.7-.21q.3-.21.42-1.23c0-.18.06-.26.14-.26s.13.07.13.22,0,.37,0,.66,0,.51,0,.66c0,.89,0,1.49,0,1.83a1.62,1.62,0,0,1,0,.21c0,.11,0,.16-.13.16s-.1,0-.13-.11-.05-.29-.1-.69a1,1,0,0,0-.61-.9,5.08,5.08,0,0,0-1.15-.07h-.56V38.4a22,22,0,0,0,3.2-.12q.82-.18.93-1.56c0-.21.07-.31.16-.31S61.53,36.49,61.53,36.67Z" fill="#1e242b"/><path d="M78.6,37.69c0,.21,0,.57,0,1.07h-.13l-.36,0c-.2,0-.41,0-.65,0l-5.16,0q-.21,0-.21-.12s.12-.09.34-.1a1.28,1.28,0,0,0,.56-.11c.06-.05.09-.21.09-.46v-7c0-.31,0-.48-.09-.53s-.28-.08-.66-.08c-.16,0-.24,0-.24-.13s0-.12.15-.12h.11c.27,0,.82,0,1.63,0a4.2,4.2,0,0,0,.43,0l.54,0h.14c.14,0,.22,0,.22.13a.08.08,0,0,1-.07.09l-.43,0c-.24,0-.38,0-.43.12a1.92,1.92,0,0,0-.06.65v7.34h.92a9.62,9.62,0,0,0,2.06-.15,1.19,1.19,0,0,0,.81-.56,2.77,2.77,0,0,0,.24-1.11c0-.11.06-.16.15-.16s.15.06.14.19v1.08Z" fill="#1e242b"/><path d="M107.44,36.41a2,2,0,0,1-1.15,1.87,4.13,4.13,0,0,1-1.61.38h-3.21c-.14,0-.21,0-.21-.11s.13-.1.39-.1.47,0,.53-.09a1.23,1.23,0,0,0,.08-.57V31.07a2.19,2.19,0,0,0-.05-.63c-.06-.09-.27-.15-.63-.16s-.34,0-.34-.13.1-.12.31-.12h.15a.77.77,0,0,0,.25,0h2.42a3.74,3.74,0,0,1,2,.45,1.65,1.65,0,0,1,.77,1.48,1.74,1.74,0,0,1-.63,1.38,3.29,3.29,0,0,1-1.78.68v.07a3.8,3.8,0,0,1,1.77.48A2,2,0,0,1,107.44,36.41Zm-1.66-4.29a1.89,1.89,0,0,0-.55-1.59,2,2,0,0,0-1.09-.21c-.14,0-.35,0-.65,0V34h.11l.68,0a1.37,1.37,0,0,0,1.1-.5A2,2,0,0,0,105.78,32.12Zm.35,4.15a1.76,1.76,0,0,0-1.26-1.94,5.9,5.9,0,0,0-1.38-.11v3.7c0,.24,0,.38.07.41a1.59,1.59,0,0,0,.7.09,1.78,1.78,0,0,0,1.36-.54A2.29,2.29,0,0,0,106.13,36.27Z" fill="#1e242b"/><path d="M126.38,34.41a4.62,4.62,0,0,1-1.12,3.13,3.48,3.48,0,0,1-2.72,1.28,3.68,3.68,0,0,1-2.88-1.3,5,5,0,0,1,0-6.37,3.7,3.7,0,0,1,2.88-1.24,3.53,3.53,0,0,1,2.77,1.29A4.75,4.75,0,0,1,126.38,34.41Zm-1.4.06a6,6,0,0,0-.92-3.55,1.94,1.94,0,0,0-1.64-.8,2,2,0,0,0-1.54.61,5.4,5.4,0,0,0-1,3.65,5.82,5.82,0,0,0,.7,3.12,2.21,2.21,0,0,0,2,1.11,1.94,1.94,0,0,0,1.78-1A6.33,6.33,0,0,0,125,34.47Z" fill="#1e242b"/><path d="M145,30.16c0,.07-.07.1-.22.1h-.43c-.2,0-.33,0-.37.16a1.6,1.6,0,0,0,0,.28v4.66a4.14,4.14,0,0,1-.68,2.63,2.66,2.66,0,0,1-2.18.83,2.89,2.89,0,0,1-2.53-1,3.93,3.93,0,0,1-.49-2.25v-5a.34.34,0,0,0-.3-.27h-.47q-.21,0-.21-.12c0-.07.06-.12.17-.12h2.8c.14,0,.21.05.21.14a.09.09,0,0,1-.07.1,3.84,3.84,0,0,1-.5,0,.93.93,0,0,0-.24,0,.18.18,0,0,0-.13.17s0,.27,0,.71v4.44a3.5,3.5,0,0,0,.52,2.24,2,2,0,0,0,1.55.59c1.26,0,2-.71,2.14-2.14,0-.22,0-1.12,0-2.72v-3a.3.3,0,0,0-.25-.34,2.38,2.38,0,0,0-.51,0c-.16,0-.24,0-.24-.13s.06-.12.17-.12h2C144.91,30,145,30.09,145,30.16Z" fill="#1e242b"/><path d="M162.14,32.26c0,.11,0,.16-.14.16s-.17-.11-.22-.33,0-.29,0-.44a2.27,2.27,0,0,0-.29-.76,1.21,1.21,0,0,0-.86-.52,3.33,3.33,0,0,0-.62-.07l-.71,0v7.5c0,.31.08.49.24.57a2.44,2.44,0,0,0,.7.07c.09,0,.14,0,.14.1s-.06.11-.19.11H160c-.5,0-.85,0-1.05,0h-.78c-.24,0-.54,0-.92,0-.19,0-.28,0-.28-.1s.18-.12.53-.12.43-.06.5-.17a1.16,1.16,0,0,0,.07-.51V30.33a5.77,5.77,0,0,0-1.53.13c-.52.18-.83.69-.93,1.52,0,.25-.08.37-.17.37s-.15-.08-.15-.26a1.23,1.23,0,0,1,0-.27l0-.28c0-.39.06-.88.11-1.51H156l2.53,0h1.4L162,30c0,.47.07,1.15.16,2.06a.38.38,0,0,0,0,.1A.26.26,0,0,1,162.14,32.26Z" fill="#1e242b"/><path d="M175.85,38.56c0,.07,0,.11-.15.11h-.12c-.05,0-.61,0-1.69,0-.21,0-.41,0-.62,0h-.5c-.11,0-.16,0-.16-.12s.11-.1.33-.1.52-.05.58-.13a1.72,1.72,0,0,0,.08-.71V31.06a1.94,1.94,0,0,0-.06-.69q-.07-.12-.69-.15-.24,0-.24-.09c0-.06,0-.1.15-.1h2.89c.14,0,.2,0,.2.11s-.18.1-.55.12c-.21,0-.34,0-.39.11a1.32,1.32,0,0,0-.06.52v6.63a2.22,2.22,0,0,0,.06.77c.09.1.36.15.8.17C175.81,38.46,175.85,38.49,175.85,38.56Z" fill="#1e242b"/><path d="M194.55,34.42a4.61,4.61,0,0,1-.91,2.9,3.74,3.74,0,0,1-2.42,1.47v.38a1.4,1.4,0,0,0,1.7,1.72l.33,0,.33,0c.13,0,.2,0,.2.14s-.13.12-.37.17a7,7,0,0,1-1.39.13,2.12,2.12,0,0,1-1.77-.71,2.32,2.32,0,0,1-.31-1.39v-.45a4.26,4.26,0,0,1-1.87-.92,4.45,4.45,0,0,1-1.42-3.47,5.12,5.12,0,0,1,.49-2.23,4.17,4.17,0,0,1,1.35-1.62,3.56,3.56,0,0,1,2.06-.58,3.51,3.51,0,0,1,2.39.82,4.41,4.41,0,0,1,1.19,1.62A5.21,5.21,0,0,1,194.55,34.42Zm-1.39.09a6.16,6.16,0,0,0-.87-3.53,1.89,1.89,0,0,0-1.66-.86,2.14,2.14,0,0,0-1.92,1.1,6.09,6.09,0,0,0-.67,3.16,5.87,5.87,0,0,0,.69,3.14,2.21,2.21,0,0,0,2,1.1,2.09,2.09,0,0,0,2-1.44A7.17,7.17,0,0,0,193.16,34.51Z" fill="#1e242b"/><path d="M213.19,30.16c0,.07-.08.1-.23.1h-.42c-.21,0-.33,0-.37.16a1,1,0,0,0,0,.28v4.66a4.14,4.14,0,0,1-.68,2.63,2.69,2.69,0,0,1-2.19.83,2.91,2.91,0,0,1-2.53-1,3.94,3.94,0,0,1-.48-2.25v-5a.35.35,0,0,0-.31-.27h-.46c-.14,0-.22-.05-.22-.12s.06-.12.18-.12h2.79c.15,0,.21.05.21.14s0,.09-.07.1a3.84,3.84,0,0,1-.5,0,.9.9,0,0,0-.23,0,.2.2,0,0,0-.14.17s0,.27,0,.71v4.44a3.5,3.5,0,0,0,.52,2.24,2,2,0,0,0,1.56.59c1.25,0,2-.71,2.13-2.14,0-.22,0-1.12,0-2.72v-3a.31.31,0,0,0-.26-.34,2.33,2.33,0,0,0-.5,0c-.16,0-.25,0-.25-.13s.06-.12.18-.12h2C213.09,30,213.19,30.09,213.19,30.16Z" fill="#1e242b"/><path d="M230.23,36.67s0,.23,0,.6,0,.74,0,1.08v.41c-.82,0-2.42-.08-4.83-.08H223.8c-.16,0-.24,0-.24-.1s0-.07.08-.08l.47,0c.22,0,.35-.06.39-.14a1.34,1.34,0,0,0,.07-.58v-7c0-.24,0-.38-.1-.42a1.68,1.68,0,0,0-.68-.08c-.14,0-.2,0-.2-.1s.09-.11.27-.11h5.27a3.56,3.56,0,0,0,.68-.05c0,.36.06.85.12,1.48l0,.54s0,.09,0,.16,0,.12-.11.12-.16-.1-.2-.31a2,2,0,0,0-.77-1.42,5.39,5.39,0,0,0-2.09-.23h-1V34h.3a4,4,0,0,0,1.7-.21c.2-.14.34-.55.41-1.23,0-.18.06-.26.14-.26s.13.07.13.22,0,.37,0,.66,0,.51,0,.66c0,.89,0,1.49,0,1.83v.21c0,.11,0,.16-.13.16s-.1,0-.12-.11a5.15,5.15,0,0,1-.1-.69,1,1,0,0,0-.61-.9,5.19,5.19,0,0,0-1.16-.07h-.56V38.4a22.24,22.24,0,0,0,3.21-.12c.54-.12.86-.64.93-1.56,0-.21.07-.31.16-.31S230.23,36.49,230.23,36.67Z" fill="#1e242b"/></g></g></svg>