<svg xmlns="http://www.w3.org/2000/svg" viewBox="0 0 170.88 46.37"><title>Asset 135vectores-eka.studio</title><path d="M20.4 3.21l.12.38-2.3 2.06v33.06a76.41 76.41 0 0 0-9.63 7.66C5.41 41.45 2.48 39.42 0 42.9c.58-4.78 7.65-10.68 12.82-.9V8.05zm-7.94 4l8.17-5.32A18.48 18.48 0 0 1 13.82 1L10.34.12A5 5 0 0 0 6.23 1C3.9 3.19 1.46 5.84 1.05 8.85c-.38 2.8.67 7.29 3.71 7.23s4.71-4 2.35-4a2.38 2.38 0 0 1-2.47 3.1c-1.73-.15-2.54-2-2.82-4.07C1.36 7.72 4.35 4.19 8 5.72a13.31 13.31 0 0 0 4.46 1.46m15.91 4.5a12.75 12.75 0 0 1-7.3 4.77 15.38 15.38 0 0 1 .36 3.64c-.1 5.49 0 10.24 0 15.12a9.38 9.38 0 0 0 6.13 3.84 19.32 19.32 0 0 1 7.48-5 74.36 74.36 0 0 1-.29-8.6c.06-2.55 0-5.11.16-7.66a4.17 4.17 0 0 0-1.79-3.39 24.46 24.46 0 0 0-4.75-2.76M26 16.2c.17 2.52.09 5.35 0 8.47a60.38 60.38 0 0 0 .23 8.72 1.63 1.63 0 0 0 1.66 1.48 19.16 19.16 0 0 0 2.14-.1c-.19-3.59-.07-7.12-.09-10.63 0-2.61-.07-4 0-5.62a2.1 2.1 0 0 0-1.38-2.1A4.58 4.58 0 0 0 26 16.2m138.18-4.52a12.79 12.79 0 0 1-7.3 4.77 16 16 0 0 1 .35 3.64c-.1 5.49 0 10.24 0 15.12a9.38 9.38 0 0 0 6.13 3.84 19.4 19.4 0 0 1 7.48-5 74.36 74.36 0 0 1-.29-8.6c.06-2.55 0-5.11.16-7.66a4.17 4.17 0 0 0-1.71-3.35 24.11 24.11 0 0 0-4.74-2.76m-2.33 4.52c.17 2.52.08 5.35 0 8.47a62 62 0 0 0 .21 8.72 1.65 1.65 0 0 0 1.68 1.48 19.09 19.09 0 0 0 2.13-.1c-.19-3.59-.07-7.12-.09-10.63 0-2.61-.06-4 0-5.62a2.11 2.11 0 0 0-1.37-2.1 4.58 4.58 0 0 0-2.52-.22M45.73 11.76c-2.39 2.77-5.09 4.71-8.32 5.16-.29 4.43-.22 9.25 6.36 10.82 1.43 1.24 1.59 3.11 1 6.07-3.34-3.81-8.77-1.2-10.13 4.41 4.37-2.87 7.19-2 9.32.62a18.26 18.26 0 0 1 4.29-4.47c2.91-1.91 2.49-9.1-1.27-10.7-2.69-1.14-4.21-1.87-4.36-4l.15-3 .94-.41c1.7 3.75 7 2.81 7.78-1.78-2.26 1.76-4.21.92-5.76-2.79m7.34 4.52a26.22 26.22 0 0 0 9.14-4.91l4.64 7.77c-5 3.69-9.22 7.58-8.11 11.86 1.15 4.44 3.61 3.08 4.77-.06l1.13 1.36c-2.6 2.09-4.7 4.25-5.43 6.61a15.33 15.33 0 0 1-4.4-3.36 3.66 3.66 0 0 1-1.17-2.72V17.24l-.57-1m5.77-.13v8.71l3.3-4.12a12.77 12.77 0 0 0-2.37-5c-.22-.26-.93-.37-.93.37m53.2.13a26 26 0 0 0 9.14-4.91l4.64 7.77c-5 3.69-9.22 7.58-8.11 11.86 1.16 4.44 3.61 3.08 4.77-.06l1.14 1.36c-2.6 2.09-4.71 4.25-5.44 6.61a15.33 15.33 0 0 1-4.4-3.36 3.63 3.63 0 0 1-1.17-2.72V17.24c-.19-.31-.38-.64-.57-1m5.77-.13v8.71c1.1-1.38 2.21-2.75 3.31-4.12a13.36 13.36 0 0 0-2.37-5c-.23-.26-.94-.37-.94.37M95.38.36L77 11.53c-9 11.91-1.74 34 14.78 34.23l10.89-6.4-.24-.39-3.74 1.6c-2.93 1.25-7.28.26-9.54-.24V6.08c0-.68.69-.87 1.31-.29a22.2 22.2 0 0 0 5.65 4c1.29.59 2.07-.23 2.9-.86a44.68 44.68 0 0 1 5.7-3.75l-.34-.29c-1.17.56-2.87 1.14-4.33.1L96 2.11a1.7 1.7 0 0 1-.62-1.75M87.3 8.13a19.51 19.51 0 0 0-4.47 5.12v21.9l2.57-2.32V11.21a8.55 8.55 0 0 1 1.9-1.89v30c-5-2.77-8.49-9.77-8.56-15.74-.11-9.02 5.56-14.87 8.56-16.39zm9.78 3.8c-.64 1.45-1.35 2.9-4.35 4.45.69.21 1.65.27 1.65 1.57v13.89c0 4 2.29 7 4.83 7.28a7 7 0 0 1 3.87-3.57 5.45 5.45 0 0 0 3.11 3.45 12.49 12.49 0 0 1 3.3-3.5l-1.19-.5V17.53c0-1 .76-1.32 1.36-1.82a11.52 11.52 0 0 1-4.41-3.78 9.09 9.09 0 0 1-4.17 4.21c.81.18 2.13.17 2.13 1.81V31.6a3.08 3.08 0 0 1-2 2.83c-.8.21-1.58-1.1-1.58-1.93V17.25c0-3.75-1.77-5.22-2.59-5.32m33.2-.24a14.27 14.27 0 0 1-3.88 3.91 3.37 3.37 0 0 1 1.64 3.23v13.83c0 .89-.86 1-1.63 1.17v.43a16.31 16.31 0 0 1 6.09 4.8 13.05 13.05 0 0 1 5.54-6.31l-.9-1.26c-1.93 3.2-4.15 3.29-4.15.85V17.86c2-1.42 3.27-.67 3.95 1.87a14.84 14.84 0 0 1 2.34-4.73 29.7 29.7 0 0 1-3.18-3.09c-.89 1.87-1.92 3.19-3.12 3.73-.84-2.56-1.74-3.49-2.66-4m9.7 4.2a2 2 0 0 1 1.41 2.21v14.8c0 3.42 2.09 5.45 6.05 6.31.55-2.09 3-4.58 6.43-7.27.06-5.59 2.14-18.39-2.5-20.21a12.28 12.28 0 0 1-3.37 4.16 2.35 2.35 0 0 1 1.79 2.52v12.32a6.39 6.39 0 0 1-2.2 4.59c-.85-.08-1.42-1-1.57-3.06V17.62c0-4.2-1.58-5.25-2.68-5.74a48 48 0 0 1-3.4 4" fill="#231f20" fill-rule="evenodd" data-name="Layer 2"/></svg>