<svg xmlns="http://www.w3.org/2000/svg" viewBox="0 0 164.42 91.44"><title>Asset 133vectores-eka.studio</title><g data-name="Layer 2"><path fill="#231f20" d="M60.88 0h42.65v42.65H60.88z"/><path fill="#fff" d="M81.7 20.82h18.86v18.86H81.7z"/><path d="M18.19 90a1.35 1.35 0 0 0 .39.46 1.69 1.69 0 0 0 .58.24 3.24 3.24 0 0 0 .72.08 1.79 1.79 0 0 0 .48-.07 1.5 1.5 0 0 0 .47-.19 1.19 1.19 0 0 0 .38-.36.93.93 0 0 0 .14-.51.78.78 0 0 0-.1-.41 1.06 1.06 0 0 0-.27-.29 1.69 1.69 0 0 0-.38-.19 2.91 2.91 0 0 0-.39-.12L19 88.32l-.48-.16a1.5 1.5 0 0 1-.4-.25 1.19 1.19 0 0 1-.27-.38 1.33 1.33 0 0 1-.11-.56 1.84 1.84 0 0 1 .08-.47 1.35 1.35 0 0 1 .29-.52 1.81 1.81 0 0 1 .59-.41 2.41 2.41 0 0 1 1-.16 3 3 0 0 1 .79.1 2.09 2.09 0 0 1 .65.33 1.58 1.58 0 0 1 .62 1.3h-.53a1.22 1.22 0 0 0-.15-.56 1.16 1.16 0 0 0-.33-.4 1.54 1.54 0 0 0-.48-.24 1.77 1.77 0 0 0-.56-.08 2.26 2.26 0 0 0-.53.06 1.18 1.18 0 0 0-.44.19.9.9 0 0 0-.31.33 1.07 1.07 0 0 0-.12.53.67.67 0 0 0 .07.33.64.64 0 0 0 .18.25.92.92 0 0 0 .27.16 1.73 1.73 0 0 0 .32.11l1.36.33a4.6 4.6 0 0 1 .56.19 2.09 2.09 0 0 1 .46.28 1.14 1.14 0 0 1 .31.41 1.32 1.32 0 0 1 .11.59 1.29 1.29 0 0 1 0 .25 1.17 1.17 0 0 1-.09.33 1.41 1.41 0 0 1-.21.35 1.5 1.5 0 0 1-.37.33 2.14 2.14 0 0 1-.59.23 3.52 3.52 0 0 1-.85.09 3.34 3.34 0 0 1-.91-.11 2 2 0 0 1-.72-.35 1.42 1.42 0 0 1-.45-.6 2 2 0 0 1-.14-.88h.53a1.72 1.72 0 0 0 .13.72m5.87-2.77a3 3 0 0 1 .49-.93 2.53 2.53 0 0 1 .83-.64 2.59 2.59 0 0 1 3.12.64 3 3 0 0 1 .49.93 3.61 3.61 0 0 1 .16 1.1 3.66 3.66 0 0 1-.16 1.1 2.9 2.9 0 0 1-.49.92 2.43 2.43 0 0 1-.82.63 2.88 2.88 0 0 1-2.3 0 2.38 2.38 0 0 1-.83-.63 2.9 2.9 0 0 1-.49-.92 3.66 3.66 0 0 1-.16-1.1 3.61 3.61 0 0 1 .16-1.1m.49 2A2.41 2.41 0 0 0 25 90a1.86 1.86 0 0 0 .65.56 2 2 0 0 0 .95.21 2 2 0 0 0 .95-.21 1.83 1.83 0 0 0 .64-.56 2.41 2.41 0 0 0 .38-.79 3.4 3.4 0 0 0 0-1.79 2.36 2.36 0 0 0-.38-.78 1.83 1.83 0 0 0-.64-.56 2 2 0 0 0-.95-.21 2 2 0 0 0-.95.21 1.86 1.86 0 0 0-.65.56 2.36 2.36 0 0 0-.38.78 3.4 3.4 0 0 0 0 1.79m7.54-3.69v5.12h3.12v.45h-3.65v-5.57h.53zm5.69 0V89a2.76 2.76 0 0 0 .11.82 1.45 1.45 0 0 0 .32.56 1.25 1.25 0 0 0 .52.31 2.07 2.07 0 0 0 .68.1 2.15 2.15 0 0 0 .7-.1 1.21 1.21 0 0 0 .51-.31 1.33 1.33 0 0 0 .32-.56 2.47 2.47 0 0 0 .11-.82v-3.48h.53v3.57a2.69 2.69 0 0 1-.12.81 1.7 1.7 0 0 1-1.05 1.1 2.49 2.49 0 0 1-1 .17 2.42 2.42 0 0 1-1-.17 1.72 1.72 0 0 1-.67-.45 1.78 1.78 0 0 1-.39-.68 2.69 2.69 0 0 1-.12-.81v-3.54zm10.27 1.11a1.31 1.31 0 0 0-.39-.42 1.83 1.83 0 0 0-.5-.26 1.9 1.9 0 0 0-.58-.09 2.06 2.06 0 0 0-1 .21 2 2 0 0 0-.65.56 2.34 2.34 0 0 0-.37.78 3.4 3.4 0 0 0 0 1.79 2.39 2.39 0 0 0 .37.8 2 2 0 0 0 .65.56 2.06 2.06 0 0 0 1 .21 1.66 1.66 0 0 0 1.24-.52 2 2 0 0 0 .36-.57 2.07 2.07 0 0 0 .18-.7H49a2.77 2.77 0 0 1-.24.93 2.12 2.12 0 0 1-1.18 1.15 2.56 2.56 0 0 1-.89.15A2.6 2.6 0 0 1 45.5 91a2.38 2.38 0 0 1-.83-.63 2.71 2.71 0 0 1-.49-.92 3.66 3.66 0 0 1-.16-1.1 3.61 3.61 0 0 1 .16-1.1 2.76 2.76 0 0 1 .49-.93 2.53 2.53 0 0 1 .83-.64 2.6 2.6 0 0 1 1.15-.23 2.38 2.38 0 0 1 1.46.46 1.87 1.87 0 0 1 .51.57 1.91 1.91 0 0 1 .27.77h-.54a1.64 1.64 0 0 0-.23-.58m3.25-1.15h.53v5.57h-.53zm3.12 1.69a2.78 2.78 0 0 1 .5-.93 2.39 2.39 0 0 1 .82-.64 2.59 2.59 0 0 1 3.12.64 3 3 0 0 1 .49.93 3.61 3.61 0 0 1 .16 1.1 3.66 3.66 0 0 1-.16 1.1 2.9 2.9 0 0 1-.49.92 2.43 2.43 0 0 1-.82.63 2.88 2.88 0 0 1-2.3 0 2.25 2.25 0 0 1-.82-.63 2.74 2.74 0 0 1-.5-.92 3.66 3.66 0 0 1-.16-1.1 3.61 3.61 0 0 1 .16-1.1m.49 2a2.41 2.41 0 0 0 .38.79 1.86 1.86 0 0 0 .65.56 2 2 0 0 0 1 .21 2 2 0 0 0 .95-.21 2 2 0 0 0 .65-.56 2.61 2.61 0 0 0 .37-.79 3.4 3.4 0 0 0 0-1.79 2.55 2.55 0 0 0-.37-.78 2 2 0 0 0-.65-.56 2 2 0 0 0-.95-.21 2 2 0 0 0-1 .21 1.86 1.86 0 0 0-.65.56 2.36 2.36 0 0 0-.38.78 3.4 3.4 0 0 0 0 1.79m7.57-3.69l3.25 4.71h.01v-4.71h.53v5.57h-.59l-3.24-4.71h-.02v4.71h-.53v-5.57h.59zm10.32 0v.45h-3.32v2.02h3.11v.45h-3.11v2.2h3.36v.45h-3.89v-5.57h3.85zM75.59 90a1.16 1.16 0 0 0 .39.46 1.61 1.61 0 0 0 .58.24 3.24 3.24 0 0 0 .72.08 2.17 2.17 0 0 0 1-.26 1.16 1.16 0 0 0 .37-.36.85.85 0 0 0 .15-.51.7.7 0 0 0-.11-.41 1.06 1.06 0 0 0-.27-.29 1.43 1.43 0 0 0-.37-.19l-.4-.12-1.24-.3-.47-.16a1.36 1.36 0 0 1-.4-.25 1.08 1.08 0 0 1-.28-.38 1.34 1.34 0 0 1-.1-.56 1.78 1.78 0 0 1 .07-.47 1.38 1.38 0 0 1 .3-.52 1.81 1.81 0 0 1 .59-.41 2.41 2.41 0 0 1 1-.16 2.88 2.88 0 0 1 .78.1 2.27 2.27 0 0 1 .66.33 1.8 1.8 0 0 1 .45.54 1.67 1.67 0 0 1 .16.76h-.52a1.36 1.36 0 0 0-.15-.56 1.44 1.44 0 0 0-.33-.4 1.54 1.54 0 0 0-.48-.24 1.79 1.79 0 0 0-.57-.08 2.18 2.18 0 0 0-.52.06 1.3 1.3 0 0 0-.45.19.9.9 0 0 0-.31.33 1.19 1.19 0 0 0-.11.53.81.81 0 0 0 .06.33.79.79 0 0 0 .19.25.72.72 0 0 0 .27.16 1.51 1.51 0 0 0 .32.11l1.36.33a4.44 4.44 0 0 1 .55.19 1.88 1.88 0 0 1 .46.28 1.17 1.17 0 0 1 .32.41 1.48 1.48 0 0 1 .11.59v.25a1.17 1.17 0 0 1-.09.33 1.41 1.41 0 0 1-.21.35 1.39 1.39 0 0 1-.38.33 2 2 0 0 1-.59.23 3.37 3.37 0 0 1-.84.09 3.29 3.29 0 0 1-.91-.11 2 2 0 0 1-.72-.35 1.53 1.53 0 0 1-.46-.6 2 2 0 0 1-.13-.88h.53a1.57 1.57 0 0 0 .13.72m11.64-4.48a2.55 2.55 0 0 1 1.91.72 2.9 2.9 0 0 1 .65 2.07 2.94 2.94 0 0 1-.65 2.07 2.59 2.59 0 0 1-1.91.71h-1.93v-5.57zm-.27 5.12a3.56 3.56 0 0 0 1-.13 1.57 1.57 0 0 0 .71-.41 1.6 1.6 0 0 0 .41-.72 3.75 3.75 0 0 0 .14-1.07 3.7 3.7 0 0 0-.14-1.07 1.59 1.59 0 0 0-.41-.73 1.77 1.77 0 0 0-.71-.41 3.93 3.93 0 0 0-1-.13h-1.13v4.67zm9.09-5.12v.45h-3.31v2.02h3.1v.45h-3.1v2.2h3.35v.45h-3.88v-5.57h3.84zm9.92 0v.45h-3.32v2.02h3.11v.45h-3.11v2.2h3.36v.45h-3.89v-5.57h3.85zm3.1 0l1.85 4.89 1.92-4.89h.78v5.57h-.53v-4.81h-.01l-1.91 4.81h-.5l-1.83-4.81h-.02v4.81h-.53v-5.57h.78zm9.68 0a2.11 2.11 0 0 1 .68.11 1.44 1.44 0 0 1 .52.31 1.41 1.41 0 0 1 .33.5 1.78 1.78 0 0 1 .12.67 1.74 1.74 0 0 1-.12.67 1.36 1.36 0 0 1-.33.51 1.44 1.44 0 0 1-.52.31 2.11 2.11 0 0 1-.68.11h-1.94v2.38h-.53v-5.57zm-.12 2.73a1.36 1.36 0 0 0 .9-.28 1 1 0 0 0 .34-.86 1 1 0 0 0-.34-.85 1.37 1.37 0 0 0-.9-.29h-1.82v2.28zm5.77-2.73l2.18 5.57h-.57l-.68-1.73h-2.53l-.68 1.73h-.56l2.24-5.57zm.75 3.39l-1.07-2.86-1.12 2.86zm7.27 1.89a2.42 2.42 0 0 1-1.44.4 2.6 2.6 0 0 1-1.15-.24 2.25 2.25 0 0 1-.82-.63 2.55 2.55 0 0 1-.49-.92 3.67 3.67 0 0 1-.17-1.1 3.62 3.62 0 0 1 .17-1.1 2.59 2.59 0 0 1 .49-.93 2.39 2.39 0 0 1 .82-.64 2.59 2.59 0 0 1 3.12.64 3 3 0 0 1 .49.93 3.78 3.78 0 0 1-.05 2.33 2.59 2.59 0 0 1-.63 1l.79.6-.26.32zm.48-1.45a3 3 0 0 0 .17-1 3.37 3.37 0 0 0-.12-.9 2.55 2.55 0 0 0-.37-.78 2 2 0 0 0-.65-.56 2 2 0 0 0-.95-.21 2 2 0 0 0-1 .21 1.86 1.86 0 0 0-.65.56 2.36 2.36 0 0 0-.38.78 3.4 3.4 0 0 0 0 1.79 2.41 2.41 0 0 0 .38.79 1.86 1.86 0 0 0 .65.56 2 2 0 0 0 1 .21 1.83 1.83 0 0 0 1-.28l-.73-.55.27-.33.81.61a2 2 0 0 0 .54-.86m3.59-3.87V89a2.76 2.76 0 0 0 .11.82 1.45 1.45 0 0 0 .32.56 1.25 1.25 0 0 0 .52.31 2.07 2.07 0 0 0 .68.1 2.11 2.11 0 0 0 .7-.1 1.21 1.21 0 0 0 .51-.31 1.33 1.33 0 0 0 .32-.56 2.47 2.47 0 0 0 .11-.82v-3.48h.53v3.57a2.69 2.69 0 0 1-.12.81 1.9 1.9 0 0 1-.38.68 1.8 1.8 0 0 1-.67.45 2.46 2.46 0 0 1-1 .17 2.42 2.42 0 0 1-1-.17 1.8 1.8 0 0 1-.67-.45 1.76 1.76 0 0 1-.38-.68 2.41 2.41 0 0 1-.13-.81v-3.57zm10.28 0v.45h-3.32v2.02h3.11v.45h-3.11v2.2h3.36v.45H143v-5.57h3.85zM12.38 75.11l-.19-2.7a5.14 5.14 0 0 1-2.19 2.3 5.46 5.46 0 0 1-1.43.53 7.33 7.33 0 0 1-1.57.17 7.07 7.07 0 0 1-3.07-.64 6.37 6.37 0 0 1-2.19-1.69 7.27 7.27 0 0 1-1.3-2.46 10 10 0 0 1 0-5.87 7.27 7.27 0 0 1 1.31-2.46 6.3 6.3 0 0 1 2.19-1.71A7.07 7.07 0 0 1 7 60a7.62 7.62 0 0 1 2.21.31 5.67 5.67 0 0 1 1.85.94 5.5 5.5 0 0 1 1.37 1.54 5.85 5.85 0 0 1 .77 2.14h-1.4a3.38 3.38 0 0 0-.43-1.3 4.42 4.42 0 0 0-1-1.2 5.08 5.08 0 0 0-1.47-.88 5 5 0 0 0-1.9-.4 5.32 5.32 0 0 0-2.54.57 5.07 5.07 0 0 0-1.72 1.48 6.37 6.37 0 0 0-1 2.1 9 9 0 0 0 0 4.77 6.37 6.37 0 0 0 1 2.1 5.1 5.1 0 0 0 1.73 1.49 5.44 5.44 0 0 0 2.53.56 5.68 5.68 0 0 0 2.2-.41 4.5 4.5 0 0 0 1.63-1.13 4.71 4.71 0 0 0 1-1.73 6.61 6.61 0 0 0 .31-2.18H7.1v-1.21h6.3v7.55zM25 60.26a6.46 6.46 0 0 1 1.73.23 4 4 0 0 1 1.44.7 3.41 3.41 0 0 1 1 1.2 3.92 3.92 0 0 1 .36 1.74 4.13 4.13 0 0 1-.73 2.45 3.3 3.3 0 0 1-2.16 1.34 3.45 3.45 0 0 1 1.21.38 2.45 2.45 0 0 1 .78.72 3 3 0 0 1 .43 1 7.54 7.54 0 0 1 .18 1.24v.91c0 .36 0 .73.09 1.1a6.84 6.84 0 0 0 .19 1 1.88 1.88 0 0 0 .37.75h-1.53a1.51 1.51 0 0 1-.2-.51 5.7 5.7 0 0 1-.11-.62c0-.21 0-.43-.05-.63s0-.39 0-.54c0-.53-.07-1.06-.13-1.58a4.59 4.59 0 0 0-.4-1.39 2.45 2.45 0 0 0-.87-1 2.62 2.62 0 0 0-1.6-.23h-5.38v6.59H18.2V60.26zm-.11 7.05a3.86 3.86 0 0 0 1.23-.19 3.19 3.19 0 0 0 1-.58 3 3 0 0 0 .7-.9 2.77 2.77 0 0 0 .26-1.22 2.92 2.92 0 0 0-.79-2.16 3.3 3.3 0 0 0-2.42-.79h-5.25v5.84zm10.54-7.05v9.2a7.31 7.31 0 0 0 .29 2.19 3.82 3.82 0 0 0 .85 1.48A3.34 3.34 0 0 0 38 74a6.08 6.08 0 0 0 1.83.26 6.17 6.17 0 0 0 1.8-.26 3.24 3.24 0 0 0 1.37-.87 3.71 3.71 0 0 0 .86-1.48 7.31 7.31 0 0 0 .29-2.19v-9.2h1.41v9.51a7.35 7.35 0 0 1-.32 2.17 4.72 4.72 0 0 1-1 1.8A4.94 4.94 0 0 1 42.43 75a7 7 0 0 1-2.65.45 6.85 6.85 0 0 1-2.63-.45 4.86 4.86 0 0 1-1.79-1.22 4.59 4.59 0 0 1-1-1.8 7 7 0 0 1-.36-2.21v-9.51zm21.66 0a5.46 5.46 0 0 1 1.81.28 3.82 3.82 0 0 1 1.39.83 3.72 3.72 0 0 1 .9 1.35 5.29 5.29 0 0 1 0 3.57 3.6 3.6 0 0 1-.9 1.34 3.84 3.84 0 0 1-1.39.84 5.73 5.73 0 0 1-1.81.28h-5.18v6.36h-1.42V60.26zm-.31 7.28a3.66 3.66 0 0 0 2.39-.75 3.32 3.32 0 0 0 0-4.57 3.66 3.66 0 0 0-2.39-.75h-4.87v6.07zm8.55-2.78a7.06 7.06 0 0 1 1.31-2.47 6.42 6.42 0 0 1 2.19-1.71A7 7 0 0 1 71.9 60a7 7 0 0 1 3.06.63 6.48 6.48 0 0 1 2.18 1.71 7.23 7.23 0 0 1 1.31 2.47 10 10 0 0 1 0 5.86 7.27 7.27 0 0 1-1.31 2.46A6.43 6.43 0 0 1 75 74.77a7 7 0 0 1-3.06.64 7 7 0 0 1-3.07-.64 6.37 6.37 0 0 1-2.19-1.69 7.1 7.1 0 0 1-1.31-2.46 10 10 0 0 1 0-5.86m1.3 5.31a6.35 6.35 0 0 0 1 2.1 5.14 5.14 0 0 0 1.74 1.49 5.44 5.44 0 0 0 2.54.56 5.37 5.37 0 0 0 2.53-.56 5.07 5.07 0 0 0 1.72-1.49 6.18 6.18 0 0 0 1-2.1 8.76 8.76 0 0 0 .33-2.38 8.67 8.67 0 0 0-.33-2.39 6.18 6.18 0 0 0-1-2.1 5 5 0 0 0-1.72-1.48 5.25 5.25 0 0 0-2.53-.57 5.32 5.32 0 0 0-2.54.57 5.11 5.11 0 0 0-1.74 1.48 6.35 6.35 0 0 0-1 2.1 8.67 8.67 0 0 0-.33 2.39 8.76 8.76 0 0 0 .33 2.38m24.45-9.81h2.6v12.61h7.56v2.24H91.12V60.26zm18 0h2.76l5.73 14.85h-2.79l-1.39-3.93h-5.93l-1.4 3.93h-2.68zm-.92 8.95h4.54l-2.23-6.39h-.06zm14.61.95a3.25 3.25 0 0 0 .29 1.46 2.61 2.61 0 0 0 .81 1 3.68 3.68 0 0 0 1.2.56 5.67 5.67 0 0 0 1.46.18 4.77 4.77 0 0 0 1.46-.2 2.92 2.92 0 0 0 1-.51 1.85 1.85 0 0 0 .54-.72 2.14 2.14 0 0 0 .16-.82 1.76 1.76 0 0 0-.38-1.26 2.24 2.24 0 0 0-.84-.57 16.45 16.45 0 0 0-1.84-.55c-.7-.18-1.57-.4-2.59-.68a5.24 5.24 0 0 1-1.6-.66 3.71 3.71 0 0 1-1-.9 3.27 3.27 0 0 1-.52-1.06 4 4 0 0 1-.16-1.14 3.91 3.91 0 0 1 .47-2 4.12 4.12 0 0 1 1.2-1.29 5.48 5.48 0 0 1 1.75-.8 7.38 7.38 0 0 1 2-.26 7.73 7.73 0 0 1 2.19.3 5.39 5.39 0 0 1 1.81.9 4.46 4.46 0 0 1 1.24 1.49 4.33 4.33 0 0 1 .46 2.05h-2.6a2.52 2.52 0 0 0-1-2 3.91 3.91 0 0 0-2.23-.59 5 5 0 0 0-.93.09 3.17 3.17 0 0 0-.88.31 2 2 0 0 0-.65.6 1.62 1.62 0 0 0-.26.93 1.58 1.58 0 0 0 .49 1.24 3.06 3.06 0 0 0 1.28.68l.65.17 1.28.35 1.39.36 1 .26a4.24 4.24 0 0 1 2.18 1.53 3.92 3.92 0 0 1 .72 2.26 4.16 4.16 0 0 1-1.86 3.58 6 6 0 0 1-1.89.82 9.28 9.28 0 0 1-4.56 0 5.65 5.65 0 0 1-2-1 4.6 4.6 0 0 1-1.33-1.65 5.4 5.4 0 0 1-.52-2.39zm13.85-9.9h10.7v2.25h-8.1v3.89h7.49v2.12h-7.49v4.35h8.24v2.24h-10.84V60.26zm15.19 0h7.09a5.51 5.51 0 0 1 3.69 1.06 3.69 3.69 0 0 1 1.22 3 4.25 4.25 0 0 1-.31 1.75 3.87 3.87 0 0 1-.73 1.13 2.72 2.72 0 0 1-.82.61 5.4 5.4 0 0 1-.59.25 2.86 2.86 0 0 1 .72.21 2.16 2.16 0 0 1 .71.53 2.81 2.81 0 0 1 .56 1 4.32 4.32 0 0 1 .21 1.45 13.42 13.42 0 0 0 .2 2.39 3 3 0 0 0 .62 1.52h-2.79a2.38 2.38 0 0 1-.35-1.06c0-.39-.05-.76-.05-1.12a11.13 11.13 0 0 0-.12-1.76 3.25 3.25 0 0 0-.46-1.23 1.91 1.91 0 0 0-.91-.71 3.79 3.79 0 0 0-1.46-.23h-3.83v6.11h-2.6zm2.6 6.76h4.27a2.73 2.73 0 0 0 1.89-.59 2.31 2.31 0 0 0 .64-1.78 2.86 2.86 0 0 0-.2-1.15 1.61 1.61 0 0 0-.58-.7 2 2 0 0 0-.83-.33 5.07 5.07 0 0 0-1-.09h-4.22z" fill="#231f20"/></g></svg>