<svg xmlns="http://www.w3.org/2000/svg" viewBox="0 0 161.7 38.7"><title>Asset 131vectores-eka.studio</title><g data-name="Layer 2"><path d="M65.07 38.6A28 28 0 0 0 77.48 36c6.37-3.21 10.26-8.32 10.77-15.5.5-7-2.62-12.53-8.36-16.45C72-1.35 58-1.32 50 3.94a18.11 18.11 0 0 0-.24 30.58c4.54 3.09 9.7 4 15.33 4.08M39 .16c-2.6-.27-4.6-.1-6.63 1.36C24.28 7.33 16 12.94 7.85 18.63l-5.12 3.49V.13H0v38.43h2.74V26.51a2.2 2.2 0 0 1 .64-1.6c3.44-2.48 7-4.87 10.51-7.34l1.22 1.09c6.64 6.1 13.32 12.13 19.81 18.34 1.72 1.65 3.45 1.75 5.73 1.51L16.19 16 39 .16m93.8 38.33c-.11-.27-.2-.54-.33-.79-6.4-12.14-12.84-24.27-19.19-36.43-.61-1.18-1.4-1.2-2.47-1.26a2 2 0 0 0-2.13 1.31Q99.43 19 90.09 36.58c-.33.63-.63 1.27-.91 1.86 2.29.76 3.46-.16 4.37-2.17 1.42-3.1 3.14-6.07 4.69-9.12a1.64 1.64 0 0 1 1.69-1q11 .06 22 0a1.81 1.81 0 0 1 1.89 1.2c1.54 3.05 3.15 6.07 4.73 9.1 1.27 2.44 1.26 2.45 4.25 2.07m3.56-12.71h-2.58a10.37 10.37 0 0 0 6.84 11.65 22 22 0 0 0 9.55 1c7.64-.7 11.51-4.9 11.52-12.58V.15h-2.83v20.03c0 2.64 0 5.29-.11 7.92A8.09 8.09 0 0 1 152 36a18.89 18.89 0 0 1-8.72-.08 8.27 8.27 0 0 1-6.68-7.59c-.09-.82-.13-1.64-.2-2.55" fill="#fff"/><path d="M65.07 38.6c-5.63-.08-10.79-1-15.33-4.08A18.11 18.11 0 0 1 50 3.94c8-5.26 22-5.29 29.91.1 5.75 3.92 8.86 9.42 8.36 16.45-.51 7.18-4.4 12.29-10.77 15.5a28 28 0 0 1-12.43 2.61m-.23-2.06L65 37c3.12-.7 6.37-1.07 9.35-2.17 5.94-2.21 9.9-6.45 11-12.85 1-6.1-1.07-11.23-5.8-15.12C72.21.81 59.05.5 51.38 6c-9.31 6.62-9.61 19.27-.57 26.28 4.11 3.19 8.94 4.22 14 4.3" fill="#231f20"/><path d="M39 .16L16.19 16l24.46 22.52c-2.28.24-4 .14-5.73-1.51-6.49-6.22-13.17-12.25-19.78-18.35l-1.22-1.09C10.36 20 6.85 22.43 3.41 24.91a2.2 2.2 0 0 0-.64 1.6c-.06 3.52 0 7 0 10.56v1.49H0V.13h2.73v22c1.85-1.26 3.49-2.37 5.11-3.49C16 13 24.27 7.33 32.37 1.52 34.4.06 36.4-.11 39 .16m93.8 38.33c-3 .38-3 .37-4.25-2.07-1.58-3-3.19-6.05-4.72-9.1a1.83 1.83 0 0 0-1.9-1.2q-11 .06-22 0a1.62 1.62 0 0 0-1.69 1c-1.55 3.05-3.27 6-4.69 9.12-.91 2-2.08 2.93-4.37 2.17.28-.59.58-1.23.91-1.86Q99.39 19 108.68 1.32A2 2 0 0 1 110.81 0c1.07.05 1.86.07 2.47 1.25 6.35 12.16 12.79 24.29 19.19 36.43.13.25.22.52.33.79M111 2.88c-3.75 7.14-7.38 14.05-11 21.06h22c-3.7-7-7.32-13.94-11.05-21.06m25.41 22.9c.07.91.11 1.73.2 2.55a8.27 8.27 0 0 0 6.68 7.59A18.89 18.89 0 0 0 152 36a8.09 8.09 0 0 0 6.79-7.91c.16-2.63.1-5.28.11-7.92V.15h2.83v25.71c0 7.68-3.88 11.88-11.52 12.58a22 22 0 0 1-9.55-1 10.37 10.37 0 0 1-6.84-11.65z" fill="#231f20"/><path d="M64.84 36.54c-5.09-.08-9.92-1.11-14-4.3-9-7-8.74-19.66.57-26.28C59.05.5 72.21.81 79.48 6.81c4.73 3.89 6.84 9 5.8 15.12-1.08 6.4-5 10.64-11 12.85-3 1.1-6.23 1.47-9.35 2.17zM111 2.88c3.73 7.12 7.35 14 11.05 21.06H99.94c3.67-7 7.3-13.92 11-21.06" fill="#fff"/></g></svg>