<svg xmlns="http://www.w3.org/2000/svg" viewBox="0 0 147.4 76.77"><title>Asset 136vectores-eka.studio</title><g fill="#231f20" data-name="Layer 2"><path d="M5.07 38.38c0-19.26 30.79-34.93 68.63-34.93s68.63 15.67 68.63 34.93-30.79 34.93-68.63 34.93S5.07 57.65 5.07 38.38m142.33 0c0-21.2-33-38.38-73.7-38.38S0 17.18 0 38.38s33 38.39 73.7 38.39 73.7-17.19 73.7-38.39" fill-rule="evenodd"/><path fill-rule="evenodd" d="M23.71 49.18h-5.5V26.19h5.5v8.64h8.47v-8.64h5.49v22.99h-5.49V39.3h-8.47v9.88zm35.73-4.82c-1.34 4.72-5.67 5.44-8.8 5.44-2.23 0-9.1-.49-9.1-9 0-5.78 4-8.94 9.5-8.94 8.23 0 8.66 7.23 8.73 9.27v.91h-13c0 1.62.76 4.41 4.06 4.41a3.34 3.34 0 0 0 3.43-2.1zm-4.9-5.09c-.07-3.59-2.34-4-3.57-4-.67 0-3.67-.07-4.16 4zM68 34.5a7.1 7.1 0 0 1 5.86-2.63c2.3 0 5.67.63 5.67 6.84v10.47h-5.07v-9.65c0-1.64-.16-4.3-2.86-4.3-3.33 0-3.4 3.84-3.4 4.56v9.39h-5.07V32.5H68zm26.49-2h6.09l-6.69 6.57 7.3 10.11h-6.03l-4.74-6.93-1.73 1.74v5.19h-5.06V26.2h5.06v12.64l5.8-6.34zm12.86 6.76c.5-4.1 3.5-4 4.17-4 1.23 0 3.49.45 3.56 4zm7.5 5.1a3.35 3.35 0 0 1-3.43 2.1c-3.3 0-4-2.79-4.07-4.41h13v-.91c-.06-2-.5-9.27-8.73-9.27-5.53 0-9.5 3.16-9.5 8.94 0 8.5 6.87 9 9.1 9 3.13 0 7.46-.72 8.8-5.44z"/><path d="M123.68 26.19h5.06v22.99h-5.06z"/></g></svg>