<svg xmlns="http://www.w3.org/2000/svg" viewBox="0 0 177.27 48.68"><title>Asset 132vectores-eka.studio</title><path d="M24.42 0a24.34 24.34 0 1 0 24.27 24.34A24.29 24.29 0 0 0 24.42 0m16.34 12.72a15.28 15.28 0 0 1-1.35 7.08c-.16.42-.35.84-.57 1.34A47 47 0 0 0 27.36 9.8a17.8 17.8 0 0 1 8.1-2.06 5.17 5.17 0 0 1 5.3 5m-3.65 11.53a2.48 2.48 0 0 1-.17.29A41.47 41.47 0 0 1 24.7 37a.44.44 0 0 1-.57 0A41.52 41.52 0 0 1 11.7 24.7a.51.51 0 0 1 0-.62 41.74 41.74 0 0 1 9.63-10.51c.84-.65 1.72-1.26 2.6-1.84a.44.44 0 0 1 .57 0A41.4 41.4 0 0 1 36.93 24c.07.11.12.22.18.32M24.17 3.13a20.92 20.92 0 0 1 8.27 1.66 26.22 26.22 0 0 0-5.51 1.76c-.82.36-1.62.75-2.39 1.18a.49.49 0 0 1-.55 0 25.5 25.5 0 0 0-8-2.85c1.11-.76 5.19-1.82 8.21-1.8M7.8 12.5a5.07 5.07 0 0 1 4.77-4.57 15.31 15.31 0 0 1 7.25 1.35l1.3.55A47.25 47.25 0 0 0 9.8 21.3a22.62 22.62 0 0 1-1.39-3.45 12.59 12.59 0 0 1-.61-5.35m-.1 12.31a25.74 25.74 0 0 0-2.6 7 9 9 0 0 1-.22.94 20.6 20.6 0 0 1-.1-16.48 26.77 26.77 0 0 0 3 8 .62.62 0 0 1 0 .63M9 39a5.94 5.94 0 0 1-1.13-3.39 17.42 17.42 0 0 1 2-8 46.41 46.41 0 0 0 11.44 11.27A17.75 17.75 0 0 1 13.56 41 5.46 5.46 0 0 1 9 39m7.21 4.89c.43-.09.88-.17 1.31-.27a25.16 25.16 0 0 0 6.34-2.5 1.06 1.06 0 0 1 1.17 0 25.84 25.84 0 0 0 7.69 2.72 20.7 20.7 0 0 1-16.51 0m24.57-7.25A5 5 0 0 1 36 40.78a15.64 15.64 0 0 1-7.07-1.36l-1.34-.57a46.71 46.71 0 0 0 11.27-11.47 20.88 20.88 0 0 1 1.89 5.47 9.52 9.52 0 0 1 0 3.76m2.78-5.49A25.54 25.54 0 0 0 41 24.6a.69.69 0 0 1 0-.72A27.19 27.19 0 0 0 43.8 16a20.58 20.58 0 0 1 .07 16.48c-.11-.45-.2-.91-.31-1.35M69.9 18.2c1.34-2.08 2.64-4.11 3.95-6.13 1.58-2.46 3.17-4.93 4.74-7.4a.71.71 0 0 1 .67-.36h4.85c.36 0 .46.1.46.47v28.91c0 .37-.11.47-.47.46h-4.42c-.44 0-.57-.1-.57-.56V13.31c-.18.06-.22.22-.3.33l-8.6 12.86c-.35.53-.46.53-.8 0L61 13.84l-.37-.54v20.3c0 .45-.13.56-.57.56h-4.38c-.31 0-.42-.08-.42-.41v-29c0-.32.09-.42.42-.42h4.93a.65.65 0 0 1 .62.36q4.17 6.51 8.36 13l.35.51m44.23 16.39A18.59 18.59 0 0 1 101.94 30c-.26-.22-.27-.38 0-.64.92-1.07 1.84-2.15 2.73-3.24.23-.28.37-.26.62-.05a14.71 14.71 0 0 0 5.3 3.07 10.18 10.18 0 0 0 6.34.14 3.3 3.3 0 0 0 2.51-3 2.8 2.8 0 0 0-1.17-2.69A12.17 12.17 0 0 0 114.1 22a45.93 45.93 0 0 1-5.74-1.67 11 11 0 0 1-3.27-1.92 6.94 6.94 0 0 1-2.22-5.09 8.41 8.41 0 0 1 7.08-9 16.25 16.25 0 0 1 13.71 3.17c.28.21.28.37.09.63-.82 1.13-1.64 2.27-2.43 3.42-.2.28-.33.3-.6.09a14.51 14.51 0 0 0-5.4-2.63 8.29 8.29 0 0 0-4.68.13 3.22 3.22 0 0 0-2.29 3.8 2.6 2.6 0 0 0 1.22 1.81 13.44 13.44 0 0 0 4 1.59 44.15 44.15 0 0 1 5.85 1.74 11 11 0 0 1 3.1 1.87 6.88 6.88 0 0 1 2.3 5 8.42 8.42 0 0 1-2.22 6.52 9.75 9.75 0 0 1-5 2.71 16 16 0 0 1-3.4.37M166 3.89a16.76 16.76 0 0 1 10 3.53c.29.22.31.37.09.66-.82 1.12-1.61 2.25-2.4 3.38-.2.29-.33.33-.64.11a14 14 0 0 0-5.84-2.67 8.1 8.1 0 0 0-4.23.23 3.25 3.25 0 0 0-2.21 4.09 2.79 2.79 0 0 0 1.37 1.66 13.92 13.92 0 0 0 3.46 1.36 57.75 57.75 0 0 1 5.74 1.65 12.05 12.05 0 0 1 3.32 1.86c2.14 1.78 2.72 4.15 2.49 6.79-.37 4.16-3.27 6.87-7.26 7.67a17.84 17.84 0 0 1-15-3.67c-1-.76-1-.78-.16-1.73s1.47-1.73 2.19-2.61c.23-.3.39-.31.68-.06a14.48 14.48 0 0 0 5.62 3.15 10.44 10.44 0 0 0 5.68.13 3.5 3.5 0 0 0 2.77-2.71 2.91 2.91 0 0 0-1.39-3.28 15.53 15.53 0 0 0-4.61-1.66 34.35 34.35 0 0 1-5.45-1.68c-3.69-1.59-5.22-4-5-8 .19-3.57 2.14-5.94 5.37-7.33a12.73 12.73 0 0 1 5.36-.9m-25.83 13.45l3.1-4.85c1.66-2.59 3.31-5.17 4.95-7.77a.73.73 0 0 1 .7-.38h5.26c.13 0 .31-.06.39.06s-.07.28-.15.4c-3.58 5.42-7.14 10.85-10.75 16.24a4.51 4.51 0 0 0-.83 2.72c.06 3.29 0 6.58 0 9.87 0 .42-.1.55-.53.54h-4.47c-.43 0-.51-.13-.5-.52V22.79a1.25 1.25 0 0 0-.21-.73q-5.67-8.62-11.31-17.25c-.09-.13-.29-.26-.17-.44s.28-.06.43-.06h5.4a.68.68 0 0 1 .66.37q3.83 6.08 7.67 12.14l.32.49m-43.25 1.91V33.6c0 .46-.13.56-.56.55H91.8c-.32 0-.43-.08-.43-.41v-29c0-.36.11-.44.45-.44h4.47c.41 0 .54.09.54.53v14.38m47.91 20.01c1.33-.07 1.33-.07 1.71 1.1l1.2 3.72a.46.46 0 0 0 .15.28c.53-1.6 1.09-3.19 1.58-4.8.16-.52.53-.27.81-.33s.42.07.52.36c.5 1.59 1 3.17 1.59 4.87l1.18-3.66c.13-.42.29-.84.4-1.27.06-.2.14-.31.37-.29s.68 0 1.06 0c-.33 1-.65 1.91-1 2.84-.46 1.34-.94 2.66-1.37 4-.16.49-.51.26-.79.31a.42.42 0 0 1-.55-.32c-.47-1.44-1-2.87-1.46-4.3l-.15-.38-1.14 3.3a10.18 10.18 0 0 0-.39 1.18c-.1.47-.33.59-.79.57s-.54-.1-.66-.46c-.7-2.09-1.43-4.17-2.15-6.25 0-.14-.09-.29-.14-.47M70 44.1v-4.37c0-.38.09-.51.48-.49.79 0 .79 0 .79.8v5.85c0 .35-.07.47-.45.48a1.1 1.1 0 0 1-1-.51c-1.06-1.41-2.16-2.8-3.24-4.19l-.25-.3v4.54c0 .37-.1.46-.46.45-.8 0-.81 0-.81-.81v-5.9c0-.32.1-.39.41-.42a1.27 1.27 0 0 1 1.26.6c1 1.41 2.13 2.77 3.29 4.27m12.37-2.62a.63.63 0 0 0-.08.47v3.92c0 .37-.07.51-.47.49-.78 0-.78 0-.78-.8v-5.81c0-.38.06-.52.49-.52a1.22 1.22 0 0 1 1.13.57c1 1.35 2.06 2.67 3.1 4l.14.18a.63.63 0 0 0 .08-.47v-3.87c0-.33.07-.45.43-.44.83 0 .83 0 .83.81v5.9c0 .31 0 .44-.41.45a1.11 1.11 0 0 1-1-.5c-1-1.35-2.06-2.68-3.1-4-.09-.13-.2-.25-.31-.38M168 43.92c-.13-.17-.22-.27.08-.41a2.11 2.11 0 0 0 1.35-2.45 2 2 0 0 0-1.89-1.78 30.1 30.1 0 0 0-3.68-.08c-.2 0-.22.09-.22.25v6.61c0 .12 0 .25.17.25a2.71 2.71 0 0 0 1-.07c.19-.08 0-.5.06-.78s0-.49 0-.73c0-.9 0-.87.91-.91a1 1 0 0 1 1 .53c.18.32.47.59.62.92a1.71 1.71 0 0 0 2.06 1h.11v-.06L168 43.92m-.7-1.29a3.7 3.7 0 0 1-1.24 0c-.36 0-.85.14-1.06 0s-.07-.72-.08-1.1-.17-.88.06-1.1.75-.07 1.15-.07a6.15 6.15 0 0 1 1 0 1 1 0 0 1 1 1 1.08 1.08 0 0 1-.85 1.23m-40.41-3.49a3.67 3.67 0 1 0 3.72 3.62 3.58 3.58 0 0 0-3.72-3.62m0 6.18a2.41 2.41 0 0 1-2.36-2.62 2.36 2.36 0 0 1 2.37-2.4 2.41 2.41 0 0 1 2.37 2.57 2.36 2.36 0 0 1-2.38 2.45M171 42.76v-3.18c0-.3.07-.39.38-.38h4.52c.33 0 .45.09.4.41a1.15 1.15 0 0 0 0 .37c0 .3-.08.36-.36.36h-3.23c-.38 0-.48.11-.45.46a5.79 5.79 0 0 1 0 1c0 .27.06.37.36.36h2.81c.31 0 .46.06.41.4a.45.45 0 0 0 0 .23c.06.39-.07.53-.49.51h-2.72c-.28 0-.39.07-.37.36a8 8 0 0 1 0 1.2c0 .29.09.36.37.36h3.27c.34 0 .49.08.43.43a1.15 1.15 0 0 0 0 .37c0 .25-.05.34-.32.34h-4.66c-.3 0-.35-.1-.35-.37v-3.18m-8.62 3.29c-1-2.23-2-4.45-2.93-6.69a.35.35 0 0 0-.41-.25 3.35 3.35 0 0 1-.55 0c-.27 0-.39.09-.48.32-.19.49-.41 1-.62 1.43-.77 1.79-1.55 3.56-2.35 5.38 1.28.08 1.28.08 1.75-1a2.68 2.68 0 0 0 .12-.3.46.46 0 0 1 .54-.37 18.12 18.12 0 0 0 2.21 0 .89.89 0 0 1 1 .68c.41 1.13.44 1.12 1.65 1h.06a1.43 1.43 0 0 0 0-.16m-4.83-2.67l1.17-2.73c.42.95.8 1.82 1.19 2.73zM79.7 46c-.88-2-1.75-4-2.63-6-.34-.78-.34-.77-1.19-.77a.4.4 0 0 0-.44.29c-.25.61-.53 1.21-.79 1.81q-1 2.36-2.05 4.72c0 .09-.3.3.06.35.86.15 1.07 0 1.41-.76.09-.21.19-.41.26-.63a.41.41 0 0 1 .47-.32 22.26 22.26 0 0 0 2.31 0 .84.84 0 0 1 1 .66c.43 1.13.46 1.12 1.76 1-.07-.15-.12-.26-.16-.36M77 43.52h-2.07l1.2-2.79 1.1 2.54c.09.22 0 .26-.19.25m26.69-3.62a.94.94 0 0 0-1.14-.72.54.54 0 0 0-.54.35c-.58 1.41-1.2 2.79-1.8 4.17-.38.86-.75 1.72-1.14 2.62a8 8 0 0 1 .86 0 .52.52 0 0 0 .62-.39c.1-.35.29-.68.41-1a.4.4 0 0 1 .45-.28h2.29a.85.85 0 0 1 1 .64c.42 1.13.45 1.12 1.65 1.05h.1c-.93-2.14-1.88-4.24-2.77-6.38m0 3.6h-1.89c-.3 0-.19-.16-.13-.29.34-.81.69-1.61 1.06-2.49.39.89.75 1.7 1.1 2.52.08.15.08.26-.14.26m15.83 2.85a4.31 4.31 0 0 1-2.77-.9c-.2-.15-.28-.28-.06-.46l.06-.07c.46-.57.46-.57 1.06-.19a3 3 0 0 0 1.88.5 1.31 1.31 0 0 0 .69-.22.78.78 0 0 0 0-1.34 4.45 4.45 0 0 0-1.08-.37 11.52 11.52 0 0 1-1.14-.35 1.77 1.77 0 0 1-1.34-1.81 1.93 1.93 0 0 1 1.32-1.87 3.75 3.75 0 0 1 3.54.55c.12.09.17.17.06.29a1 1 0 0 1-.08.11c-.44.66-.43.65-1.13.31a2.38 2.38 0 0 0-1.73-.28.81.81 0 0 0-.7.75.75.75 0 0 0 .57.79c.42.15.85.27 1.27.39a6.11 6.11 0 0 1 1 .37 1.73 1.73 0 0 1 1.03 1.63 1.94 1.94 0 0 1-1 1.85 2.6 2.6 0 0 1-1.43.32m-26.65-7.3A3.61 3.61 0 0 1 95 40c.16.14.21.22 0 .39s-.34.52-.59.63-.46-.25-.69-.39a2.36 2.36 0 0 0-3.12.46 2.73 2.73 0 0 0 .12 3.44 2.35 2.35 0 0 0 3.1.27c.21-.11.38-.45.57-.37s.45.41.67.62 0 .24-.08.33a3.66 3.66 0 0 1-3.7.93 3.34 3.34 0 0 1-2.51-2.68c-.53-2.45 1.16-4.54 4.1-4.53m39.2 3.66v-3.18c0-.28.06-.37.36-.37h4.56c.32 0 .41.1.4.41 0 .79 0 .79-.77.79h-2.81c-.4 0-.5.11-.46.48a4.71 4.71 0 0 1 0 .92c0 .37.06.51.46.49h2.72c.29 0 .4.05.4.37 0 .82 0 .82-.82.82h-2.21c-.43 0-.59.06-.56.53v2c0 .26 0 .38-.35.38-.91 0-.91 0-.92-.9v-2.74zm-76.84.02V39.6c0-.29.08-.36.36-.36h4.52c.33 0 .42.09.41.41 0 .75 0 .75-.74.75h-2.9c-.27 0-.4 0-.37.34 0 .52-.21 1.19.11 1.5s.93.08 1.42.08h1.66c.3 0 .36.08.36.36 0 .78 0 .78-.76.78h-2.35c-.34 0-.46.07-.44.43v2.12c0 .29-.09.36-.37.36-.91 0-.91 0-.91-.9zm85.23.56v-2.63c0-.26-.08-.34-.34-.33h-1.61c-.24 0-.32-.07-.33-.31 0-.88 0-.88.85-.88h4.52c.31 0 .43 0 .42.39 0 .8 0 .79-.8.8-.47 0-1.09-.2-1.36.09s-.08.87-.08 1.33v4.06c0 .32 0 .46-.41.45-.87 0-.87 0-.87-.86zm-32.75-.56V39.6c0-.29.06-.39.37-.39.91 0 .91 0 .91.9v4.66c0 .35.11.43.44.42h2.91c.3 0 .38.08.37.38 0 .76 0 .76-.77.76h-3.78c-.38 0-.45-.12-.44-.46v-3.09m-9.87.03v3.12c0 .28 0 .4-.36.4-.92 0-.92 0-.92-.9v-5.75c0-.34.06-.49.45-.47.83 0 .84 0 .84.84zm-34.67-.02v3.13c0 .34-.07.45-.43.44-.81 0-.81 0-.81-.83 0-1.93 0-3.86-.05-5.8 0-.42.13-.51.52-.49.76 0 .76 0 .76.74z" fill="#231f20" data-name="Layer 2"/></svg>