<svg xmlns="http://www.w3.org/2000/svg" viewBox="0 0 164.67 46.33"><title>Asset 134vectores-eka.studio</title><g data-name="Layer 2"><path d="M8.38 9.55s13.84-4.73 17.91-1.11c0 0 9 10-6 20.62 0 0-17.36 5-19-12.26 0 0-5.15 13.65 12.21 16.16 0 0 12.21.84 18.45-13.93l1.9-.56s0 5.6 4.73 3.66c.22-.09.45-.19.69-.31a10.3 10.3 0 0 0 6.78-9.76h3l-1.63 6.69-.27 1.67 7.35-7.52v7s3 1.95 2.72-4.74c0 0 4.88-9.48-4.62-2.51V9.83h-7.32s-7.87-1.39-11.39 5.3l-.28.83-1.08-.27S36.6 6.21 23.58 4c0 0-13.58 1.1-15.2 5.55" fill="#231f20"/><path d="M8.38 9.55s13.84-4.73 17.91-1.11c0 0 9 10-6 20.62 0 0-17.36 5-19-12.26 0 0-5.15 13.65 12.21 16.16 0 0 12.21.84 18.45-13.93l1.9-.56s0 5.6 4.73 3.66c.22-.09.45-.19.69-.31a10.3 10.3 0 0 0 6.78-9.76h3l-1.63 6.69-.27 1.67 7.35-7.52v7s3 1.95 2.72-4.74c0 0 4.88-9.48-4.62-2.51V9.83h-7.32s-7.87-1.39-11.39 5.3l-.28.83-1.08-.27S36.6 6.21 23.58 4c0 0-13.58 1.1-15.2 5.55z" fill="none" stroke="#231f20" stroke-width="1.23"/><path fill="#231f20" d="M17.88 10.11l-2.99 10.87 4.07-2.79 1.63-8.36-2.71.28z"/><path fill="none" stroke="#231f20" stroke-width="1.23" d="M17.88 10.11l-2.99 10.87 4.07-2.79 1.63-8.36-2.71.28z"/><path d="M40.4 12.06s-5.7.56-4.62 7c0 0 .82 3.34 5.16.28 0 0 5.42-7.25-.54-7.25" fill="#fff"/><path d="M40.4 12.06s-5.7.56-4.62 7c0 0 .82 3.34 5.16.28 0-.03 5.42-7.28-.54-7.28z" fill="none" stroke="#231f20" stroke-width="1.23"/><path fill="#231f20" d="M76.16 6.02l-2.78 1.9-3.46 12.59 3.69-2.14 2.55-12.35z"/><path fill="none" stroke="#231f20" stroke-width="1.23" d="M76.16 6.02l-2.78 1.9-3.46 12.59 3.69-2.14 2.55-12.35z"/><path d="M71.76 4.12S79.17-1.11 88.19 2c0 0 5.55 6.41-6.71 10.69v19s-.69 9.74 8.33 11.88c0 0 3.93 2.37-2.78 2.14 0 0-9.94-.72-9-18.3v-14s11.34-5.23 8.1-8.08c0 0-.93-5.46-14.35-1.18" fill="#231f20"/><path d="M71.76 4.12S79.17-1.11 88.19 2c0 0 5.55 6.41-6.71 10.69v19s-.69 9.74 8.33 11.88c0 0 3.93 2.37-2.78 2.14 0 0-9.94-.72-9-18.3v-14s11.34-5.23 8.1-8.08c-.02-.03-.95-5.49-14.37-1.21z" fill="none" stroke="#231f20" stroke-width="1.23"/><path d="M93.05 8.39s-6.71 7.37-4.63 13.55c0 0-.23 4.75 7.4-6.18 0 0 2.09-2.85 1.16 1.9 0 0-2.78 7.36 3.47-.48l5.09-4-.23 6.17v1.19l7.86-7.84-.69 5.94-.23 1.19 8.1-7.13-1.16 7.3s-.19 1.22 5.81-3.29c0 0 1.39-2.38 1.62 1.19 0 0 1.16 4.75 8.56-.48 0 0 4.86-2.61 4.86-8.08 0 0 6.24-1.9 4.16 2.62 0 0-6 13.06 1.16 4.75l5.78-5.94s2.78-1.19-.46 5.7c0 0 0 5.7 11.1.71 0 0 6.48-7.36-2.31-.95 0 0-6.48 4.28-4.39-4 0 0 4.39-8.55-2.09-4a13.61 13.61 0 0 1-4.85 2.38c-3.24 1 .46-.71.46-.71s1.4-4.6-3.27-2.22a11.89 11.89 0 0 1-7.17-1.19s-3.24-1-7.4 2.38c0 0-8.33 11.88-7.41 3.09 0 0 4.31-6-3.29-1.27l-.87.55s-6 6.89-2.78-1.9a13.64 13.64 0 0 0-6.94 3.57V9.34s-3.93.24-7.86 4.28l1.15-5s-7.17-.71-9.71-.24" fill="#231f20"/><path d="M93.05 8.39s-6.71 7.37-4.63 13.55c0 0-.23 4.75 7.4-6.18 0 0 2.09-2.85 1.16 1.9 0 0-2.78 7.36 3.47-.48l5.09-4-.23 6.17v1.19l7.86-7.84-.69 5.94-.23 1.19 8.1-7.13-1.16 7.3s-.19 1.22 5.81-3.29c0 0 1.39-2.38 1.62 1.19 0 0 1.16 4.75 8.56-.48 0 0 4.86-2.61 4.86-8.08 0 0 6.24-1.9 4.16 2.62 0 0-6 13.06 1.16 4.75l5.78-5.94s2.78-1.19-.46 5.7c0 0 0 5.7 11.1.71 0 0 6.48-7.36-2.31-.95 0 0-6.48 4.28-4.39-4 0 0 4.39-8.55-2.09-4a13.61 13.61 0 0 1-4.85 2.38c-3.24 1 .46-.71.46-.71s1.4-4.6-3.27-2.22a11.89 11.89 0 0 1-7.17-1.19s-3.24-1-7.4 2.38c0 0-8.33 11.88-7.41 3.09 0 0 4.31-6-3.29-1.27l-.87.55s-6 6.89-2.78-1.9a13.64 13.64 0 0 0-6.94 3.57V9.34s-3.93.24-7.86 4.28l1.15-5s-7.17-.7-9.71-.23z" fill="none" stroke="#231f20" stroke-width="1.23"/><path d="M93.74 11s-4.39 4-3.47 6.89c0 0 1.16-.24 5.09-3.8 0 0 4.63-3.81-1.62-3.09" fill="#fff"/><path d="M93.74 11s-4.39 4-3.47 6.89c0 0 1.16-.24 5.09-3.8 0 .01 4.64-3.8-1.62-3.09z" fill="none" stroke="#231f20" stroke-width="1.23"/><path d="M134.46 8.87s-4.4 1.19-5.32 6.89c0 0-.7 4.51 5.55.24 0 0 3.7-6.66-.23-7.13" fill="#fff"/><path d="M134.46 8.87s-4.4 1.19-5.32 6.89c0 0-.7 4.51 5.55.24 0 0 3.7-6.66-.23-7.13z" fill="none" stroke="#231f20" stroke-width="1.23"/><path d="M77.39 31.6S33.59 35.08 29 39.2l.31 2.54s30.53-7.29 48.11-7.29z" fill="#231f20"/><path d="M77.39 31.6S33.59 35.08 29 39.2l.31 2.54s30.53-7.29 48.11-7.29z" fill="none" stroke="#231f20" stroke-width="1.23"/><path d="M81.48 31.68s45-.71 65.31 7.21c0 0 3.4 2.53-1.54 2.85 0 0-25.29-7-63.54-7.61L81.09 31" fill="#231f20"/><path d="M81.48 31.68s45-.71 65.31 7.21c0 0 3.4 2.53-1.54 2.85 0 0-25.29-7-63.54-7.61L81.09 31" fill="none" stroke="#231f20" stroke-width="1.23"/><path fill="#231f20" d="M137.05 5.12L141.8 1l.65 1.45-3.93 3.09-1.47-.42z"/><path fill="none" stroke="#231f20" stroke-width="1.23" d="M137.05 5.12L141.8 1l.65 1.45-3.93 3.09-1.47-.42z"/></g></svg>